%TF.GenerationSoftware,KiCad,Pcbnew,(5.1.8)-1*%
%TF.CreationDate,2021-05-23T21:47:53+08:00*%
%TF.ProjectId,only_ccd,6f6e6c79-5f63-4636-942e-6b696361645f,rev?*%
%TF.SameCoordinates,Original*%
%TF.FileFunction,Soldermask,Top*%
%TF.FilePolarity,Negative*%
%FSLAX46Y46*%
G04 Gerber Fmt 4.6, Leading zero omitted, Abs format (unit mm)*
G04 Created by KiCad (PCBNEW (5.1.8)-1) date 2021-05-23 21:47:53*
%MOMM*%
%LPD*%
G01*
G04 APERTURE LIST*
%ADD10R,1.800000X1.600000*%
%ADD11O,1.800000X1.600000*%
%ADD12R,0.700000X1.250000*%
%ADD13R,1.600000X0.300000*%
%ADD14R,0.980000X0.930000*%
%ADD15R,1.220000X1.220000*%
%ADD16C,1.220000*%
%ADD17R,0.930000X0.980000*%
%ADD18C,0.800000*%
G04 APERTURE END LIST*
D10*
%TO.C,J2*%
X113538000Y-102235000D03*
D11*
X113538000Y-104775000D03*
X113538000Y-107315000D03*
X113538000Y-109855000D03*
%TD*%
D12*
%TO.C,U3*%
X116713000Y-95905000D03*
X117663000Y-98405000D03*
X115763000Y-98405000D03*
%TD*%
D13*
%TO.C,U2*%
X120953000Y-87544000D03*
X120953000Y-88194000D03*
X120953000Y-88844000D03*
X120953000Y-89494000D03*
X117553000Y-89494000D03*
X117553000Y-88844000D03*
X117553000Y-88194000D03*
X117553000Y-87544000D03*
%TD*%
D14*
%TO.C,R6*%
X117602000Y-107561000D03*
X117602000Y-109101000D03*
%TD*%
D10*
%TO.C,J1*%
X113538000Y-112903000D03*
D11*
X113538000Y-115443000D03*
X113538000Y-117983000D03*
X113538000Y-120523000D03*
%TD*%
D15*
%TO.C,IC1*%
X124714000Y-90424000D03*
D16*
X124714000Y-92964000D03*
X124714000Y-95504000D03*
X124714000Y-98044000D03*
X124714000Y-100584000D03*
X124714000Y-103124000D03*
X124714000Y-105664000D03*
X124714000Y-108204000D03*
X124714000Y-110744000D03*
X124714000Y-113284000D03*
X124714000Y-115824000D03*
X134874000Y-115824000D03*
X134874000Y-113284000D03*
X134874000Y-110744000D03*
X134874000Y-108204000D03*
X134874000Y-105664000D03*
X134874000Y-103124000D03*
X134874000Y-100584000D03*
X134874000Y-98044000D03*
X134874000Y-95504000D03*
X134874000Y-92964000D03*
X134874000Y-90424000D03*
%TD*%
D17*
%TO.C,C16*%
X113784000Y-91821000D03*
X115324000Y-91821000D03*
%TD*%
D18*
X113784000Y-91821000D03*
X114770800Y-99664200D03*
X116713000Y-94679700D03*
M02*
