%TF.GenerationSoftware,KiCad,Pcbnew,(5.1.8)-1*%
%TF.CreationDate,2021-05-23T21:47:53+08:00*%
%TF.ProjectId,only_ccd,6f6e6c79-5f63-4636-942e-6b696361645f,rev?*%
%TF.SameCoordinates,Original*%
%TF.FileFunction,Copper,L2,Bot*%
%TF.FilePolarity,Positive*%
%FSLAX46Y46*%
G04 Gerber Fmt 4.6, Leading zero omitted, Abs format (unit mm)*
G04 Created by KiCad (PCBNEW (5.1.8)-1) date 2021-05-23 21:47:53*
%MOMM*%
%LPD*%
G01*
G04 APERTURE LIST*
%TA.AperFunction,ComponentPad*%
%ADD10R,1.800000X1.600000*%
%TD*%
%TA.AperFunction,ComponentPad*%
%ADD11O,1.800000X1.600000*%
%TD*%
%TA.AperFunction,SMDPad,CuDef*%
%ADD12R,0.930000X0.980000*%
%TD*%
%TA.AperFunction,ComponentPad*%
%ADD13R,1.220000X1.220000*%
%TD*%
%TA.AperFunction,ComponentPad*%
%ADD14C,1.220000*%
%TD*%
%TA.AperFunction,ViaPad*%
%ADD15C,0.800000*%
%TD*%
%TA.AperFunction,Conductor*%
%ADD16C,0.250000*%
%TD*%
%TA.AperFunction,Conductor*%
%ADD17C,0.762000*%
%TD*%
G04 APERTURE END LIST*
D10*
%TO.P,J2,1*%
%TO.N,GND*%
X113538000Y-102235000D03*
D11*
%TO.P,J2,2*%
X113538000Y-104775000D03*
%TO.P,J2,3*%
%TO.N,/ADC_in*%
X113538000Y-107315000D03*
%TO.P,J2,4*%
%TO.N,/3v3*%
X113538000Y-109855000D03*
%TD*%
D12*
%TO.P,R7,2*%
%TO.N,GND*%
X113530000Y-95631000D03*
%TO.P,R7,1*%
%TO.N,Net-(R7-Pad1)*%
X115070000Y-95631000D03*
%TD*%
%TO.P,R5,2*%
%TO.N,Net-(R5-Pad2)*%
X115451000Y-98552000D03*
%TO.P,R5,1*%
%TO.N,Net-(IC1-Pad21)*%
X113911000Y-98552000D03*
%TD*%
D10*
%TO.P,J1,1*%
%TO.N,/ICG*%
X113538000Y-112903000D03*
D11*
%TO.P,J1,2*%
%TO.N,/SH*%
X113538000Y-115443000D03*
%TO.P,J1,3*%
%TO.N,/M*%
X113538000Y-117983000D03*
%TO.P,J1,4*%
%TO.N,GND*%
X113538000Y-120523000D03*
%TD*%
D13*
%TO.P,IC1,1*%
%TO.N,/3v3*%
X124714000Y-90424000D03*
D14*
%TO.P,IC1,2*%
X124714000Y-92964000D03*
%TO.P,IC1,3*%
%TO.N,Net-(IC1-Pad3)*%
X124714000Y-95504000D03*
%TO.P,IC1,4*%
%TO.N,Net-(IC1-Pad4)*%
X124714000Y-98044000D03*
%TO.P,IC1,5*%
%TO.N,Net-(IC1-Pad5)*%
X124714000Y-100584000D03*
%TO.P,IC1,6*%
%TO.N,GND*%
X124714000Y-103124000D03*
%TO.P,IC1,7*%
X124714000Y-105664000D03*
%TO.P,IC1,8*%
X124714000Y-108204000D03*
%TO.P,IC1,9*%
X124714000Y-110744000D03*
%TO.P,IC1,10*%
X124714000Y-113284000D03*
%TO.P,IC1,11*%
X124714000Y-115824000D03*
%TO.P,IC1,12*%
X134874000Y-115824000D03*
%TO.P,IC1,13*%
X134874000Y-113284000D03*
%TO.P,IC1,14*%
X134874000Y-110744000D03*
%TO.P,IC1,15*%
X134874000Y-108204000D03*
%TO.P,IC1,16*%
X134874000Y-105664000D03*
%TO.P,IC1,17*%
X134874000Y-103124000D03*
%TO.P,IC1,18*%
X134874000Y-100584000D03*
%TO.P,IC1,19*%
X134874000Y-98044000D03*
%TO.P,IC1,20*%
X134874000Y-95504000D03*
%TO.P,IC1,21*%
%TO.N,Net-(IC1-Pad21)*%
X134874000Y-92964000D03*
%TO.P,IC1,22*%
%TO.N,GND*%
X134874000Y-90424000D03*
%TD*%
D15*
%TO.N,GND*%
X113784000Y-91821000D03*
%TO.N,Net-(R5-Pad2)*%
X114770800Y-99664200D03*
%TO.N,Net-(R7-Pad1)*%
X116713000Y-94679700D03*
%TD*%
D16*
%TO.N,GND*%
X113530000Y-95631000D02*
X113530000Y-96446300D01*
X113538000Y-102235000D02*
X113538000Y-101109700D01*
X113538000Y-101109700D02*
X113120600Y-100692300D01*
X113120600Y-100692300D02*
X113120600Y-96855700D01*
X113120600Y-96855700D02*
X113530000Y-96446300D01*
X124714000Y-105664000D02*
X124477700Y-105900300D01*
D17*
X114427000Y-105664000D02*
X113538000Y-104775000D01*
X124714000Y-105664000D02*
X114427000Y-105664000D01*
X113538000Y-104775000D02*
X113538000Y-102235000D01*
X113530000Y-92075000D02*
X113784000Y-91821000D01*
X113530000Y-95631000D02*
X113530000Y-92075000D01*
D16*
%TO.N,Net-(IC1-Pad21)*%
X134874000Y-92964000D02*
X131391600Y-96446400D01*
X131391600Y-96446400D02*
X116016600Y-96446400D01*
X116016600Y-96446400D02*
X113911000Y-98552000D01*
%TO.N,Net-(R5-Pad2)*%
X115451000Y-98552000D02*
X115451000Y-99367300D01*
X115451000Y-99367300D02*
X115067700Y-99367300D01*
X115067700Y-99367300D02*
X114770800Y-99664200D01*
%TO.N,Net-(R7-Pad1)*%
X115070000Y-95631000D02*
X115860300Y-95631000D01*
X115860300Y-95631000D02*
X115860300Y-95532400D01*
X115860300Y-95532400D02*
X116713000Y-94679700D01*
%TD*%
M02*
