%TF.GenerationSoftware,KiCad,Pcbnew,(5.1.8)-1*%
%TF.CreationDate,2021-05-15T14:33:14+08:00*%
%TF.ProjectId,ccd_with_stm32,6363645f-7769-4746-985f-73746d33322e,rev?*%
%TF.SameCoordinates,Original*%
%TF.FileFunction,Legend,Bot*%
%TF.FilePolarity,Positive*%
%FSLAX46Y46*%
G04 Gerber Fmt 4.6, Leading zero omitted, Abs format (unit mm)*
G04 Created by KiCad (PCBNEW (5.1.8)-1) date 2021-05-15 14:33:14*
%MOMM*%
%LPD*%
G01*
G04 APERTURE LIST*
%ADD10C,0.120000*%
%ADD11C,0.200000*%
%ADD12C,0.150000*%
%ADD13C,0.254000*%
G04 APERTURE END LIST*
D10*
%TO.C,U2*%
X84733000Y-117451000D02*
X87733000Y-117451000D01*
X84733000Y-114451000D02*
X88733000Y-114451000D01*
D11*
%TO.C,R3*%
X101374000Y-113684000D02*
X101374000Y-114819000D01*
X101374000Y-111749000D02*
X101374000Y-112884000D01*
X99794000Y-113684000D02*
X99794000Y-114819000D01*
X101374000Y-111749000D02*
X99794000Y-111749000D01*
X101374000Y-114819000D02*
X99794000Y-114819000D01*
X99794000Y-111749000D02*
X99794000Y-112884000D01*
%TO.C,R2*%
X95437000Y-115700000D02*
X96587000Y-115700000D01*
X95437000Y-113750000D02*
X96587000Y-113750000D01*
X96587000Y-115700000D02*
X96587000Y-115025000D01*
X96587000Y-114425000D02*
X96587000Y-113750000D01*
X95437000Y-115700000D02*
X95437000Y-115025000D01*
X95437000Y-114425000D02*
X95437000Y-113750000D01*
%TO.C,IC1*%
X72114000Y-103283000D02*
X82064000Y-103283000D01*
X71399000Y-145383000D02*
X82064000Y-145383000D01*
%TO.C,C15*%
X97127000Y-141978000D02*
G75*
G03*
X97527000Y-142378000I400000J0D01*
G01*
X98307000Y-142378000D02*
G75*
G03*
X98707000Y-141978000I0J400000D01*
G01*
X98707000Y-139708000D02*
G75*
G03*
X98307000Y-139308000I-400000J0D01*
G01*
X97527000Y-139308000D02*
G75*
G03*
X97127000Y-139708000I0J-400000D01*
G01*
X98707000Y-139708000D02*
X98707000Y-140443000D01*
X98707000Y-141243000D02*
X98707000Y-141978000D01*
X97127000Y-141243000D02*
X97127000Y-141978000D01*
X98307000Y-139308000D02*
X97527000Y-139308000D01*
X98307000Y-142378000D02*
X97527000Y-142378000D01*
X97127000Y-139708000D02*
X97127000Y-140443000D01*
%TO.C,C14*%
X96802000Y-115705000D02*
G75*
G03*
X96402000Y-115305000I-400000J0D01*
G01*
X95622000Y-115305000D02*
G75*
G03*
X95222000Y-115705000I0J-400000D01*
G01*
X95222000Y-117975000D02*
G75*
G03*
X95622000Y-118375000I400000J0D01*
G01*
X96402000Y-118375000D02*
G75*
G03*
X96802000Y-117975000I0J400000D01*
G01*
X95222000Y-117975000D02*
X95222000Y-117240000D01*
X95222000Y-116440000D02*
X95222000Y-115705000D01*
X96802000Y-116440000D02*
X96802000Y-115705000D01*
X95622000Y-118375000D02*
X96402000Y-118375000D01*
X95622000Y-115305000D02*
X96402000Y-115305000D01*
X96802000Y-117975000D02*
X96802000Y-117240000D01*
%TO.C,C13*%
X99215000Y-107958000D02*
G75*
G03*
X98815000Y-107558000I-400000J0D01*
G01*
X98035000Y-107558000D02*
G75*
G03*
X97635000Y-107958000I0J-400000D01*
G01*
X97635000Y-110228000D02*
G75*
G03*
X98035000Y-110628000I400000J0D01*
G01*
X98815000Y-110628000D02*
G75*
G03*
X99215000Y-110228000I0J400000D01*
G01*
X97635000Y-110228000D02*
X97635000Y-109493000D01*
X97635000Y-108693000D02*
X97635000Y-107958000D01*
X99215000Y-108693000D02*
X99215000Y-107958000D01*
X98035000Y-110628000D02*
X98815000Y-110628000D01*
X98035000Y-107558000D02*
X98815000Y-107558000D01*
X99215000Y-110228000D02*
X99215000Y-109493000D01*
%TO.C,C12*%
X99088000Y-135390000D02*
G75*
G03*
X98688000Y-134990000I-400000J0D01*
G01*
X97908000Y-134990000D02*
G75*
G03*
X97508000Y-135390000I0J-400000D01*
G01*
X97508000Y-137660000D02*
G75*
G03*
X97908000Y-138060000I400000J0D01*
G01*
X98688000Y-138060000D02*
G75*
G03*
X99088000Y-137660000I0J400000D01*
G01*
X97508000Y-137660000D02*
X97508000Y-136925000D01*
X97508000Y-136125000D02*
X97508000Y-135390000D01*
X99088000Y-136125000D02*
X99088000Y-135390000D01*
X97908000Y-138060000D02*
X98688000Y-138060000D01*
X97908000Y-134990000D02*
X98688000Y-134990000D01*
X99088000Y-137660000D02*
X99088000Y-136925000D01*
%TO.C,C11*%
X101846000Y-107597000D02*
G75*
G03*
X102246000Y-107197000I0J400000D01*
G01*
X102246000Y-106417000D02*
G75*
G03*
X101846000Y-106017000I-400000J0D01*
G01*
X99576000Y-106017000D02*
G75*
G03*
X99176000Y-106417000I0J-400000D01*
G01*
X99176000Y-107197000D02*
G75*
G03*
X99576000Y-107597000I400000J0D01*
G01*
X99576000Y-106017000D02*
X100311000Y-106017000D01*
X101111000Y-106017000D02*
X101846000Y-106017000D01*
X101111000Y-107597000D02*
X101846000Y-107597000D01*
X99176000Y-106417000D02*
X99176000Y-107197000D01*
X102246000Y-106417000D02*
X102246000Y-107197000D01*
X99576000Y-107597000D02*
X100311000Y-107597000D01*
%TO.C,C9*%
X111752000Y-110010000D02*
G75*
G03*
X112152000Y-109610000I0J400000D01*
G01*
X112152000Y-108830000D02*
G75*
G03*
X111752000Y-108430000I-400000J0D01*
G01*
X109482000Y-108430000D02*
G75*
G03*
X109082000Y-108830000I0J-400000D01*
G01*
X109082000Y-109610000D02*
G75*
G03*
X109482000Y-110010000I400000J0D01*
G01*
X109482000Y-108430000D02*
X110217000Y-108430000D01*
X111017000Y-108430000D02*
X111752000Y-108430000D01*
X111017000Y-110010000D02*
X111752000Y-110010000D01*
X109082000Y-108830000D02*
X109082000Y-109610000D01*
X112152000Y-108830000D02*
X112152000Y-109610000D01*
X109482000Y-110010000D02*
X110217000Y-110010000D01*
%TO.C,C8*%
X107160000Y-124833000D02*
G75*
G03*
X107560000Y-125233000I400000J0D01*
G01*
X108340000Y-125233000D02*
G75*
G03*
X108740000Y-124833000I0J400000D01*
G01*
X108740000Y-122563000D02*
G75*
G03*
X108340000Y-122163000I-400000J0D01*
G01*
X107560000Y-122163000D02*
G75*
G03*
X107160000Y-122563000I0J-400000D01*
G01*
X108740000Y-122563000D02*
X108740000Y-123298000D01*
X108740000Y-124098000D02*
X108740000Y-124833000D01*
X107160000Y-124098000D02*
X107160000Y-124833000D01*
X108340000Y-122163000D02*
X107560000Y-122163000D01*
X108340000Y-125233000D02*
X107560000Y-125233000D01*
X107160000Y-122563000D02*
X107160000Y-123298000D01*
%TO.C,C6*%
X99957000Y-124051000D02*
G75*
G03*
X99557000Y-124451000I0J-400000D01*
G01*
X99557000Y-125231000D02*
G75*
G03*
X99957000Y-125631000I400000J0D01*
G01*
X102227000Y-125631000D02*
G75*
G03*
X102627000Y-125231000I0J400000D01*
G01*
X102627000Y-124451000D02*
G75*
G03*
X102227000Y-124051000I-400000J0D01*
G01*
X102227000Y-125631000D02*
X101492000Y-125631000D01*
X100692000Y-125631000D02*
X99957000Y-125631000D01*
X100692000Y-124051000D02*
X99957000Y-124051000D01*
X102627000Y-125231000D02*
X102627000Y-124451000D01*
X99557000Y-125231000D02*
X99557000Y-124451000D01*
X102227000Y-124051000D02*
X101492000Y-124051000D01*
%TO.C,C5*%
X99957000Y-122146000D02*
G75*
G03*
X99557000Y-122546000I0J-400000D01*
G01*
X99557000Y-123326000D02*
G75*
G03*
X99957000Y-123726000I400000J0D01*
G01*
X102227000Y-123726000D02*
G75*
G03*
X102627000Y-123326000I0J400000D01*
G01*
X102627000Y-122546000D02*
G75*
G03*
X102227000Y-122146000I-400000J0D01*
G01*
X102227000Y-123726000D02*
X101492000Y-123726000D01*
X100692000Y-123726000D02*
X99957000Y-123726000D01*
X100692000Y-122146000D02*
X99957000Y-122146000D01*
X102627000Y-123326000D02*
X102627000Y-122546000D01*
X99557000Y-123326000D02*
X99557000Y-122546000D01*
X102227000Y-122146000D02*
X101492000Y-122146000D01*
%TO.C,C2*%
X115852000Y-137430000D02*
G75*
G03*
X115452000Y-137030000I-400000J0D01*
G01*
X114672000Y-137030000D02*
G75*
G03*
X114272000Y-137430000I0J-400000D01*
G01*
X114272000Y-139700000D02*
G75*
G03*
X114672000Y-140100000I400000J0D01*
G01*
X115452000Y-140100000D02*
G75*
G03*
X115852000Y-139700000I0J400000D01*
G01*
X114272000Y-139700000D02*
X114272000Y-138965000D01*
X114272000Y-138165000D02*
X114272000Y-137430000D01*
X115852000Y-138165000D02*
X115852000Y-137430000D01*
X114672000Y-140100000D02*
X115452000Y-140100000D01*
X114672000Y-137030000D02*
X115452000Y-137030000D01*
X115852000Y-139700000D02*
X115852000Y-138965000D01*
%TO.C,C1*%
X114272000Y-143883000D02*
G75*
G03*
X114672000Y-144283000I400000J0D01*
G01*
X115452000Y-144283000D02*
G75*
G03*
X115852000Y-143883000I0J400000D01*
G01*
X115852000Y-141613000D02*
G75*
G03*
X115452000Y-141213000I-400000J0D01*
G01*
X114672000Y-141213000D02*
G75*
G03*
X114272000Y-141613000I0J-400000D01*
G01*
X115852000Y-141613000D02*
X115852000Y-142348000D01*
X115852000Y-143148000D02*
X115852000Y-143883000D01*
X114272000Y-143148000D02*
X114272000Y-143883000D01*
X115452000Y-141213000D02*
X114672000Y-141213000D01*
X115452000Y-144283000D02*
X114672000Y-144283000D01*
X114272000Y-141613000D02*
X114272000Y-142348000D01*
%TO.C,U2*%
D12*
X86994904Y-113003380D02*
X86994904Y-113812904D01*
X86947285Y-113908142D01*
X86899666Y-113955761D01*
X86804428Y-114003380D01*
X86613952Y-114003380D01*
X86518714Y-113955761D01*
X86471095Y-113908142D01*
X86423476Y-113812904D01*
X86423476Y-113003380D01*
X85994904Y-113098619D02*
X85947285Y-113051000D01*
X85852047Y-113003380D01*
X85613952Y-113003380D01*
X85518714Y-113051000D01*
X85471095Y-113098619D01*
X85423476Y-113193857D01*
X85423476Y-113289095D01*
X85471095Y-113431952D01*
X86042523Y-114003380D01*
X85423476Y-114003380D01*
%TO.C,R3*%
X102814380Y-112990333D02*
X102338190Y-112657000D01*
X102814380Y-112418904D02*
X101814380Y-112418904D01*
X101814380Y-112799857D01*
X101862000Y-112895095D01*
X101909619Y-112942714D01*
X102004857Y-112990333D01*
X102147714Y-112990333D01*
X102242952Y-112942714D01*
X102290571Y-112895095D01*
X102338190Y-112799857D01*
X102338190Y-112418904D01*
X101814380Y-113323666D02*
X101814380Y-113942714D01*
X102195333Y-113609380D01*
X102195333Y-113752238D01*
X102242952Y-113847476D01*
X102290571Y-113895095D01*
X102385809Y-113942714D01*
X102623904Y-113942714D01*
X102719142Y-113895095D01*
X102766761Y-113847476D01*
X102814380Y-113752238D01*
X102814380Y-113466523D01*
X102766761Y-113371285D01*
X102719142Y-113323666D01*
%TO.C,R2*%
X97688656Y-114156952D02*
X97212466Y-113823619D01*
X97688656Y-113585523D02*
X96688656Y-113585523D01*
X96688656Y-113966476D01*
X96736276Y-114061714D01*
X96783895Y-114109333D01*
X96879133Y-114156952D01*
X97021990Y-114156952D01*
X97117228Y-114109333D01*
X97164847Y-114061714D01*
X97212466Y-113966476D01*
X97212466Y-113585523D01*
X96783895Y-114537904D02*
X96736276Y-114585523D01*
X96688656Y-114680761D01*
X96688656Y-114918857D01*
X96736276Y-115014095D01*
X96783895Y-115061714D01*
X96879133Y-115109333D01*
X96974371Y-115109333D01*
X97117228Y-115061714D01*
X97688656Y-114490285D01*
X97688656Y-115109333D01*
%TO.C,IC1*%
D13*
X77693761Y-141417523D02*
X77693761Y-140147523D01*
X76363285Y-141296571D02*
X76423761Y-141357047D01*
X76605190Y-141417523D01*
X76726142Y-141417523D01*
X76907571Y-141357047D01*
X77028523Y-141236095D01*
X77089000Y-141115142D01*
X77149476Y-140873238D01*
X77149476Y-140691809D01*
X77089000Y-140449904D01*
X77028523Y-140328952D01*
X76907571Y-140208000D01*
X76726142Y-140147523D01*
X76605190Y-140147523D01*
X76423761Y-140208000D01*
X76363285Y-140268476D01*
X75153761Y-141417523D02*
X75879476Y-141417523D01*
X75516619Y-141417523D02*
X75516619Y-140147523D01*
X75637571Y-140328952D01*
X75758523Y-140449904D01*
X75879476Y-140510380D01*
%TO.C,C15*%
D12*
X96834866Y-140041523D02*
X96882485Y-139993904D01*
X96930104Y-139851047D01*
X96930104Y-139755809D01*
X96882485Y-139612952D01*
X96787247Y-139517714D01*
X96692009Y-139470095D01*
X96501533Y-139422476D01*
X96358676Y-139422476D01*
X96168200Y-139470095D01*
X96072962Y-139517714D01*
X95977724Y-139612952D01*
X95930104Y-139755809D01*
X95930104Y-139851047D01*
X95977724Y-139993904D01*
X96025343Y-140041523D01*
X96930104Y-140993904D02*
X96930104Y-140422476D01*
X96930104Y-140708190D02*
X95930104Y-140708190D01*
X96072962Y-140612952D01*
X96168200Y-140517714D01*
X96215819Y-140422476D01*
X95930104Y-141898666D02*
X95930104Y-141422476D01*
X96406295Y-141374857D01*
X96358676Y-141422476D01*
X96311057Y-141517714D01*
X96311057Y-141755809D01*
X96358676Y-141851047D01*
X96406295Y-141898666D01*
X96501533Y-141946285D01*
X96739628Y-141946285D01*
X96834866Y-141898666D01*
X96882485Y-141851047D01*
X96930104Y-141755809D01*
X96930104Y-141517714D01*
X96882485Y-141422476D01*
X96834866Y-141374857D01*
%TO.C,C14*%
X94845142Y-116324142D02*
X94892761Y-116276523D01*
X94940380Y-116133666D01*
X94940380Y-116038428D01*
X94892761Y-115895571D01*
X94797523Y-115800333D01*
X94702285Y-115752714D01*
X94511809Y-115705095D01*
X94368952Y-115705095D01*
X94178476Y-115752714D01*
X94083238Y-115800333D01*
X93988000Y-115895571D01*
X93940380Y-116038428D01*
X93940380Y-116133666D01*
X93988000Y-116276523D01*
X94035619Y-116324142D01*
X94940380Y-117276523D02*
X94940380Y-116705095D01*
X94940380Y-116990809D02*
X93940380Y-116990809D01*
X94083238Y-116895571D01*
X94178476Y-116800333D01*
X94226095Y-116705095D01*
X94273714Y-118133666D02*
X94940380Y-118133666D01*
X93892761Y-117895571D02*
X94607047Y-117657476D01*
X94607047Y-118276523D01*
%TO.C,C13*%
X97131142Y-108450142D02*
X97178761Y-108402523D01*
X97226380Y-108259666D01*
X97226380Y-108164428D01*
X97178761Y-108021571D01*
X97083523Y-107926333D01*
X96988285Y-107878714D01*
X96797809Y-107831095D01*
X96654952Y-107831095D01*
X96464476Y-107878714D01*
X96369238Y-107926333D01*
X96274000Y-108021571D01*
X96226380Y-108164428D01*
X96226380Y-108259666D01*
X96274000Y-108402523D01*
X96321619Y-108450142D01*
X97226380Y-109402523D02*
X97226380Y-108831095D01*
X97226380Y-109116809D02*
X96226380Y-109116809D01*
X96369238Y-109021571D01*
X96464476Y-108926333D01*
X96512095Y-108831095D01*
X96226380Y-109735857D02*
X96226380Y-110354904D01*
X96607333Y-110021571D01*
X96607333Y-110164428D01*
X96654952Y-110259666D01*
X96702571Y-110307285D01*
X96797809Y-110354904D01*
X97035904Y-110354904D01*
X97131142Y-110307285D01*
X97178761Y-110259666D01*
X97226380Y-110164428D01*
X97226380Y-109878714D01*
X97178761Y-109783476D01*
X97131142Y-109735857D01*
%TO.C,C12*%
X100094418Y-136040761D02*
X100142037Y-135993142D01*
X100189656Y-135850285D01*
X100189656Y-135755047D01*
X100142037Y-135612190D01*
X100046799Y-135516952D01*
X99951561Y-135469333D01*
X99761085Y-135421714D01*
X99618228Y-135421714D01*
X99427752Y-135469333D01*
X99332514Y-135516952D01*
X99237276Y-135612190D01*
X99189656Y-135755047D01*
X99189656Y-135850285D01*
X99237276Y-135993142D01*
X99284895Y-136040761D01*
X100189656Y-136993142D02*
X100189656Y-136421714D01*
X100189656Y-136707428D02*
X99189656Y-136707428D01*
X99332514Y-136612190D01*
X99427752Y-136516952D01*
X99475371Y-136421714D01*
X99284895Y-137374095D02*
X99237276Y-137421714D01*
X99189656Y-137516952D01*
X99189656Y-137755047D01*
X99237276Y-137850285D01*
X99284895Y-137897904D01*
X99380133Y-137945523D01*
X99475371Y-137945523D01*
X99618228Y-137897904D01*
X100189656Y-137326476D01*
X100189656Y-137945523D01*
%TO.C,C11*%
X101195238Y-108603418D02*
X101242857Y-108651037D01*
X101385714Y-108698656D01*
X101480952Y-108698656D01*
X101623809Y-108651037D01*
X101719047Y-108555799D01*
X101766666Y-108460561D01*
X101814285Y-108270085D01*
X101814285Y-108127228D01*
X101766666Y-107936752D01*
X101719047Y-107841514D01*
X101623809Y-107746276D01*
X101480952Y-107698656D01*
X101385714Y-107698656D01*
X101242857Y-107746276D01*
X101195238Y-107793895D01*
X100242857Y-108698656D02*
X100814285Y-108698656D01*
X100528571Y-108698656D02*
X100528571Y-107698656D01*
X100623809Y-107841514D01*
X100719047Y-107936752D01*
X100814285Y-107984371D01*
X99290476Y-108698656D02*
X99861904Y-108698656D01*
X99576190Y-108698656D02*
X99576190Y-107698656D01*
X99671428Y-107841514D01*
X99766666Y-107936752D01*
X99861904Y-107984371D01*
%TO.C,C9*%
X110625047Y-111016418D02*
X110672666Y-111064037D01*
X110815523Y-111111656D01*
X110910761Y-111111656D01*
X111053619Y-111064037D01*
X111148857Y-110968799D01*
X111196476Y-110873561D01*
X111244095Y-110683085D01*
X111244095Y-110540228D01*
X111196476Y-110349752D01*
X111148857Y-110254514D01*
X111053619Y-110159276D01*
X110910761Y-110111656D01*
X110815523Y-110111656D01*
X110672666Y-110159276D01*
X110625047Y-110206895D01*
X110148857Y-111111656D02*
X109958381Y-111111656D01*
X109863142Y-111064037D01*
X109815523Y-111016418D01*
X109720285Y-110873561D01*
X109672666Y-110683085D01*
X109672666Y-110302133D01*
X109720285Y-110206895D01*
X109767904Y-110159276D01*
X109863142Y-110111656D01*
X110053619Y-110111656D01*
X110148857Y-110159276D01*
X110196476Y-110206895D01*
X110244095Y-110302133D01*
X110244095Y-110540228D01*
X110196476Y-110635466D01*
X110148857Y-110683085D01*
X110053619Y-110730704D01*
X109863142Y-110730704D01*
X109767904Y-110683085D01*
X109720285Y-110635466D01*
X109672666Y-110540228D01*
%TO.C,C8*%
X106867866Y-123372714D02*
X106915485Y-123325095D01*
X106963104Y-123182238D01*
X106963104Y-123087000D01*
X106915485Y-122944142D01*
X106820247Y-122848904D01*
X106725009Y-122801285D01*
X106534533Y-122753666D01*
X106391676Y-122753666D01*
X106201200Y-122801285D01*
X106105962Y-122848904D01*
X106010724Y-122944142D01*
X105963104Y-123087000D01*
X105963104Y-123182238D01*
X106010724Y-123325095D01*
X106058343Y-123372714D01*
X106391676Y-123944142D02*
X106344057Y-123848904D01*
X106296438Y-123801285D01*
X106201200Y-123753666D01*
X106153581Y-123753666D01*
X106058343Y-123801285D01*
X106010724Y-123848904D01*
X105963104Y-123944142D01*
X105963104Y-124134619D01*
X106010724Y-124229857D01*
X106058343Y-124277476D01*
X106153581Y-124325095D01*
X106201200Y-124325095D01*
X106296438Y-124277476D01*
X106344057Y-124229857D01*
X106391676Y-124134619D01*
X106391676Y-123944142D01*
X106439295Y-123848904D01*
X106486914Y-123801285D01*
X106582152Y-123753666D01*
X106772628Y-123753666D01*
X106867866Y-123801285D01*
X106915485Y-123848904D01*
X106963104Y-123944142D01*
X106963104Y-124134619D01*
X106915485Y-124229857D01*
X106867866Y-124277476D01*
X106772628Y-124325095D01*
X106582152Y-124325095D01*
X106486914Y-124277476D01*
X106439295Y-124229857D01*
X106391676Y-124134619D01*
%TO.C,C6*%
X101385666Y-126722142D02*
X101433285Y-126769761D01*
X101576142Y-126817380D01*
X101671380Y-126817380D01*
X101814238Y-126769761D01*
X101909476Y-126674523D01*
X101957095Y-126579285D01*
X102004714Y-126388809D01*
X102004714Y-126245952D01*
X101957095Y-126055476D01*
X101909476Y-125960238D01*
X101814238Y-125865000D01*
X101671380Y-125817380D01*
X101576142Y-125817380D01*
X101433285Y-125865000D01*
X101385666Y-125912619D01*
X100528523Y-125817380D02*
X100719000Y-125817380D01*
X100814238Y-125865000D01*
X100861857Y-125912619D01*
X100957095Y-126055476D01*
X101004714Y-126245952D01*
X101004714Y-126626904D01*
X100957095Y-126722142D01*
X100909476Y-126769761D01*
X100814238Y-126817380D01*
X100623761Y-126817380D01*
X100528523Y-126769761D01*
X100480904Y-126722142D01*
X100433285Y-126626904D01*
X100433285Y-126388809D01*
X100480904Y-126293571D01*
X100528523Y-126245952D01*
X100623761Y-126198333D01*
X100814238Y-126198333D01*
X100909476Y-126245952D01*
X100957095Y-126293571D01*
X101004714Y-126388809D01*
%TO.C,C5*%
X101417285Y-121853866D02*
X101464904Y-121901485D01*
X101607761Y-121949104D01*
X101702999Y-121949104D01*
X101845857Y-121901485D01*
X101941095Y-121806247D01*
X101988714Y-121711009D01*
X102036333Y-121520533D01*
X102036333Y-121377676D01*
X101988714Y-121187200D01*
X101941095Y-121091962D01*
X101845857Y-120996724D01*
X101702999Y-120949104D01*
X101607761Y-120949104D01*
X101464904Y-120996724D01*
X101417285Y-121044343D01*
X100512523Y-120949104D02*
X100988714Y-120949104D01*
X101036333Y-121425295D01*
X100988714Y-121377676D01*
X100893476Y-121330057D01*
X100655380Y-121330057D01*
X100560142Y-121377676D01*
X100512523Y-121425295D01*
X100464904Y-121520533D01*
X100464904Y-121758628D01*
X100512523Y-121853866D01*
X100560142Y-121901485D01*
X100655380Y-121949104D01*
X100893476Y-121949104D01*
X100988714Y-121901485D01*
X101036333Y-121853866D01*
%TO.C,C2*%
X116858418Y-138556952D02*
X116906037Y-138509333D01*
X116953656Y-138366476D01*
X116953656Y-138271238D01*
X116906037Y-138128380D01*
X116810799Y-138033142D01*
X116715561Y-137985523D01*
X116525085Y-137937904D01*
X116382228Y-137937904D01*
X116191752Y-137985523D01*
X116096514Y-138033142D01*
X116001276Y-138128380D01*
X115953656Y-138271238D01*
X115953656Y-138366476D01*
X116001276Y-138509333D01*
X116048895Y-138556952D01*
X116048895Y-138937904D02*
X116001276Y-138985523D01*
X115953656Y-139080761D01*
X115953656Y-139318857D01*
X116001276Y-139414095D01*
X116048895Y-139461714D01*
X116144133Y-139509333D01*
X116239371Y-139509333D01*
X116382228Y-139461714D01*
X116953656Y-138890285D01*
X116953656Y-139509333D01*
%TO.C,C1*%
X113979866Y-142422714D02*
X114027485Y-142375095D01*
X114075104Y-142232238D01*
X114075104Y-142137000D01*
X114027485Y-141994142D01*
X113932247Y-141898904D01*
X113837009Y-141851285D01*
X113646533Y-141803666D01*
X113503676Y-141803666D01*
X113313200Y-141851285D01*
X113217962Y-141898904D01*
X113122724Y-141994142D01*
X113075104Y-142137000D01*
X113075104Y-142232238D01*
X113122724Y-142375095D01*
X113170343Y-142422714D01*
X114075104Y-143375095D02*
X114075104Y-142803666D01*
X114075104Y-143089381D02*
X113075104Y-143089381D01*
X113217962Y-142994142D01*
X113313200Y-142898904D01*
X113360819Y-142803666D01*
%TD*%
M02*
