%TF.GenerationSoftware,KiCad,Pcbnew,(5.1.8)-1*%
%TF.CreationDate,2021-05-15T14:33:14+08:00*%
%TF.ProjectId,ccd_with_stm32,6363645f-7769-4746-985f-73746d33322e,rev?*%
%TF.SameCoordinates,Original*%
%TF.FileFunction,Soldermask,Top*%
%TF.FilePolarity,Negative*%
%FSLAX46Y46*%
G04 Gerber Fmt 4.6, Leading zero omitted, Abs format (unit mm)*
G04 Created by KiCad (PCBNEW (5.1.8)-1) date 2021-05-15 14:33:14*
%MOMM*%
%LPD*%
G01*
G04 APERTURE LIST*
%ADD10R,2.400000X1.900000*%
%ADD11R,2.200000X1.000000*%
%ADD12R,2.200000X3.500000*%
%ADD13R,0.600000X1.450000*%
%ADD14R,0.300000X1.450000*%
%ADD15O,1.000000X2.100000*%
%ADD16C,0.650000*%
%ADD17O,1.000000X1.600000*%
%ADD18R,1.250000X0.700000*%
%ADD19R,0.930000X0.980000*%
%ADD20R,0.980000X0.930000*%
%ADD21R,4.000000X0.600000*%
%ADD22R,1.220000X1.220000*%
%ADD23C,1.220000*%
%ADD24C,0.800000*%
G04 APERTURE END LIST*
%TO.C,U1*%
G36*
G01*
X100240000Y-109960000D02*
X100240000Y-108560000D01*
G75*
G02*
X100315000Y-108485000I75000J0D01*
G01*
X100465000Y-108485000D01*
G75*
G02*
X100540000Y-108560000I0J-75000D01*
G01*
X100540000Y-109960000D01*
G75*
G02*
X100465000Y-110035000I-75000J0D01*
G01*
X100315000Y-110035000D01*
G75*
G02*
X100240000Y-109960000I0J75000D01*
G01*
G37*
G36*
G01*
X100740000Y-109960000D02*
X100740000Y-108560000D01*
G75*
G02*
X100815000Y-108485000I75000J0D01*
G01*
X100965000Y-108485000D01*
G75*
G02*
X101040000Y-108560000I0J-75000D01*
G01*
X101040000Y-109960000D01*
G75*
G02*
X100965000Y-110035000I-75000J0D01*
G01*
X100815000Y-110035000D01*
G75*
G02*
X100740000Y-109960000I0J75000D01*
G01*
G37*
G36*
G01*
X101240000Y-109960000D02*
X101240000Y-108560000D01*
G75*
G02*
X101315000Y-108485000I75000J0D01*
G01*
X101465000Y-108485000D01*
G75*
G02*
X101540000Y-108560000I0J-75000D01*
G01*
X101540000Y-109960000D01*
G75*
G02*
X101465000Y-110035000I-75000J0D01*
G01*
X101315000Y-110035000D01*
G75*
G02*
X101240000Y-109960000I0J75000D01*
G01*
G37*
G36*
G01*
X101740000Y-109960000D02*
X101740000Y-108560000D01*
G75*
G02*
X101815000Y-108485000I75000J0D01*
G01*
X101965000Y-108485000D01*
G75*
G02*
X102040000Y-108560000I0J-75000D01*
G01*
X102040000Y-109960000D01*
G75*
G02*
X101965000Y-110035000I-75000J0D01*
G01*
X101815000Y-110035000D01*
G75*
G02*
X101740000Y-109960000I0J75000D01*
G01*
G37*
G36*
G01*
X102240000Y-109960000D02*
X102240000Y-108560000D01*
G75*
G02*
X102315000Y-108485000I75000J0D01*
G01*
X102465000Y-108485000D01*
G75*
G02*
X102540000Y-108560000I0J-75000D01*
G01*
X102540000Y-109960000D01*
G75*
G02*
X102465000Y-110035000I-75000J0D01*
G01*
X102315000Y-110035000D01*
G75*
G02*
X102240000Y-109960000I0J75000D01*
G01*
G37*
G36*
G01*
X102740000Y-109960000D02*
X102740000Y-108560000D01*
G75*
G02*
X102815000Y-108485000I75000J0D01*
G01*
X102965000Y-108485000D01*
G75*
G02*
X103040000Y-108560000I0J-75000D01*
G01*
X103040000Y-109960000D01*
G75*
G02*
X102965000Y-110035000I-75000J0D01*
G01*
X102815000Y-110035000D01*
G75*
G02*
X102740000Y-109960000I0J75000D01*
G01*
G37*
G36*
G01*
X103240000Y-109960000D02*
X103240000Y-108560000D01*
G75*
G02*
X103315000Y-108485000I75000J0D01*
G01*
X103465000Y-108485000D01*
G75*
G02*
X103540000Y-108560000I0J-75000D01*
G01*
X103540000Y-109960000D01*
G75*
G02*
X103465000Y-110035000I-75000J0D01*
G01*
X103315000Y-110035000D01*
G75*
G02*
X103240000Y-109960000I0J75000D01*
G01*
G37*
G36*
G01*
X103740000Y-109960000D02*
X103740000Y-108560000D01*
G75*
G02*
X103815000Y-108485000I75000J0D01*
G01*
X103965000Y-108485000D01*
G75*
G02*
X104040000Y-108560000I0J-75000D01*
G01*
X104040000Y-109960000D01*
G75*
G02*
X103965000Y-110035000I-75000J0D01*
G01*
X103815000Y-110035000D01*
G75*
G02*
X103740000Y-109960000I0J75000D01*
G01*
G37*
G36*
G01*
X104240000Y-109960000D02*
X104240000Y-108560000D01*
G75*
G02*
X104315000Y-108485000I75000J0D01*
G01*
X104465000Y-108485000D01*
G75*
G02*
X104540000Y-108560000I0J-75000D01*
G01*
X104540000Y-109960000D01*
G75*
G02*
X104465000Y-110035000I-75000J0D01*
G01*
X104315000Y-110035000D01*
G75*
G02*
X104240000Y-109960000I0J75000D01*
G01*
G37*
G36*
G01*
X104740000Y-109960000D02*
X104740000Y-108560000D01*
G75*
G02*
X104815000Y-108485000I75000J0D01*
G01*
X104965000Y-108485000D01*
G75*
G02*
X105040000Y-108560000I0J-75000D01*
G01*
X105040000Y-109960000D01*
G75*
G02*
X104965000Y-110035000I-75000J0D01*
G01*
X104815000Y-110035000D01*
G75*
G02*
X104740000Y-109960000I0J75000D01*
G01*
G37*
G36*
G01*
X105240000Y-109960000D02*
X105240000Y-108560000D01*
G75*
G02*
X105315000Y-108485000I75000J0D01*
G01*
X105465000Y-108485000D01*
G75*
G02*
X105540000Y-108560000I0J-75000D01*
G01*
X105540000Y-109960000D01*
G75*
G02*
X105465000Y-110035000I-75000J0D01*
G01*
X105315000Y-110035000D01*
G75*
G02*
X105240000Y-109960000I0J75000D01*
G01*
G37*
G36*
G01*
X105740000Y-109960000D02*
X105740000Y-108560000D01*
G75*
G02*
X105815000Y-108485000I75000J0D01*
G01*
X105965000Y-108485000D01*
G75*
G02*
X106040000Y-108560000I0J-75000D01*
G01*
X106040000Y-109960000D01*
G75*
G02*
X105965000Y-110035000I-75000J0D01*
G01*
X105815000Y-110035000D01*
G75*
G02*
X105740000Y-109960000I0J75000D01*
G01*
G37*
G36*
G01*
X106240000Y-109960000D02*
X106240000Y-108560000D01*
G75*
G02*
X106315000Y-108485000I75000J0D01*
G01*
X106465000Y-108485000D01*
G75*
G02*
X106540000Y-108560000I0J-75000D01*
G01*
X106540000Y-109960000D01*
G75*
G02*
X106465000Y-110035000I-75000J0D01*
G01*
X106315000Y-110035000D01*
G75*
G02*
X106240000Y-109960000I0J75000D01*
G01*
G37*
G36*
G01*
X106740000Y-109960000D02*
X106740000Y-108560000D01*
G75*
G02*
X106815000Y-108485000I75000J0D01*
G01*
X106965000Y-108485000D01*
G75*
G02*
X107040000Y-108560000I0J-75000D01*
G01*
X107040000Y-109960000D01*
G75*
G02*
X106965000Y-110035000I-75000J0D01*
G01*
X106815000Y-110035000D01*
G75*
G02*
X106740000Y-109960000I0J75000D01*
G01*
G37*
G36*
G01*
X107240000Y-109960000D02*
X107240000Y-108560000D01*
G75*
G02*
X107315000Y-108485000I75000J0D01*
G01*
X107465000Y-108485000D01*
G75*
G02*
X107540000Y-108560000I0J-75000D01*
G01*
X107540000Y-109960000D01*
G75*
G02*
X107465000Y-110035000I-75000J0D01*
G01*
X107315000Y-110035000D01*
G75*
G02*
X107240000Y-109960000I0J75000D01*
G01*
G37*
G36*
G01*
X107740000Y-109960000D02*
X107740000Y-108560000D01*
G75*
G02*
X107815000Y-108485000I75000J0D01*
G01*
X107965000Y-108485000D01*
G75*
G02*
X108040000Y-108560000I0J-75000D01*
G01*
X108040000Y-109960000D01*
G75*
G02*
X107965000Y-110035000I-75000J0D01*
G01*
X107815000Y-110035000D01*
G75*
G02*
X107740000Y-109960000I0J75000D01*
G01*
G37*
G36*
G01*
X109040000Y-111260000D02*
X109040000Y-111110000D01*
G75*
G02*
X109115000Y-111035000I75000J0D01*
G01*
X110515000Y-111035000D01*
G75*
G02*
X110590000Y-111110000I0J-75000D01*
G01*
X110590000Y-111260000D01*
G75*
G02*
X110515000Y-111335000I-75000J0D01*
G01*
X109115000Y-111335000D01*
G75*
G02*
X109040000Y-111260000I0J75000D01*
G01*
G37*
G36*
G01*
X109040000Y-111760000D02*
X109040000Y-111610000D01*
G75*
G02*
X109115000Y-111535000I75000J0D01*
G01*
X110515000Y-111535000D01*
G75*
G02*
X110590000Y-111610000I0J-75000D01*
G01*
X110590000Y-111760000D01*
G75*
G02*
X110515000Y-111835000I-75000J0D01*
G01*
X109115000Y-111835000D01*
G75*
G02*
X109040000Y-111760000I0J75000D01*
G01*
G37*
G36*
G01*
X109040000Y-112260000D02*
X109040000Y-112110000D01*
G75*
G02*
X109115000Y-112035000I75000J0D01*
G01*
X110515000Y-112035000D01*
G75*
G02*
X110590000Y-112110000I0J-75000D01*
G01*
X110590000Y-112260000D01*
G75*
G02*
X110515000Y-112335000I-75000J0D01*
G01*
X109115000Y-112335000D01*
G75*
G02*
X109040000Y-112260000I0J75000D01*
G01*
G37*
G36*
G01*
X109040000Y-112760000D02*
X109040000Y-112610000D01*
G75*
G02*
X109115000Y-112535000I75000J0D01*
G01*
X110515000Y-112535000D01*
G75*
G02*
X110590000Y-112610000I0J-75000D01*
G01*
X110590000Y-112760000D01*
G75*
G02*
X110515000Y-112835000I-75000J0D01*
G01*
X109115000Y-112835000D01*
G75*
G02*
X109040000Y-112760000I0J75000D01*
G01*
G37*
G36*
G01*
X109040000Y-113260000D02*
X109040000Y-113110000D01*
G75*
G02*
X109115000Y-113035000I75000J0D01*
G01*
X110515000Y-113035000D01*
G75*
G02*
X110590000Y-113110000I0J-75000D01*
G01*
X110590000Y-113260000D01*
G75*
G02*
X110515000Y-113335000I-75000J0D01*
G01*
X109115000Y-113335000D01*
G75*
G02*
X109040000Y-113260000I0J75000D01*
G01*
G37*
G36*
G01*
X109040000Y-113760000D02*
X109040000Y-113610000D01*
G75*
G02*
X109115000Y-113535000I75000J0D01*
G01*
X110515000Y-113535000D01*
G75*
G02*
X110590000Y-113610000I0J-75000D01*
G01*
X110590000Y-113760000D01*
G75*
G02*
X110515000Y-113835000I-75000J0D01*
G01*
X109115000Y-113835000D01*
G75*
G02*
X109040000Y-113760000I0J75000D01*
G01*
G37*
G36*
G01*
X109040000Y-114260000D02*
X109040000Y-114110000D01*
G75*
G02*
X109115000Y-114035000I75000J0D01*
G01*
X110515000Y-114035000D01*
G75*
G02*
X110590000Y-114110000I0J-75000D01*
G01*
X110590000Y-114260000D01*
G75*
G02*
X110515000Y-114335000I-75000J0D01*
G01*
X109115000Y-114335000D01*
G75*
G02*
X109040000Y-114260000I0J75000D01*
G01*
G37*
G36*
G01*
X109040000Y-114760000D02*
X109040000Y-114610000D01*
G75*
G02*
X109115000Y-114535000I75000J0D01*
G01*
X110515000Y-114535000D01*
G75*
G02*
X110590000Y-114610000I0J-75000D01*
G01*
X110590000Y-114760000D01*
G75*
G02*
X110515000Y-114835000I-75000J0D01*
G01*
X109115000Y-114835000D01*
G75*
G02*
X109040000Y-114760000I0J75000D01*
G01*
G37*
G36*
G01*
X109040000Y-115260000D02*
X109040000Y-115110000D01*
G75*
G02*
X109115000Y-115035000I75000J0D01*
G01*
X110515000Y-115035000D01*
G75*
G02*
X110590000Y-115110000I0J-75000D01*
G01*
X110590000Y-115260000D01*
G75*
G02*
X110515000Y-115335000I-75000J0D01*
G01*
X109115000Y-115335000D01*
G75*
G02*
X109040000Y-115260000I0J75000D01*
G01*
G37*
G36*
G01*
X109040000Y-115760000D02*
X109040000Y-115610000D01*
G75*
G02*
X109115000Y-115535000I75000J0D01*
G01*
X110515000Y-115535000D01*
G75*
G02*
X110590000Y-115610000I0J-75000D01*
G01*
X110590000Y-115760000D01*
G75*
G02*
X110515000Y-115835000I-75000J0D01*
G01*
X109115000Y-115835000D01*
G75*
G02*
X109040000Y-115760000I0J75000D01*
G01*
G37*
G36*
G01*
X109040000Y-116260000D02*
X109040000Y-116110000D01*
G75*
G02*
X109115000Y-116035000I75000J0D01*
G01*
X110515000Y-116035000D01*
G75*
G02*
X110590000Y-116110000I0J-75000D01*
G01*
X110590000Y-116260000D01*
G75*
G02*
X110515000Y-116335000I-75000J0D01*
G01*
X109115000Y-116335000D01*
G75*
G02*
X109040000Y-116260000I0J75000D01*
G01*
G37*
G36*
G01*
X109040000Y-116760000D02*
X109040000Y-116610000D01*
G75*
G02*
X109115000Y-116535000I75000J0D01*
G01*
X110515000Y-116535000D01*
G75*
G02*
X110590000Y-116610000I0J-75000D01*
G01*
X110590000Y-116760000D01*
G75*
G02*
X110515000Y-116835000I-75000J0D01*
G01*
X109115000Y-116835000D01*
G75*
G02*
X109040000Y-116760000I0J75000D01*
G01*
G37*
G36*
G01*
X109040000Y-117260000D02*
X109040000Y-117110000D01*
G75*
G02*
X109115000Y-117035000I75000J0D01*
G01*
X110515000Y-117035000D01*
G75*
G02*
X110590000Y-117110000I0J-75000D01*
G01*
X110590000Y-117260000D01*
G75*
G02*
X110515000Y-117335000I-75000J0D01*
G01*
X109115000Y-117335000D01*
G75*
G02*
X109040000Y-117260000I0J75000D01*
G01*
G37*
G36*
G01*
X109040000Y-117760000D02*
X109040000Y-117610000D01*
G75*
G02*
X109115000Y-117535000I75000J0D01*
G01*
X110515000Y-117535000D01*
G75*
G02*
X110590000Y-117610000I0J-75000D01*
G01*
X110590000Y-117760000D01*
G75*
G02*
X110515000Y-117835000I-75000J0D01*
G01*
X109115000Y-117835000D01*
G75*
G02*
X109040000Y-117760000I0J75000D01*
G01*
G37*
G36*
G01*
X109040000Y-118260000D02*
X109040000Y-118110000D01*
G75*
G02*
X109115000Y-118035000I75000J0D01*
G01*
X110515000Y-118035000D01*
G75*
G02*
X110590000Y-118110000I0J-75000D01*
G01*
X110590000Y-118260000D01*
G75*
G02*
X110515000Y-118335000I-75000J0D01*
G01*
X109115000Y-118335000D01*
G75*
G02*
X109040000Y-118260000I0J75000D01*
G01*
G37*
G36*
G01*
X109040000Y-118760000D02*
X109040000Y-118610000D01*
G75*
G02*
X109115000Y-118535000I75000J0D01*
G01*
X110515000Y-118535000D01*
G75*
G02*
X110590000Y-118610000I0J-75000D01*
G01*
X110590000Y-118760000D01*
G75*
G02*
X110515000Y-118835000I-75000J0D01*
G01*
X109115000Y-118835000D01*
G75*
G02*
X109040000Y-118760000I0J75000D01*
G01*
G37*
G36*
G01*
X107740000Y-121310000D02*
X107740000Y-119910000D01*
G75*
G02*
X107815000Y-119835000I75000J0D01*
G01*
X107965000Y-119835000D01*
G75*
G02*
X108040000Y-119910000I0J-75000D01*
G01*
X108040000Y-121310000D01*
G75*
G02*
X107965000Y-121385000I-75000J0D01*
G01*
X107815000Y-121385000D01*
G75*
G02*
X107740000Y-121310000I0J75000D01*
G01*
G37*
G36*
G01*
X107240000Y-121310000D02*
X107240000Y-119910000D01*
G75*
G02*
X107315000Y-119835000I75000J0D01*
G01*
X107465000Y-119835000D01*
G75*
G02*
X107540000Y-119910000I0J-75000D01*
G01*
X107540000Y-121310000D01*
G75*
G02*
X107465000Y-121385000I-75000J0D01*
G01*
X107315000Y-121385000D01*
G75*
G02*
X107240000Y-121310000I0J75000D01*
G01*
G37*
G36*
G01*
X106740000Y-121310000D02*
X106740000Y-119910000D01*
G75*
G02*
X106815000Y-119835000I75000J0D01*
G01*
X106965000Y-119835000D01*
G75*
G02*
X107040000Y-119910000I0J-75000D01*
G01*
X107040000Y-121310000D01*
G75*
G02*
X106965000Y-121385000I-75000J0D01*
G01*
X106815000Y-121385000D01*
G75*
G02*
X106740000Y-121310000I0J75000D01*
G01*
G37*
G36*
G01*
X106240000Y-121310000D02*
X106240000Y-119910000D01*
G75*
G02*
X106315000Y-119835000I75000J0D01*
G01*
X106465000Y-119835000D01*
G75*
G02*
X106540000Y-119910000I0J-75000D01*
G01*
X106540000Y-121310000D01*
G75*
G02*
X106465000Y-121385000I-75000J0D01*
G01*
X106315000Y-121385000D01*
G75*
G02*
X106240000Y-121310000I0J75000D01*
G01*
G37*
G36*
G01*
X105740000Y-121310000D02*
X105740000Y-119910000D01*
G75*
G02*
X105815000Y-119835000I75000J0D01*
G01*
X105965000Y-119835000D01*
G75*
G02*
X106040000Y-119910000I0J-75000D01*
G01*
X106040000Y-121310000D01*
G75*
G02*
X105965000Y-121385000I-75000J0D01*
G01*
X105815000Y-121385000D01*
G75*
G02*
X105740000Y-121310000I0J75000D01*
G01*
G37*
G36*
G01*
X105240000Y-121310000D02*
X105240000Y-119910000D01*
G75*
G02*
X105315000Y-119835000I75000J0D01*
G01*
X105465000Y-119835000D01*
G75*
G02*
X105540000Y-119910000I0J-75000D01*
G01*
X105540000Y-121310000D01*
G75*
G02*
X105465000Y-121385000I-75000J0D01*
G01*
X105315000Y-121385000D01*
G75*
G02*
X105240000Y-121310000I0J75000D01*
G01*
G37*
G36*
G01*
X104740000Y-121310000D02*
X104740000Y-119910000D01*
G75*
G02*
X104815000Y-119835000I75000J0D01*
G01*
X104965000Y-119835000D01*
G75*
G02*
X105040000Y-119910000I0J-75000D01*
G01*
X105040000Y-121310000D01*
G75*
G02*
X104965000Y-121385000I-75000J0D01*
G01*
X104815000Y-121385000D01*
G75*
G02*
X104740000Y-121310000I0J75000D01*
G01*
G37*
G36*
G01*
X104240000Y-121310000D02*
X104240000Y-119910000D01*
G75*
G02*
X104315000Y-119835000I75000J0D01*
G01*
X104465000Y-119835000D01*
G75*
G02*
X104540000Y-119910000I0J-75000D01*
G01*
X104540000Y-121310000D01*
G75*
G02*
X104465000Y-121385000I-75000J0D01*
G01*
X104315000Y-121385000D01*
G75*
G02*
X104240000Y-121310000I0J75000D01*
G01*
G37*
G36*
G01*
X103740000Y-121310000D02*
X103740000Y-119910000D01*
G75*
G02*
X103815000Y-119835000I75000J0D01*
G01*
X103965000Y-119835000D01*
G75*
G02*
X104040000Y-119910000I0J-75000D01*
G01*
X104040000Y-121310000D01*
G75*
G02*
X103965000Y-121385000I-75000J0D01*
G01*
X103815000Y-121385000D01*
G75*
G02*
X103740000Y-121310000I0J75000D01*
G01*
G37*
G36*
G01*
X103240000Y-121310000D02*
X103240000Y-119910000D01*
G75*
G02*
X103315000Y-119835000I75000J0D01*
G01*
X103465000Y-119835000D01*
G75*
G02*
X103540000Y-119910000I0J-75000D01*
G01*
X103540000Y-121310000D01*
G75*
G02*
X103465000Y-121385000I-75000J0D01*
G01*
X103315000Y-121385000D01*
G75*
G02*
X103240000Y-121310000I0J75000D01*
G01*
G37*
G36*
G01*
X102740000Y-121310000D02*
X102740000Y-119910000D01*
G75*
G02*
X102815000Y-119835000I75000J0D01*
G01*
X102965000Y-119835000D01*
G75*
G02*
X103040000Y-119910000I0J-75000D01*
G01*
X103040000Y-121310000D01*
G75*
G02*
X102965000Y-121385000I-75000J0D01*
G01*
X102815000Y-121385000D01*
G75*
G02*
X102740000Y-121310000I0J75000D01*
G01*
G37*
G36*
G01*
X102240000Y-121310000D02*
X102240000Y-119910000D01*
G75*
G02*
X102315000Y-119835000I75000J0D01*
G01*
X102465000Y-119835000D01*
G75*
G02*
X102540000Y-119910000I0J-75000D01*
G01*
X102540000Y-121310000D01*
G75*
G02*
X102465000Y-121385000I-75000J0D01*
G01*
X102315000Y-121385000D01*
G75*
G02*
X102240000Y-121310000I0J75000D01*
G01*
G37*
G36*
G01*
X101740000Y-121310000D02*
X101740000Y-119910000D01*
G75*
G02*
X101815000Y-119835000I75000J0D01*
G01*
X101965000Y-119835000D01*
G75*
G02*
X102040000Y-119910000I0J-75000D01*
G01*
X102040000Y-121310000D01*
G75*
G02*
X101965000Y-121385000I-75000J0D01*
G01*
X101815000Y-121385000D01*
G75*
G02*
X101740000Y-121310000I0J75000D01*
G01*
G37*
G36*
G01*
X101240000Y-121310000D02*
X101240000Y-119910000D01*
G75*
G02*
X101315000Y-119835000I75000J0D01*
G01*
X101465000Y-119835000D01*
G75*
G02*
X101540000Y-119910000I0J-75000D01*
G01*
X101540000Y-121310000D01*
G75*
G02*
X101465000Y-121385000I-75000J0D01*
G01*
X101315000Y-121385000D01*
G75*
G02*
X101240000Y-121310000I0J75000D01*
G01*
G37*
G36*
G01*
X100740000Y-121310000D02*
X100740000Y-119910000D01*
G75*
G02*
X100815000Y-119835000I75000J0D01*
G01*
X100965000Y-119835000D01*
G75*
G02*
X101040000Y-119910000I0J-75000D01*
G01*
X101040000Y-121310000D01*
G75*
G02*
X100965000Y-121385000I-75000J0D01*
G01*
X100815000Y-121385000D01*
G75*
G02*
X100740000Y-121310000I0J75000D01*
G01*
G37*
G36*
G01*
X100240000Y-121310000D02*
X100240000Y-119910000D01*
G75*
G02*
X100315000Y-119835000I75000J0D01*
G01*
X100465000Y-119835000D01*
G75*
G02*
X100540000Y-119910000I0J-75000D01*
G01*
X100540000Y-121310000D01*
G75*
G02*
X100465000Y-121385000I-75000J0D01*
G01*
X100315000Y-121385000D01*
G75*
G02*
X100240000Y-121310000I0J75000D01*
G01*
G37*
G36*
G01*
X97690000Y-118760000D02*
X97690000Y-118610000D01*
G75*
G02*
X97765000Y-118535000I75000J0D01*
G01*
X99165000Y-118535000D01*
G75*
G02*
X99240000Y-118610000I0J-75000D01*
G01*
X99240000Y-118760000D01*
G75*
G02*
X99165000Y-118835000I-75000J0D01*
G01*
X97765000Y-118835000D01*
G75*
G02*
X97690000Y-118760000I0J75000D01*
G01*
G37*
G36*
G01*
X97690000Y-118260000D02*
X97690000Y-118110000D01*
G75*
G02*
X97765000Y-118035000I75000J0D01*
G01*
X99165000Y-118035000D01*
G75*
G02*
X99240000Y-118110000I0J-75000D01*
G01*
X99240000Y-118260000D01*
G75*
G02*
X99165000Y-118335000I-75000J0D01*
G01*
X97765000Y-118335000D01*
G75*
G02*
X97690000Y-118260000I0J75000D01*
G01*
G37*
G36*
G01*
X97690000Y-117760000D02*
X97690000Y-117610000D01*
G75*
G02*
X97765000Y-117535000I75000J0D01*
G01*
X99165000Y-117535000D01*
G75*
G02*
X99240000Y-117610000I0J-75000D01*
G01*
X99240000Y-117760000D01*
G75*
G02*
X99165000Y-117835000I-75000J0D01*
G01*
X97765000Y-117835000D01*
G75*
G02*
X97690000Y-117760000I0J75000D01*
G01*
G37*
G36*
G01*
X97690000Y-117260000D02*
X97690000Y-117110000D01*
G75*
G02*
X97765000Y-117035000I75000J0D01*
G01*
X99165000Y-117035000D01*
G75*
G02*
X99240000Y-117110000I0J-75000D01*
G01*
X99240000Y-117260000D01*
G75*
G02*
X99165000Y-117335000I-75000J0D01*
G01*
X97765000Y-117335000D01*
G75*
G02*
X97690000Y-117260000I0J75000D01*
G01*
G37*
G36*
G01*
X97690000Y-116760000D02*
X97690000Y-116610000D01*
G75*
G02*
X97765000Y-116535000I75000J0D01*
G01*
X99165000Y-116535000D01*
G75*
G02*
X99240000Y-116610000I0J-75000D01*
G01*
X99240000Y-116760000D01*
G75*
G02*
X99165000Y-116835000I-75000J0D01*
G01*
X97765000Y-116835000D01*
G75*
G02*
X97690000Y-116760000I0J75000D01*
G01*
G37*
G36*
G01*
X97690000Y-116260000D02*
X97690000Y-116110000D01*
G75*
G02*
X97765000Y-116035000I75000J0D01*
G01*
X99165000Y-116035000D01*
G75*
G02*
X99240000Y-116110000I0J-75000D01*
G01*
X99240000Y-116260000D01*
G75*
G02*
X99165000Y-116335000I-75000J0D01*
G01*
X97765000Y-116335000D01*
G75*
G02*
X97690000Y-116260000I0J75000D01*
G01*
G37*
G36*
G01*
X97690000Y-115760000D02*
X97690000Y-115610000D01*
G75*
G02*
X97765000Y-115535000I75000J0D01*
G01*
X99165000Y-115535000D01*
G75*
G02*
X99240000Y-115610000I0J-75000D01*
G01*
X99240000Y-115760000D01*
G75*
G02*
X99165000Y-115835000I-75000J0D01*
G01*
X97765000Y-115835000D01*
G75*
G02*
X97690000Y-115760000I0J75000D01*
G01*
G37*
G36*
G01*
X97690000Y-115260000D02*
X97690000Y-115110000D01*
G75*
G02*
X97765000Y-115035000I75000J0D01*
G01*
X99165000Y-115035000D01*
G75*
G02*
X99240000Y-115110000I0J-75000D01*
G01*
X99240000Y-115260000D01*
G75*
G02*
X99165000Y-115335000I-75000J0D01*
G01*
X97765000Y-115335000D01*
G75*
G02*
X97690000Y-115260000I0J75000D01*
G01*
G37*
G36*
G01*
X97690000Y-114760000D02*
X97690000Y-114610000D01*
G75*
G02*
X97765000Y-114535000I75000J0D01*
G01*
X99165000Y-114535000D01*
G75*
G02*
X99240000Y-114610000I0J-75000D01*
G01*
X99240000Y-114760000D01*
G75*
G02*
X99165000Y-114835000I-75000J0D01*
G01*
X97765000Y-114835000D01*
G75*
G02*
X97690000Y-114760000I0J75000D01*
G01*
G37*
G36*
G01*
X97690000Y-114260000D02*
X97690000Y-114110000D01*
G75*
G02*
X97765000Y-114035000I75000J0D01*
G01*
X99165000Y-114035000D01*
G75*
G02*
X99240000Y-114110000I0J-75000D01*
G01*
X99240000Y-114260000D01*
G75*
G02*
X99165000Y-114335000I-75000J0D01*
G01*
X97765000Y-114335000D01*
G75*
G02*
X97690000Y-114260000I0J75000D01*
G01*
G37*
G36*
G01*
X97690000Y-113760000D02*
X97690000Y-113610000D01*
G75*
G02*
X97765000Y-113535000I75000J0D01*
G01*
X99165000Y-113535000D01*
G75*
G02*
X99240000Y-113610000I0J-75000D01*
G01*
X99240000Y-113760000D01*
G75*
G02*
X99165000Y-113835000I-75000J0D01*
G01*
X97765000Y-113835000D01*
G75*
G02*
X97690000Y-113760000I0J75000D01*
G01*
G37*
G36*
G01*
X97690000Y-113260000D02*
X97690000Y-113110000D01*
G75*
G02*
X97765000Y-113035000I75000J0D01*
G01*
X99165000Y-113035000D01*
G75*
G02*
X99240000Y-113110000I0J-75000D01*
G01*
X99240000Y-113260000D01*
G75*
G02*
X99165000Y-113335000I-75000J0D01*
G01*
X97765000Y-113335000D01*
G75*
G02*
X97690000Y-113260000I0J75000D01*
G01*
G37*
G36*
G01*
X97690000Y-112760000D02*
X97690000Y-112610000D01*
G75*
G02*
X97765000Y-112535000I75000J0D01*
G01*
X99165000Y-112535000D01*
G75*
G02*
X99240000Y-112610000I0J-75000D01*
G01*
X99240000Y-112760000D01*
G75*
G02*
X99165000Y-112835000I-75000J0D01*
G01*
X97765000Y-112835000D01*
G75*
G02*
X97690000Y-112760000I0J75000D01*
G01*
G37*
G36*
G01*
X97690000Y-112260000D02*
X97690000Y-112110000D01*
G75*
G02*
X97765000Y-112035000I75000J0D01*
G01*
X99165000Y-112035000D01*
G75*
G02*
X99240000Y-112110000I0J-75000D01*
G01*
X99240000Y-112260000D01*
G75*
G02*
X99165000Y-112335000I-75000J0D01*
G01*
X97765000Y-112335000D01*
G75*
G02*
X97690000Y-112260000I0J75000D01*
G01*
G37*
G36*
G01*
X97690000Y-111760000D02*
X97690000Y-111610000D01*
G75*
G02*
X97765000Y-111535000I75000J0D01*
G01*
X99165000Y-111535000D01*
G75*
G02*
X99240000Y-111610000I0J-75000D01*
G01*
X99240000Y-111760000D01*
G75*
G02*
X99165000Y-111835000I-75000J0D01*
G01*
X97765000Y-111835000D01*
G75*
G02*
X97690000Y-111760000I0J75000D01*
G01*
G37*
G36*
G01*
X97690000Y-111260000D02*
X97690000Y-111110000D01*
G75*
G02*
X97765000Y-111035000I75000J0D01*
G01*
X99165000Y-111035000D01*
G75*
G02*
X99240000Y-111110000I0J-75000D01*
G01*
X99240000Y-111260000D01*
G75*
G02*
X99165000Y-111335000I-75000J0D01*
G01*
X97765000Y-111335000D01*
G75*
G02*
X97690000Y-111260000I0J75000D01*
G01*
G37*
%TD*%
D10*
%TO.C,Y1*%
X92456000Y-111234000D03*
X92456000Y-115334000D03*
%TD*%
D11*
%TO.C,VR2*%
X98250000Y-137400000D03*
D12*
X92250000Y-139700000D03*
D11*
X98250000Y-139700000D03*
X98250000Y-142000000D03*
%TD*%
%TO.C,VR1*%
X115110000Y-142000000D03*
D12*
X121110000Y-139700000D03*
D11*
X115110000Y-139700000D03*
X115110000Y-137400000D03*
%TD*%
D13*
%TO.C,U4*%
X109930000Y-140735000D03*
X109130000Y-140735000D03*
X104230000Y-140735000D03*
X103430000Y-140735000D03*
X103430000Y-140735000D03*
X104230000Y-140735000D03*
X109130000Y-140735000D03*
X109930000Y-140735000D03*
D14*
X104930000Y-140735000D03*
X105430000Y-140735000D03*
X105930000Y-140735000D03*
X106930000Y-140735000D03*
X107430000Y-140735000D03*
X107930000Y-140735000D03*
X108430000Y-140735000D03*
X106430000Y-140735000D03*
D15*
X111000000Y-141650000D03*
X102360000Y-141650000D03*
D16*
X103790000Y-142180000D03*
D17*
X102360000Y-145830000D03*
D16*
X109570000Y-142180000D03*
D17*
X111000000Y-145830000D03*
%TD*%
D18*
%TO.C,U3*%
X87777000Y-125349000D03*
X90277000Y-124399000D03*
X90277000Y-126299000D03*
%TD*%
D19*
%TO.C,R8*%
X103370000Y-135890000D03*
X104910000Y-135890000D03*
%TD*%
%TO.C,R7*%
X89289000Y-121158000D03*
X87749000Y-121158000D03*
%TD*%
D20*
%TO.C,R6*%
X92710000Y-124325000D03*
X92710000Y-125865000D03*
%TD*%
D19*
%TO.C,R5*%
X90305000Y-128778000D03*
X88765000Y-128778000D03*
%TD*%
%TO.C,R4*%
X108450000Y-135890000D03*
X109990000Y-135890000D03*
%TD*%
%TO.C,R1*%
X102370000Y-105283000D03*
X100830000Y-105283000D03*
%TD*%
D21*
%TO.C,j1*%
X115515600Y-128216660D03*
X115515600Y-126946660D03*
X115515600Y-125676660D03*
X115515600Y-124406660D03*
%TD*%
D22*
%TO.C,IC1*%
X72009000Y-137033000D03*
D23*
X72009000Y-134493000D03*
X72009000Y-131953000D03*
X72009000Y-129413000D03*
X72009000Y-126873000D03*
X72009000Y-124333000D03*
X72009000Y-121793000D03*
X72009000Y-119253000D03*
X72009000Y-116713000D03*
X72009000Y-114173000D03*
X72009000Y-111633000D03*
X82169000Y-111633000D03*
X82169000Y-114173000D03*
X82169000Y-116713000D03*
X82169000Y-119253000D03*
X82169000Y-121793000D03*
X82169000Y-124333000D03*
X82169000Y-126873000D03*
X82169000Y-129413000D03*
X82169000Y-131953000D03*
X82169000Y-134493000D03*
X82169000Y-137033000D03*
%TD*%
D19*
%TO.C,C16*%
X86225000Y-139827000D03*
X87765000Y-139827000D03*
%TD*%
D20*
%TO.C,C10*%
X114173000Y-111006000D03*
X114173000Y-109466000D03*
%TD*%
D19*
%TO.C,C7*%
X106418000Y-124460000D03*
X107958000Y-124460000D03*
%TD*%
%TO.C,C4*%
X92448000Y-117856000D03*
X93988000Y-117856000D03*
%TD*%
%TO.C,C3*%
X92448000Y-108712000D03*
X93988000Y-108712000D03*
%TD*%
D24*
X98298000Y-137287000D03*
X115062000Y-137795000D03*
X115062000Y-143518000D03*
X107958000Y-124460000D03*
X101473000Y-106807000D03*
X96012000Y-116078000D03*
X99568000Y-121666000D03*
X118999000Y-108458000D03*
X88138000Y-117094000D03*
X98250000Y-142000000D03*
X115110000Y-142000000D03*
X110109000Y-138684000D03*
X96012000Y-117602000D03*
X98425000Y-109855000D03*
X99949000Y-106807000D03*
X109855000Y-109220000D03*
X101854000Y-122936000D03*
X107950000Y-122936000D03*
X97536000Y-122936000D03*
X100584000Y-112522000D03*
X108656999Y-105735999D03*
X115110000Y-139700000D03*
X92710000Y-125865000D03*
X89916000Y-113284000D03*
X84455000Y-112903000D03*
X98250000Y-139700000D03*
X114808000Y-113890500D03*
X112649000Y-111958000D03*
X100584000Y-114054000D03*
X97028000Y-114681000D03*
X86106000Y-109982000D03*
X110109000Y-131064000D03*
X116967000Y-116713000D03*
X109093000Y-130302000D03*
X113284000Y-115824000D03*
X111760000Y-114681000D03*
X90297000Y-118999000D03*
X94107000Y-120142000D03*
X102870000Y-126746000D03*
M02*
