%TF.GenerationSoftware,KiCad,Pcbnew,(5.1.8)-1*%
%TF.CreationDate,2021-05-15T14:33:14+08:00*%
%TF.ProjectId,ccd_with_stm32,6363645f-7769-4746-985f-73746d33322e,rev?*%
%TF.SameCoordinates,Original*%
%TF.FileFunction,Legend,Top*%
%TF.FilePolarity,Positive*%
%FSLAX46Y46*%
G04 Gerber Fmt 4.6, Leading zero omitted, Abs format (unit mm)*
G04 Created by KiCad (PCBNEW (5.1.8)-1) date 2021-05-15 14:33:14*
%MOMM*%
%LPD*%
G01*
G04 APERTURE LIST*
%ADD10C,0.120000*%
%ADD11C,0.254000*%
%ADD12C,0.200000*%
%ADD13C,0.300000*%
%ADD14C,0.150000*%
G04 APERTURE END LIST*
D10*
%TO.C,U1*%
X108300000Y-120045000D02*
X109250000Y-120045000D01*
X109250000Y-120045000D02*
X109250000Y-119095000D01*
X99980000Y-120045000D02*
X99030000Y-120045000D01*
X99030000Y-120045000D02*
X99030000Y-119095000D01*
X108300000Y-109825000D02*
X109250000Y-109825000D01*
X109250000Y-109825000D02*
X109250000Y-110775000D01*
X99980000Y-109825000D02*
X99030000Y-109825000D01*
X99030000Y-109825000D02*
X99030000Y-110775000D01*
X99030000Y-110775000D02*
X97690000Y-110775000D01*
D11*
%TO.C,Y1*%
X94056000Y-116609000D02*
X94056000Y-109959000D01*
X94056000Y-109959000D02*
X93156000Y-109959000D01*
X94056000Y-116609000D02*
X93156000Y-116609000D01*
X91756000Y-109959000D02*
X90856000Y-109959000D01*
X91756000Y-116609000D02*
X90856000Y-116609000D01*
X90856000Y-116609000D02*
X90856000Y-109959000D01*
%TO.C,VR2*%
X93850000Y-136700000D02*
X96650000Y-136700000D01*
X93850000Y-142700000D02*
X93850000Y-136700000D01*
X93850000Y-142700000D02*
X96650000Y-142700000D01*
X96650000Y-142700000D02*
X96650000Y-136700000D01*
%TO.C,VR1*%
X119510000Y-142700000D02*
X116710000Y-142700000D01*
X119510000Y-136700000D02*
X119510000Y-142700000D01*
X119510000Y-136700000D02*
X116710000Y-136700000D01*
X116710000Y-136700000D02*
X116710000Y-142700000D01*
D10*
%TO.C,U4*%
X101980000Y-146780000D02*
X101980000Y-148680000D01*
X101980000Y-142880000D02*
X101980000Y-144880000D01*
X111380000Y-146780000D02*
X111380000Y-148680000D01*
X111380000Y-142880000D02*
X111380000Y-144880000D01*
X101980000Y-148680000D02*
X111380000Y-148680000D01*
D11*
%TO.C,U3*%
X88377000Y-124549000D02*
X88377000Y-123889000D01*
X88377000Y-124549000D02*
X88377000Y-123889000D01*
X88377000Y-124549000D02*
X88377000Y-123889000D01*
X88377000Y-123889000D02*
X89192000Y-123889000D01*
X88377000Y-126809000D02*
X89192000Y-126809000D01*
X88377000Y-126809000D02*
X88377000Y-126149000D01*
D12*
X89927000Y-125649000D02*
X89927000Y-125049000D01*
%TO.C,R8*%
X103740000Y-135100000D02*
X102605000Y-135100000D01*
X105675000Y-135100000D02*
X104540000Y-135100000D01*
X103740000Y-136680000D02*
X102605000Y-136680000D01*
X105675000Y-135100000D02*
X105675000Y-136680000D01*
X102605000Y-135100000D02*
X102605000Y-136680000D01*
X105675000Y-136680000D02*
X104540000Y-136680000D01*
%TO.C,R7*%
X88919000Y-121948000D02*
X90054000Y-121948000D01*
X86984000Y-121948000D02*
X88119000Y-121948000D01*
X88919000Y-120368000D02*
X90054000Y-120368000D01*
X86984000Y-121948000D02*
X86984000Y-120368000D01*
X90054000Y-121948000D02*
X90054000Y-120368000D01*
X86984000Y-120368000D02*
X88119000Y-120368000D01*
%TO.C,R6*%
X93500000Y-124695000D02*
X93500000Y-123560000D01*
X93500000Y-126630000D02*
X93500000Y-125495000D01*
X91920000Y-124695000D02*
X91920000Y-123560000D01*
X93500000Y-126630000D02*
X91920000Y-126630000D01*
X93500000Y-123560000D02*
X91920000Y-123560000D01*
X91920000Y-126630000D02*
X91920000Y-125495000D01*
%TO.C,R5*%
X89935000Y-129568000D02*
X91070000Y-129568000D01*
X88000000Y-129568000D02*
X89135000Y-129568000D01*
X89935000Y-127988000D02*
X91070000Y-127988000D01*
X88000000Y-129568000D02*
X88000000Y-127988000D01*
X91070000Y-129568000D02*
X91070000Y-127988000D01*
X88000000Y-127988000D02*
X89135000Y-127988000D01*
%TO.C,R4*%
X108820000Y-135100000D02*
X107685000Y-135100000D01*
X110755000Y-135100000D02*
X109620000Y-135100000D01*
X108820000Y-136680000D02*
X107685000Y-136680000D01*
X110755000Y-135100000D02*
X110755000Y-136680000D01*
X107685000Y-135100000D02*
X107685000Y-136680000D01*
X110755000Y-136680000D02*
X109620000Y-136680000D01*
%TO.C,R1*%
X102000000Y-106073000D02*
X103135000Y-106073000D01*
X100065000Y-106073000D02*
X101200000Y-106073000D01*
X102000000Y-104493000D02*
X103135000Y-104493000D01*
X100065000Y-106073000D02*
X100065000Y-104493000D01*
X103135000Y-106073000D02*
X103135000Y-104493000D01*
X100065000Y-104493000D02*
X101200000Y-104493000D01*
%TO.C,j1*%
X113177320Y-128920240D02*
X113177320Y-123543060D01*
D13*
X116179740Y-129692400D02*
G75*
G03*
X116179740Y-129692400I-150000J0D01*
G01*
D12*
X117627400Y-128981200D02*
X117627400Y-123604020D01*
X117627400Y-128981200D02*
X113164620Y-128981200D01*
X117640100Y-123543060D02*
X113177320Y-123543060D01*
%TO.C,C16*%
X85860000Y-140617000D02*
G75*
G02*
X85460000Y-140217000I0J400000D01*
G01*
X85460000Y-139437000D02*
G75*
G02*
X85860000Y-139037000I400000J0D01*
G01*
X88130000Y-139037000D02*
G75*
G02*
X88530000Y-139437000I0J-400000D01*
G01*
X88530000Y-140217000D02*
G75*
G02*
X88130000Y-140617000I-400000J0D01*
G01*
X88130000Y-139037000D02*
X87395000Y-139037000D01*
X86595000Y-139037000D02*
X85860000Y-139037000D01*
X86595000Y-140617000D02*
X85860000Y-140617000D01*
X88530000Y-139437000D02*
X88530000Y-140217000D01*
X85460000Y-139437000D02*
X85460000Y-140217000D01*
X88130000Y-140617000D02*
X87395000Y-140617000D01*
%TO.C,C10*%
X114963000Y-111371000D02*
G75*
G02*
X114563000Y-111771000I-400000J0D01*
G01*
X113783000Y-111771000D02*
G75*
G02*
X113383000Y-111371000I0J400000D01*
G01*
X113383000Y-109101000D02*
G75*
G02*
X113783000Y-108701000I400000J0D01*
G01*
X114563000Y-108701000D02*
G75*
G02*
X114963000Y-109101000I0J-400000D01*
G01*
X113383000Y-109101000D02*
X113383000Y-109836000D01*
X113383000Y-110636000D02*
X113383000Y-111371000D01*
X114963000Y-110636000D02*
X114963000Y-111371000D01*
X113783000Y-108701000D02*
X114563000Y-108701000D01*
X113783000Y-111771000D02*
X114563000Y-111771000D01*
X114963000Y-109101000D02*
X114963000Y-109836000D01*
%TO.C,C7*%
X106053000Y-125250000D02*
G75*
G02*
X105653000Y-124850000I0J400000D01*
G01*
X105653000Y-124070000D02*
G75*
G02*
X106053000Y-123670000I400000J0D01*
G01*
X108323000Y-123670000D02*
G75*
G02*
X108723000Y-124070000I0J-400000D01*
G01*
X108723000Y-124850000D02*
G75*
G02*
X108323000Y-125250000I-400000J0D01*
G01*
X108323000Y-123670000D02*
X107588000Y-123670000D01*
X106788000Y-123670000D02*
X106053000Y-123670000D01*
X106788000Y-125250000D02*
X106053000Y-125250000D01*
X108723000Y-124070000D02*
X108723000Y-124850000D01*
X105653000Y-124070000D02*
X105653000Y-124850000D01*
X108323000Y-125250000D02*
X107588000Y-125250000D01*
%TO.C,C4*%
X92083000Y-118646000D02*
G75*
G02*
X91683000Y-118246000I0J400000D01*
G01*
X91683000Y-117466000D02*
G75*
G02*
X92083000Y-117066000I400000J0D01*
G01*
X94353000Y-117066000D02*
G75*
G02*
X94753000Y-117466000I0J-400000D01*
G01*
X94753000Y-118246000D02*
G75*
G02*
X94353000Y-118646000I-400000J0D01*
G01*
X94353000Y-117066000D02*
X93618000Y-117066000D01*
X92818000Y-117066000D02*
X92083000Y-117066000D01*
X92818000Y-118646000D02*
X92083000Y-118646000D01*
X94753000Y-117466000D02*
X94753000Y-118246000D01*
X91683000Y-117466000D02*
X91683000Y-118246000D01*
X94353000Y-118646000D02*
X93618000Y-118646000D01*
%TO.C,C3*%
X92083000Y-109502000D02*
G75*
G02*
X91683000Y-109102000I0J400000D01*
G01*
X91683000Y-108322000D02*
G75*
G02*
X92083000Y-107922000I400000J0D01*
G01*
X94353000Y-107922000D02*
G75*
G02*
X94753000Y-108322000I0J-400000D01*
G01*
X94753000Y-109102000D02*
G75*
G02*
X94353000Y-109502000I-400000J0D01*
G01*
X94353000Y-107922000D02*
X93618000Y-107922000D01*
X92818000Y-107922000D02*
X92083000Y-107922000D01*
X92818000Y-109502000D02*
X92083000Y-109502000D01*
X94753000Y-108322000D02*
X94753000Y-109102000D01*
X91683000Y-108322000D02*
X91683000Y-109102000D01*
X94353000Y-109502000D02*
X93618000Y-109502000D01*
%TO.C,U1*%
D14*
X103378095Y-106987380D02*
X103378095Y-107796904D01*
X103425714Y-107892142D01*
X103473333Y-107939761D01*
X103568571Y-107987380D01*
X103759047Y-107987380D01*
X103854285Y-107939761D01*
X103901904Y-107892142D01*
X103949523Y-107796904D01*
X103949523Y-106987380D01*
X104949523Y-107987380D02*
X104378095Y-107987380D01*
X104663809Y-107987380D02*
X104663809Y-106987380D01*
X104568571Y-107130238D01*
X104473333Y-107225476D01*
X104378095Y-107273095D01*
%TO.C,Y1*%
X90155914Y-115735809D02*
X90632104Y-115735809D01*
X89632104Y-116069142D02*
X90155914Y-115735809D01*
X89632104Y-115402476D01*
X90632104Y-114545333D02*
X90632104Y-115116761D01*
X90632104Y-114831047D02*
X89632104Y-114831047D01*
X89774962Y-114926285D01*
X89870200Y-115021523D01*
X89917819Y-115116761D01*
%TO.C,VR2*%
X91215257Y-135203104D02*
X91548590Y-136203104D01*
X91881923Y-135203104D01*
X92786685Y-136203104D02*
X92453352Y-135726914D01*
X92215257Y-136203104D02*
X92215257Y-135203104D01*
X92596209Y-135203104D01*
X92691447Y-135250724D01*
X92739066Y-135298343D01*
X92786685Y-135393581D01*
X92786685Y-135536438D01*
X92739066Y-135631676D01*
X92691447Y-135679295D01*
X92596209Y-135726914D01*
X92215257Y-135726914D01*
X93167638Y-135298343D02*
X93215257Y-135250724D01*
X93310495Y-135203104D01*
X93548590Y-135203104D01*
X93643828Y-135250724D01*
X93691447Y-135298343D01*
X93739066Y-135393581D01*
X93739066Y-135488819D01*
X93691447Y-135631676D01*
X93120019Y-136203104D01*
X93739066Y-136203104D01*
%TO.C,VR1*%
X119525695Y-143101656D02*
X119859028Y-144101656D01*
X120192361Y-143101656D01*
X121097123Y-144101656D02*
X120763790Y-143625466D01*
X120525695Y-144101656D02*
X120525695Y-143101656D01*
X120906647Y-143101656D01*
X121001885Y-143149276D01*
X121049504Y-143196895D01*
X121097123Y-143292133D01*
X121097123Y-143434990D01*
X121049504Y-143530228D01*
X121001885Y-143577847D01*
X120906647Y-143625466D01*
X120525695Y-143625466D01*
X122049504Y-144101656D02*
X121478076Y-144101656D01*
X121763790Y-144101656D02*
X121763790Y-143101656D01*
X121668552Y-143244514D01*
X121573314Y-143339752D01*
X121478076Y-143387371D01*
%TO.C,U4*%
X105918095Y-138587380D02*
X105918095Y-139396904D01*
X105965714Y-139492142D01*
X106013333Y-139539761D01*
X106108571Y-139587380D01*
X106299047Y-139587380D01*
X106394285Y-139539761D01*
X106441904Y-139492142D01*
X106489523Y-139396904D01*
X106489523Y-138587380D01*
X107394285Y-138920714D02*
X107394285Y-139587380D01*
X107156190Y-138539761D02*
X106918095Y-139254047D01*
X107537142Y-139254047D01*
%TO.C,U3*%
X87764876Y-122665104D02*
X87764876Y-123474628D01*
X87812495Y-123569866D01*
X87860114Y-123617485D01*
X87955352Y-123665104D01*
X88145828Y-123665104D01*
X88241066Y-123617485D01*
X88288685Y-123569866D01*
X88336304Y-123474628D01*
X88336304Y-122665104D01*
X88717257Y-122665104D02*
X89336304Y-122665104D01*
X89002971Y-123046057D01*
X89145828Y-123046057D01*
X89241066Y-123093676D01*
X89288685Y-123141295D01*
X89336304Y-123236533D01*
X89336304Y-123474628D01*
X89288685Y-123569866D01*
X89241066Y-123617485D01*
X89145828Y-123665104D01*
X88860114Y-123665104D01*
X88764876Y-123617485D01*
X88717257Y-123569866D01*
%TO.C,R8*%
X103973333Y-134437380D02*
X103640000Y-133961190D01*
X103401904Y-134437380D02*
X103401904Y-133437380D01*
X103782857Y-133437380D01*
X103878095Y-133485000D01*
X103925714Y-133532619D01*
X103973333Y-133627857D01*
X103973333Y-133770714D01*
X103925714Y-133865952D01*
X103878095Y-133913571D01*
X103782857Y-133961190D01*
X103401904Y-133961190D01*
X104544761Y-133865952D02*
X104449523Y-133818333D01*
X104401904Y-133770714D01*
X104354285Y-133675476D01*
X104354285Y-133627857D01*
X104401904Y-133532619D01*
X104449523Y-133485000D01*
X104544761Y-133437380D01*
X104735238Y-133437380D01*
X104830476Y-133485000D01*
X104878095Y-133532619D01*
X104925714Y-133627857D01*
X104925714Y-133675476D01*
X104878095Y-133770714D01*
X104830476Y-133818333D01*
X104735238Y-133865952D01*
X104544761Y-133865952D01*
X104449523Y-133913571D01*
X104401904Y-133961190D01*
X104354285Y-134056428D01*
X104354285Y-134246904D01*
X104401904Y-134342142D01*
X104449523Y-134389761D01*
X104544761Y-134437380D01*
X104735238Y-134437380D01*
X104830476Y-134389761D01*
X104878095Y-134342142D01*
X104925714Y-134246904D01*
X104925714Y-134056428D01*
X104878095Y-133961190D01*
X104830476Y-133913571D01*
X104735238Y-133865952D01*
%TO.C,R7*%
X88193714Y-120171104D02*
X87860381Y-119694914D01*
X87622285Y-120171104D02*
X87622285Y-119171104D01*
X88003238Y-119171104D01*
X88098476Y-119218724D01*
X88146095Y-119266343D01*
X88193714Y-119361581D01*
X88193714Y-119504438D01*
X88146095Y-119599676D01*
X88098476Y-119647295D01*
X88003238Y-119694914D01*
X87622285Y-119694914D01*
X88527047Y-119171104D02*
X89193714Y-119171104D01*
X88765142Y-120171104D01*
%TO.C,R6*%
X95194380Y-125642666D02*
X94718190Y-125976000D01*
X95194380Y-126214095D02*
X94194380Y-126214095D01*
X94194380Y-125833142D01*
X94242000Y-125737904D01*
X94289619Y-125690285D01*
X94384857Y-125642666D01*
X94527714Y-125642666D01*
X94622952Y-125690285D01*
X94670571Y-125737904D01*
X94718190Y-125833142D01*
X94718190Y-126214095D01*
X94194380Y-124785523D02*
X94194380Y-124976000D01*
X94242000Y-125071238D01*
X94289619Y-125118857D01*
X94432476Y-125214095D01*
X94622952Y-125261714D01*
X95003904Y-125261714D01*
X95099142Y-125214095D01*
X95146761Y-125166476D01*
X95194380Y-125071238D01*
X95194380Y-124880761D01*
X95146761Y-124785523D01*
X95099142Y-124737904D01*
X95003904Y-124690285D01*
X94765809Y-124690285D01*
X94670571Y-124737904D01*
X94622952Y-124785523D01*
X94575333Y-124880761D01*
X94575333Y-125071238D01*
X94622952Y-125166476D01*
X94670571Y-125214095D01*
X94765809Y-125261714D01*
%TO.C,R5*%
X92035333Y-129103380D02*
X91702000Y-128627190D01*
X91463904Y-129103380D02*
X91463904Y-128103380D01*
X91844857Y-128103380D01*
X91940095Y-128151000D01*
X91987714Y-128198619D01*
X92035333Y-128293857D01*
X92035333Y-128436714D01*
X91987714Y-128531952D01*
X91940095Y-128579571D01*
X91844857Y-128627190D01*
X91463904Y-128627190D01*
X92940095Y-128103380D02*
X92463904Y-128103380D01*
X92416285Y-128579571D01*
X92463904Y-128531952D01*
X92559142Y-128484333D01*
X92797238Y-128484333D01*
X92892476Y-128531952D01*
X92940095Y-128579571D01*
X92987714Y-128674809D01*
X92987714Y-128912904D01*
X92940095Y-129008142D01*
X92892476Y-129055761D01*
X92797238Y-129103380D01*
X92559142Y-129103380D01*
X92463904Y-129055761D01*
X92416285Y-129008142D01*
%TO.C,R4*%
X109053333Y-134437380D02*
X108720000Y-133961190D01*
X108481904Y-134437380D02*
X108481904Y-133437380D01*
X108862857Y-133437380D01*
X108958095Y-133485000D01*
X109005714Y-133532619D01*
X109053333Y-133627857D01*
X109053333Y-133770714D01*
X109005714Y-133865952D01*
X108958095Y-133913571D01*
X108862857Y-133961190D01*
X108481904Y-133961190D01*
X109910476Y-133770714D02*
X109910476Y-134437380D01*
X109672380Y-133389761D02*
X109434285Y-134104047D01*
X110053333Y-134104047D01*
%TO.C,R1*%
X104354333Y-105608380D02*
X104021000Y-105132190D01*
X103782904Y-105608380D02*
X103782904Y-104608380D01*
X104163857Y-104608380D01*
X104259095Y-104656000D01*
X104306714Y-104703619D01*
X104354333Y-104798857D01*
X104354333Y-104941714D01*
X104306714Y-105036952D01*
X104259095Y-105084571D01*
X104163857Y-105132190D01*
X103782904Y-105132190D01*
X105306714Y-105608380D02*
X104735285Y-105608380D01*
X105021000Y-105608380D02*
X105021000Y-104608380D01*
X104925761Y-104751238D01*
X104830523Y-104846476D01*
X104735285Y-104894095D01*
%TO.C,j1*%
X111474594Y-122576530D02*
X112331737Y-122576530D01*
X112426975Y-122624149D01*
X112474594Y-122719387D01*
X112474594Y-122767006D01*
X111141260Y-122576530D02*
X111188880Y-122624149D01*
X111236499Y-122576530D01*
X111188880Y-122528911D01*
X111141260Y-122576530D01*
X111236499Y-122576530D01*
X112141260Y-121576530D02*
X112141260Y-122147959D01*
X112141260Y-121862244D02*
X111141260Y-121862244D01*
X111284118Y-121957482D01*
X111379356Y-122052720D01*
X111426975Y-122147959D01*
%TO.C,C16*%
X86510761Y-141623418D02*
X86463142Y-141671037D01*
X86320285Y-141718656D01*
X86225047Y-141718656D01*
X86082190Y-141671037D01*
X85986952Y-141575799D01*
X85939333Y-141480561D01*
X85891714Y-141290085D01*
X85891714Y-141147228D01*
X85939333Y-140956752D01*
X85986952Y-140861514D01*
X86082190Y-140766276D01*
X86225047Y-140718656D01*
X86320285Y-140718656D01*
X86463142Y-140766276D01*
X86510761Y-140813895D01*
X87463142Y-141718656D02*
X86891714Y-141718656D01*
X87177428Y-141718656D02*
X87177428Y-140718656D01*
X87082190Y-140861514D01*
X86986952Y-140956752D01*
X86891714Y-141004371D01*
X88320285Y-140718656D02*
X88129809Y-140718656D01*
X88034571Y-140766276D01*
X87986952Y-140813895D01*
X87891714Y-140956752D01*
X87844095Y-141147228D01*
X87844095Y-141528180D01*
X87891714Y-141623418D01*
X87939333Y-141671037D01*
X88034571Y-141718656D01*
X88225047Y-141718656D01*
X88320285Y-141671037D01*
X88367904Y-141623418D01*
X88415523Y-141528180D01*
X88415523Y-141290085D01*
X88367904Y-141194847D01*
X88320285Y-141147228D01*
X88225047Y-141099609D01*
X88034571Y-141099609D01*
X87939333Y-141147228D01*
X87891714Y-141194847D01*
X87844095Y-141290085D01*
%TO.C,C10*%
X115969418Y-110720238D02*
X116017037Y-110767857D01*
X116064656Y-110910714D01*
X116064656Y-111005952D01*
X116017037Y-111148809D01*
X115921799Y-111244047D01*
X115826561Y-111291666D01*
X115636085Y-111339285D01*
X115493228Y-111339285D01*
X115302752Y-111291666D01*
X115207514Y-111244047D01*
X115112276Y-111148809D01*
X115064656Y-111005952D01*
X115064656Y-110910714D01*
X115112276Y-110767857D01*
X115159895Y-110720238D01*
X116064656Y-109767857D02*
X116064656Y-110339285D01*
X116064656Y-110053571D02*
X115064656Y-110053571D01*
X115207514Y-110148809D01*
X115302752Y-110244047D01*
X115350371Y-110339285D01*
X115064656Y-109148809D02*
X115064656Y-109053571D01*
X115112276Y-108958333D01*
X115159895Y-108910714D01*
X115255133Y-108863095D01*
X115445609Y-108815476D01*
X115683704Y-108815476D01*
X115874180Y-108863095D01*
X115969418Y-108910714D01*
X116017037Y-108958333D01*
X116064656Y-109053571D01*
X116064656Y-109148809D01*
X116017037Y-109244047D01*
X115969418Y-109291666D01*
X115874180Y-109339285D01*
X115683704Y-109386904D01*
X115445609Y-109386904D01*
X115255133Y-109339285D01*
X115159895Y-109291666D01*
X115112276Y-109244047D01*
X115064656Y-109148809D01*
%TO.C,C7*%
X107179952Y-126256418D02*
X107132333Y-126304037D01*
X106989476Y-126351656D01*
X106894238Y-126351656D01*
X106751380Y-126304037D01*
X106656142Y-126208799D01*
X106608523Y-126113561D01*
X106560904Y-125923085D01*
X106560904Y-125780228D01*
X106608523Y-125589752D01*
X106656142Y-125494514D01*
X106751380Y-125399276D01*
X106894238Y-125351656D01*
X106989476Y-125351656D01*
X107132333Y-125399276D01*
X107179952Y-125446895D01*
X107513285Y-125351656D02*
X108179952Y-125351656D01*
X107751380Y-126351656D01*
%TO.C,C4*%
X93209952Y-119652418D02*
X93162333Y-119700037D01*
X93019476Y-119747656D01*
X92924238Y-119747656D01*
X92781380Y-119700037D01*
X92686142Y-119604799D01*
X92638523Y-119509561D01*
X92590904Y-119319085D01*
X92590904Y-119176228D01*
X92638523Y-118985752D01*
X92686142Y-118890514D01*
X92781380Y-118795276D01*
X92924238Y-118747656D01*
X93019476Y-118747656D01*
X93162333Y-118795276D01*
X93209952Y-118842895D01*
X94067095Y-119080990D02*
X94067095Y-119747656D01*
X93828999Y-118700037D02*
X93590904Y-119414323D01*
X94209952Y-119414323D01*
%TO.C,C3*%
X93209952Y-107418142D02*
X93162333Y-107465761D01*
X93019476Y-107513380D01*
X92924238Y-107513380D01*
X92781380Y-107465761D01*
X92686142Y-107370523D01*
X92638523Y-107275285D01*
X92590904Y-107084809D01*
X92590904Y-106941952D01*
X92638523Y-106751476D01*
X92686142Y-106656238D01*
X92781380Y-106561000D01*
X92924238Y-106513380D01*
X93019476Y-106513380D01*
X93162333Y-106561000D01*
X93209952Y-106608619D01*
X93543285Y-106513380D02*
X94162333Y-106513380D01*
X93828999Y-106894333D01*
X93971857Y-106894333D01*
X94067095Y-106941952D01*
X94114714Y-106989571D01*
X94162333Y-107084809D01*
X94162333Y-107322904D01*
X94114714Y-107418142D01*
X94067095Y-107465761D01*
X93971857Y-107513380D01*
X93686142Y-107513380D01*
X93590904Y-107465761D01*
X93543285Y-107418142D01*
%TD*%
M02*
