M48
; DRILL file {KiCad (5.1.8)-1} date 05/15/21 14:33:17
; FORMAT={-:-/ absolute / inch / decimal}
; #@! TF.CreationDate,2021-05-15T14:33:17+08:00
; #@! TF.GenerationSoftware,Kicad,Pcbnew,(5.1.8)-1
; #@! TF.FileFunction,Plated,1,2,PTH
FMAT,2
INCH
T1C0.0157
T2C0.0236
T3C0.0323
%
G90
G05
T1
X3.325Y-4.445
X3.39Y-4.33
X3.47Y-4.61
X3.54Y-4.46
X3.555Y-4.685
X3.65Y-4.9553
X3.705Y-4.73
X3.78Y-4.57
X3.78Y-4.63
X3.82Y-4.515
X3.84Y-4.84
X3.8681Y-5.5
X3.8681Y-5.5906
X3.87Y-5.405
X3.875Y-4.325
X3.92Y-4.79
X3.935Y-4.205
X3.96Y-4.43
X3.96Y-4.4903
X3.995Y-4.205
X4.01Y-4.84
X4.05Y-4.99
X4.25Y-4.84
X4.2503Y-4.9
X4.2778Y-4.1628
X4.295Y-5.13
X4.325Y-4.3
X4.335Y-5.16
X4.335Y-5.46
X4.4Y-4.515
X4.435Y-4.4078
X4.46Y-4.56
X4.52Y-4.4839
X4.53Y-5.425
X4.53Y-5.6503
X4.5319Y-5.5
X4.5319Y-5.5906
X4.605Y-4.595
X4.685Y-4.27
T3
X2.835Y-4.395
X2.835Y-4.495
X2.835Y-4.595
X2.835Y-4.695
X2.835Y-4.795
X2.835Y-4.895
X2.835Y-4.995
X2.835Y-5.095
X2.835Y-5.195
X2.835Y-5.295
X2.835Y-5.395
X3.235Y-4.395
X3.235Y-4.495
X3.235Y-4.595
X3.235Y-4.695
X3.235Y-4.795
X3.235Y-4.895
X3.235Y-4.995
X3.235Y-5.095
X3.235Y-5.195
X3.235Y-5.295
X3.235Y-5.395
T2
G00X4.0299Y-5.5551
M15
G01X4.0299Y-5.5984
M16
G05
G00X4.0299Y-5.7295
M15
G01X4.0299Y-5.7531
M16
G05
G00X4.3701Y-5.5551
M15
G01X4.3701Y-5.5984
M16
G05
G00X4.3701Y-5.7295
M15
G01X4.3701Y-5.7531
M16
G05
T0
M30
