  0
SECTION
  2
HEADER
  9
$ACADVER
  1
AC1014
  9
$HANDSEED
  5
FFFF
  9
$MEASUREMENT
 70
     1
  0
ENDSEC
  0
SECTION
  2
TABLES
  0
TABLE
  2
VPORT
  5
8
330
0
100
AcDbSymbolTable
 70
     4
  0
VPORT
  5
2E
330
8
100
AcDbSymbolTableRecord
100
AcDbViewportTableRecord
  2
*ACTIVE
 70
     0
 10
0.0
 20
0.0
 11
1.0
 21
1.0
 12
210.0
 22
148.5
 13
0.0
 23
0.0
 14
10.0
 24
10.0
 15
10.0
 25
10.0
 16
0.0
 26
0.0
 36
1.0
 17
0.0
 27
0.0
 37
0.0
 40
341.0
 41
1.24
 42
50.0
 43
0.0
 44
0.0
 50
0.0
 51
0.0
 71
     0
 72
   100
 73
     1
 74
     3
 75
     0
 76
     0
 77
     0
 78
     0
  0
ENDTAB
  0
TABLE
  2
LTYPE
  5
5
330
0
100
AcDbSymbolTable
 70
     1
  0
LTYPE
  5
14
330
5
100
AcDbSymbolTableRecord
100
AcDbLinetypeTableRecord
  2
BYBLOCK
 70
     0
  3

 72
    65
 73
     0
 40
0.0
  0
LTYPE
  5
15
330
5
100
AcDbSymbolTableRecord
100
AcDbLinetypeTableRecord
  2
BYLAYER
 70
     0
  3

 72
    65
 73
     0
 40
0.0
  0
LTYPE
  5
16
330
5
100
AcDbSymbolTableRecord
100
AcDbLinetypeTableRecord
  2
CONTINUOUS
 70
     0
  3
Solid line
 72
    65
 73
     0
 40
0.0
  0
ENDTAB
  0
TABLE
  2
LAYER
  5
2
100
AcDbSymbolTable
 70
2
  0
LAYER
  5
50
100
AcDbSymbolTableRecord
100
AcDbLayerTableRecord
  2
0
 70
0
  6
CONTINUOUS
  0
LAYER
  5
51
100
AcDbSymbolTableRecord
100
AcDbLayerTableRecord
  2
Layer_1
 70
0
  6
CONTINUOUS
  0
ENDTAB
  0
TABLE
  2
STYLE
  5
3
330
0
100
AcDbSymbolTable
 70
     1
  0
STYLE
  5
11
330
3
100
AcDbSymbolTableRecord
100
AcDbTextStyleTableRecord
  2
STANDARD
 70
     0
 40
0.0
 41
1.0
 50
0.0
 71
     0
 42
2.5
  3
txt
  4

  0
ENDTAB
  0
TABLE
  2
VIEW
  5
6
330
0
100
AcDbSymbolTable
 70
     0
  0
ENDTAB
  0
TABLE
  2
UCS
  5
7
330
0
100
AcDbSymbolTable
 70
     0
  0
ENDTAB
  0
TABLE
  2
APPID
  5
9
330
0
100
AcDbSymbolTable
 70
     2
  0
APPID
  5
12
330
9
100
AcDbSymbolTableRecord
100
AcDbRegAppTableRecord
  2
ACAD
 70
     0
  0
ENDTAB
  0
TABLE
  2
DIMSTYLE
  5
A
330
0
100
AcDbSymbolTable
 70
     1
  0
DIMSTYLE
105
27
330
A
100
AcDbSymbolTableRecord
100
AcDbDimStyleTableRecord
  2
ISO-25
 70
     0
  3

  4

  5

  6

  7

 40
1.0
 41
2.5
 42
0.625
 43
3.75
 44
1.25
 45
0.0
 46
0.0
 47
0.0
 48
0.0
140
2.5
141
2.5
142
0.0
143
0.03937007874016
144
1.0
145
0.0
146
1.0
147
0.625
 71
     0
 72
     0
 73
     0
 74
     0
 75
     0
 76
     0
 77
     1
 78
     8
170
     0
171
     3
172
     1
173
     0
174
     0
175
     0
176
     0
177
     0
178
     0
270
     2
271
     2
272
     2
273
     2
274
     3
340
11
275
     0
280
     0
281
     0
282
     0
283
     0
284
     8
285
     0
286
     0
287
     3
288
     0
  0
ENDTAB
  0
TABLE
  2
BLOCK_RECORD
  5
1
330
0
100
AcDbSymbolTable
 70
     1
  0
BLOCK_RECORD
  5
1F
330
1
100
AcDbSymbolTableRecord
100
AcDbBlockTableRecord
  2
*MODEL_SPACE
  0
BLOCK_RECORD
  5
1B
330
1
100
AcDbSymbolTableRecord
100
AcDbBlockTableRecord
  2
*PAPER_SPACE
  0
ENDTAB
  0
ENDSEC
  0
SECTION
  2
BLOCKS
  0
BLOCK
  5
20
330
1F
100
AcDbEntity
  8
0
100
AcDbBlockBegin
  2
*MODEL_SPACE
 70
     0
 10
0.0
 20
0.0
 30
0.0
  3
*MODEL_SPACE
  1

  0
ENDBLK
  5
21
330
1F
100
AcDbEntity
  8
0
100
AcDbBlockEnd
  0
BLOCK
  5
1C
330
1B
100
AcDbEntity
 67
     1
  8
0
100
AcDbBlockBegin
  2
*PAPER_SPACE
  1

  0
ENDBLK
  5
1D
330
1B
100
AcDbEntity
 67
     1
  8
0
100
AcDbBlockEnd
  0
ENDSEC
  0
SECTION
  2
ENTITIES
  0
SPLINE
  5
100
100
AcDbEntity
  8
Layer_1
 62
7
100
AcDbSpline
 70
8
 71
3
 72
8
 73
4
 74
0
 40
0
 40
0
 40
0
 40
0
 40
1
 40
1
 40
1
 40
1
 10
35.794497
 20
14.779821
 30
0.0
 10
32.212189
 20
12.007948
 30
0.0
 10
28.042737
 20
10.093167
 30
0.0
 10
23.605792
 20
9.182273
 30
0.0
  0
SPLINE
  5
101
100
AcDbEntity
  8
Layer_1
 62
7
100
AcDbSpline
 70
8
 71
3
 72
8
 73
4
 74
0
 40
0
 40
0
 40
0
 40
0
 40
1
 40
1
 40
1
 40
1
 10
23.605792
 20
9.182273
 30
0.0
 10
16.409828
 20
7.608546
 30
0.0
 10
9.701413
 20
8.565126
 30
0.0
 10
6.109603
 20
11.650873
 30
0.0
  0
SPLINE
  5
102
100
AcDbEntity
  8
Layer_1
 62
7
100
AcDbSpline
 70
8
 71
3
 72
8
 73
4
 74
0
 40
0
 40
0
 40
0
 40
0
 40
1
 40
1
 40
1
 40
1
 10
6.109603
 20
11.650873
 30
0.0
 10
4.545488
 20
12.928943
 30
0.0
 10
3.571273
 20
14.790430
 30
0.0
 10
3.412659
 20
16.804073
 30
0.0
  0
SPLINE
  5
103
100
AcDbEntity
  8
Layer_1
 62
7
100
AcDbSpline
 70
8
 71
3
 72
8
 73
4
 74
0
 40
0
 40
0
 40
0
 40
0
 40
1
 40
1
 40
1
 40
1
 10
3.412659
 20
16.804073
 30
0.0
 10
2.980655
 20
22.037500
 30
0.0
 10
6.905726
 20
27.456073
 30
0.0
 10
13.904201
 20
31.288571
 30
0.0
  0
SPLINE
  5
104
100
AcDbEntity
  8
Layer_1
 62
7
100
AcDbSpline
 70
8
 71
3
 72
8
 73
4
 74
0
 40
0
 40
0
 40
0
 40
0
 40
1
 40
1
 40
1
 40
1
 10
13.823972
 20
31.523087
 30
0.0
 10
5.597368
 20
28.165794
 30
0.0
 10
-0.185322
 20
21.981957
 30
0.0
 10
0.234340
 20
16.100522
 30
0.0
  0
SPLINE
  5
105
100
AcDbEntity
  8
Layer_1
 62
7
100
AcDbSpline
 70
8
 71
3
 72
8
 73
4
 74
0
 40
0
 40
0
 40
0
 40
0
 40
1
 40
1
 40
1
 40
1
 10
0.234340
 20
16.100522
 30
0.0
 10
0.389053
 20
13.711533
 30
0.0
 10
1.501724
 20
11.486193
 30
0.0
 10
3.320087
 20
9.929030
 30
0.0
  0
SPLINE
  5
106
100
AcDbEntity
  8
Layer_1
 62
7
100
AcDbSpline
 70
8
 71
3
 72
8
 73
4
 74
0
 40
0
 40
0
 40
0
 40
0
 40
1
 40
1
 40
1
 40
1
 10
3.320087
 20
9.929030
 30
0.0
 10
7.146414
 20
6.596419
 30
0.0
 10
13.922715
 20
5.565779
 30
0.0
 10
21.445768
 20
7.170367
 30
0.0
  0
SPLINE
  5
107
100
AcDbEntity
  8
Layer_1
 62
7
100
AcDbSpline
 70
8
 71
3
 72
8
 73
4
 74
0
 40
0
 40
0
 40
0
 40
0
 40
1
 40
1
 40
1
 40
1
 10
21.445768
 20
7.170367
 30
0.0
 10
26.855089
 20
8.246472
 30
0.0
 10
31.856577
 20
10.811339
 30
0.0
 10
35.887068
 20
14.576163
 30
0.0
  0
LWPOLYLINE
  5
108
100
AcDbEntity
  8
Layer_1
 62
7
100
AcDbPolyline
 90
4
 70
0
 10
13.904201
 20
31.288571
 30
0.0
 10
13.972088
 20
31.325600
 30
0.0
 10
13.891859
 20
31.523087
 30
0.0
 10
13.823972
 20
31.523087
 30
0.0
  0
SPLINE
  5
109
100
AcDbEntity
  8
Layer_1
 62
7
100
AcDbSpline
 70
8
 71
3
 72
8
 73
4
 74
0
 40
0
 40
0
 40
0
 40
0
 40
1
 40
1
 40
1
 40
1
 10
41.192022
 20
28.787850
 30
0.0
 10
39.760234
 20
31.978513
 30
0.0
 10
36.618939
 20
34.150879
 30
0.0
 10
32.348271
 20
34.891459
 30
0.0
  0
SPLINE
  5
10a
100
AcDbEntity
  8
Layer_1
 62
7
100
AcDbSpline
 70
8
 71
3
 72
8
 73
4
 74
0
 40
0
 40
0
 40
0
 40
0
 40
1
 40
1
 40
1
 40
1
 10
32.348271
 20
34.891459
 30
0.0
 10
25.417678
 20
36.101072
 30
0.0
 10
17.154046
 20
33.132582
 30
0.0
 10
13.000630
 20
28.318816
 30
0.0
  0
LWPOLYLINE
  5
10b
100
AcDbEntity
  8
Layer_1
 62
7
100
AcDbPolyline
 90
4
 70
0
 10
35.887068
 20
14.576163
 30
0.0
 10
35.954957
 20
14.650210
 30
0.0
 10
35.800668
 20
14.810673
 30
0.0
 10
35.794497
 20
14.779821
 30
0.0
  0
SPLINE
  5
10c
100
AcDbEntity
  8
Layer_1
 62
7
100
AcDbSpline
 70
8
 71
3
 72
8
 73
4
 74
0
 40
0
 40
0
 40
0
 40
0
 40
1
 40
1
 40
1
 40
1
 10
13.142572
 20
28.133671
 30
0.0
 10
16.318680
 20
30.609044
 30
0.0
 10
20.082305
 20
32.218684
 30
0.0
 10
24.066120
 20
32.805493
 30
0.0
  0
SPLINE
  5
10d
100
AcDbEntity
  8
Layer_1
 62
7
100
AcDbSpline
 70
8
 71
3
 72
8
 73
4
 74
0
 40
0
 40
0
 40
0
 40
0
 40
1
 40
1
 40
1
 40
1
 10
24.066120
 20
32.805493
 30
0.0
 10
30.132697
 20
33.731217
 30
0.0
 10
35.218015
 20
32.188344
 30
0.0
 10
37.643409
 20
28.732306
 30
0.0
  0
SPLINE
  5
10e
100
AcDbEntity
  8
Layer_1
 62
7
100
AcDbSpline
 70
8
 71
3
 72
8
 73
4
 74
0
 40
0
 40
0
 40
0
 40
0
 40
1
 40
1
 40
1
 40
1
 10
37.643409
 20
28.732306
 30
0.0
 10
40.031782
 20
25.350327
 30
0.0
 10
39.352915
 20
18.857914
 30
0.0
 10
36.223968
 20
15.062445
 30
0.0
  0
LWPOLYLINE
  5
10f
100
AcDbEntity
  8
Layer_1
 62
7
100
AcDbPolyline
 90
4
 70
0
 10
13.000630
 20
28.318816
 30
0.0
 10
12.945085
 20
28.257100
 30
0.0
 10
13.074687
 20
28.078126
 30
0.0
 10
13.142572
 20
28.133671
 30
0.0
  0
SPLINE
  5
110
100
AcDbEntity
  8
Layer_1
 62
7
100
AcDbSpline
 70
8
 71
3
 72
8
 73
4
 74
0
 40
0
 40
0
 40
0
 40
0
 40
1
 40
1
 40
1
 40
1
 10
36.384437
 20
14.864960
 30
0.0
 10
41.179686
 20
19.401008
 30
0.0
 10
43.469311
 20
23.696368
 30
0.0
 10
41.192031
 20
28.787852
 30
0.0
  0
LWPOLYLINE
  5
111
100
AcDbEntity
  8
Layer_1
 62
7
100
AcDbPolyline
 90
4
 70
0
 10
36.223968
 20
15.062445
 30
0.0
 10
36.168409
 20
14.988387
 30
0.0
 10
36.322699
 20
14.803245
 30
0.0
 10
36.384437
 20
14.864960
 30
0.0
  0
SPLINE
  5
112
100
AcDbEntity
  8
Layer_1
 62
7
100
AcDbSpline
 70
8
 71
3
 72
8
 73
4
 74
0
 40
0
 40
0
 40
0
 40
0
 40
1
 40
1
 40
1
 40
1
 10
15.337462
 20
14.946949
 30
0.0
 10
14.195161
 20
14.538711
 30
0.0
 10
12.991011
 20
14.324971
 30
0.0
 10
11.776308
 20
14.314833
 30
0.0
  0
SPLINE
  5
113
100
AcDbEntity
  8
Layer_1
 62
7
100
AcDbSpline
 70
8
 71
3
 72
8
 73
4
 74
0
 40
0
 40
0
 40
0
 40
0
 40
1
 40
1
 40
1
 40
1
 10
11.776308
 20
14.314833
 30
0.0
 10
10.355398
 20
14.231800
 30
0.0
 10
8.959653
 20
14.712112
 30
0.0
 10
7.898463
 20
15.649302
 30
0.0
  0
SPLINE
  5
114
100
AcDbEntity
  8
Layer_1
 62
7
100
AcDbSpline
 70
8
 71
3
 72
8
 73
4
 74
0
 40
0
 40
0
 40
0
 40
0
 40
1
 40
1
 40
1
 40
1
 10
7.898463
 20
15.649302
 30
0.0
 10
7.012852
 20
16.591177
 30
0.0
 10
6.547142
 20
17.844914
 30
0.0
 10
6.605848
 20
19.129144
 30
0.0
  0
SPLINE
  5
115
100
AcDbEntity
  8
Layer_1
 62
7
100
AcDbSpline
 70
8
 71
3
 72
8
 73
4
 74
0
 40
0
 40
0
 40
0
 40
0
 40
1
 40
1
 40
1
 40
1
 10
6.605848
 20
19.129144
 30
0.0
 10
6.584490
 20
21.126646
 30
0.0
 10
7.434560
 20
23.036563
 30
0.0
 10
8.939018
 20
24.371254
 30
0.0
  0
SPLINE
  5
116
100
AcDbEntity
  8
Layer_1
 62
7
100
AcDbSpline
 70
8
 71
3
 72
8
 73
4
 74
0
 40
0
 40
0
 40
0
 40
0
 40
1
 40
1
 40
1
 40
1
 10
8.939018
 20
24.371254
 30
0.0
 10
10.343511
 20
25.502725
 30
0.0
 10
12.110219
 20
26.102627
 30
0.0
 10
13.922049
 20
26.063287
 30
0.0
  0
SPLINE
  5
117
100
AcDbEntity
  8
Layer_1
 62
7
100
AcDbSpline
 70
8
 71
3
 72
8
 73
4
 74
0
 40
0
 40
0
 40
0
 40
0
 40
1
 40
1
 40
1
 40
1
 10
13.922049
 20
26.063287
 30
0.0
 10
14.927669
 20
26.098275
 30
0.0
 10
15.929519
 20
25.924252
 30
0.0
 10
16.862748
 20
25.552485
 30
0.0
  0
LWPOLYLINE
  5
118
100
AcDbEntity
  8
Layer_1
 62
7
100
AcDbPolyline
 90
1
 70
1
 10
41.192031
 20
28.787852
 30
0.0
  0
SPLINE
  5
119
100
AcDbEntity
  8
Layer_1
 62
7
100
AcDbSpline
 70
8
 71
3
 72
8
 73
4
 74
0
 40
0
 40
0
 40
0
 40
0
 40
1
 40
1
 40
1
 40
1
 10
16.216440
 20
23.879607
 30
0.0
 10
15.437061
 20
24.210072
 30
0.0
 10
14.595543
 20
24.373297
 30
0.0
 10
13.747546
 20
24.358484
 30
0.0
  0
SPLINE
  5
11a
100
AcDbEntity
  8
Layer_1
 62
7
100
AcDbSpline
 70
8
 71
3
 72
8
 73
4
 74
0
 40
0
 40
0
 40
0
 40
0
 40
1
 40
1
 40
1
 40
1
 10
13.747546
 20
24.358484
 30
0.0
 10
12.554883
 20
24.376875
 30
0.0
 10
11.395696
 20
23.968689
 30
0.0
 10
10.483693
 20
23.209179
 30
0.0
  0
SPLINE
  5
11b
100
AcDbEntity
  8
Layer_1
 62
7
100
AcDbSpline
 70
8
 71
3
 72
8
 73
4
 74
0
 40
0
 40
0
 40
0
 40
0
 40
1
 40
1
 40
1
 40
1
 10
10.483693
 20
23.209179
 30
0.0
 10
9.386138
 20
22.186294
 30
0.0
 10
8.776030
 20
20.753626
 30
0.0
 10
8.803294
 20
19.263231
 30
0.0
  0
SPLINE
  5
11c
100
AcDbEntity
  8
Layer_1
 62
7
100
AcDbSpline
 70
8
 71
3
 72
8
 73
4
 74
0
 40
0
 40
0
 40
0
 40
0
 40
1
 40
1
 40
1
 40
1
 10
8.803294
 20
19.263231
 30
0.0
 10
8.803294
 20
17.194481
 30
0.0
 10
9.947258
 20
16.000480
 30
0.0
 10
12.125314
 20
16.000480
 30
0.0
  0
SPLINE
  5
11d
100
AcDbEntity
  8
Layer_1
 62
7
100
AcDbSpline
 70
8
 71
3
 72
8
 73
4
 74
0
 40
0
 40
0
 40
0
 40
0
 40
1
 40
1
 40
1
 40
1
 10
12.125314
 20
16.000480
 30
0.0
 10
12.639359
 20
15.987453
 30
0.0
 10
13.150995
 20
16.074225
 30
0.0
 10
13.631211
 20
16.255877
 30
0.0
  0
LWPOLYLINE
  5
11e
100
AcDbEntity
  8
Layer_1
 62
7
100
AcDbPolyline
 90
2
 70
0
 10
16.862748
 20
25.552485
 30
0.0
 10
16.216440
 20
23.879607
 30
0.0
  0
LWPOLYLINE
  5
11f
100
AcDbEntity
  8
Layer_1
 62
7
100
AcDbPolyline
 90
6
 70
0
 10
13.631211
 20
16.255877
 30
0.0
 10
14.187035
 20
19.141913
 30
0.0
 10
12.118851
 20
19.141913
 30
0.0
 10
12.422615
 20
20.750941
 30
0.0
 10
16.449111
 20
20.750941
 30
0.0
 10
15.337462
 20
14.946949
 30
0.0
  0
LWPOLYLINE
  5
120
100
AcDbEntity
  8
Layer_1
 62
7
100
AcDbPolyline
 90
8
 70
1
 10
21.004355
 20
24.227953
 30
0.0
 10
17.784853
 20
24.227953
 30
0.0
 10
18.126120
 20
25.972924
 30
0.0
 10
26.586972
 20
25.972924
 30
0.0
 10
26.239266
 20
24.227953
 30
0.0
 10
23.019763
 20
24.227953
 30
0.0
 10
21.146013
 20
14.363398
 30
0.0
 10
19.130605
 20
14.363398
 30
0.0
  0
LWPOLYLINE
  5
121
100
AcDbEntity
  8
Layer_1
 62
7
100
AcDbPolyline
 90
12
 70
1
 10
32.891480
 20
19.430162
 30
0.0
 10
28.855674
 20
19.430162
 30
0.0
 10
28.231902
 20
15.847311
 30
0.0
 10
32.772964
 20
15.847311
 30
0.0
 10
32.454840
 20
14.082524
 30
0.0
 10
25.948895
 20
14.082524
 30
0.0
 10
28.082196
 20
26.069758
 30
0.0
 10
34.319919
 20
26.069758
 30
0.0
 10
34.001795
 20
24.304971
 30
0.0
 10
29.722717
 20
24.304971
 30
0.0
 10
29.155084
 20
21.154992
 30
0.0
 10
33.209604
 20
21.154992
 30
0.0
  0
ENDSEC
  0
SECTION
  2
OBJECTS
  0
DICTIONARY
  5
C
330
0
100
AcDbDictionary
  3
ACAD_GROUP
350
D
  3
ACAD_MLINESTYLE
350
17
  0
DICTIONARY
  5
D
330
C
100
AcDbDictionary
  0
DICTIONARY
  5
1A
330
C
100
AcDbDictionary
  0
DICTIONARY
  5
17
330
C
100
AcDbDictionary
  3
STANDARD
350
18
  0
DICTIONARY
  5
19
330
C
100
AcDbDictionary
  0
ENDSEC
  0
EOF
