M48
; DRILL file {KiCad (5.1.8)-1} date 05/23/21 21:47:34
; FORMAT={-:-/ absolute / inch / decimal}
; #@! TF.CreationDate,2021-05-23T21:47:34+08:00
; #@! TF.GenerationSoftware,Kicad,Pcbnew,(5.1.8)-1
; #@! TF.FileFunction,Plated,1,2,PTH
FMAT,2
INCH
T1C0.0157
T2C0.0323
T3C0.0354
%
G90
G05
T1
X4.4797Y-3.615
X4.5185Y-3.9238
X4.595Y-3.7275
T2
X4.91Y-3.56
X4.91Y-3.66
X4.91Y-3.76
X4.91Y-3.86
X4.91Y-3.96
X4.91Y-4.06
X4.91Y-4.16
X4.91Y-4.26
X4.91Y-4.36
X4.91Y-4.46
X4.91Y-4.56
X5.31Y-3.56
X5.31Y-3.66
X5.31Y-3.76
X5.31Y-3.86
X5.31Y-3.96
X5.31Y-4.06
X5.31Y-4.16
X5.31Y-4.26
X5.31Y-4.36
X5.31Y-4.46
X5.31Y-4.56
T3
X4.47Y-4.025
X4.47Y-4.125
X4.47Y-4.225
X4.47Y-4.325
X4.47Y-4.445
X4.47Y-4.545
X4.47Y-4.645
X4.47Y-4.745
T0
M30
