%TF.GenerationSoftware,KiCad,Pcbnew,(5.1.8)-1*%
%TF.CreationDate,2021-05-23T21:47:32+08:00*%
%TF.ProjectId,only_ccd,6f6e6c79-5f63-4636-942e-6b696361645f,rev?*%
%TF.SameCoordinates,Original*%
%TF.FileFunction,Legend,Top*%
%TF.FilePolarity,Positive*%
%FSLAX46Y46*%
G04 Gerber Fmt 4.6, Leading zero omitted, Abs format (unit mm)*
G04 Created by KiCad (PCBNEW (5.1.8)-1) date 2021-05-23 21:47:32*
%MOMM*%
%LPD*%
G01*
G04 APERTURE LIST*
%ADD10C,0.254000*%
%ADD11C,0.400000*%
%ADD12C,0.200000*%
%ADD13C,0.120000*%
%ADD14C,0.150000*%
G04 APERTURE END LIST*
D10*
%TO.C,J2*%
X112138000Y-100965000D02*
X114938000Y-100965000D01*
X112064800Y-111633000D02*
X114864800Y-111633000D01*
X114938000Y-100965000D02*
X114938000Y-111633000D01*
X112064800Y-100965000D02*
X112064800Y-111683800D01*
X112138000Y-103505000D02*
X114938000Y-103505000D01*
D11*
X113738000Y-100195000D02*
G75*
G03*
X113738000Y-100195000I-200000J0D01*
G01*
D10*
%TO.C,U3*%
X117513000Y-96505000D02*
X118173000Y-96505000D01*
X117513000Y-96505000D02*
X118173000Y-96505000D01*
X117513000Y-96505000D02*
X118173000Y-96505000D01*
X118173000Y-96505000D02*
X118173000Y-97320000D01*
X115253000Y-96505000D02*
X115253000Y-97320000D01*
X115253000Y-96505000D02*
X115913000Y-96505000D01*
D12*
X116413000Y-98055000D02*
X117013000Y-98055000D01*
D13*
%TO.C,U2*%
X120753000Y-90019000D02*
X117753000Y-90019000D01*
X120753000Y-87019000D02*
X116753000Y-87019000D01*
D12*
%TO.C,R6*%
X118392000Y-107931000D02*
X118392000Y-106796000D01*
X118392000Y-109866000D02*
X118392000Y-108731000D01*
X116812000Y-107931000D02*
X116812000Y-106796000D01*
X118392000Y-109866000D02*
X116812000Y-109866000D01*
X118392000Y-106796000D02*
X116812000Y-106796000D01*
X116812000Y-109866000D02*
X116812000Y-108731000D01*
D10*
%TO.C,J1*%
X112138000Y-111633000D02*
X114938000Y-111633000D01*
X112064800Y-122301000D02*
X114864800Y-122301000D01*
X114938000Y-111633000D02*
X114938000Y-122301000D01*
X112064800Y-111633000D02*
X112064800Y-122351800D01*
X112138000Y-114173000D02*
X114938000Y-114173000D01*
D11*
X113738000Y-110863000D02*
G75*
G03*
X113738000Y-110863000I-200000J0D01*
G01*
D12*
%TO.C,IC1*%
X124819000Y-124174000D02*
X134769000Y-124174000D01*
X124104000Y-82074000D02*
X134769000Y-82074000D01*
%TO.C,C16*%
X113419000Y-92611000D02*
G75*
G02*
X113019000Y-92211000I0J400000D01*
G01*
X113019000Y-91431000D02*
G75*
G02*
X113419000Y-91031000I400000J0D01*
G01*
X115689000Y-91031000D02*
G75*
G02*
X116089000Y-91431000I0J-400000D01*
G01*
X116089000Y-92211000D02*
G75*
G02*
X115689000Y-92611000I-400000J0D01*
G01*
X115689000Y-91031000D02*
X114954000Y-91031000D01*
X114154000Y-91031000D02*
X113419000Y-91031000D01*
X114154000Y-92611000D02*
X113419000Y-92611000D01*
X116089000Y-91431000D02*
X116089000Y-92211000D01*
X113019000Y-91431000D02*
X113019000Y-92211000D01*
X115689000Y-92611000D02*
X114954000Y-92611000D01*
%TO.C,J2*%
D14*
X115066656Y-101604714D02*
X115780942Y-101604714D01*
X115923799Y-101652333D01*
X116019037Y-101747571D01*
X116066656Y-101890428D01*
X116066656Y-101985666D01*
X115161895Y-101176142D02*
X115114276Y-101128523D01*
X115066656Y-101033285D01*
X115066656Y-100795190D01*
X115114276Y-100699952D01*
X115161895Y-100652333D01*
X115257133Y-100604714D01*
X115352371Y-100604714D01*
X115495228Y-100652333D01*
X116066656Y-101223761D01*
X116066656Y-100604714D01*
%TO.C,U3*%
X118301656Y-97416685D02*
X119111180Y-97416685D01*
X119206418Y-97369066D01*
X119254037Y-97321447D01*
X119301656Y-97226209D01*
X119301656Y-97035733D01*
X119254037Y-96940495D01*
X119206418Y-96892876D01*
X119111180Y-96845257D01*
X118301656Y-96845257D01*
X118301656Y-96464304D02*
X118301656Y-95845257D01*
X118682609Y-96178590D01*
X118682609Y-96035733D01*
X118730228Y-95940495D01*
X118777847Y-95892876D01*
X118873085Y-95845257D01*
X119111180Y-95845257D01*
X119206418Y-95892876D01*
X119254037Y-95940495D01*
X119301656Y-96035733D01*
X119301656Y-96321447D01*
X119254037Y-96416685D01*
X119206418Y-96464304D01*
%TO.C,U2*%
X118491095Y-85571380D02*
X118491095Y-86380904D01*
X118538714Y-86476142D01*
X118586333Y-86523761D01*
X118681571Y-86571380D01*
X118872047Y-86571380D01*
X118967285Y-86523761D01*
X119014904Y-86476142D01*
X119062523Y-86380904D01*
X119062523Y-85571380D01*
X119491095Y-85666619D02*
X119538714Y-85619000D01*
X119633952Y-85571380D01*
X119872047Y-85571380D01*
X119967285Y-85619000D01*
X120014904Y-85666619D01*
X120062523Y-85761857D01*
X120062523Y-85857095D01*
X120014904Y-85999952D01*
X119443476Y-86571380D01*
X120062523Y-86571380D01*
%TO.C,R6*%
X119705380Y-108656285D02*
X119229190Y-108989619D01*
X119705380Y-109227714D02*
X118705380Y-109227714D01*
X118705380Y-108846761D01*
X118753000Y-108751523D01*
X118800619Y-108703904D01*
X118895857Y-108656285D01*
X119038714Y-108656285D01*
X119133952Y-108703904D01*
X119181571Y-108751523D01*
X119229190Y-108846761D01*
X119229190Y-109227714D01*
X118705380Y-107799142D02*
X118705380Y-107989619D01*
X118753000Y-108084857D01*
X118800619Y-108132476D01*
X118943476Y-108227714D01*
X119133952Y-108275333D01*
X119514904Y-108275333D01*
X119610142Y-108227714D01*
X119657761Y-108180095D01*
X119705380Y-108084857D01*
X119705380Y-107894380D01*
X119657761Y-107799142D01*
X119610142Y-107751523D01*
X119514904Y-107703904D01*
X119276809Y-107703904D01*
X119181571Y-107751523D01*
X119133952Y-107799142D01*
X119086333Y-107894380D01*
X119086333Y-108084857D01*
X119133952Y-108180095D01*
X119181571Y-108227714D01*
X119276809Y-108275333D01*
%TO.C,J1*%
X115066656Y-112272714D02*
X115780942Y-112272714D01*
X115923799Y-112320333D01*
X116019037Y-112415571D01*
X116066656Y-112558428D01*
X116066656Y-112653666D01*
X116066656Y-111272714D02*
X116066656Y-111844142D01*
X116066656Y-111558428D02*
X115066656Y-111558428D01*
X115209514Y-111653666D01*
X115304752Y-111748904D01*
X115352371Y-111844142D01*
%TO.C,IC1*%
D10*
X128554238Y-103698523D02*
X128554238Y-102428523D01*
X129884714Y-103577571D02*
X129824238Y-103638047D01*
X129642809Y-103698523D01*
X129521857Y-103698523D01*
X129340428Y-103638047D01*
X129219476Y-103517095D01*
X129159000Y-103396142D01*
X129098523Y-103154238D01*
X129098523Y-102972809D01*
X129159000Y-102730904D01*
X129219476Y-102609952D01*
X129340428Y-102489000D01*
X129521857Y-102428523D01*
X129642809Y-102428523D01*
X129824238Y-102489000D01*
X129884714Y-102549476D01*
X131094238Y-103698523D02*
X130368523Y-103698523D01*
X130731380Y-103698523D02*
X130731380Y-102428523D01*
X130610428Y-102609952D01*
X130489476Y-102730904D01*
X130368523Y-102791380D01*
%TO.C,C16*%
D14*
X114069761Y-93617418D02*
X114022142Y-93665037D01*
X113879285Y-93712656D01*
X113784047Y-93712656D01*
X113641190Y-93665037D01*
X113545952Y-93569799D01*
X113498333Y-93474561D01*
X113450714Y-93284085D01*
X113450714Y-93141228D01*
X113498333Y-92950752D01*
X113545952Y-92855514D01*
X113641190Y-92760276D01*
X113784047Y-92712656D01*
X113879285Y-92712656D01*
X114022142Y-92760276D01*
X114069761Y-92807895D01*
X115022142Y-93712656D02*
X114450714Y-93712656D01*
X114736428Y-93712656D02*
X114736428Y-92712656D01*
X114641190Y-92855514D01*
X114545952Y-92950752D01*
X114450714Y-92998371D01*
X115879285Y-92712656D02*
X115688809Y-92712656D01*
X115593571Y-92760276D01*
X115545952Y-92807895D01*
X115450714Y-92950752D01*
X115403095Y-93141228D01*
X115403095Y-93522180D01*
X115450714Y-93617418D01*
X115498333Y-93665037D01*
X115593571Y-93712656D01*
X115784047Y-93712656D01*
X115879285Y-93665037D01*
X115926904Y-93617418D01*
X115974523Y-93522180D01*
X115974523Y-93284085D01*
X115926904Y-93188847D01*
X115879285Y-93141228D01*
X115784047Y-93093609D01*
X115593571Y-93093609D01*
X115498333Y-93141228D01*
X115450714Y-93188847D01*
X115403095Y-93284085D01*
%TD*%
M02*
