%TF.GenerationSoftware,KiCad,Pcbnew,(5.1.8)-1*%
%TF.CreationDate,2021-05-23T21:47:32+08:00*%
%TF.ProjectId,only_ccd,6f6e6c79-5f63-4636-942e-6b696361645f,rev?*%
%TF.SameCoordinates,Original*%
%TF.FileFunction,Copper,L1,Top*%
%TF.FilePolarity,Positive*%
%FSLAX46Y46*%
G04 Gerber Fmt 4.6, Leading zero omitted, Abs format (unit mm)*
G04 Created by KiCad (PCBNEW (5.1.8)-1) date 2021-05-23 21:47:32*
%MOMM*%
%LPD*%
G01*
G04 APERTURE LIST*
%TA.AperFunction,ComponentPad*%
%ADD10R,1.800000X1.600000*%
%TD*%
%TA.AperFunction,ComponentPad*%
%ADD11O,1.800000X1.600000*%
%TD*%
%TA.AperFunction,SMDPad,CuDef*%
%ADD12R,0.700000X1.250000*%
%TD*%
%TA.AperFunction,SMDPad,CuDef*%
%ADD13R,1.600000X0.300000*%
%TD*%
%TA.AperFunction,SMDPad,CuDef*%
%ADD14R,0.980000X0.930000*%
%TD*%
%TA.AperFunction,ComponentPad*%
%ADD15R,1.220000X1.220000*%
%TD*%
%TA.AperFunction,ComponentPad*%
%ADD16C,1.220000*%
%TD*%
%TA.AperFunction,SMDPad,CuDef*%
%ADD17R,0.930000X0.980000*%
%TD*%
%TA.AperFunction,ViaPad*%
%ADD18C,0.800000*%
%TD*%
%TA.AperFunction,Conductor*%
%ADD19C,0.762000*%
%TD*%
%TA.AperFunction,Conductor*%
%ADD20C,0.508000*%
%TD*%
%TA.AperFunction,Conductor*%
%ADD21C,0.250000*%
%TD*%
%TA.AperFunction,Conductor*%
%ADD22C,0.254000*%
%TD*%
%TA.AperFunction,Conductor*%
%ADD23C,0.381000*%
%TD*%
G04 APERTURE END LIST*
D10*
%TO.P,J2,1*%
%TO.N,GND*%
X113538000Y-102235000D03*
D11*
%TO.P,J2,2*%
X113538000Y-104775000D03*
%TO.P,J2,3*%
%TO.N,/ADC_in*%
X113538000Y-107315000D03*
%TO.P,J2,4*%
%TO.N,/3v3*%
X113538000Y-109855000D03*
%TD*%
D12*
%TO.P,U3,3*%
%TO.N,Net-(R7-Pad1)*%
X116713000Y-95905000D03*
%TO.P,U3,2*%
%TO.N,/ADC_in*%
X117663000Y-98405000D03*
%TO.P,U3,1*%
%TO.N,Net-(R5-Pad2)*%
X115763000Y-98405000D03*
%TD*%
D13*
%TO.P,U2,8*%
%TO.N,/3v3*%
X120953000Y-87544000D03*
%TO.P,U2,7*%
%TO.N,Net-(IC1-Pad3)*%
X120953000Y-88194000D03*
%TO.P,U2,6*%
%TO.N,/M*%
X120953000Y-88844000D03*
%TO.P,U2,5*%
%TO.N,Net-(IC1-Pad5)*%
X120953000Y-89494000D03*
%TO.P,U2,4*%
%TO.N,GND*%
X117553000Y-89494000D03*
%TO.P,U2,3*%
%TO.N,/SH*%
X117553000Y-88844000D03*
%TO.P,U2,2*%
%TO.N,Net-(IC1-Pad4)*%
X117553000Y-88194000D03*
%TO.P,U2,1*%
%TO.N,/ICG*%
X117553000Y-87544000D03*
%TD*%
D14*
%TO.P,R6,2*%
%TO.N,/ADC_in*%
X117602000Y-107561000D03*
%TO.P,R6,1*%
%TO.N,/3v3*%
X117602000Y-109101000D03*
%TD*%
D10*
%TO.P,J1,1*%
%TO.N,/ICG*%
X113538000Y-112903000D03*
D11*
%TO.P,J1,2*%
%TO.N,/SH*%
X113538000Y-115443000D03*
%TO.P,J1,3*%
%TO.N,/M*%
X113538000Y-117983000D03*
%TO.P,J1,4*%
%TO.N,GND*%
X113538000Y-120523000D03*
%TD*%
D15*
%TO.P,IC1,1*%
%TO.N,/3v3*%
X124714000Y-90424000D03*
D16*
%TO.P,IC1,2*%
X124714000Y-92964000D03*
%TO.P,IC1,3*%
%TO.N,Net-(IC1-Pad3)*%
X124714000Y-95504000D03*
%TO.P,IC1,4*%
%TO.N,Net-(IC1-Pad4)*%
X124714000Y-98044000D03*
%TO.P,IC1,5*%
%TO.N,Net-(IC1-Pad5)*%
X124714000Y-100584000D03*
%TO.P,IC1,6*%
%TO.N,GND*%
X124714000Y-103124000D03*
%TO.P,IC1,7*%
X124714000Y-105664000D03*
%TO.P,IC1,8*%
X124714000Y-108204000D03*
%TO.P,IC1,9*%
X124714000Y-110744000D03*
%TO.P,IC1,10*%
X124714000Y-113284000D03*
%TO.P,IC1,11*%
X124714000Y-115824000D03*
%TO.P,IC1,12*%
X134874000Y-115824000D03*
%TO.P,IC1,13*%
X134874000Y-113284000D03*
%TO.P,IC1,14*%
X134874000Y-110744000D03*
%TO.P,IC1,15*%
X134874000Y-108204000D03*
%TO.P,IC1,16*%
X134874000Y-105664000D03*
%TO.P,IC1,17*%
X134874000Y-103124000D03*
%TO.P,IC1,18*%
X134874000Y-100584000D03*
%TO.P,IC1,19*%
X134874000Y-98044000D03*
%TO.P,IC1,20*%
X134874000Y-95504000D03*
%TO.P,IC1,21*%
%TO.N,Net-(IC1-Pad21)*%
X134874000Y-92964000D03*
%TO.P,IC1,22*%
%TO.N,GND*%
X134874000Y-90424000D03*
%TD*%
D17*
%TO.P,C16,2*%
%TO.N,GND*%
X113784000Y-91821000D03*
%TO.P,C16,1*%
%TO.N,/3v3*%
X115324000Y-91821000D03*
%TD*%
D18*
%TO.N,GND*%
X113784000Y-91821000D03*
%TO.N,Net-(R5-Pad2)*%
X114770800Y-99664200D03*
%TO.N,Net-(R7-Pad1)*%
X116713000Y-94679700D03*
%TD*%
D19*
%TO.N,GND*%
X134874000Y-95504000D02*
X134874000Y-95377000D01*
X134874000Y-113284000D02*
X134874000Y-110744000D01*
X134874000Y-115824000D02*
X134874000Y-113284000D01*
X134874000Y-110744000D02*
X134874000Y-108204000D01*
X134874000Y-108204000D02*
X134874000Y-105664000D01*
X134874000Y-105664000D02*
X134874000Y-103124000D01*
X134874000Y-103124000D02*
X134874000Y-100584000D01*
X134874000Y-100584000D02*
X134874000Y-98044000D01*
X124714000Y-105664000D02*
X124714000Y-108204000D01*
X124714000Y-103124000D02*
X124714000Y-105664000D01*
X124714000Y-108204000D02*
X124714000Y-110744000D01*
X134874000Y-98044000D02*
X134874000Y-95504000D01*
X124714000Y-110744000D02*
X124714000Y-113284000D01*
X124714000Y-113284000D02*
X124714000Y-115824000D01*
X124714000Y-115824000D02*
X134874000Y-115824000D01*
X136652000Y-93726000D02*
X134874000Y-95504000D01*
X136652000Y-92202000D02*
X136652000Y-93726000D01*
X134874000Y-90424000D02*
X136652000Y-92202000D01*
X120015000Y-120523000D02*
X124714000Y-115824000D01*
X113538000Y-120523000D02*
X120015000Y-120523000D01*
D20*
X115878798Y-89494000D02*
X117553000Y-89494000D01*
X113784000Y-91588798D02*
X115878798Y-89494000D01*
X113784000Y-91821000D02*
X113784000Y-91588798D01*
D21*
%TO.N,Net-(IC1-Pad3)*%
X120953000Y-88194000D02*
X122078300Y-88194000D01*
X124714000Y-95504000D02*
X122781200Y-93571200D01*
X122781200Y-93571200D02*
X122781200Y-88896900D01*
X122781200Y-88896900D02*
X122078300Y-88194000D01*
%TO.N,Net-(IC1-Pad4)*%
X117553000Y-88194000D02*
X118678300Y-88194000D01*
X124714000Y-98044000D02*
X125649400Y-97108600D01*
X125649400Y-97108600D02*
X125649400Y-89669000D01*
X125649400Y-89669000D02*
X123024200Y-87043800D01*
X123024200Y-87043800D02*
X119669600Y-87043800D01*
X119669600Y-87043800D02*
X118678300Y-88035100D01*
X118678300Y-88035100D02*
X118678300Y-88194000D01*
%TO.N,Net-(IC1-Pad5)*%
X120953000Y-89494000D02*
X122078300Y-89494000D01*
X124714000Y-100584000D02*
X122078300Y-97948300D01*
X122078300Y-97948300D02*
X122078300Y-89494000D01*
%TO.N,Net-(R5-Pad2)*%
X114770800Y-99664200D02*
X115079700Y-99355300D01*
X115079700Y-99355300D02*
X115763000Y-99355300D01*
X115763000Y-98405000D02*
X115763000Y-99355300D01*
%TO.N,/ADC_in*%
X117663000Y-98405000D02*
X117663000Y-99355300D01*
X117663000Y-99355300D02*
X117602000Y-99416300D01*
X117602000Y-99416300D02*
X117602000Y-107561000D01*
X113538000Y-107315000D02*
X114763300Y-107315000D01*
X117602000Y-107561000D02*
X115009300Y-107561000D01*
X115009300Y-107561000D02*
X114763300Y-107315000D01*
%TO.N,Net-(R7-Pad1)*%
X116713000Y-94679700D02*
X116713000Y-95905000D01*
%TO.N,/M*%
X120953000Y-88844000D02*
X119827700Y-88844000D01*
X119827700Y-88844000D02*
X119827700Y-110849300D01*
D22*
X119827700Y-111693300D02*
X113538000Y-117983000D01*
X119827700Y-110849300D02*
X119827700Y-111693300D01*
D21*
%TO.N,/SH*%
X113538000Y-115443000D02*
X113538000Y-114317700D01*
X117553000Y-88844000D02*
X115280600Y-88844000D01*
X115280600Y-88844000D02*
X112276400Y-91848200D01*
X112276400Y-91848200D02*
X112276400Y-110321200D01*
X112276400Y-110321200D02*
X113175000Y-111219800D01*
X113175000Y-111219800D02*
X114068500Y-111219800D01*
X114068500Y-111219800D02*
X114763400Y-111914700D01*
X114763400Y-111914700D02*
X114763400Y-113936300D01*
X114763400Y-113936300D02*
X114382000Y-114317700D01*
X114382000Y-114317700D02*
X113538000Y-114317700D01*
%TO.N,/ICG*%
X116427700Y-87544000D02*
X115870400Y-87544000D01*
X115870400Y-87544000D02*
X111826000Y-91588400D01*
X111826000Y-91588400D02*
X111826000Y-110623000D01*
X111826000Y-110623000D02*
X112980700Y-111777700D01*
X112980700Y-111777700D02*
X113538000Y-111777700D01*
X113538000Y-112903000D02*
X113538000Y-111777700D01*
X117553000Y-87544000D02*
X116427700Y-87544000D01*
%TO.N,/3v3*%
X117602000Y-109101000D02*
X118427800Y-108275200D01*
X118427800Y-108275200D02*
X118427800Y-93553100D01*
X118427800Y-93553100D02*
X116695700Y-91821000D01*
X114763300Y-109855000D02*
X115517300Y-109101000D01*
X115517300Y-109101000D02*
X117602000Y-109101000D01*
X120953000Y-87544000D02*
X122078300Y-87544000D01*
X120390400Y-87544000D02*
X120953000Y-87544000D01*
X113538000Y-109855000D02*
X114763300Y-109855000D01*
D19*
X124714000Y-90424000D02*
X124714000Y-92964000D01*
D23*
X122172650Y-87559310D02*
X120953000Y-87559310D01*
X124714000Y-90100660D02*
X122172650Y-87559310D01*
X124714000Y-90424000D02*
X124714000Y-90100660D01*
D22*
X120064398Y-87544000D02*
X119126000Y-88482398D01*
X120953000Y-87544000D02*
X120064398Y-87544000D01*
X116764602Y-91821000D02*
X116332000Y-91821000D01*
X119126000Y-89459602D02*
X116764602Y-91821000D01*
X119126000Y-88482398D02*
X119126000Y-89459602D01*
D21*
X116332000Y-91821000D02*
X115324000Y-91821000D01*
X116695700Y-91821000D02*
X116332000Y-91821000D01*
%TD*%
M02*
