%TF.GenerationSoftware,KiCad,Pcbnew,(5.1.8)-1*%
%TF.CreationDate,2021-05-23T21:47:32+08:00*%
%TF.ProjectId,only_ccd,6f6e6c79-5f63-4636-942e-6b696361645f,rev?*%
%TF.SameCoordinates,Original*%
%TF.FileFunction,Legend,Bot*%
%TF.FilePolarity,Positive*%
%FSLAX46Y46*%
G04 Gerber Fmt 4.6, Leading zero omitted, Abs format (unit mm)*
G04 Created by KiCad (PCBNEW (5.1.8)-1) date 2021-05-23 21:47:32*
%MOMM*%
%LPD*%
G01*
G04 APERTURE LIST*
%ADD10C,0.200000*%
%ADD11C,0.150000*%
G04 APERTURE END LIST*
D10*
%TO.C,R7*%
X113900000Y-96421000D02*
X112765000Y-96421000D01*
X115835000Y-96421000D02*
X114700000Y-96421000D01*
X113900000Y-94841000D02*
X112765000Y-94841000D01*
X115835000Y-96421000D02*
X115835000Y-94841000D01*
X112765000Y-96421000D02*
X112765000Y-94841000D01*
X115835000Y-94841000D02*
X114700000Y-94841000D01*
%TO.C,R5*%
X115081000Y-97762000D02*
X116216000Y-97762000D01*
X113146000Y-97762000D02*
X114281000Y-97762000D01*
X115081000Y-99342000D02*
X116216000Y-99342000D01*
X113146000Y-97762000D02*
X113146000Y-99342000D01*
X116216000Y-97762000D02*
X116216000Y-99342000D01*
X113146000Y-99342000D02*
X114281000Y-99342000D01*
%TO.C,R7*%
D11*
X114625285Y-94644104D02*
X114958619Y-94167914D01*
X115196714Y-94644104D02*
X115196714Y-93644104D01*
X114815761Y-93644104D01*
X114720523Y-93691724D01*
X114672904Y-93739343D01*
X114625285Y-93834581D01*
X114625285Y-93977438D01*
X114672904Y-94072676D01*
X114720523Y-94120295D01*
X114815761Y-94167914D01*
X115196714Y-94167914D01*
X114291952Y-93644104D02*
X113625285Y-93644104D01*
X114053857Y-94644104D01*
%TO.C,R5*%
X114689047Y-100443656D02*
X115022381Y-99967466D01*
X115260476Y-100443656D02*
X115260476Y-99443656D01*
X114879523Y-99443656D01*
X114784285Y-99491276D01*
X114736666Y-99538895D01*
X114689047Y-99634133D01*
X114689047Y-99776990D01*
X114736666Y-99872228D01*
X114784285Y-99919847D01*
X114879523Y-99967466D01*
X115260476Y-99967466D01*
X113784285Y-99443656D02*
X114260476Y-99443656D01*
X114308095Y-99919847D01*
X114260476Y-99872228D01*
X114165238Y-99824609D01*
X113927142Y-99824609D01*
X113831904Y-99872228D01*
X113784285Y-99919847D01*
X113736666Y-100015085D01*
X113736666Y-100253180D01*
X113784285Y-100348418D01*
X113831904Y-100396037D01*
X113927142Y-100443656D01*
X114165238Y-100443656D01*
X114260476Y-100396037D01*
X114308095Y-100348418D01*
%TD*%
M02*
