%TF.GenerationSoftware,KiCad,Pcbnew,(5.1.8)-1*%
%TF.CreationDate,2021-05-09T22:57:12+08:00*%
%TF.ProjectId,ccd_with_stm32,6363645f-7769-4746-985f-73746d33322e,rev?*%
%TF.SameCoordinates,Original*%
%TF.FileFunction,Paste,Top*%
%TF.FilePolarity,Positive*%
%FSLAX46Y46*%
G04 Gerber Fmt 4.6, Leading zero omitted, Abs format (unit mm)*
G04 Created by KiCad (PCBNEW (5.1.8)-1) date 2021-05-09 22:57:12*
%MOMM*%
%LPD*%
G01*
G04 APERTURE LIST*
%ADD10R,0.700000X1.250000*%
%ADD11C,0.100000*%
%ADD12R,0.600000X1.450000*%
%ADD13R,0.300000X1.450000*%
%ADD14R,0.980000X0.930000*%
%ADD15R,0.650000X0.600000*%
%ADD16R,0.600000X0.650000*%
%ADD17R,0.930000X0.980000*%
%ADD18R,1.000000X0.600000*%
G04 APERTURE END LIST*
D10*
%TO.C,U4*%
X152150000Y-109800000D03*
X151200000Y-107300000D03*
X153100000Y-107300000D03*
%TD*%
D11*
%TO.C,Y1*%
G36*
X143835770Y-117373076D02*
G01*
X144785770Y-115727628D01*
X146864230Y-116927628D01*
X145914230Y-118573076D01*
X143835770Y-117373076D01*
G37*
G36*
X145885770Y-113822372D02*
G01*
X146835770Y-112176924D01*
X148914230Y-113376924D01*
X147964230Y-115022372D01*
X145885770Y-113822372D01*
G37*
%TD*%
D12*
%TO.C,U3*%
X137930000Y-84435000D03*
X138730000Y-84435000D03*
X143630000Y-84435000D03*
X144430000Y-84435000D03*
X144430000Y-84435000D03*
X143630000Y-84435000D03*
X138730000Y-84435000D03*
X137930000Y-84435000D03*
D13*
X142930000Y-84435000D03*
X142430000Y-84435000D03*
X141930000Y-84435000D03*
X140930000Y-84435000D03*
X140430000Y-84435000D03*
X139930000Y-84435000D03*
X139430000Y-84435000D03*
X141430000Y-84435000D03*
%TD*%
%TO.C,U2*%
G36*
G01*
X139800000Y-115525000D02*
X139800000Y-116925000D01*
G75*
G02*
X139725000Y-117000000I-75000J0D01*
G01*
X139575000Y-117000000D01*
G75*
G02*
X139500000Y-116925000I0J75000D01*
G01*
X139500000Y-115525000D01*
G75*
G02*
X139575000Y-115450000I75000J0D01*
G01*
X139725000Y-115450000D01*
G75*
G02*
X139800000Y-115525000I0J-75000D01*
G01*
G37*
G36*
G01*
X139300000Y-115525000D02*
X139300000Y-116925000D01*
G75*
G02*
X139225000Y-117000000I-75000J0D01*
G01*
X139075000Y-117000000D01*
G75*
G02*
X139000000Y-116925000I0J75000D01*
G01*
X139000000Y-115525000D01*
G75*
G02*
X139075000Y-115450000I75000J0D01*
G01*
X139225000Y-115450000D01*
G75*
G02*
X139300000Y-115525000I0J-75000D01*
G01*
G37*
G36*
G01*
X138800000Y-115525000D02*
X138800000Y-116925000D01*
G75*
G02*
X138725000Y-117000000I-75000J0D01*
G01*
X138575000Y-117000000D01*
G75*
G02*
X138500000Y-116925000I0J75000D01*
G01*
X138500000Y-115525000D01*
G75*
G02*
X138575000Y-115450000I75000J0D01*
G01*
X138725000Y-115450000D01*
G75*
G02*
X138800000Y-115525000I0J-75000D01*
G01*
G37*
G36*
G01*
X138300000Y-115525000D02*
X138300000Y-116925000D01*
G75*
G02*
X138225000Y-117000000I-75000J0D01*
G01*
X138075000Y-117000000D01*
G75*
G02*
X138000000Y-116925000I0J75000D01*
G01*
X138000000Y-115525000D01*
G75*
G02*
X138075000Y-115450000I75000J0D01*
G01*
X138225000Y-115450000D01*
G75*
G02*
X138300000Y-115525000I0J-75000D01*
G01*
G37*
G36*
G01*
X137800000Y-115525000D02*
X137800000Y-116925000D01*
G75*
G02*
X137725000Y-117000000I-75000J0D01*
G01*
X137575000Y-117000000D01*
G75*
G02*
X137500000Y-116925000I0J75000D01*
G01*
X137500000Y-115525000D01*
G75*
G02*
X137575000Y-115450000I75000J0D01*
G01*
X137725000Y-115450000D01*
G75*
G02*
X137800000Y-115525000I0J-75000D01*
G01*
G37*
G36*
G01*
X137300000Y-115525000D02*
X137300000Y-116925000D01*
G75*
G02*
X137225000Y-117000000I-75000J0D01*
G01*
X137075000Y-117000000D01*
G75*
G02*
X137000000Y-116925000I0J75000D01*
G01*
X137000000Y-115525000D01*
G75*
G02*
X137075000Y-115450000I75000J0D01*
G01*
X137225000Y-115450000D01*
G75*
G02*
X137300000Y-115525000I0J-75000D01*
G01*
G37*
G36*
G01*
X136800000Y-115525000D02*
X136800000Y-116925000D01*
G75*
G02*
X136725000Y-117000000I-75000J0D01*
G01*
X136575000Y-117000000D01*
G75*
G02*
X136500000Y-116925000I0J75000D01*
G01*
X136500000Y-115525000D01*
G75*
G02*
X136575000Y-115450000I75000J0D01*
G01*
X136725000Y-115450000D01*
G75*
G02*
X136800000Y-115525000I0J-75000D01*
G01*
G37*
G36*
G01*
X136300000Y-115525000D02*
X136300000Y-116925000D01*
G75*
G02*
X136225000Y-117000000I-75000J0D01*
G01*
X136075000Y-117000000D01*
G75*
G02*
X136000000Y-116925000I0J75000D01*
G01*
X136000000Y-115525000D01*
G75*
G02*
X136075000Y-115450000I75000J0D01*
G01*
X136225000Y-115450000D01*
G75*
G02*
X136300000Y-115525000I0J-75000D01*
G01*
G37*
G36*
G01*
X135800000Y-115525000D02*
X135800000Y-116925000D01*
G75*
G02*
X135725000Y-117000000I-75000J0D01*
G01*
X135575000Y-117000000D01*
G75*
G02*
X135500000Y-116925000I0J75000D01*
G01*
X135500000Y-115525000D01*
G75*
G02*
X135575000Y-115450000I75000J0D01*
G01*
X135725000Y-115450000D01*
G75*
G02*
X135800000Y-115525000I0J-75000D01*
G01*
G37*
G36*
G01*
X135300000Y-115525000D02*
X135300000Y-116925000D01*
G75*
G02*
X135225000Y-117000000I-75000J0D01*
G01*
X135075000Y-117000000D01*
G75*
G02*
X135000000Y-116925000I0J75000D01*
G01*
X135000000Y-115525000D01*
G75*
G02*
X135075000Y-115450000I75000J0D01*
G01*
X135225000Y-115450000D01*
G75*
G02*
X135300000Y-115525000I0J-75000D01*
G01*
G37*
G36*
G01*
X134800000Y-115525000D02*
X134800000Y-116925000D01*
G75*
G02*
X134725000Y-117000000I-75000J0D01*
G01*
X134575000Y-117000000D01*
G75*
G02*
X134500000Y-116925000I0J75000D01*
G01*
X134500000Y-115525000D01*
G75*
G02*
X134575000Y-115450000I75000J0D01*
G01*
X134725000Y-115450000D01*
G75*
G02*
X134800000Y-115525000I0J-75000D01*
G01*
G37*
G36*
G01*
X134300000Y-115525000D02*
X134300000Y-116925000D01*
G75*
G02*
X134225000Y-117000000I-75000J0D01*
G01*
X134075000Y-117000000D01*
G75*
G02*
X134000000Y-116925000I0J75000D01*
G01*
X134000000Y-115525000D01*
G75*
G02*
X134075000Y-115450000I75000J0D01*
G01*
X134225000Y-115450000D01*
G75*
G02*
X134300000Y-115525000I0J-75000D01*
G01*
G37*
G36*
G01*
X133800000Y-115525000D02*
X133800000Y-116925000D01*
G75*
G02*
X133725000Y-117000000I-75000J0D01*
G01*
X133575000Y-117000000D01*
G75*
G02*
X133500000Y-116925000I0J75000D01*
G01*
X133500000Y-115525000D01*
G75*
G02*
X133575000Y-115450000I75000J0D01*
G01*
X133725000Y-115450000D01*
G75*
G02*
X133800000Y-115525000I0J-75000D01*
G01*
G37*
G36*
G01*
X133300000Y-115525000D02*
X133300000Y-116925000D01*
G75*
G02*
X133225000Y-117000000I-75000J0D01*
G01*
X133075000Y-117000000D01*
G75*
G02*
X133000000Y-116925000I0J75000D01*
G01*
X133000000Y-115525000D01*
G75*
G02*
X133075000Y-115450000I75000J0D01*
G01*
X133225000Y-115450000D01*
G75*
G02*
X133300000Y-115525000I0J-75000D01*
G01*
G37*
G36*
G01*
X132800000Y-115525000D02*
X132800000Y-116925000D01*
G75*
G02*
X132725000Y-117000000I-75000J0D01*
G01*
X132575000Y-117000000D01*
G75*
G02*
X132500000Y-116925000I0J75000D01*
G01*
X132500000Y-115525000D01*
G75*
G02*
X132575000Y-115450000I75000J0D01*
G01*
X132725000Y-115450000D01*
G75*
G02*
X132800000Y-115525000I0J-75000D01*
G01*
G37*
G36*
G01*
X132300000Y-115525000D02*
X132300000Y-116925000D01*
G75*
G02*
X132225000Y-117000000I-75000J0D01*
G01*
X132075000Y-117000000D01*
G75*
G02*
X132000000Y-116925000I0J75000D01*
G01*
X132000000Y-115525000D01*
G75*
G02*
X132075000Y-115450000I75000J0D01*
G01*
X132225000Y-115450000D01*
G75*
G02*
X132300000Y-115525000I0J-75000D01*
G01*
G37*
G36*
G01*
X131000000Y-114225000D02*
X131000000Y-114375000D01*
G75*
G02*
X130925000Y-114450000I-75000J0D01*
G01*
X129525000Y-114450000D01*
G75*
G02*
X129450000Y-114375000I0J75000D01*
G01*
X129450000Y-114225000D01*
G75*
G02*
X129525000Y-114150000I75000J0D01*
G01*
X130925000Y-114150000D01*
G75*
G02*
X131000000Y-114225000I0J-75000D01*
G01*
G37*
G36*
G01*
X131000000Y-113725000D02*
X131000000Y-113875000D01*
G75*
G02*
X130925000Y-113950000I-75000J0D01*
G01*
X129525000Y-113950000D01*
G75*
G02*
X129450000Y-113875000I0J75000D01*
G01*
X129450000Y-113725000D01*
G75*
G02*
X129525000Y-113650000I75000J0D01*
G01*
X130925000Y-113650000D01*
G75*
G02*
X131000000Y-113725000I0J-75000D01*
G01*
G37*
G36*
G01*
X131000000Y-113225000D02*
X131000000Y-113375000D01*
G75*
G02*
X130925000Y-113450000I-75000J0D01*
G01*
X129525000Y-113450000D01*
G75*
G02*
X129450000Y-113375000I0J75000D01*
G01*
X129450000Y-113225000D01*
G75*
G02*
X129525000Y-113150000I75000J0D01*
G01*
X130925000Y-113150000D01*
G75*
G02*
X131000000Y-113225000I0J-75000D01*
G01*
G37*
G36*
G01*
X131000000Y-112725000D02*
X131000000Y-112875000D01*
G75*
G02*
X130925000Y-112950000I-75000J0D01*
G01*
X129525000Y-112950000D01*
G75*
G02*
X129450000Y-112875000I0J75000D01*
G01*
X129450000Y-112725000D01*
G75*
G02*
X129525000Y-112650000I75000J0D01*
G01*
X130925000Y-112650000D01*
G75*
G02*
X131000000Y-112725000I0J-75000D01*
G01*
G37*
G36*
G01*
X131000000Y-112225000D02*
X131000000Y-112375000D01*
G75*
G02*
X130925000Y-112450000I-75000J0D01*
G01*
X129525000Y-112450000D01*
G75*
G02*
X129450000Y-112375000I0J75000D01*
G01*
X129450000Y-112225000D01*
G75*
G02*
X129525000Y-112150000I75000J0D01*
G01*
X130925000Y-112150000D01*
G75*
G02*
X131000000Y-112225000I0J-75000D01*
G01*
G37*
G36*
G01*
X131000000Y-111725000D02*
X131000000Y-111875000D01*
G75*
G02*
X130925000Y-111950000I-75000J0D01*
G01*
X129525000Y-111950000D01*
G75*
G02*
X129450000Y-111875000I0J75000D01*
G01*
X129450000Y-111725000D01*
G75*
G02*
X129525000Y-111650000I75000J0D01*
G01*
X130925000Y-111650000D01*
G75*
G02*
X131000000Y-111725000I0J-75000D01*
G01*
G37*
G36*
G01*
X131000000Y-111225000D02*
X131000000Y-111375000D01*
G75*
G02*
X130925000Y-111450000I-75000J0D01*
G01*
X129525000Y-111450000D01*
G75*
G02*
X129450000Y-111375000I0J75000D01*
G01*
X129450000Y-111225000D01*
G75*
G02*
X129525000Y-111150000I75000J0D01*
G01*
X130925000Y-111150000D01*
G75*
G02*
X131000000Y-111225000I0J-75000D01*
G01*
G37*
G36*
G01*
X131000000Y-110725000D02*
X131000000Y-110875000D01*
G75*
G02*
X130925000Y-110950000I-75000J0D01*
G01*
X129525000Y-110950000D01*
G75*
G02*
X129450000Y-110875000I0J75000D01*
G01*
X129450000Y-110725000D01*
G75*
G02*
X129525000Y-110650000I75000J0D01*
G01*
X130925000Y-110650000D01*
G75*
G02*
X131000000Y-110725000I0J-75000D01*
G01*
G37*
G36*
G01*
X131000000Y-110225000D02*
X131000000Y-110375000D01*
G75*
G02*
X130925000Y-110450000I-75000J0D01*
G01*
X129525000Y-110450000D01*
G75*
G02*
X129450000Y-110375000I0J75000D01*
G01*
X129450000Y-110225000D01*
G75*
G02*
X129525000Y-110150000I75000J0D01*
G01*
X130925000Y-110150000D01*
G75*
G02*
X131000000Y-110225000I0J-75000D01*
G01*
G37*
G36*
G01*
X131000000Y-109725000D02*
X131000000Y-109875000D01*
G75*
G02*
X130925000Y-109950000I-75000J0D01*
G01*
X129525000Y-109950000D01*
G75*
G02*
X129450000Y-109875000I0J75000D01*
G01*
X129450000Y-109725000D01*
G75*
G02*
X129525000Y-109650000I75000J0D01*
G01*
X130925000Y-109650000D01*
G75*
G02*
X131000000Y-109725000I0J-75000D01*
G01*
G37*
G36*
G01*
X131000000Y-109225000D02*
X131000000Y-109375000D01*
G75*
G02*
X130925000Y-109450000I-75000J0D01*
G01*
X129525000Y-109450000D01*
G75*
G02*
X129450000Y-109375000I0J75000D01*
G01*
X129450000Y-109225000D01*
G75*
G02*
X129525000Y-109150000I75000J0D01*
G01*
X130925000Y-109150000D01*
G75*
G02*
X131000000Y-109225000I0J-75000D01*
G01*
G37*
G36*
G01*
X131000000Y-108725000D02*
X131000000Y-108875000D01*
G75*
G02*
X130925000Y-108950000I-75000J0D01*
G01*
X129525000Y-108950000D01*
G75*
G02*
X129450000Y-108875000I0J75000D01*
G01*
X129450000Y-108725000D01*
G75*
G02*
X129525000Y-108650000I75000J0D01*
G01*
X130925000Y-108650000D01*
G75*
G02*
X131000000Y-108725000I0J-75000D01*
G01*
G37*
G36*
G01*
X131000000Y-108225000D02*
X131000000Y-108375000D01*
G75*
G02*
X130925000Y-108450000I-75000J0D01*
G01*
X129525000Y-108450000D01*
G75*
G02*
X129450000Y-108375000I0J75000D01*
G01*
X129450000Y-108225000D01*
G75*
G02*
X129525000Y-108150000I75000J0D01*
G01*
X130925000Y-108150000D01*
G75*
G02*
X131000000Y-108225000I0J-75000D01*
G01*
G37*
G36*
G01*
X131000000Y-107725000D02*
X131000000Y-107875000D01*
G75*
G02*
X130925000Y-107950000I-75000J0D01*
G01*
X129525000Y-107950000D01*
G75*
G02*
X129450000Y-107875000I0J75000D01*
G01*
X129450000Y-107725000D01*
G75*
G02*
X129525000Y-107650000I75000J0D01*
G01*
X130925000Y-107650000D01*
G75*
G02*
X131000000Y-107725000I0J-75000D01*
G01*
G37*
G36*
G01*
X131000000Y-107225000D02*
X131000000Y-107375000D01*
G75*
G02*
X130925000Y-107450000I-75000J0D01*
G01*
X129525000Y-107450000D01*
G75*
G02*
X129450000Y-107375000I0J75000D01*
G01*
X129450000Y-107225000D01*
G75*
G02*
X129525000Y-107150000I75000J0D01*
G01*
X130925000Y-107150000D01*
G75*
G02*
X131000000Y-107225000I0J-75000D01*
G01*
G37*
G36*
G01*
X131000000Y-106725000D02*
X131000000Y-106875000D01*
G75*
G02*
X130925000Y-106950000I-75000J0D01*
G01*
X129525000Y-106950000D01*
G75*
G02*
X129450000Y-106875000I0J75000D01*
G01*
X129450000Y-106725000D01*
G75*
G02*
X129525000Y-106650000I75000J0D01*
G01*
X130925000Y-106650000D01*
G75*
G02*
X131000000Y-106725000I0J-75000D01*
G01*
G37*
G36*
G01*
X132300000Y-104175000D02*
X132300000Y-105575000D01*
G75*
G02*
X132225000Y-105650000I-75000J0D01*
G01*
X132075000Y-105650000D01*
G75*
G02*
X132000000Y-105575000I0J75000D01*
G01*
X132000000Y-104175000D01*
G75*
G02*
X132075000Y-104100000I75000J0D01*
G01*
X132225000Y-104100000D01*
G75*
G02*
X132300000Y-104175000I0J-75000D01*
G01*
G37*
G36*
G01*
X132800000Y-104175000D02*
X132800000Y-105575000D01*
G75*
G02*
X132725000Y-105650000I-75000J0D01*
G01*
X132575000Y-105650000D01*
G75*
G02*
X132500000Y-105575000I0J75000D01*
G01*
X132500000Y-104175000D01*
G75*
G02*
X132575000Y-104100000I75000J0D01*
G01*
X132725000Y-104100000D01*
G75*
G02*
X132800000Y-104175000I0J-75000D01*
G01*
G37*
G36*
G01*
X133300000Y-104175000D02*
X133300000Y-105575000D01*
G75*
G02*
X133225000Y-105650000I-75000J0D01*
G01*
X133075000Y-105650000D01*
G75*
G02*
X133000000Y-105575000I0J75000D01*
G01*
X133000000Y-104175000D01*
G75*
G02*
X133075000Y-104100000I75000J0D01*
G01*
X133225000Y-104100000D01*
G75*
G02*
X133300000Y-104175000I0J-75000D01*
G01*
G37*
G36*
G01*
X133800000Y-104175000D02*
X133800000Y-105575000D01*
G75*
G02*
X133725000Y-105650000I-75000J0D01*
G01*
X133575000Y-105650000D01*
G75*
G02*
X133500000Y-105575000I0J75000D01*
G01*
X133500000Y-104175000D01*
G75*
G02*
X133575000Y-104100000I75000J0D01*
G01*
X133725000Y-104100000D01*
G75*
G02*
X133800000Y-104175000I0J-75000D01*
G01*
G37*
G36*
G01*
X134300000Y-104175000D02*
X134300000Y-105575000D01*
G75*
G02*
X134225000Y-105650000I-75000J0D01*
G01*
X134075000Y-105650000D01*
G75*
G02*
X134000000Y-105575000I0J75000D01*
G01*
X134000000Y-104175000D01*
G75*
G02*
X134075000Y-104100000I75000J0D01*
G01*
X134225000Y-104100000D01*
G75*
G02*
X134300000Y-104175000I0J-75000D01*
G01*
G37*
G36*
G01*
X134800000Y-104175000D02*
X134800000Y-105575000D01*
G75*
G02*
X134725000Y-105650000I-75000J0D01*
G01*
X134575000Y-105650000D01*
G75*
G02*
X134500000Y-105575000I0J75000D01*
G01*
X134500000Y-104175000D01*
G75*
G02*
X134575000Y-104100000I75000J0D01*
G01*
X134725000Y-104100000D01*
G75*
G02*
X134800000Y-104175000I0J-75000D01*
G01*
G37*
G36*
G01*
X135300000Y-104175000D02*
X135300000Y-105575000D01*
G75*
G02*
X135225000Y-105650000I-75000J0D01*
G01*
X135075000Y-105650000D01*
G75*
G02*
X135000000Y-105575000I0J75000D01*
G01*
X135000000Y-104175000D01*
G75*
G02*
X135075000Y-104100000I75000J0D01*
G01*
X135225000Y-104100000D01*
G75*
G02*
X135300000Y-104175000I0J-75000D01*
G01*
G37*
G36*
G01*
X135800000Y-104175000D02*
X135800000Y-105575000D01*
G75*
G02*
X135725000Y-105650000I-75000J0D01*
G01*
X135575000Y-105650000D01*
G75*
G02*
X135500000Y-105575000I0J75000D01*
G01*
X135500000Y-104175000D01*
G75*
G02*
X135575000Y-104100000I75000J0D01*
G01*
X135725000Y-104100000D01*
G75*
G02*
X135800000Y-104175000I0J-75000D01*
G01*
G37*
G36*
G01*
X136300000Y-104175000D02*
X136300000Y-105575000D01*
G75*
G02*
X136225000Y-105650000I-75000J0D01*
G01*
X136075000Y-105650000D01*
G75*
G02*
X136000000Y-105575000I0J75000D01*
G01*
X136000000Y-104175000D01*
G75*
G02*
X136075000Y-104100000I75000J0D01*
G01*
X136225000Y-104100000D01*
G75*
G02*
X136300000Y-104175000I0J-75000D01*
G01*
G37*
G36*
G01*
X136800000Y-104175000D02*
X136800000Y-105575000D01*
G75*
G02*
X136725000Y-105650000I-75000J0D01*
G01*
X136575000Y-105650000D01*
G75*
G02*
X136500000Y-105575000I0J75000D01*
G01*
X136500000Y-104175000D01*
G75*
G02*
X136575000Y-104100000I75000J0D01*
G01*
X136725000Y-104100000D01*
G75*
G02*
X136800000Y-104175000I0J-75000D01*
G01*
G37*
G36*
G01*
X137300000Y-104175000D02*
X137300000Y-105575000D01*
G75*
G02*
X137225000Y-105650000I-75000J0D01*
G01*
X137075000Y-105650000D01*
G75*
G02*
X137000000Y-105575000I0J75000D01*
G01*
X137000000Y-104175000D01*
G75*
G02*
X137075000Y-104100000I75000J0D01*
G01*
X137225000Y-104100000D01*
G75*
G02*
X137300000Y-104175000I0J-75000D01*
G01*
G37*
G36*
G01*
X137800000Y-104175000D02*
X137800000Y-105575000D01*
G75*
G02*
X137725000Y-105650000I-75000J0D01*
G01*
X137575000Y-105650000D01*
G75*
G02*
X137500000Y-105575000I0J75000D01*
G01*
X137500000Y-104175000D01*
G75*
G02*
X137575000Y-104100000I75000J0D01*
G01*
X137725000Y-104100000D01*
G75*
G02*
X137800000Y-104175000I0J-75000D01*
G01*
G37*
G36*
G01*
X138300000Y-104175000D02*
X138300000Y-105575000D01*
G75*
G02*
X138225000Y-105650000I-75000J0D01*
G01*
X138075000Y-105650000D01*
G75*
G02*
X138000000Y-105575000I0J75000D01*
G01*
X138000000Y-104175000D01*
G75*
G02*
X138075000Y-104100000I75000J0D01*
G01*
X138225000Y-104100000D01*
G75*
G02*
X138300000Y-104175000I0J-75000D01*
G01*
G37*
G36*
G01*
X138800000Y-104175000D02*
X138800000Y-105575000D01*
G75*
G02*
X138725000Y-105650000I-75000J0D01*
G01*
X138575000Y-105650000D01*
G75*
G02*
X138500000Y-105575000I0J75000D01*
G01*
X138500000Y-104175000D01*
G75*
G02*
X138575000Y-104100000I75000J0D01*
G01*
X138725000Y-104100000D01*
G75*
G02*
X138800000Y-104175000I0J-75000D01*
G01*
G37*
G36*
G01*
X139300000Y-104175000D02*
X139300000Y-105575000D01*
G75*
G02*
X139225000Y-105650000I-75000J0D01*
G01*
X139075000Y-105650000D01*
G75*
G02*
X139000000Y-105575000I0J75000D01*
G01*
X139000000Y-104175000D01*
G75*
G02*
X139075000Y-104100000I75000J0D01*
G01*
X139225000Y-104100000D01*
G75*
G02*
X139300000Y-104175000I0J-75000D01*
G01*
G37*
G36*
G01*
X139800000Y-104175000D02*
X139800000Y-105575000D01*
G75*
G02*
X139725000Y-105650000I-75000J0D01*
G01*
X139575000Y-105650000D01*
G75*
G02*
X139500000Y-105575000I0J75000D01*
G01*
X139500000Y-104175000D01*
G75*
G02*
X139575000Y-104100000I75000J0D01*
G01*
X139725000Y-104100000D01*
G75*
G02*
X139800000Y-104175000I0J-75000D01*
G01*
G37*
G36*
G01*
X142350000Y-106725000D02*
X142350000Y-106875000D01*
G75*
G02*
X142275000Y-106950000I-75000J0D01*
G01*
X140875000Y-106950000D01*
G75*
G02*
X140800000Y-106875000I0J75000D01*
G01*
X140800000Y-106725000D01*
G75*
G02*
X140875000Y-106650000I75000J0D01*
G01*
X142275000Y-106650000D01*
G75*
G02*
X142350000Y-106725000I0J-75000D01*
G01*
G37*
G36*
G01*
X142350000Y-107225000D02*
X142350000Y-107375000D01*
G75*
G02*
X142275000Y-107450000I-75000J0D01*
G01*
X140875000Y-107450000D01*
G75*
G02*
X140800000Y-107375000I0J75000D01*
G01*
X140800000Y-107225000D01*
G75*
G02*
X140875000Y-107150000I75000J0D01*
G01*
X142275000Y-107150000D01*
G75*
G02*
X142350000Y-107225000I0J-75000D01*
G01*
G37*
G36*
G01*
X142350000Y-107725000D02*
X142350000Y-107875000D01*
G75*
G02*
X142275000Y-107950000I-75000J0D01*
G01*
X140875000Y-107950000D01*
G75*
G02*
X140800000Y-107875000I0J75000D01*
G01*
X140800000Y-107725000D01*
G75*
G02*
X140875000Y-107650000I75000J0D01*
G01*
X142275000Y-107650000D01*
G75*
G02*
X142350000Y-107725000I0J-75000D01*
G01*
G37*
G36*
G01*
X142350000Y-108225000D02*
X142350000Y-108375000D01*
G75*
G02*
X142275000Y-108450000I-75000J0D01*
G01*
X140875000Y-108450000D01*
G75*
G02*
X140800000Y-108375000I0J75000D01*
G01*
X140800000Y-108225000D01*
G75*
G02*
X140875000Y-108150000I75000J0D01*
G01*
X142275000Y-108150000D01*
G75*
G02*
X142350000Y-108225000I0J-75000D01*
G01*
G37*
G36*
G01*
X142350000Y-108725000D02*
X142350000Y-108875000D01*
G75*
G02*
X142275000Y-108950000I-75000J0D01*
G01*
X140875000Y-108950000D01*
G75*
G02*
X140800000Y-108875000I0J75000D01*
G01*
X140800000Y-108725000D01*
G75*
G02*
X140875000Y-108650000I75000J0D01*
G01*
X142275000Y-108650000D01*
G75*
G02*
X142350000Y-108725000I0J-75000D01*
G01*
G37*
G36*
G01*
X142350000Y-109225000D02*
X142350000Y-109375000D01*
G75*
G02*
X142275000Y-109450000I-75000J0D01*
G01*
X140875000Y-109450000D01*
G75*
G02*
X140800000Y-109375000I0J75000D01*
G01*
X140800000Y-109225000D01*
G75*
G02*
X140875000Y-109150000I75000J0D01*
G01*
X142275000Y-109150000D01*
G75*
G02*
X142350000Y-109225000I0J-75000D01*
G01*
G37*
G36*
G01*
X142350000Y-109725000D02*
X142350000Y-109875000D01*
G75*
G02*
X142275000Y-109950000I-75000J0D01*
G01*
X140875000Y-109950000D01*
G75*
G02*
X140800000Y-109875000I0J75000D01*
G01*
X140800000Y-109725000D01*
G75*
G02*
X140875000Y-109650000I75000J0D01*
G01*
X142275000Y-109650000D01*
G75*
G02*
X142350000Y-109725000I0J-75000D01*
G01*
G37*
G36*
G01*
X142350000Y-110225000D02*
X142350000Y-110375000D01*
G75*
G02*
X142275000Y-110450000I-75000J0D01*
G01*
X140875000Y-110450000D01*
G75*
G02*
X140800000Y-110375000I0J75000D01*
G01*
X140800000Y-110225000D01*
G75*
G02*
X140875000Y-110150000I75000J0D01*
G01*
X142275000Y-110150000D01*
G75*
G02*
X142350000Y-110225000I0J-75000D01*
G01*
G37*
G36*
G01*
X142350000Y-110725000D02*
X142350000Y-110875000D01*
G75*
G02*
X142275000Y-110950000I-75000J0D01*
G01*
X140875000Y-110950000D01*
G75*
G02*
X140800000Y-110875000I0J75000D01*
G01*
X140800000Y-110725000D01*
G75*
G02*
X140875000Y-110650000I75000J0D01*
G01*
X142275000Y-110650000D01*
G75*
G02*
X142350000Y-110725000I0J-75000D01*
G01*
G37*
G36*
G01*
X142350000Y-111225000D02*
X142350000Y-111375000D01*
G75*
G02*
X142275000Y-111450000I-75000J0D01*
G01*
X140875000Y-111450000D01*
G75*
G02*
X140800000Y-111375000I0J75000D01*
G01*
X140800000Y-111225000D01*
G75*
G02*
X140875000Y-111150000I75000J0D01*
G01*
X142275000Y-111150000D01*
G75*
G02*
X142350000Y-111225000I0J-75000D01*
G01*
G37*
G36*
G01*
X142350000Y-111725000D02*
X142350000Y-111875000D01*
G75*
G02*
X142275000Y-111950000I-75000J0D01*
G01*
X140875000Y-111950000D01*
G75*
G02*
X140800000Y-111875000I0J75000D01*
G01*
X140800000Y-111725000D01*
G75*
G02*
X140875000Y-111650000I75000J0D01*
G01*
X142275000Y-111650000D01*
G75*
G02*
X142350000Y-111725000I0J-75000D01*
G01*
G37*
G36*
G01*
X142350000Y-112225000D02*
X142350000Y-112375000D01*
G75*
G02*
X142275000Y-112450000I-75000J0D01*
G01*
X140875000Y-112450000D01*
G75*
G02*
X140800000Y-112375000I0J75000D01*
G01*
X140800000Y-112225000D01*
G75*
G02*
X140875000Y-112150000I75000J0D01*
G01*
X142275000Y-112150000D01*
G75*
G02*
X142350000Y-112225000I0J-75000D01*
G01*
G37*
G36*
G01*
X142350000Y-112725000D02*
X142350000Y-112875000D01*
G75*
G02*
X142275000Y-112950000I-75000J0D01*
G01*
X140875000Y-112950000D01*
G75*
G02*
X140800000Y-112875000I0J75000D01*
G01*
X140800000Y-112725000D01*
G75*
G02*
X140875000Y-112650000I75000J0D01*
G01*
X142275000Y-112650000D01*
G75*
G02*
X142350000Y-112725000I0J-75000D01*
G01*
G37*
G36*
G01*
X142350000Y-113225000D02*
X142350000Y-113375000D01*
G75*
G02*
X142275000Y-113450000I-75000J0D01*
G01*
X140875000Y-113450000D01*
G75*
G02*
X140800000Y-113375000I0J75000D01*
G01*
X140800000Y-113225000D01*
G75*
G02*
X140875000Y-113150000I75000J0D01*
G01*
X142275000Y-113150000D01*
G75*
G02*
X142350000Y-113225000I0J-75000D01*
G01*
G37*
G36*
G01*
X142350000Y-113725000D02*
X142350000Y-113875000D01*
G75*
G02*
X142275000Y-113950000I-75000J0D01*
G01*
X140875000Y-113950000D01*
G75*
G02*
X140800000Y-113875000I0J75000D01*
G01*
X140800000Y-113725000D01*
G75*
G02*
X140875000Y-113650000I75000J0D01*
G01*
X142275000Y-113650000D01*
G75*
G02*
X142350000Y-113725000I0J-75000D01*
G01*
G37*
G36*
G01*
X142350000Y-114225000D02*
X142350000Y-114375000D01*
G75*
G02*
X142275000Y-114450000I-75000J0D01*
G01*
X140875000Y-114450000D01*
G75*
G02*
X140800000Y-114375000I0J75000D01*
G01*
X140800000Y-114225000D01*
G75*
G02*
X140875000Y-114150000I75000J0D01*
G01*
X142275000Y-114150000D01*
G75*
G02*
X142350000Y-114225000I0J-75000D01*
G01*
G37*
%TD*%
D14*
%TO.C,R23*%
X151150000Y-105570000D03*
X151150000Y-104030000D03*
%TD*%
D15*
%TO.C,R21*%
X133600000Y-101175000D03*
X133600000Y-102025000D03*
%TD*%
%TO.C,R20*%
X135200000Y-120225000D03*
X135200000Y-119375000D03*
%TD*%
%TO.C,R18*%
X135200000Y-101175000D03*
X135200000Y-102025000D03*
%TD*%
%TO.C,R17*%
X132600000Y-120225000D03*
X132600000Y-119375000D03*
%TD*%
D11*
%TO.C,R15*%
G36*
X125681802Y-113058578D02*
G01*
X126141422Y-113518198D01*
X125717158Y-113942462D01*
X125257538Y-113482842D01*
X125681802Y-113058578D01*
G37*
G36*
X126282842Y-112457538D02*
G01*
X126742462Y-112917158D01*
X126318198Y-113341422D01*
X125858578Y-112881802D01*
X126282842Y-112457538D01*
G37*
%TD*%
D16*
%TO.C,R14*%
X124575000Y-111200000D03*
X125425000Y-111200000D03*
%TD*%
D11*
%TO.C,R13*%
G36*
X126141422Y-108881802D02*
G01*
X125681802Y-109341422D01*
X125257538Y-108917158D01*
X125717158Y-108457538D01*
X126141422Y-108881802D01*
G37*
G36*
X126742462Y-109482842D02*
G01*
X126282842Y-109942462D01*
X125858578Y-109518198D01*
X126318198Y-109058578D01*
X126742462Y-109482842D01*
G37*
%TD*%
D15*
%TO.C,R12*%
X136600000Y-101175000D03*
X136600000Y-102025000D03*
%TD*%
%TO.C,R10*%
X138150000Y-101125000D03*
X138150000Y-101975000D03*
%TD*%
%TO.C,R9*%
X139650000Y-101125000D03*
X139650000Y-101975000D03*
%TD*%
D11*
%TO.C,R8*%
G36*
X145970618Y-105435847D02*
G01*
X145503047Y-104984319D01*
X145919842Y-104552715D01*
X146387413Y-105004243D01*
X145970618Y-105435847D01*
G37*
G36*
X145380158Y-106047285D02*
G01*
X144912587Y-105595757D01*
X145329382Y-105164153D01*
X145796953Y-105615681D01*
X145380158Y-106047285D01*
G37*
%TD*%
D16*
%TO.C,R7*%
X147075000Y-107300000D03*
X146225000Y-107300000D03*
%TD*%
D11*
%TO.C,R6*%
G36*
X145508578Y-109618198D02*
G01*
X145968198Y-109158578D01*
X146392462Y-109582842D01*
X145932842Y-110042462D01*
X145508578Y-109618198D01*
G37*
G36*
X144907538Y-109017158D02*
G01*
X145367158Y-108557538D01*
X145791422Y-108981802D01*
X145331802Y-109441422D01*
X144907538Y-109017158D01*
G37*
%TD*%
D16*
%TO.C,R4*%
X144175000Y-111300000D03*
X145025000Y-111300000D03*
%TD*%
D17*
%TO.C,R3*%
X137650000Y-119860000D03*
X139190000Y-119860000D03*
%TD*%
%TO.C,R2*%
X153670000Y-112050000D03*
X152130000Y-112050000D03*
%TD*%
%TO.C,R1*%
X153130000Y-105300000D03*
X154670000Y-105300000D03*
%TD*%
D18*
%TO.C,PS1*%
X142240000Y-91900000D03*
X142240000Y-90950000D03*
X142240000Y-90000000D03*
X139640000Y-90000000D03*
X139640000Y-90950000D03*
X139640000Y-91900000D03*
%TD*%
D11*
%TO.C,C10*%
G36*
X141088148Y-120239138D02*
G01*
X141936852Y-119749138D01*
X142401852Y-120554542D01*
X141553148Y-121044542D01*
X141088148Y-120239138D01*
G37*
G36*
X140318148Y-118905458D02*
G01*
X141166852Y-118415458D01*
X141631852Y-119220862D01*
X140783148Y-119710862D01*
X140318148Y-118905458D01*
G37*
%TD*%
%TO.C,C9*%
G36*
X150780862Y-114808148D02*
G01*
X150290862Y-115656852D01*
X149485458Y-115191852D01*
X149975458Y-114343148D01*
X150780862Y-114808148D01*
G37*
G36*
X152114542Y-115578148D02*
G01*
X151624542Y-116426852D01*
X150819138Y-115961852D01*
X151309138Y-115113148D01*
X152114542Y-115578148D01*
G37*
%TD*%
%TO.C,C8*%
G36*
X148580862Y-118423148D02*
G01*
X148090862Y-119271852D01*
X147285458Y-118806852D01*
X147775458Y-117958148D01*
X148580862Y-118423148D01*
G37*
G36*
X149914542Y-119193148D02*
G01*
X149424542Y-120041852D01*
X148619138Y-119576852D01*
X149109138Y-118728148D01*
X149914542Y-119193148D01*
G37*
%TD*%
D14*
%TO.C,C4*%
X137740000Y-89380000D03*
X137740000Y-90920000D03*
%TD*%
M02*
