%TF.GenerationSoftware,KiCad,Pcbnew,(5.1.8)-1*%
%TF.CreationDate,2021-05-09T22:57:12+08:00*%
%TF.ProjectId,ccd_with_stm32,6363645f-7769-4746-985f-73746d33322e,rev?*%
%TF.SameCoordinates,Original*%
%TF.FileFunction,Soldermask,Bot*%
%TF.FilePolarity,Negative*%
%FSLAX46Y46*%
G04 Gerber Fmt 4.6, Leading zero omitted, Abs format (unit mm)*
G04 Created by KiCad (PCBNEW (5.1.8)-1) date 2021-05-09 22:57:12*
%MOMM*%
%LPD*%
G01*
G04 APERTURE LIST*
%ADD10R,0.930000X0.980000*%
%ADD11O,1.000000X2.100000*%
%ADD12C,0.650000*%
%ADD13O,1.000000X1.600000*%
%ADD14R,1.570000X0.410000*%
%ADD15C,0.100000*%
%ADD16R,0.600000X0.650000*%
%ADD17R,1.220000X1.220000*%
%ADD18C,1.220000*%
%ADD19R,0.980000X0.930000*%
G04 APERTURE END LIST*
D10*
%TO.C,R24*%
X144340000Y-87150000D03*
X142800000Y-87150000D03*
%TD*%
%TO.C,R16*%
X139420000Y-87160000D03*
X137880000Y-87160000D03*
%TD*%
D11*
%TO.C,U3*%
X136860000Y-83520000D03*
X145500000Y-83520000D03*
D12*
X144070000Y-82990000D03*
D13*
X145500000Y-79340000D03*
D12*
X138290000Y-82990000D03*
D13*
X136860000Y-79340000D03*
%TD*%
D14*
%TO.C,U1*%
X145530000Y-100375000D03*
X145530000Y-99725000D03*
X145530000Y-99075000D03*
X145530000Y-98425000D03*
X151270000Y-98425000D03*
X151270000Y-99075000D03*
X151270000Y-99725000D03*
X151270000Y-100375000D03*
%TD*%
D15*
%TO.C,R22*%
G36*
X133258578Y-101118198D02*
G01*
X133718198Y-100658578D01*
X134142462Y-101082842D01*
X133682842Y-101542462D01*
X133258578Y-101118198D01*
G37*
G36*
X132657538Y-100517158D02*
G01*
X133117158Y-100057538D01*
X133541422Y-100481802D01*
X133081802Y-100941422D01*
X132657538Y-100517158D01*
G37*
%TD*%
D16*
%TO.C,R19*%
X135625000Y-99800000D03*
X134775000Y-99800000D03*
%TD*%
%TO.C,R11*%
X136350000Y-99800000D03*
X137200000Y-99800000D03*
%TD*%
D10*
%TO.C,R5*%
X144190000Y-110080000D03*
X142650000Y-110080000D03*
%TD*%
D17*
%TO.C,IC1*%
X168460000Y-113440000D03*
D18*
X168460000Y-110900000D03*
X168460000Y-108360000D03*
X168460000Y-105820000D03*
X168460000Y-103280000D03*
X168460000Y-100740000D03*
X168460000Y-98200000D03*
X168460000Y-95660000D03*
X168460000Y-93120000D03*
X168460000Y-90580000D03*
X168460000Y-88040000D03*
X158300000Y-88040000D03*
X158300000Y-90580000D03*
X158300000Y-93120000D03*
X158300000Y-95660000D03*
X158300000Y-98200000D03*
X158300000Y-100740000D03*
X158300000Y-103280000D03*
X158300000Y-105820000D03*
X158300000Y-108360000D03*
X158300000Y-110900000D03*
X158300000Y-113440000D03*
%TD*%
D19*
%TO.C,C15*%
X127400000Y-113830000D03*
X127400000Y-115370000D03*
%TD*%
D10*
%TO.C,C14*%
X140200000Y-103090000D03*
X138660000Y-103090000D03*
%TD*%
%TO.C,C13*%
X144720000Y-108300000D03*
X143180000Y-108300000D03*
%TD*%
D15*
%TO.C,C12*%
G36*
X131069185Y-101762150D02*
G01*
X131762150Y-101069185D01*
X132419759Y-101726794D01*
X131726794Y-102419759D01*
X131069185Y-101762150D01*
G37*
G36*
X129980241Y-100673206D02*
G01*
X130673206Y-99980241D01*
X131330815Y-100637850D01*
X130637850Y-101330815D01*
X129980241Y-100673206D01*
G37*
%TD*%
D10*
%TO.C,C11*%
X128340000Y-104880000D03*
X129880000Y-104880000D03*
%TD*%
%TO.C,C7*%
X127330000Y-117130000D03*
X128870000Y-117130000D03*
%TD*%
D19*
%TO.C,C6*%
X141750000Y-117200000D03*
X141750000Y-115660000D03*
%TD*%
%TO.C,C5*%
X130240000Y-118640000D03*
X130240000Y-117100000D03*
%TD*%
%TO.C,C3*%
X139540000Y-93580000D03*
X139540000Y-95120000D03*
%TD*%
%TO.C,C2*%
X142340000Y-93580000D03*
X142340000Y-95120000D03*
%TD*%
D10*
%TO.C,C1*%
X149710000Y-102210000D03*
X151250000Y-102210000D03*
%TD*%
M02*
