%TF.GenerationSoftware,KiCad,Pcbnew,(5.1.8)-1*%
%TF.CreationDate,2021-05-09T22:57:12+08:00*%
%TF.ProjectId,ccd_with_stm32,6363645f-7769-4746-985f-73746d33322e,rev?*%
%TF.SameCoordinates,Original*%
%TF.FileFunction,Copper,L2,Bot*%
%TF.FilePolarity,Positive*%
%FSLAX46Y46*%
G04 Gerber Fmt 4.6, Leading zero omitted, Abs format (unit mm)*
G04 Created by KiCad (PCBNEW (5.1.8)-1) date 2021-05-09 22:57:12*
%MOMM*%
%LPD*%
G01*
G04 APERTURE LIST*
%TA.AperFunction,SMDPad,CuDef*%
%ADD10R,0.930000X0.980000*%
%TD*%
%TA.AperFunction,ComponentPad*%
%ADD11O,1.000000X2.100000*%
%TD*%
%TA.AperFunction,ComponentPad*%
%ADD12O,1.000000X1.600000*%
%TD*%
%TA.AperFunction,SMDPad,CuDef*%
%ADD13R,1.570000X0.410000*%
%TD*%
%TA.AperFunction,SMDPad,CuDef*%
%ADD14C,0.100000*%
%TD*%
%TA.AperFunction,SMDPad,CuDef*%
%ADD15R,0.600000X0.650000*%
%TD*%
%TA.AperFunction,ComponentPad*%
%ADD16R,1.220000X1.220000*%
%TD*%
%TA.AperFunction,ComponentPad*%
%ADD17C,1.220000*%
%TD*%
%TA.AperFunction,SMDPad,CuDef*%
%ADD18R,0.980000X0.930000*%
%TD*%
%TA.AperFunction,ViaPad*%
%ADD19C,0.800000*%
%TD*%
%TA.AperFunction,Conductor*%
%ADD20C,0.250000*%
%TD*%
%TA.AperFunction,Conductor*%
%ADD21C,0.635000*%
%TD*%
%TA.AperFunction,Conductor*%
%ADD22C,0.508000*%
%TD*%
%TA.AperFunction,Conductor*%
%ADD23C,0.254000*%
%TD*%
%TA.AperFunction,Conductor*%
%ADD24C,0.100000*%
%TD*%
G04 APERTURE END LIST*
D10*
%TO.P,R24,2*%
%TO.N,GND*%
X144340000Y-87150000D03*
%TO.P,R24,1*%
%TO.N,Net-(R24-Pad1)*%
X142800000Y-87150000D03*
%TD*%
%TO.P,R16,2*%
%TO.N,Net-(R16-Pad2)*%
X139420000Y-87160000D03*
%TO.P,R16,1*%
%TO.N,GND*%
X137880000Y-87160000D03*
%TD*%
D11*
%TO.P,U3,S1*%
%TO.N,GND*%
X136860000Y-83520000D03*
X145500000Y-83520000D03*
D12*
X145500000Y-79340000D03*
X136860000Y-79340000D03*
%TD*%
D13*
%TO.P,U1,1*%
%TO.N,/ICG*%
X145530000Y-100375000D03*
%TO.P,U1,2*%
%TO.N,Net-(IC1-Pad4)*%
X145530000Y-99725000D03*
%TO.P,U1,3*%
%TO.N,/SH*%
X145530000Y-99075000D03*
%TO.P,U1,4*%
%TO.N,GND*%
X145530000Y-98425000D03*
%TO.P,U1,5*%
%TO.N,Net-(IC1-Pad5)*%
X151270000Y-98425000D03*
%TO.P,U1,6*%
%TO.N,/M*%
X151270000Y-99075000D03*
%TO.P,U1,7*%
%TO.N,Net-(IC1-Pad3)*%
X151270000Y-99725000D03*
%TO.P,U1,8*%
%TO.N,/3v3_1*%
X151270000Y-100375000D03*
%TD*%
%TA.AperFunction,SMDPad,CuDef*%
D14*
%TO.P,R22,2*%
%TO.N,/M*%
G36*
X133258578Y-101118198D02*
G01*
X133718198Y-100658578D01*
X134142462Y-101082842D01*
X133682842Y-101542462D01*
X133258578Y-101118198D01*
G37*
%TD.AperFunction*%
%TA.AperFunction,SMDPad,CuDef*%
%TO.P,R22,1*%
%TO.N,Net-(R22-Pad1)*%
G36*
X132657538Y-100517158D02*
G01*
X133117158Y-100057538D01*
X133541422Y-100481802D01*
X133081802Y-100941422D01*
X132657538Y-100517158D01*
G37*
%TD.AperFunction*%
%TD*%
D15*
%TO.P,R19,2*%
%TO.N,/SH*%
X135625000Y-99800000D03*
%TO.P,R19,1*%
%TO.N,Net-(R19-Pad1)*%
X134775000Y-99800000D03*
%TD*%
%TO.P,R11,2*%
%TO.N,/SH*%
X136350000Y-99800000D03*
%TO.P,R11,1*%
%TO.N,Net-(R11-Pad1)*%
X137200000Y-99800000D03*
%TD*%
D10*
%TO.P,R5,2*%
%TO.N,Net-(R4-Pad2)*%
X144190000Y-110080000D03*
%TO.P,R5,1*%
%TO.N,/3v3_2*%
X142650000Y-110080000D03*
%TD*%
D16*
%TO.P,IC1,1*%
%TO.N,/3v3_1*%
X168460000Y-113440000D03*
D17*
%TO.P,IC1,2*%
X168460000Y-110900000D03*
%TO.P,IC1,3*%
%TO.N,Net-(IC1-Pad3)*%
X168460000Y-108360000D03*
%TO.P,IC1,4*%
%TO.N,Net-(IC1-Pad4)*%
X168460000Y-105820000D03*
%TO.P,IC1,5*%
%TO.N,Net-(IC1-Pad5)*%
X168460000Y-103280000D03*
%TO.P,IC1,6*%
%TO.N,GND*%
X168460000Y-100740000D03*
%TO.P,IC1,7*%
X168460000Y-98200000D03*
%TO.P,IC1,8*%
X168460000Y-95660000D03*
%TO.P,IC1,9*%
X168460000Y-93120000D03*
%TO.P,IC1,10*%
X168460000Y-90580000D03*
%TO.P,IC1,11*%
X168460000Y-88040000D03*
%TO.P,IC1,12*%
X158300000Y-88040000D03*
%TO.P,IC1,13*%
X158300000Y-90580000D03*
%TO.P,IC1,14*%
X158300000Y-93120000D03*
%TO.P,IC1,15*%
X158300000Y-95660000D03*
%TO.P,IC1,16*%
X158300000Y-98200000D03*
%TO.P,IC1,17*%
X158300000Y-100740000D03*
%TO.P,IC1,18*%
X158300000Y-103280000D03*
%TO.P,IC1,19*%
X158300000Y-105820000D03*
%TO.P,IC1,20*%
X158300000Y-108360000D03*
%TO.P,IC1,21*%
%TO.N,Net-(IC1-Pad21)*%
X158300000Y-110900000D03*
%TO.P,IC1,22*%
%TO.N,GND*%
X158300000Y-113440000D03*
%TD*%
D18*
%TO.P,C15,2*%
%TO.N,Net-(C15-Pad2)*%
X127400000Y-113830000D03*
%TO.P,C15,1*%
%TO.N,GND*%
X127400000Y-115370000D03*
%TD*%
D10*
%TO.P,C14,2*%
%TO.N,GND*%
X140200000Y-103090000D03*
%TO.P,C14,1*%
%TO.N,/3v3_2*%
X138660000Y-103090000D03*
%TD*%
%TO.P,C13,2*%
%TO.N,GND*%
X144720000Y-108300000D03*
%TO.P,C13,1*%
%TO.N,/3v3_2*%
X143180000Y-108300000D03*
%TD*%
%TA.AperFunction,SMDPad,CuDef*%
D14*
%TO.P,C12,2*%
%TO.N,Net-(C12-Pad2)*%
G36*
X131069185Y-101762150D02*
G01*
X131762150Y-101069185D01*
X132419759Y-101726794D01*
X131726794Y-102419759D01*
X131069185Y-101762150D01*
G37*
%TD.AperFunction*%
%TA.AperFunction,SMDPad,CuDef*%
%TO.P,C12,1*%
%TO.N,GND*%
G36*
X129980241Y-100673206D02*
G01*
X130673206Y-99980241D01*
X131330815Y-100637850D01*
X130637850Y-101330815D01*
X129980241Y-100673206D01*
G37*
%TD.AperFunction*%
%TD*%
D10*
%TO.P,C11,2*%
%TO.N,GND*%
X128340000Y-104880000D03*
%TO.P,C11,1*%
%TO.N,/3v3_2*%
X129880000Y-104880000D03*
%TD*%
%TO.P,C7,2*%
%TO.N,GND*%
X127330000Y-117130000D03*
%TO.P,C7,1*%
%TO.N,/3v3_2*%
X128870000Y-117130000D03*
%TD*%
D18*
%TO.P,C6,2*%
%TO.N,GND*%
X141750000Y-117200000D03*
%TO.P,C6,1*%
%TO.N,/3v3_2*%
X141750000Y-115660000D03*
%TD*%
%TO.P,C5,2*%
%TO.N,GND*%
X130240000Y-118640000D03*
%TO.P,C5,1*%
%TO.N,/3v3_2*%
X130240000Y-117100000D03*
%TD*%
%TO.P,C3,2*%
%TO.N,/3v3_2*%
X139540000Y-93580000D03*
%TO.P,C3,1*%
%TO.N,GND*%
X139540000Y-95120000D03*
%TD*%
%TO.P,C2,2*%
%TO.N,/3v3_1*%
X142340000Y-93580000D03*
%TO.P,C2,1*%
%TO.N,GND*%
X142340000Y-95120000D03*
%TD*%
D10*
%TO.P,C1,2*%
%TO.N,GND*%
X149710000Y-102210000D03*
%TO.P,C1,1*%
%TO.N,/3v3_1*%
X151250000Y-102210000D03*
%TD*%
D19*
%TO.N,GND*%
X140780600Y-101989500D03*
X145075000Y-111300000D03*
X144340000Y-87150000D03*
X137880000Y-87160000D03*
%TO.N,/3v3_1*%
X151250000Y-102210000D03*
X142340000Y-93580000D03*
%TO.N,/3v3_2*%
X143180000Y-108527000D03*
X130240000Y-117100000D03*
X141750000Y-115660000D03*
X129880000Y-104880000D03*
X139540000Y-93580000D03*
%TO.N,VCC*%
X143576000Y-86080000D03*
X140930000Y-88930000D03*
%TO.N,Net-(C12-Pad2)*%
X131580300Y-103041900D03*
%TO.N,Net-(C15-Pad2)*%
X127400000Y-113830000D03*
%TO.N,Net-(R4-Pad2)*%
X144190000Y-110080000D03*
%TO.N,/SH*%
X136021500Y-98872300D03*
%TO.N,Net-(R11-Pad1)*%
X137200600Y-103462300D03*
%TO.N,/ICG*%
X128813500Y-107251800D03*
%TO.N,Net-(R16-Pad2)*%
X139420000Y-87160000D03*
%TO.N,/M*%
X134115200Y-98981300D03*
X149578800Y-97901700D03*
%TO.N,Net-(R19-Pad1)*%
X134400000Y-103462500D03*
%TO.N,Net-(R22-Pad1)*%
X132765100Y-102985000D03*
%TO.N,Net-(R24-Pad1)*%
X142800000Y-87150000D03*
%TO.N,/DP*%
X140181800Y-85958800D03*
X126857800Y-106092400D03*
%TO.N,/DM*%
X127583200Y-112650500D03*
X139298100Y-88449800D03*
%TD*%
D20*
%TO.N,GND*%
X140200000Y-103090000D02*
X140200000Y-102274700D01*
X140780600Y-101989500D02*
X140495400Y-102274700D01*
X140495400Y-102274700D02*
X140200000Y-102274700D01*
X145530000Y-97415700D02*
X145028500Y-97415700D01*
X145028500Y-97415700D02*
X140780600Y-101663600D01*
X140780600Y-101663600D02*
X140780600Y-101989500D01*
D21*
X145530000Y-97415700D02*
X145530000Y-98352500D01*
X142340000Y-95120000D02*
X143465000Y-95120000D01*
X143465000Y-95120000D02*
X145530000Y-97185000D01*
X145530000Y-97185000D02*
X145530000Y-97415700D01*
D20*
X168460000Y-98200000D02*
X168460000Y-100740000D01*
X168460000Y-95660000D02*
X168460000Y-98200000D01*
X158300000Y-113440000D02*
X159243000Y-112497000D01*
X159243000Y-112497000D02*
X159243000Y-109303000D01*
X159243000Y-109303000D02*
X158300000Y-108360000D01*
X158300000Y-103280000D02*
X150780000Y-103280000D01*
X150780000Y-103280000D02*
X149710000Y-102210000D01*
X158300000Y-105820000D02*
X158300000Y-103280000D01*
X158300000Y-108360000D02*
X158300000Y-105820000D01*
X145075000Y-111300000D02*
X145075000Y-113875000D01*
X145075000Y-113875000D02*
X141750000Y-117200000D01*
D22*
X139540000Y-95120000D02*
X141524600Y-95120000D01*
D20*
X128340000Y-105695300D02*
X130568500Y-105695300D01*
X130568500Y-105695300D02*
X130670400Y-105593400D01*
X130670400Y-105593400D02*
X130670400Y-100670400D01*
X130670400Y-100670400D02*
X130655500Y-100655500D01*
X128340000Y-105582700D02*
X128340000Y-105695300D01*
X128340000Y-104880000D02*
X128340000Y-105582700D01*
X127400000Y-116215000D02*
X128149200Y-115465800D01*
X128149200Y-115465800D02*
X128149200Y-114816800D01*
X128149200Y-114816800D02*
X128313400Y-114652600D01*
X128313400Y-114652600D02*
X128313400Y-111925100D01*
X128313400Y-111925100D02*
X128033600Y-111645300D01*
X128033600Y-111645300D02*
X128033600Y-106001700D01*
X128033600Y-106001700D02*
X128340000Y-105695300D01*
D23*
X127400000Y-116215000D02*
X127400000Y-117060000D01*
X127400000Y-117060000D02*
X127330000Y-117130000D01*
X127400000Y-115370000D02*
X127400000Y-116215000D01*
D20*
X168460000Y-93120000D02*
X168460000Y-95660000D01*
X168460000Y-90580000D02*
X168460000Y-93120000D01*
X168460000Y-88040000D02*
X168460000Y-90580000D01*
X158300000Y-93120000D02*
X158300000Y-90580000D01*
X158300000Y-95660000D02*
X158300000Y-93120000D01*
X158300000Y-98200000D02*
X158300000Y-95660000D01*
X130240000Y-118640000D02*
X131680000Y-117200000D01*
X131680000Y-117200000D02*
X141750000Y-117200000D01*
X149710000Y-102210000D02*
X149710000Y-101394700D01*
X149710000Y-101394700D02*
X146740300Y-98425000D01*
X146740300Y-98425000D02*
X145530000Y-98425000D01*
D22*
X141524600Y-95120000D02*
X142340000Y-95120000D01*
D20*
X144340000Y-87150000D02*
X141524600Y-89965400D01*
X141524600Y-89965400D02*
X141524600Y-95120000D01*
X145530000Y-98352500D02*
X145530000Y-98425000D01*
D23*
X144720000Y-108300000D02*
X145075000Y-108655000D01*
X145075000Y-108655000D02*
X145075000Y-111300000D01*
X127330000Y-117130000D02*
X128840000Y-118640000D01*
X128840000Y-118640000D02*
X130240000Y-118640000D01*
D22*
%TO.N,/3v3_1*%
X168455000Y-113440000D02*
X168450000Y-113440000D01*
X168460000Y-113440000D02*
X168455000Y-113440000D01*
X168455000Y-113440000D02*
X168450000Y-113440000D01*
X168460000Y-113440000D02*
X168455000Y-113440000D01*
X168450000Y-113440000D02*
X168440000Y-113440000D01*
X168450000Y-113440000D02*
X168440000Y-113440000D01*
D20*
X151250000Y-100645100D02*
X151270000Y-100625100D01*
X151270000Y-100625100D02*
X151270000Y-100448000D01*
D23*
X151250000Y-100645100D02*
X151250000Y-100395000D01*
X151250000Y-100395000D02*
X151270000Y-100375000D01*
X151250000Y-102210000D02*
X151250000Y-100645100D01*
D22*
X168440000Y-113440000D02*
X165350000Y-113440000D01*
X165350000Y-113440000D02*
X163400000Y-111490000D01*
X163400000Y-111490000D02*
X163400000Y-103590000D01*
X163400000Y-103590000D02*
X162020000Y-102210000D01*
X162020000Y-102210000D02*
X151250000Y-102210000D01*
D21*
X142340000Y-93580000D02*
X143203000Y-93580000D01*
X143203000Y-93580000D02*
X150071000Y-100448000D01*
X150071000Y-100448000D02*
X151270000Y-100448000D01*
D20*
%TO.N,/3v3_2*%
X138660000Y-103090000D02*
X138660000Y-102274700D01*
X138275000Y-93580000D02*
X138275000Y-101889700D01*
X138275000Y-101889700D02*
X138660000Y-102274700D01*
D21*
X138275000Y-93580000D02*
X136342000Y-93580000D01*
X136342000Y-93580000D02*
X129463000Y-100459000D01*
X129463000Y-100459000D02*
X129463000Y-104463000D01*
X129463000Y-104463000D02*
X129880000Y-104880000D01*
X139540000Y-93580000D02*
X138275000Y-93580000D01*
D20*
X143180000Y-108300000D02*
X143180000Y-108527000D01*
D23*
X142650000Y-110080000D02*
X142650000Y-108830000D01*
X142650000Y-108830000D02*
X143180000Y-108300000D01*
X128870000Y-117130000D02*
X130210000Y-117130000D01*
X130210000Y-117130000D02*
X130240000Y-117100000D01*
D22*
%TO.N,VCC*%
X140930000Y-88930000D02*
X140930000Y-87247800D01*
X140930000Y-87247800D02*
X142098000Y-86080000D01*
X142098000Y-86080000D02*
X143576000Y-86080000D01*
D20*
%TO.N,Net-(C12-Pad2)*%
X131744500Y-101744500D02*
X131168000Y-102321000D01*
X131168000Y-102321000D02*
X131580300Y-102733400D01*
X131580300Y-102733400D02*
X131580300Y-103041900D01*
%TO.N,Net-(IC1-Pad3)*%
X168460000Y-108360000D02*
X168460000Y-107821600D01*
X168460000Y-107821600D02*
X160363400Y-99725000D01*
X160363400Y-99725000D02*
X151270000Y-99725000D01*
%TO.N,Net-(IC1-Pad4)*%
X145530000Y-99725000D02*
X146640300Y-99725000D01*
X168460000Y-105820000D02*
X169395400Y-106755400D01*
X169395400Y-106755400D02*
X169395400Y-114265000D01*
X169395400Y-114265000D02*
X169266900Y-114393500D01*
X169266900Y-114393500D02*
X157902600Y-114393500D01*
X157902600Y-114393500D02*
X146640300Y-103131200D01*
X146640300Y-103131200D02*
X146640300Y-99725000D01*
%TO.N,Net-(IC1-Pad5)*%
X168460000Y-103280000D02*
X164454600Y-99274600D01*
X164454600Y-99274600D02*
X155637000Y-99274600D01*
X155637000Y-99274600D02*
X154787400Y-98425000D01*
X154787400Y-98425000D02*
X151270000Y-98425000D01*
%TO.N,/SH*%
X136350000Y-99800000D02*
X136350000Y-103676900D01*
X136350000Y-103676900D02*
X136871600Y-104198500D01*
X136871600Y-104198500D02*
X140523500Y-104198500D01*
X140523500Y-104198500D02*
X144419700Y-100302300D01*
X144419700Y-100302300D02*
X144419700Y-99075000D01*
X145530000Y-99075000D02*
X144419700Y-99075000D01*
X136021500Y-99800000D02*
X135625000Y-99800000D01*
X136350000Y-99800000D02*
X136021500Y-99800000D01*
X136021500Y-99800000D02*
X136021500Y-98872300D01*
%TO.N,Net-(R11-Pad1)*%
X137200000Y-99800000D02*
X137200000Y-103461700D01*
X137200000Y-103461700D02*
X137200600Y-103462300D01*
%TO.N,/ICG*%
X145530000Y-100375000D02*
X138653200Y-107251800D01*
X138653200Y-107251800D02*
X128813500Y-107251800D01*
%TO.N,/M*%
X133700500Y-101100500D02*
X134160500Y-100640500D01*
X134115200Y-98981300D02*
X134115200Y-100595300D01*
X134115200Y-100595300D02*
X134160500Y-100640500D01*
X151270000Y-99075000D02*
X150159700Y-99075000D01*
X149578800Y-97901700D02*
X149578800Y-98494100D01*
X149578800Y-98494100D02*
X150159700Y-99075000D01*
%TO.N,Net-(R19-Pad1)*%
X134775000Y-99800000D02*
X134775000Y-103087500D01*
X134775000Y-103087500D02*
X134400000Y-103462500D01*
%TO.N,Net-(R22-Pad1)*%
X133099500Y-100499500D02*
X132639600Y-100959400D01*
X132639600Y-100959400D02*
X132765100Y-101085000D01*
X132765100Y-101085000D02*
X132765100Y-102985000D01*
%TO.N,/DP*%
X126857800Y-106092400D02*
X126857800Y-96708500D01*
X126857800Y-96708500D02*
X137607500Y-85958800D01*
X137607500Y-85958800D02*
X140181800Y-85958800D01*
%TO.N,/DM*%
X139298100Y-88449800D02*
X127514600Y-100233300D01*
X127514600Y-100233300D02*
X127514600Y-105626800D01*
X127514600Y-105626800D02*
X127583200Y-105695400D01*
X127583200Y-105695400D02*
X127583200Y-112650500D01*
%TD*%
D23*
%TO.N,GND*%
X135943603Y-78366717D02*
X135859997Y-78488322D01*
X135771585Y-78694013D01*
X135725000Y-78913000D01*
X135725000Y-79213000D01*
X136733000Y-79213000D01*
X136733000Y-79193000D01*
X136987000Y-79193000D01*
X136987000Y-79213000D01*
X137995000Y-79213000D01*
X137995000Y-78913000D01*
X137948415Y-78694013D01*
X137860003Y-78488322D01*
X137777953Y-78368981D01*
X144576277Y-78377372D01*
X144499997Y-78488322D01*
X144411585Y-78694013D01*
X144365000Y-78913000D01*
X144365000Y-79213000D01*
X145373000Y-79213000D01*
X145373000Y-79193000D01*
X145627000Y-79193000D01*
X145627000Y-79213000D01*
X146635000Y-79213000D01*
X146635000Y-78913000D01*
X146588415Y-78694013D01*
X146500003Y-78488322D01*
X146425292Y-78379655D01*
X170350000Y-78409185D01*
X170350000Y-82942386D01*
X159256989Y-91357381D01*
X159156921Y-91257313D01*
X159381520Y-91208789D01*
X159483409Y-90985713D01*
X159539821Y-90747046D01*
X159548587Y-90501959D01*
X159509370Y-90259872D01*
X159423679Y-90030086D01*
X159381520Y-89951211D01*
X159156919Y-89902686D01*
X158479605Y-90580000D01*
X158493748Y-90594143D01*
X158314143Y-90773748D01*
X158300000Y-90759605D01*
X157622686Y-91436919D01*
X157671211Y-91661520D01*
X157894287Y-91763409D01*
X158132954Y-91819821D01*
X158378041Y-91828587D01*
X158620128Y-91789370D01*
X158752687Y-91739936D01*
X158543875Y-91898338D01*
X158467046Y-91880179D01*
X158221959Y-91871413D01*
X157979872Y-91910630D01*
X157750086Y-91996321D01*
X157671211Y-92038480D01*
X157622686Y-92263081D01*
X157812644Y-92453039D01*
X157608383Y-92607988D01*
X157443081Y-92442686D01*
X157218480Y-92491211D01*
X157116591Y-92714287D01*
X157060179Y-92952954D01*
X157057573Y-93025826D01*
X151051521Y-97581928D01*
X150566622Y-97581928D01*
X150496005Y-97411444D01*
X150382737Y-97241926D01*
X150238574Y-97097763D01*
X150069056Y-96984495D01*
X149880698Y-96906474D01*
X149680739Y-96866700D01*
X149476861Y-96866700D01*
X149276902Y-96906474D01*
X149088544Y-96984495D01*
X148919026Y-97097763D01*
X148774863Y-97241926D01*
X148661595Y-97411444D01*
X148583574Y-97599802D01*
X148581296Y-97611257D01*
X143909607Y-92939569D01*
X143879778Y-92903222D01*
X143734741Y-92784194D01*
X143569269Y-92695748D01*
X143389723Y-92641283D01*
X143249785Y-92627500D01*
X143235182Y-92626062D01*
X143184494Y-92584463D01*
X143074180Y-92525498D01*
X142954482Y-92489188D01*
X142830000Y-92476928D01*
X141850000Y-92476928D01*
X141725518Y-92489188D01*
X141605820Y-92525498D01*
X141495506Y-92584463D01*
X141398815Y-92663815D01*
X141319463Y-92760506D01*
X141260498Y-92870820D01*
X141224188Y-92990518D01*
X141211928Y-93115000D01*
X141211928Y-94045000D01*
X141224188Y-94169482D01*
X141260498Y-94289180D01*
X141293007Y-94350000D01*
X141260498Y-94410820D01*
X141224188Y-94530518D01*
X141211928Y-94655000D01*
X141215000Y-94834250D01*
X141373750Y-94993000D01*
X142213000Y-94993000D01*
X142213000Y-94973000D01*
X142467000Y-94973000D01*
X142467000Y-94993000D01*
X142487000Y-94993000D01*
X142487000Y-95247000D01*
X142467000Y-95247000D01*
X142467000Y-96061250D01*
X142625750Y-96220000D01*
X142830000Y-96223072D01*
X142954482Y-96210812D01*
X143074180Y-96174502D01*
X143184494Y-96115537D01*
X143281185Y-96036185D01*
X143360537Y-95939494D01*
X143419502Y-95829180D01*
X143455812Y-95709482D01*
X143468072Y-95585000D01*
X143465000Y-95405750D01*
X143306252Y-95247002D01*
X143465000Y-95247002D01*
X143465000Y-95189038D01*
X145860686Y-97584724D01*
X145815750Y-97585000D01*
X145657000Y-97743750D01*
X145657000Y-98231928D01*
X145403000Y-98231928D01*
X145403000Y-97743750D01*
X145244250Y-97585000D01*
X144754187Y-97581994D01*
X144629541Y-97592461D01*
X144509333Y-97627044D01*
X144398181Y-97684414D01*
X144300358Y-97762366D01*
X144219621Y-97857904D01*
X144159075Y-97967358D01*
X144121045Y-98086521D01*
X144110000Y-98188250D01*
X144219748Y-98297998D01*
X144110000Y-98297998D01*
X144110000Y-98378783D01*
X143995424Y-98440026D01*
X143879699Y-98534999D01*
X143784726Y-98650724D01*
X143714154Y-98782753D01*
X143670697Y-98926014D01*
X143656023Y-99075000D01*
X143659701Y-99112342D01*
X143659700Y-99987498D01*
X141263085Y-102384114D01*
X141254502Y-102355820D01*
X141195537Y-102245506D01*
X141116185Y-102148815D01*
X141019494Y-102069463D01*
X140909180Y-102010498D01*
X140789482Y-101974188D01*
X140665000Y-101961928D01*
X140485750Y-101965000D01*
X140327000Y-102123750D01*
X140327000Y-102963000D01*
X140347000Y-102963000D01*
X140347000Y-103217000D01*
X140327000Y-103217000D01*
X140327000Y-103237000D01*
X140073000Y-103237000D01*
X140073000Y-103217000D01*
X140053000Y-103217000D01*
X140053000Y-102963000D01*
X140073000Y-102963000D01*
X140073000Y-102123750D01*
X139914250Y-101965000D01*
X139735000Y-101961928D01*
X139610518Y-101974188D01*
X139490820Y-102010498D01*
X139430000Y-102043007D01*
X139374996Y-102013607D01*
X139365546Y-101982453D01*
X139294974Y-101850424D01*
X139200001Y-101734699D01*
X139170997Y-101710896D01*
X139035000Y-101574899D01*
X139035000Y-96221595D01*
X139050000Y-96223072D01*
X139254250Y-96220000D01*
X139413000Y-96061250D01*
X139413000Y-95247000D01*
X139667000Y-95247000D01*
X139667000Y-96061250D01*
X139825750Y-96220000D01*
X140030000Y-96223072D01*
X140154482Y-96210812D01*
X140274180Y-96174502D01*
X140384494Y-96115537D01*
X140481185Y-96036185D01*
X140560537Y-95939494D01*
X140619502Y-95829180D01*
X140655812Y-95709482D01*
X140668072Y-95585000D01*
X141211928Y-95585000D01*
X141224188Y-95709482D01*
X141260498Y-95829180D01*
X141319463Y-95939494D01*
X141398815Y-96036185D01*
X141495506Y-96115537D01*
X141605820Y-96174502D01*
X141725518Y-96210812D01*
X141850000Y-96223072D01*
X142054250Y-96220000D01*
X142213000Y-96061250D01*
X142213000Y-95247000D01*
X141373750Y-95247000D01*
X141215000Y-95405750D01*
X141211928Y-95585000D01*
X140668072Y-95585000D01*
X140665000Y-95405750D01*
X140506250Y-95247000D01*
X139667000Y-95247000D01*
X139413000Y-95247000D01*
X139393000Y-95247000D01*
X139393000Y-94993000D01*
X139413000Y-94993000D01*
X139413000Y-94973000D01*
X139667000Y-94973000D01*
X139667000Y-94993000D01*
X140506250Y-94993000D01*
X140665000Y-94834250D01*
X140668072Y-94655000D01*
X140655812Y-94530518D01*
X140619502Y-94410820D01*
X140586993Y-94350000D01*
X140619502Y-94289180D01*
X140655812Y-94169482D01*
X140668072Y-94045000D01*
X140668072Y-93115000D01*
X140655812Y-92990518D01*
X140619502Y-92870820D01*
X140560537Y-92760506D01*
X140481185Y-92663815D01*
X140384494Y-92584463D01*
X140274180Y-92525498D01*
X140154482Y-92489188D01*
X140030000Y-92476928D01*
X139050000Y-92476928D01*
X138925518Y-92489188D01*
X138805820Y-92525498D01*
X138695506Y-92584463D01*
X138643065Y-92627500D01*
X136388784Y-92627500D01*
X136341999Y-92622892D01*
X136184275Y-92638427D01*
X138164661Y-90658041D01*
X157051413Y-90658041D01*
X157090630Y-90900128D01*
X157176321Y-91129914D01*
X157218480Y-91208789D01*
X157443081Y-91257314D01*
X158120395Y-90580000D01*
X157443081Y-89902686D01*
X157218480Y-89951211D01*
X157116591Y-90174287D01*
X157060179Y-90412954D01*
X157051413Y-90658041D01*
X138164661Y-90658041D01*
X139337902Y-89484800D01*
X139400039Y-89484800D01*
X139599998Y-89445026D01*
X139788356Y-89367005D01*
X139946867Y-89261092D01*
X140012795Y-89420256D01*
X140126063Y-89589774D01*
X140270226Y-89733937D01*
X140439744Y-89847205D01*
X140628102Y-89925226D01*
X140828061Y-89965000D01*
X141031939Y-89965000D01*
X141231898Y-89925226D01*
X141420256Y-89847205D01*
X141589774Y-89733937D01*
X141600630Y-89723081D01*
X157622686Y-89723081D01*
X158300000Y-90400395D01*
X158977314Y-89723081D01*
X158928789Y-89498480D01*
X158705713Y-89396591D01*
X158467046Y-89340179D01*
X158221959Y-89331413D01*
X157979872Y-89370630D01*
X157750086Y-89456321D01*
X157671211Y-89498480D01*
X157622686Y-89723081D01*
X141600630Y-89723081D01*
X141733937Y-89589774D01*
X141847205Y-89420256D01*
X141925226Y-89231898D01*
X141965000Y-89031939D01*
X141965000Y-88896919D01*
X157622686Y-88896919D01*
X157671211Y-89121520D01*
X157894287Y-89223409D01*
X158132954Y-89279821D01*
X158378041Y-89288587D01*
X158620128Y-89249370D01*
X158849914Y-89163679D01*
X158928789Y-89121520D01*
X158977314Y-88896919D01*
X158300000Y-88219605D01*
X157622686Y-88896919D01*
X141965000Y-88896919D01*
X141965000Y-88828061D01*
X141925226Y-88628102D01*
X141847205Y-88439744D01*
X141819000Y-88397532D01*
X141819000Y-88012207D01*
X141883815Y-88091185D01*
X141980506Y-88170537D01*
X142090820Y-88229502D01*
X142210518Y-88265812D01*
X142335000Y-88278072D01*
X143265000Y-88278072D01*
X143389482Y-88265812D01*
X143509180Y-88229502D01*
X143570000Y-88196993D01*
X143630820Y-88229502D01*
X143750518Y-88265812D01*
X143875000Y-88278072D01*
X144054250Y-88275000D01*
X144213000Y-88116250D01*
X144213000Y-87277000D01*
X144467000Y-87277000D01*
X144467000Y-88116250D01*
X144625750Y-88275000D01*
X144805000Y-88278072D01*
X144929482Y-88265812D01*
X145049180Y-88229502D01*
X145159494Y-88170537D01*
X145223460Y-88118041D01*
X157051413Y-88118041D01*
X157090630Y-88360128D01*
X157176321Y-88589914D01*
X157218480Y-88668789D01*
X157443081Y-88717314D01*
X158120395Y-88040000D01*
X158479605Y-88040000D01*
X159156919Y-88717314D01*
X159381520Y-88668789D01*
X159483409Y-88445713D01*
X159539821Y-88207046D01*
X159548587Y-87961959D01*
X159509370Y-87719872D01*
X159423679Y-87490086D01*
X159381520Y-87411211D01*
X159156919Y-87362686D01*
X158479605Y-88040000D01*
X158120395Y-88040000D01*
X157443081Y-87362686D01*
X157218480Y-87411211D01*
X157116591Y-87634287D01*
X157060179Y-87872954D01*
X157051413Y-88118041D01*
X145223460Y-88118041D01*
X145256185Y-88091185D01*
X145335537Y-87994494D01*
X145394502Y-87884180D01*
X145430812Y-87764482D01*
X145443072Y-87640000D01*
X145440000Y-87435750D01*
X145281250Y-87277000D01*
X144467000Y-87277000D01*
X144213000Y-87277000D01*
X144193000Y-87277000D01*
X144193000Y-87183081D01*
X157622686Y-87183081D01*
X158300000Y-87860395D01*
X158977314Y-87183081D01*
X158928789Y-86958480D01*
X158705713Y-86856591D01*
X158467046Y-86800179D01*
X158221959Y-86791413D01*
X157979872Y-86830630D01*
X157750086Y-86916321D01*
X157671211Y-86958480D01*
X157622686Y-87183081D01*
X144193000Y-87183081D01*
X144193000Y-87023000D01*
X144213000Y-87023000D01*
X144213000Y-87003000D01*
X144467000Y-87003000D01*
X144467000Y-87023000D01*
X145281250Y-87023000D01*
X145440000Y-86864250D01*
X145443072Y-86660000D01*
X145430812Y-86535518D01*
X145394502Y-86415820D01*
X145335537Y-86305506D01*
X145256185Y-86208815D01*
X145159494Y-86129463D01*
X145049180Y-86070498D01*
X144929482Y-86034188D01*
X144805000Y-86021928D01*
X144625750Y-86025000D01*
X144611000Y-86039750D01*
X144611000Y-85978061D01*
X144571226Y-85778102D01*
X144493205Y-85589744D01*
X144379937Y-85420226D01*
X144235774Y-85276063D01*
X144066256Y-85162795D01*
X143877898Y-85084774D01*
X143677939Y-85045000D01*
X143474061Y-85045000D01*
X143274102Y-85084774D01*
X143085744Y-85162795D01*
X143043532Y-85191000D01*
X142141698Y-85191000D01*
X142098076Y-85186700D01*
X142054377Y-85191000D01*
X142054333Y-85191000D01*
X142007105Y-85195652D01*
X141923800Y-85203849D01*
X141923762Y-85203860D01*
X141923726Y-85203864D01*
X141837828Y-85229920D01*
X141756218Y-85254669D01*
X141756187Y-85254685D01*
X141756149Y-85254697D01*
X141671583Y-85299898D01*
X141601772Y-85337206D01*
X141601746Y-85337227D01*
X141601709Y-85337247D01*
X141533361Y-85393339D01*
X141500315Y-85420454D01*
X141500286Y-85420483D01*
X141466341Y-85448341D01*
X141438531Y-85482228D01*
X141191425Y-85729291D01*
X141177026Y-85656902D01*
X141099005Y-85468544D01*
X140985737Y-85299026D01*
X140841574Y-85154863D01*
X140672056Y-85041595D01*
X140483698Y-84963574D01*
X140283739Y-84923800D01*
X140079861Y-84923800D01*
X139879902Y-84963574D01*
X139691544Y-85041595D01*
X139522026Y-85154863D01*
X139478089Y-85198800D01*
X137644833Y-85198800D01*
X137607500Y-85195123D01*
X137570167Y-85198800D01*
X137458514Y-85209797D01*
X137315253Y-85253254D01*
X137183224Y-85323826D01*
X137067499Y-85418799D01*
X137043701Y-85447797D01*
X126346798Y-96144701D01*
X126317800Y-96168499D01*
X126294002Y-96197497D01*
X126294001Y-96197498D01*
X126222826Y-96284224D01*
X126152254Y-96416254D01*
X126108798Y-96559515D01*
X126094124Y-96708500D01*
X126097801Y-96745832D01*
X126097800Y-105388689D01*
X126053863Y-105432626D01*
X125940595Y-105602144D01*
X125862574Y-105790502D01*
X125822800Y-105990461D01*
X125822800Y-106194339D01*
X125862574Y-106394298D01*
X125940595Y-106582656D01*
X126053863Y-106752174D01*
X126198026Y-106896337D01*
X126367544Y-107009605D01*
X126555902Y-107087626D01*
X126755861Y-107127400D01*
X126823200Y-107127400D01*
X126823201Y-111946788D01*
X126779263Y-111990726D01*
X126665995Y-112160244D01*
X126587974Y-112348602D01*
X126548200Y-112548561D01*
X126548200Y-112752439D01*
X126563650Y-112830110D01*
X126555506Y-112834463D01*
X126458815Y-112913815D01*
X126379463Y-113010506D01*
X126320498Y-113120820D01*
X126284188Y-113240518D01*
X126271928Y-113365000D01*
X126271928Y-114295000D01*
X126284188Y-114419482D01*
X126320498Y-114539180D01*
X126353007Y-114600000D01*
X126320498Y-114660820D01*
X126284188Y-114780518D01*
X126271928Y-114905000D01*
X126275000Y-115084250D01*
X126433750Y-115243000D01*
X127273000Y-115243000D01*
X127273000Y-115223000D01*
X127527000Y-115223000D01*
X127527000Y-115243000D01*
X127547000Y-115243000D01*
X127547000Y-115412111D01*
X127408730Y-115517000D01*
X127273000Y-115517000D01*
X127273000Y-115497000D01*
X126433750Y-115497000D01*
X126275000Y-115655750D01*
X126271928Y-115835000D01*
X126284188Y-115959482D01*
X126320498Y-116079180D01*
X126379463Y-116189494D01*
X126396360Y-116210084D01*
X126334463Y-116285506D01*
X126292730Y-116363581D01*
X123060000Y-118815883D01*
X123060000Y-83647000D01*
X135725000Y-83647000D01*
X135725000Y-84197000D01*
X135771585Y-84415987D01*
X135859997Y-84621678D01*
X135986839Y-84806169D01*
X136147236Y-84962369D01*
X136335024Y-85084276D01*
X136558126Y-85164119D01*
X136733000Y-85037954D01*
X136733000Y-83647000D01*
X135725000Y-83647000D01*
X123060000Y-83647000D01*
X123060000Y-82843000D01*
X135725000Y-82843000D01*
X135725000Y-83393000D01*
X136733000Y-83393000D01*
X136733000Y-82002046D01*
X136987000Y-82002046D01*
X136987000Y-83393000D01*
X137007000Y-83393000D01*
X137007000Y-83647000D01*
X136987000Y-83647000D01*
X136987000Y-85037954D01*
X137161874Y-85164119D01*
X137384976Y-85084276D01*
X137572764Y-84962369D01*
X137733161Y-84806169D01*
X137860003Y-84621678D01*
X137948415Y-84415987D01*
X137995000Y-84197000D01*
X137995000Y-83906904D01*
X138009978Y-83913108D01*
X138195448Y-83950000D01*
X138384552Y-83950000D01*
X138570022Y-83913108D01*
X138744731Y-83840741D01*
X138901964Y-83735681D01*
X139035681Y-83601964D01*
X139140741Y-83444731D01*
X139213108Y-83270022D01*
X139250000Y-83084552D01*
X139250000Y-82895448D01*
X143110000Y-82895448D01*
X143110000Y-83084552D01*
X143146892Y-83270022D01*
X143219259Y-83444731D01*
X143324319Y-83601964D01*
X143458036Y-83735681D01*
X143615269Y-83840741D01*
X143789978Y-83913108D01*
X143975448Y-83950000D01*
X144164552Y-83950000D01*
X144350022Y-83913108D01*
X144365000Y-83906904D01*
X144365000Y-84197000D01*
X144411585Y-84415987D01*
X144499997Y-84621678D01*
X144626839Y-84806169D01*
X144787236Y-84962369D01*
X144975024Y-85084276D01*
X145198126Y-85164119D01*
X145373000Y-85037954D01*
X145373000Y-83647000D01*
X145627000Y-83647000D01*
X145627000Y-85037954D01*
X145801874Y-85164119D01*
X146024976Y-85084276D01*
X146212764Y-84962369D01*
X146373161Y-84806169D01*
X146500003Y-84621678D01*
X146588415Y-84415987D01*
X146635000Y-84197000D01*
X146635000Y-83647000D01*
X145627000Y-83647000D01*
X145373000Y-83647000D01*
X145353000Y-83647000D01*
X145353000Y-83393000D01*
X145373000Y-83393000D01*
X145373000Y-82002046D01*
X145627000Y-82002046D01*
X145627000Y-83393000D01*
X146635000Y-83393000D01*
X146635000Y-82843000D01*
X146588415Y-82624013D01*
X146500003Y-82418322D01*
X146373161Y-82233831D01*
X146212764Y-82077631D01*
X146024976Y-81955724D01*
X145801874Y-81875881D01*
X145627000Y-82002046D01*
X145373000Y-82002046D01*
X145198126Y-81875881D01*
X144975024Y-81955724D01*
X144787236Y-82077631D01*
X144642884Y-82218206D01*
X144524731Y-82139259D01*
X144350022Y-82066892D01*
X144164552Y-82030000D01*
X143975448Y-82030000D01*
X143789978Y-82066892D01*
X143615269Y-82139259D01*
X143458036Y-82244319D01*
X143324319Y-82378036D01*
X143219259Y-82535269D01*
X143146892Y-82709978D01*
X143110000Y-82895448D01*
X139250000Y-82895448D01*
X139213108Y-82709978D01*
X139140741Y-82535269D01*
X139035681Y-82378036D01*
X138901964Y-82244319D01*
X138744731Y-82139259D01*
X138570022Y-82066892D01*
X138384552Y-82030000D01*
X138195448Y-82030000D01*
X138009978Y-82066892D01*
X137835269Y-82139259D01*
X137717116Y-82218206D01*
X137572764Y-82077631D01*
X137384976Y-81955724D01*
X137161874Y-81875881D01*
X136987000Y-82002046D01*
X136733000Y-82002046D01*
X136558126Y-81875881D01*
X136335024Y-81955724D01*
X136147236Y-82077631D01*
X135986839Y-82233831D01*
X135859997Y-82418322D01*
X135771585Y-82624013D01*
X135725000Y-82843000D01*
X123060000Y-82843000D01*
X123060000Y-79467000D01*
X135725000Y-79467000D01*
X135725000Y-79767000D01*
X135771585Y-79985987D01*
X135859997Y-80191678D01*
X135986839Y-80376169D01*
X136147236Y-80532369D01*
X136335024Y-80654276D01*
X136558126Y-80734119D01*
X136733000Y-80607954D01*
X136733000Y-79467000D01*
X136987000Y-79467000D01*
X136987000Y-80607954D01*
X137161874Y-80734119D01*
X137384976Y-80654276D01*
X137572764Y-80532369D01*
X137733161Y-80376169D01*
X137860003Y-80191678D01*
X137948415Y-79985987D01*
X137995000Y-79767000D01*
X137995000Y-79467000D01*
X144365000Y-79467000D01*
X144365000Y-79767000D01*
X144411585Y-79985987D01*
X144499997Y-80191678D01*
X144626839Y-80376169D01*
X144787236Y-80532369D01*
X144975024Y-80654276D01*
X145198126Y-80734119D01*
X145373000Y-80607954D01*
X145373000Y-79467000D01*
X145627000Y-79467000D01*
X145627000Y-80607954D01*
X145801874Y-80734119D01*
X146024976Y-80654276D01*
X146212764Y-80532369D01*
X146373161Y-80376169D01*
X146500003Y-80191678D01*
X146588415Y-79985987D01*
X146635000Y-79767000D01*
X146635000Y-79467000D01*
X145627000Y-79467000D01*
X145373000Y-79467000D01*
X144365000Y-79467000D01*
X137995000Y-79467000D01*
X136987000Y-79467000D01*
X136733000Y-79467000D01*
X135725000Y-79467000D01*
X123060000Y-79467000D01*
X123060000Y-78350815D01*
X135943603Y-78366717D01*
%TA.AperFunction,Conductor*%
D24*
G36*
X135943603Y-78366717D02*
G01*
X135859997Y-78488322D01*
X135771585Y-78694013D01*
X135725000Y-78913000D01*
X135725000Y-79213000D01*
X136733000Y-79213000D01*
X136733000Y-79193000D01*
X136987000Y-79193000D01*
X136987000Y-79213000D01*
X137995000Y-79213000D01*
X137995000Y-78913000D01*
X137948415Y-78694013D01*
X137860003Y-78488322D01*
X137777953Y-78368981D01*
X144576277Y-78377372D01*
X144499997Y-78488322D01*
X144411585Y-78694013D01*
X144365000Y-78913000D01*
X144365000Y-79213000D01*
X145373000Y-79213000D01*
X145373000Y-79193000D01*
X145627000Y-79193000D01*
X145627000Y-79213000D01*
X146635000Y-79213000D01*
X146635000Y-78913000D01*
X146588415Y-78694013D01*
X146500003Y-78488322D01*
X146425292Y-78379655D01*
X170350000Y-78409185D01*
X170350000Y-82942386D01*
X159256989Y-91357381D01*
X159156921Y-91257313D01*
X159381520Y-91208789D01*
X159483409Y-90985713D01*
X159539821Y-90747046D01*
X159548587Y-90501959D01*
X159509370Y-90259872D01*
X159423679Y-90030086D01*
X159381520Y-89951211D01*
X159156919Y-89902686D01*
X158479605Y-90580000D01*
X158493748Y-90594143D01*
X158314143Y-90773748D01*
X158300000Y-90759605D01*
X157622686Y-91436919D01*
X157671211Y-91661520D01*
X157894287Y-91763409D01*
X158132954Y-91819821D01*
X158378041Y-91828587D01*
X158620128Y-91789370D01*
X158752687Y-91739936D01*
X158543875Y-91898338D01*
X158467046Y-91880179D01*
X158221959Y-91871413D01*
X157979872Y-91910630D01*
X157750086Y-91996321D01*
X157671211Y-92038480D01*
X157622686Y-92263081D01*
X157812644Y-92453039D01*
X157608383Y-92607988D01*
X157443081Y-92442686D01*
X157218480Y-92491211D01*
X157116591Y-92714287D01*
X157060179Y-92952954D01*
X157057573Y-93025826D01*
X151051521Y-97581928D01*
X150566622Y-97581928D01*
X150496005Y-97411444D01*
X150382737Y-97241926D01*
X150238574Y-97097763D01*
X150069056Y-96984495D01*
X149880698Y-96906474D01*
X149680739Y-96866700D01*
X149476861Y-96866700D01*
X149276902Y-96906474D01*
X149088544Y-96984495D01*
X148919026Y-97097763D01*
X148774863Y-97241926D01*
X148661595Y-97411444D01*
X148583574Y-97599802D01*
X148581296Y-97611257D01*
X143909607Y-92939569D01*
X143879778Y-92903222D01*
X143734741Y-92784194D01*
X143569269Y-92695748D01*
X143389723Y-92641283D01*
X143249785Y-92627500D01*
X143235182Y-92626062D01*
X143184494Y-92584463D01*
X143074180Y-92525498D01*
X142954482Y-92489188D01*
X142830000Y-92476928D01*
X141850000Y-92476928D01*
X141725518Y-92489188D01*
X141605820Y-92525498D01*
X141495506Y-92584463D01*
X141398815Y-92663815D01*
X141319463Y-92760506D01*
X141260498Y-92870820D01*
X141224188Y-92990518D01*
X141211928Y-93115000D01*
X141211928Y-94045000D01*
X141224188Y-94169482D01*
X141260498Y-94289180D01*
X141293007Y-94350000D01*
X141260498Y-94410820D01*
X141224188Y-94530518D01*
X141211928Y-94655000D01*
X141215000Y-94834250D01*
X141373750Y-94993000D01*
X142213000Y-94993000D01*
X142213000Y-94973000D01*
X142467000Y-94973000D01*
X142467000Y-94993000D01*
X142487000Y-94993000D01*
X142487000Y-95247000D01*
X142467000Y-95247000D01*
X142467000Y-96061250D01*
X142625750Y-96220000D01*
X142830000Y-96223072D01*
X142954482Y-96210812D01*
X143074180Y-96174502D01*
X143184494Y-96115537D01*
X143281185Y-96036185D01*
X143360537Y-95939494D01*
X143419502Y-95829180D01*
X143455812Y-95709482D01*
X143468072Y-95585000D01*
X143465000Y-95405750D01*
X143306252Y-95247002D01*
X143465000Y-95247002D01*
X143465000Y-95189038D01*
X145860686Y-97584724D01*
X145815750Y-97585000D01*
X145657000Y-97743750D01*
X145657000Y-98231928D01*
X145403000Y-98231928D01*
X145403000Y-97743750D01*
X145244250Y-97585000D01*
X144754187Y-97581994D01*
X144629541Y-97592461D01*
X144509333Y-97627044D01*
X144398181Y-97684414D01*
X144300358Y-97762366D01*
X144219621Y-97857904D01*
X144159075Y-97967358D01*
X144121045Y-98086521D01*
X144110000Y-98188250D01*
X144219748Y-98297998D01*
X144110000Y-98297998D01*
X144110000Y-98378783D01*
X143995424Y-98440026D01*
X143879699Y-98534999D01*
X143784726Y-98650724D01*
X143714154Y-98782753D01*
X143670697Y-98926014D01*
X143656023Y-99075000D01*
X143659701Y-99112342D01*
X143659700Y-99987498D01*
X141263085Y-102384114D01*
X141254502Y-102355820D01*
X141195537Y-102245506D01*
X141116185Y-102148815D01*
X141019494Y-102069463D01*
X140909180Y-102010498D01*
X140789482Y-101974188D01*
X140665000Y-101961928D01*
X140485750Y-101965000D01*
X140327000Y-102123750D01*
X140327000Y-102963000D01*
X140347000Y-102963000D01*
X140347000Y-103217000D01*
X140327000Y-103217000D01*
X140327000Y-103237000D01*
X140073000Y-103237000D01*
X140073000Y-103217000D01*
X140053000Y-103217000D01*
X140053000Y-102963000D01*
X140073000Y-102963000D01*
X140073000Y-102123750D01*
X139914250Y-101965000D01*
X139735000Y-101961928D01*
X139610518Y-101974188D01*
X139490820Y-102010498D01*
X139430000Y-102043007D01*
X139374996Y-102013607D01*
X139365546Y-101982453D01*
X139294974Y-101850424D01*
X139200001Y-101734699D01*
X139170997Y-101710896D01*
X139035000Y-101574899D01*
X139035000Y-96221595D01*
X139050000Y-96223072D01*
X139254250Y-96220000D01*
X139413000Y-96061250D01*
X139413000Y-95247000D01*
X139667000Y-95247000D01*
X139667000Y-96061250D01*
X139825750Y-96220000D01*
X140030000Y-96223072D01*
X140154482Y-96210812D01*
X140274180Y-96174502D01*
X140384494Y-96115537D01*
X140481185Y-96036185D01*
X140560537Y-95939494D01*
X140619502Y-95829180D01*
X140655812Y-95709482D01*
X140668072Y-95585000D01*
X141211928Y-95585000D01*
X141224188Y-95709482D01*
X141260498Y-95829180D01*
X141319463Y-95939494D01*
X141398815Y-96036185D01*
X141495506Y-96115537D01*
X141605820Y-96174502D01*
X141725518Y-96210812D01*
X141850000Y-96223072D01*
X142054250Y-96220000D01*
X142213000Y-96061250D01*
X142213000Y-95247000D01*
X141373750Y-95247000D01*
X141215000Y-95405750D01*
X141211928Y-95585000D01*
X140668072Y-95585000D01*
X140665000Y-95405750D01*
X140506250Y-95247000D01*
X139667000Y-95247000D01*
X139413000Y-95247000D01*
X139393000Y-95247000D01*
X139393000Y-94993000D01*
X139413000Y-94993000D01*
X139413000Y-94973000D01*
X139667000Y-94973000D01*
X139667000Y-94993000D01*
X140506250Y-94993000D01*
X140665000Y-94834250D01*
X140668072Y-94655000D01*
X140655812Y-94530518D01*
X140619502Y-94410820D01*
X140586993Y-94350000D01*
X140619502Y-94289180D01*
X140655812Y-94169482D01*
X140668072Y-94045000D01*
X140668072Y-93115000D01*
X140655812Y-92990518D01*
X140619502Y-92870820D01*
X140560537Y-92760506D01*
X140481185Y-92663815D01*
X140384494Y-92584463D01*
X140274180Y-92525498D01*
X140154482Y-92489188D01*
X140030000Y-92476928D01*
X139050000Y-92476928D01*
X138925518Y-92489188D01*
X138805820Y-92525498D01*
X138695506Y-92584463D01*
X138643065Y-92627500D01*
X136388784Y-92627500D01*
X136341999Y-92622892D01*
X136184275Y-92638427D01*
X138164661Y-90658041D01*
X157051413Y-90658041D01*
X157090630Y-90900128D01*
X157176321Y-91129914D01*
X157218480Y-91208789D01*
X157443081Y-91257314D01*
X158120395Y-90580000D01*
X157443081Y-89902686D01*
X157218480Y-89951211D01*
X157116591Y-90174287D01*
X157060179Y-90412954D01*
X157051413Y-90658041D01*
X138164661Y-90658041D01*
X139337902Y-89484800D01*
X139400039Y-89484800D01*
X139599998Y-89445026D01*
X139788356Y-89367005D01*
X139946867Y-89261092D01*
X140012795Y-89420256D01*
X140126063Y-89589774D01*
X140270226Y-89733937D01*
X140439744Y-89847205D01*
X140628102Y-89925226D01*
X140828061Y-89965000D01*
X141031939Y-89965000D01*
X141231898Y-89925226D01*
X141420256Y-89847205D01*
X141589774Y-89733937D01*
X141600630Y-89723081D01*
X157622686Y-89723081D01*
X158300000Y-90400395D01*
X158977314Y-89723081D01*
X158928789Y-89498480D01*
X158705713Y-89396591D01*
X158467046Y-89340179D01*
X158221959Y-89331413D01*
X157979872Y-89370630D01*
X157750086Y-89456321D01*
X157671211Y-89498480D01*
X157622686Y-89723081D01*
X141600630Y-89723081D01*
X141733937Y-89589774D01*
X141847205Y-89420256D01*
X141925226Y-89231898D01*
X141965000Y-89031939D01*
X141965000Y-88896919D01*
X157622686Y-88896919D01*
X157671211Y-89121520D01*
X157894287Y-89223409D01*
X158132954Y-89279821D01*
X158378041Y-89288587D01*
X158620128Y-89249370D01*
X158849914Y-89163679D01*
X158928789Y-89121520D01*
X158977314Y-88896919D01*
X158300000Y-88219605D01*
X157622686Y-88896919D01*
X141965000Y-88896919D01*
X141965000Y-88828061D01*
X141925226Y-88628102D01*
X141847205Y-88439744D01*
X141819000Y-88397532D01*
X141819000Y-88012207D01*
X141883815Y-88091185D01*
X141980506Y-88170537D01*
X142090820Y-88229502D01*
X142210518Y-88265812D01*
X142335000Y-88278072D01*
X143265000Y-88278072D01*
X143389482Y-88265812D01*
X143509180Y-88229502D01*
X143570000Y-88196993D01*
X143630820Y-88229502D01*
X143750518Y-88265812D01*
X143875000Y-88278072D01*
X144054250Y-88275000D01*
X144213000Y-88116250D01*
X144213000Y-87277000D01*
X144467000Y-87277000D01*
X144467000Y-88116250D01*
X144625750Y-88275000D01*
X144805000Y-88278072D01*
X144929482Y-88265812D01*
X145049180Y-88229502D01*
X145159494Y-88170537D01*
X145223460Y-88118041D01*
X157051413Y-88118041D01*
X157090630Y-88360128D01*
X157176321Y-88589914D01*
X157218480Y-88668789D01*
X157443081Y-88717314D01*
X158120395Y-88040000D01*
X158479605Y-88040000D01*
X159156919Y-88717314D01*
X159381520Y-88668789D01*
X159483409Y-88445713D01*
X159539821Y-88207046D01*
X159548587Y-87961959D01*
X159509370Y-87719872D01*
X159423679Y-87490086D01*
X159381520Y-87411211D01*
X159156919Y-87362686D01*
X158479605Y-88040000D01*
X158120395Y-88040000D01*
X157443081Y-87362686D01*
X157218480Y-87411211D01*
X157116591Y-87634287D01*
X157060179Y-87872954D01*
X157051413Y-88118041D01*
X145223460Y-88118041D01*
X145256185Y-88091185D01*
X145335537Y-87994494D01*
X145394502Y-87884180D01*
X145430812Y-87764482D01*
X145443072Y-87640000D01*
X145440000Y-87435750D01*
X145281250Y-87277000D01*
X144467000Y-87277000D01*
X144213000Y-87277000D01*
X144193000Y-87277000D01*
X144193000Y-87183081D01*
X157622686Y-87183081D01*
X158300000Y-87860395D01*
X158977314Y-87183081D01*
X158928789Y-86958480D01*
X158705713Y-86856591D01*
X158467046Y-86800179D01*
X158221959Y-86791413D01*
X157979872Y-86830630D01*
X157750086Y-86916321D01*
X157671211Y-86958480D01*
X157622686Y-87183081D01*
X144193000Y-87183081D01*
X144193000Y-87023000D01*
X144213000Y-87023000D01*
X144213000Y-87003000D01*
X144467000Y-87003000D01*
X144467000Y-87023000D01*
X145281250Y-87023000D01*
X145440000Y-86864250D01*
X145443072Y-86660000D01*
X145430812Y-86535518D01*
X145394502Y-86415820D01*
X145335537Y-86305506D01*
X145256185Y-86208815D01*
X145159494Y-86129463D01*
X145049180Y-86070498D01*
X144929482Y-86034188D01*
X144805000Y-86021928D01*
X144625750Y-86025000D01*
X144611000Y-86039750D01*
X144611000Y-85978061D01*
X144571226Y-85778102D01*
X144493205Y-85589744D01*
X144379937Y-85420226D01*
X144235774Y-85276063D01*
X144066256Y-85162795D01*
X143877898Y-85084774D01*
X143677939Y-85045000D01*
X143474061Y-85045000D01*
X143274102Y-85084774D01*
X143085744Y-85162795D01*
X143043532Y-85191000D01*
X142141698Y-85191000D01*
X142098076Y-85186700D01*
X142054377Y-85191000D01*
X142054333Y-85191000D01*
X142007105Y-85195652D01*
X141923800Y-85203849D01*
X141923762Y-85203860D01*
X141923726Y-85203864D01*
X141837828Y-85229920D01*
X141756218Y-85254669D01*
X141756187Y-85254685D01*
X141756149Y-85254697D01*
X141671583Y-85299898D01*
X141601772Y-85337206D01*
X141601746Y-85337227D01*
X141601709Y-85337247D01*
X141533361Y-85393339D01*
X141500315Y-85420454D01*
X141500286Y-85420483D01*
X141466341Y-85448341D01*
X141438531Y-85482228D01*
X141191425Y-85729291D01*
X141177026Y-85656902D01*
X141099005Y-85468544D01*
X140985737Y-85299026D01*
X140841574Y-85154863D01*
X140672056Y-85041595D01*
X140483698Y-84963574D01*
X140283739Y-84923800D01*
X140079861Y-84923800D01*
X139879902Y-84963574D01*
X139691544Y-85041595D01*
X139522026Y-85154863D01*
X139478089Y-85198800D01*
X137644833Y-85198800D01*
X137607500Y-85195123D01*
X137570167Y-85198800D01*
X137458514Y-85209797D01*
X137315253Y-85253254D01*
X137183224Y-85323826D01*
X137067499Y-85418799D01*
X137043701Y-85447797D01*
X126346798Y-96144701D01*
X126317800Y-96168499D01*
X126294002Y-96197497D01*
X126294001Y-96197498D01*
X126222826Y-96284224D01*
X126152254Y-96416254D01*
X126108798Y-96559515D01*
X126094124Y-96708500D01*
X126097801Y-96745832D01*
X126097800Y-105388689D01*
X126053863Y-105432626D01*
X125940595Y-105602144D01*
X125862574Y-105790502D01*
X125822800Y-105990461D01*
X125822800Y-106194339D01*
X125862574Y-106394298D01*
X125940595Y-106582656D01*
X126053863Y-106752174D01*
X126198026Y-106896337D01*
X126367544Y-107009605D01*
X126555902Y-107087626D01*
X126755861Y-107127400D01*
X126823200Y-107127400D01*
X126823201Y-111946788D01*
X126779263Y-111990726D01*
X126665995Y-112160244D01*
X126587974Y-112348602D01*
X126548200Y-112548561D01*
X126548200Y-112752439D01*
X126563650Y-112830110D01*
X126555506Y-112834463D01*
X126458815Y-112913815D01*
X126379463Y-113010506D01*
X126320498Y-113120820D01*
X126284188Y-113240518D01*
X126271928Y-113365000D01*
X126271928Y-114295000D01*
X126284188Y-114419482D01*
X126320498Y-114539180D01*
X126353007Y-114600000D01*
X126320498Y-114660820D01*
X126284188Y-114780518D01*
X126271928Y-114905000D01*
X126275000Y-115084250D01*
X126433750Y-115243000D01*
X127273000Y-115243000D01*
X127273000Y-115223000D01*
X127527000Y-115223000D01*
X127527000Y-115243000D01*
X127547000Y-115243000D01*
X127547000Y-115412111D01*
X127408730Y-115517000D01*
X127273000Y-115517000D01*
X127273000Y-115497000D01*
X126433750Y-115497000D01*
X126275000Y-115655750D01*
X126271928Y-115835000D01*
X126284188Y-115959482D01*
X126320498Y-116079180D01*
X126379463Y-116189494D01*
X126396360Y-116210084D01*
X126334463Y-116285506D01*
X126292730Y-116363581D01*
X123060000Y-118815883D01*
X123060000Y-83647000D01*
X135725000Y-83647000D01*
X135725000Y-84197000D01*
X135771585Y-84415987D01*
X135859997Y-84621678D01*
X135986839Y-84806169D01*
X136147236Y-84962369D01*
X136335024Y-85084276D01*
X136558126Y-85164119D01*
X136733000Y-85037954D01*
X136733000Y-83647000D01*
X135725000Y-83647000D01*
X123060000Y-83647000D01*
X123060000Y-82843000D01*
X135725000Y-82843000D01*
X135725000Y-83393000D01*
X136733000Y-83393000D01*
X136733000Y-82002046D01*
X136987000Y-82002046D01*
X136987000Y-83393000D01*
X137007000Y-83393000D01*
X137007000Y-83647000D01*
X136987000Y-83647000D01*
X136987000Y-85037954D01*
X137161874Y-85164119D01*
X137384976Y-85084276D01*
X137572764Y-84962369D01*
X137733161Y-84806169D01*
X137860003Y-84621678D01*
X137948415Y-84415987D01*
X137995000Y-84197000D01*
X137995000Y-83906904D01*
X138009978Y-83913108D01*
X138195448Y-83950000D01*
X138384552Y-83950000D01*
X138570022Y-83913108D01*
X138744731Y-83840741D01*
X138901964Y-83735681D01*
X139035681Y-83601964D01*
X139140741Y-83444731D01*
X139213108Y-83270022D01*
X139250000Y-83084552D01*
X139250000Y-82895448D01*
X143110000Y-82895448D01*
X143110000Y-83084552D01*
X143146892Y-83270022D01*
X143219259Y-83444731D01*
X143324319Y-83601964D01*
X143458036Y-83735681D01*
X143615269Y-83840741D01*
X143789978Y-83913108D01*
X143975448Y-83950000D01*
X144164552Y-83950000D01*
X144350022Y-83913108D01*
X144365000Y-83906904D01*
X144365000Y-84197000D01*
X144411585Y-84415987D01*
X144499997Y-84621678D01*
X144626839Y-84806169D01*
X144787236Y-84962369D01*
X144975024Y-85084276D01*
X145198126Y-85164119D01*
X145373000Y-85037954D01*
X145373000Y-83647000D01*
X145627000Y-83647000D01*
X145627000Y-85037954D01*
X145801874Y-85164119D01*
X146024976Y-85084276D01*
X146212764Y-84962369D01*
X146373161Y-84806169D01*
X146500003Y-84621678D01*
X146588415Y-84415987D01*
X146635000Y-84197000D01*
X146635000Y-83647000D01*
X145627000Y-83647000D01*
X145373000Y-83647000D01*
X145353000Y-83647000D01*
X145353000Y-83393000D01*
X145373000Y-83393000D01*
X145373000Y-82002046D01*
X145627000Y-82002046D01*
X145627000Y-83393000D01*
X146635000Y-83393000D01*
X146635000Y-82843000D01*
X146588415Y-82624013D01*
X146500003Y-82418322D01*
X146373161Y-82233831D01*
X146212764Y-82077631D01*
X146024976Y-81955724D01*
X145801874Y-81875881D01*
X145627000Y-82002046D01*
X145373000Y-82002046D01*
X145198126Y-81875881D01*
X144975024Y-81955724D01*
X144787236Y-82077631D01*
X144642884Y-82218206D01*
X144524731Y-82139259D01*
X144350022Y-82066892D01*
X144164552Y-82030000D01*
X143975448Y-82030000D01*
X143789978Y-82066892D01*
X143615269Y-82139259D01*
X143458036Y-82244319D01*
X143324319Y-82378036D01*
X143219259Y-82535269D01*
X143146892Y-82709978D01*
X143110000Y-82895448D01*
X139250000Y-82895448D01*
X139213108Y-82709978D01*
X139140741Y-82535269D01*
X139035681Y-82378036D01*
X138901964Y-82244319D01*
X138744731Y-82139259D01*
X138570022Y-82066892D01*
X138384552Y-82030000D01*
X138195448Y-82030000D01*
X138009978Y-82066892D01*
X137835269Y-82139259D01*
X137717116Y-82218206D01*
X137572764Y-82077631D01*
X137384976Y-81955724D01*
X137161874Y-81875881D01*
X136987000Y-82002046D01*
X136733000Y-82002046D01*
X136558126Y-81875881D01*
X136335024Y-81955724D01*
X136147236Y-82077631D01*
X135986839Y-82233831D01*
X135859997Y-82418322D01*
X135771585Y-82624013D01*
X135725000Y-82843000D01*
X123060000Y-82843000D01*
X123060000Y-79467000D01*
X135725000Y-79467000D01*
X135725000Y-79767000D01*
X135771585Y-79985987D01*
X135859997Y-80191678D01*
X135986839Y-80376169D01*
X136147236Y-80532369D01*
X136335024Y-80654276D01*
X136558126Y-80734119D01*
X136733000Y-80607954D01*
X136733000Y-79467000D01*
X136987000Y-79467000D01*
X136987000Y-80607954D01*
X137161874Y-80734119D01*
X137384976Y-80654276D01*
X137572764Y-80532369D01*
X137733161Y-80376169D01*
X137860003Y-80191678D01*
X137948415Y-79985987D01*
X137995000Y-79767000D01*
X137995000Y-79467000D01*
X144365000Y-79467000D01*
X144365000Y-79767000D01*
X144411585Y-79985987D01*
X144499997Y-80191678D01*
X144626839Y-80376169D01*
X144787236Y-80532369D01*
X144975024Y-80654276D01*
X145198126Y-80734119D01*
X145373000Y-80607954D01*
X145373000Y-79467000D01*
X145627000Y-79467000D01*
X145627000Y-80607954D01*
X145801874Y-80734119D01*
X146024976Y-80654276D01*
X146212764Y-80532369D01*
X146373161Y-80376169D01*
X146500003Y-80191678D01*
X146588415Y-79985987D01*
X146635000Y-79767000D01*
X146635000Y-79467000D01*
X145627000Y-79467000D01*
X145373000Y-79467000D01*
X144365000Y-79467000D01*
X137995000Y-79467000D01*
X136987000Y-79467000D01*
X136733000Y-79467000D01*
X135725000Y-79467000D01*
X123060000Y-79467000D01*
X123060000Y-78350815D01*
X135943603Y-78366717D01*
G37*
%TD.AperFunction*%
D23*
X128490330Y-114696515D02*
X128479502Y-114660820D01*
X128446993Y-114600000D01*
X128479502Y-114539180D01*
X128515812Y-114419482D01*
X128528072Y-114295000D01*
X128528072Y-113365000D01*
X128515812Y-113240518D01*
X128490188Y-113156047D01*
X128500405Y-113140756D01*
X128578426Y-112952398D01*
X128618200Y-112752439D01*
X128618200Y-112548561D01*
X128578426Y-112348602D01*
X128500405Y-112160244D01*
X128387137Y-111990726D01*
X128343200Y-111946789D01*
X128343200Y-108177271D01*
X128511602Y-108247026D01*
X128711561Y-108286800D01*
X128915439Y-108286800D01*
X129115398Y-108247026D01*
X129303756Y-108169005D01*
X129473274Y-108055737D01*
X129517211Y-108011800D01*
X137302411Y-108011800D01*
X128490330Y-114696515D01*
%TA.AperFunction,Conductor*%
D24*
G36*
X128490330Y-114696515D02*
G01*
X128479502Y-114660820D01*
X128446993Y-114600000D01*
X128479502Y-114539180D01*
X128515812Y-114419482D01*
X128528072Y-114295000D01*
X128528072Y-113365000D01*
X128515812Y-113240518D01*
X128490188Y-113156047D01*
X128500405Y-113140756D01*
X128578426Y-112952398D01*
X128618200Y-112752439D01*
X128618200Y-112548561D01*
X128578426Y-112348602D01*
X128500405Y-112160244D01*
X128387137Y-111990726D01*
X128343200Y-111946789D01*
X128343200Y-108177271D01*
X128511602Y-108247026D01*
X128711561Y-108286800D01*
X128915439Y-108286800D01*
X129115398Y-108247026D01*
X129303756Y-108169005D01*
X129473274Y-108055737D01*
X129517211Y-108011800D01*
X137302411Y-108011800D01*
X128490330Y-114696515D01*
G37*
%TD.AperFunction*%
D23*
X128505892Y-100459000D02*
X128510500Y-100505785D01*
X128510501Y-103870249D01*
X128467000Y-103913750D01*
X128467000Y-104753000D01*
X128487000Y-104753000D01*
X128487000Y-105007000D01*
X128467000Y-105007000D01*
X128467000Y-105027000D01*
X128274600Y-105027000D01*
X128274600Y-100548101D01*
X128521427Y-100301274D01*
X128505892Y-100459000D01*
%TA.AperFunction,Conductor*%
D24*
G36*
X128505892Y-100459000D02*
G01*
X128510500Y-100505785D01*
X128510501Y-103870249D01*
X128467000Y-103913750D01*
X128467000Y-104753000D01*
X128487000Y-104753000D01*
X128487000Y-105007000D01*
X128467000Y-105007000D01*
X128467000Y-105027000D01*
X128274600Y-105027000D01*
X128274600Y-100548101D01*
X128521427Y-100301274D01*
X128505892Y-100459000D01*
G37*
%TD.AperFunction*%
D23*
X145880301Y-101504739D02*
X144201704Y-102778098D01*
X145761730Y-101218072D01*
X145880301Y-101218072D01*
X145880301Y-101504739D01*
%TA.AperFunction,Conductor*%
D24*
G36*
X145880301Y-101504739D02*
G01*
X144201704Y-102778098D01*
X145761730Y-101218072D01*
X145880301Y-101218072D01*
X145880301Y-101504739D01*
G37*
%TD.AperFunction*%
D23*
X137515001Y-98838405D02*
X137500000Y-98836928D01*
X137056500Y-98836928D01*
X137056500Y-98770361D01*
X137016726Y-98570402D01*
X136938705Y-98382044D01*
X136825437Y-98212526D01*
X136681274Y-98068363D01*
X136511756Y-97955095D01*
X136323398Y-97877074D01*
X136123439Y-97837300D01*
X135919561Y-97837300D01*
X135719602Y-97877074D01*
X135531244Y-97955095D01*
X135361726Y-98068363D01*
X135217563Y-98212526D01*
X135104295Y-98382044D01*
X135045775Y-98523322D01*
X135032405Y-98491044D01*
X134919137Y-98321526D01*
X134774974Y-98177363D01*
X134605456Y-98064095D01*
X134417098Y-97986074D01*
X134217139Y-97946300D01*
X134013261Y-97946300D01*
X133813302Y-97986074D01*
X133624944Y-98064095D01*
X133455426Y-98177363D01*
X133311263Y-98321526D01*
X133197995Y-98491044D01*
X133119974Y-98679402D01*
X133080200Y-98879361D01*
X133080200Y-99083239D01*
X133119974Y-99283198D01*
X133178939Y-99425551D01*
X133117158Y-99419466D01*
X132992676Y-99431726D01*
X132872978Y-99468036D01*
X132762664Y-99527001D01*
X132665973Y-99606353D01*
X132206353Y-100065973D01*
X132127001Y-100162664D01*
X132068036Y-100272978D01*
X132031726Y-100392676D01*
X132022315Y-100488227D01*
X132006330Y-100479683D01*
X131940335Y-100459664D01*
X131920317Y-100393671D01*
X131861353Y-100283356D01*
X131782000Y-100186665D01*
X131653079Y-100062089D01*
X131428572Y-100062089D01*
X130835133Y-100655528D01*
X130849276Y-100669671D01*
X130669671Y-100849276D01*
X130655528Y-100835133D01*
X130641386Y-100849276D01*
X130530574Y-100738464D01*
X136736539Y-94532500D01*
X137515000Y-94532500D01*
X137515001Y-98838405D01*
%TA.AperFunction,Conductor*%
D24*
G36*
X137515001Y-98838405D02*
G01*
X137500000Y-98836928D01*
X137056500Y-98836928D01*
X137056500Y-98770361D01*
X137016726Y-98570402D01*
X136938705Y-98382044D01*
X136825437Y-98212526D01*
X136681274Y-98068363D01*
X136511756Y-97955095D01*
X136323398Y-97877074D01*
X136123439Y-97837300D01*
X135919561Y-97837300D01*
X135719602Y-97877074D01*
X135531244Y-97955095D01*
X135361726Y-98068363D01*
X135217563Y-98212526D01*
X135104295Y-98382044D01*
X135045775Y-98523322D01*
X135032405Y-98491044D01*
X134919137Y-98321526D01*
X134774974Y-98177363D01*
X134605456Y-98064095D01*
X134417098Y-97986074D01*
X134217139Y-97946300D01*
X134013261Y-97946300D01*
X133813302Y-97986074D01*
X133624944Y-98064095D01*
X133455426Y-98177363D01*
X133311263Y-98321526D01*
X133197995Y-98491044D01*
X133119974Y-98679402D01*
X133080200Y-98879361D01*
X133080200Y-99083239D01*
X133119974Y-99283198D01*
X133178939Y-99425551D01*
X133117158Y-99419466D01*
X132992676Y-99431726D01*
X132872978Y-99468036D01*
X132762664Y-99527001D01*
X132665973Y-99606353D01*
X132206353Y-100065973D01*
X132127001Y-100162664D01*
X132068036Y-100272978D01*
X132031726Y-100392676D01*
X132022315Y-100488227D01*
X132006330Y-100479683D01*
X131940335Y-100459664D01*
X131920317Y-100393671D01*
X131861353Y-100283356D01*
X131782000Y-100186665D01*
X131653079Y-100062089D01*
X131428572Y-100062089D01*
X130835133Y-100655528D01*
X130849276Y-100669671D01*
X130669671Y-100849276D01*
X130655528Y-100835133D01*
X130641386Y-100849276D01*
X130530574Y-100738464D01*
X136736539Y-94532500D01*
X137515000Y-94532500D01*
X137515001Y-98838405D01*
G37*
%TD.AperFunction*%
D23*
X148098220Y-99822259D02*
X147400300Y-100351690D01*
X147400300Y-99762333D01*
X147403977Y-99725000D01*
X147389303Y-99576014D01*
X147345846Y-99432753D01*
X147275274Y-99300724D01*
X147180301Y-99184999D01*
X147064576Y-99090026D01*
X146953072Y-99030425D01*
X146953072Y-98870000D01*
X146940856Y-98745968D01*
X146948796Y-98672835D01*
X148098220Y-99822259D01*
%TA.AperFunction,Conductor*%
D24*
G36*
X148098220Y-99822259D02*
G01*
X147400300Y-100351690D01*
X147400300Y-99762333D01*
X147403977Y-99725000D01*
X147389303Y-99576014D01*
X147345846Y-99432753D01*
X147275274Y-99300724D01*
X147180301Y-99184999D01*
X147064576Y-99090026D01*
X146953072Y-99030425D01*
X146953072Y-98870000D01*
X146940856Y-98745968D01*
X146948796Y-98672835D01*
X148098220Y-99822259D01*
G37*
%TD.AperFunction*%
D23*
X138007000Y-87033000D02*
X138027000Y-87033000D01*
X138027000Y-87287000D01*
X138007000Y-87287000D01*
X138007000Y-88126250D01*
X138165750Y-88285000D01*
X138275231Y-88286876D01*
X138263100Y-88347861D01*
X138263100Y-88409998D01*
X127617800Y-99055299D01*
X127617800Y-97023301D01*
X136807210Y-87833892D01*
X136825498Y-87894180D01*
X136884463Y-88004494D01*
X136963815Y-88101185D01*
X137060506Y-88180537D01*
X137170820Y-88239502D01*
X137290518Y-88275812D01*
X137415000Y-88288072D01*
X137594250Y-88285000D01*
X137753000Y-88126250D01*
X137753000Y-87287000D01*
X137733000Y-87287000D01*
X137733000Y-87033000D01*
X137753000Y-87033000D01*
X137753000Y-87013000D01*
X138007000Y-87013000D01*
X138007000Y-87033000D01*
%TA.AperFunction,Conductor*%
D24*
G36*
X138007000Y-87033000D02*
G01*
X138027000Y-87033000D01*
X138027000Y-87287000D01*
X138007000Y-87287000D01*
X138007000Y-88126250D01*
X138165750Y-88285000D01*
X138275231Y-88286876D01*
X138263100Y-88347861D01*
X138263100Y-88409998D01*
X127617800Y-99055299D01*
X127617800Y-97023301D01*
X136807210Y-87833892D01*
X136825498Y-87894180D01*
X136884463Y-88004494D01*
X136963815Y-88101185D01*
X137060506Y-88180537D01*
X137170820Y-88239502D01*
X137290518Y-88275812D01*
X137415000Y-88288072D01*
X137594250Y-88285000D01*
X137753000Y-88126250D01*
X137753000Y-87287000D01*
X137733000Y-87287000D01*
X137733000Y-87033000D01*
X137753000Y-87033000D01*
X137753000Y-87013000D01*
X138007000Y-87013000D01*
X138007000Y-87033000D01*
G37*
%TD.AperFunction*%
D23*
X159052725Y-91512333D02*
X158943045Y-91595534D01*
X158977313Y-91436921D01*
X159052725Y-91512333D01*
%TA.AperFunction,Conductor*%
D24*
G36*
X159052725Y-91512333D02*
G01*
X158943045Y-91595534D01*
X158977313Y-91436921D01*
X159052725Y-91512333D01*
G37*
%TD.AperFunction*%
%TD*%
D23*
%TO.N,GND*%
X170350000Y-78409185D02*
X170350001Y-123470000D01*
X123060000Y-123470000D01*
X123060000Y-119105000D01*
X129111928Y-119105000D01*
X129124188Y-119229482D01*
X129160498Y-119349180D01*
X129219463Y-119459494D01*
X129298815Y-119556185D01*
X129395506Y-119635537D01*
X129505820Y-119694502D01*
X129625518Y-119730812D01*
X129750000Y-119743072D01*
X129954250Y-119740000D01*
X130113000Y-119581250D01*
X130113000Y-118767000D01*
X130367000Y-118767000D01*
X130367000Y-119581250D01*
X130525750Y-119740000D01*
X130730000Y-119743072D01*
X130854482Y-119730812D01*
X130974180Y-119694502D01*
X131084494Y-119635537D01*
X131181185Y-119556185D01*
X131260537Y-119459494D01*
X131319502Y-119349180D01*
X131355812Y-119229482D01*
X131368072Y-119105000D01*
X131365000Y-118925750D01*
X131206250Y-118767000D01*
X130367000Y-118767000D01*
X130113000Y-118767000D01*
X129273750Y-118767000D01*
X129115000Y-118925750D01*
X129111928Y-119105000D01*
X123060000Y-119105000D01*
X123060000Y-117620000D01*
X126226928Y-117620000D01*
X126239188Y-117744482D01*
X126275498Y-117864180D01*
X126334463Y-117974494D01*
X126413815Y-118071185D01*
X126510506Y-118150537D01*
X126620820Y-118209502D01*
X126740518Y-118245812D01*
X126865000Y-118258072D01*
X127044250Y-118255000D01*
X127203000Y-118096250D01*
X127203000Y-117257000D01*
X126388750Y-117257000D01*
X126230000Y-117415750D01*
X126226928Y-117620000D01*
X123060000Y-117620000D01*
X123060000Y-116640000D01*
X126226928Y-116640000D01*
X126230000Y-116844250D01*
X126388750Y-117003000D01*
X127203000Y-117003000D01*
X127203000Y-116381250D01*
X127273000Y-116311250D01*
X127273000Y-116163750D01*
X127457000Y-116163750D01*
X127457000Y-117003000D01*
X127477000Y-117003000D01*
X127477000Y-117257000D01*
X127457000Y-117257000D01*
X127457000Y-118096250D01*
X127615750Y-118255000D01*
X127795000Y-118258072D01*
X127919482Y-118245812D01*
X128039180Y-118209502D01*
X128100000Y-118176993D01*
X128160820Y-118209502D01*
X128280518Y-118245812D01*
X128405000Y-118258072D01*
X129113352Y-118258072D01*
X129115000Y-118354250D01*
X129273750Y-118513000D01*
X130113000Y-118513000D01*
X130113000Y-118493000D01*
X130367000Y-118493000D01*
X130367000Y-118513000D01*
X131206250Y-118513000D01*
X131365000Y-118354250D01*
X131368072Y-118175000D01*
X131355812Y-118050518D01*
X131319502Y-117930820D01*
X131286993Y-117870000D01*
X131319502Y-117809180D01*
X131355812Y-117689482D01*
X131358223Y-117665000D01*
X140621928Y-117665000D01*
X140634188Y-117789482D01*
X140670498Y-117909180D01*
X140729463Y-118019494D01*
X140808815Y-118116185D01*
X140905506Y-118195537D01*
X141015820Y-118254502D01*
X141135518Y-118290812D01*
X141260000Y-118303072D01*
X141464250Y-118300000D01*
X141623000Y-118141250D01*
X141623000Y-117327000D01*
X141877000Y-117327000D01*
X141877000Y-118141250D01*
X142035750Y-118300000D01*
X142240000Y-118303072D01*
X142364482Y-118290812D01*
X142484180Y-118254502D01*
X142594494Y-118195537D01*
X142691185Y-118116185D01*
X142770537Y-118019494D01*
X142829502Y-117909180D01*
X142865812Y-117789482D01*
X142878072Y-117665000D01*
X142875000Y-117485750D01*
X142716250Y-117327000D01*
X141877000Y-117327000D01*
X141623000Y-117327000D01*
X140783750Y-117327000D01*
X140625000Y-117485750D01*
X140621928Y-117665000D01*
X131358223Y-117665000D01*
X131368072Y-117565000D01*
X131368072Y-116635000D01*
X131355812Y-116510518D01*
X131319502Y-116390820D01*
X131260537Y-116280506D01*
X131181185Y-116183815D01*
X131084494Y-116104463D01*
X130974180Y-116045498D01*
X130854482Y-116009188D01*
X130730000Y-115996928D01*
X129750000Y-115996928D01*
X129625518Y-116009188D01*
X129534259Y-116036871D01*
X129459482Y-116014188D01*
X129335000Y-116001928D01*
X128502936Y-116001928D01*
X128515812Y-115959482D01*
X128528072Y-115835000D01*
X128525000Y-115655750D01*
X128366250Y-115497000D01*
X127527000Y-115497000D01*
X127527000Y-116093750D01*
X127457000Y-116163750D01*
X127273000Y-116163750D01*
X127273000Y-115497000D01*
X126433750Y-115497000D01*
X126275000Y-115655750D01*
X126271928Y-115835000D01*
X126284188Y-115959482D01*
X126320498Y-116079180D01*
X126379463Y-116189494D01*
X126396360Y-116210084D01*
X126334463Y-116285506D01*
X126275498Y-116395820D01*
X126239188Y-116515518D01*
X126226928Y-116640000D01*
X123060000Y-116640000D01*
X123060000Y-112816410D01*
X126823201Y-109957783D01*
X126823201Y-111946788D01*
X126779263Y-111990726D01*
X126665995Y-112160244D01*
X126587974Y-112348602D01*
X126548200Y-112548561D01*
X126548200Y-112752439D01*
X126563650Y-112830110D01*
X126555506Y-112834463D01*
X126458815Y-112913815D01*
X126379463Y-113010506D01*
X126320498Y-113120820D01*
X126284188Y-113240518D01*
X126271928Y-113365000D01*
X126271928Y-114295000D01*
X126284188Y-114419482D01*
X126320498Y-114539180D01*
X126353007Y-114600000D01*
X126320498Y-114660820D01*
X126284188Y-114780518D01*
X126271928Y-114905000D01*
X126275000Y-115084250D01*
X126433750Y-115243000D01*
X127273000Y-115243000D01*
X127273000Y-115223000D01*
X127527000Y-115223000D01*
X127527000Y-115243000D01*
X128366250Y-115243000D01*
X128414250Y-115195000D01*
X140621928Y-115195000D01*
X140621928Y-116125000D01*
X140634188Y-116249482D01*
X140670498Y-116369180D01*
X140703007Y-116430000D01*
X140670498Y-116490820D01*
X140634188Y-116610518D01*
X140621928Y-116735000D01*
X140625000Y-116914250D01*
X140783750Y-117073000D01*
X141623000Y-117073000D01*
X141623000Y-117053000D01*
X141877000Y-117053000D01*
X141877000Y-117073000D01*
X142716250Y-117073000D01*
X142875000Y-116914250D01*
X142878072Y-116735000D01*
X142865812Y-116610518D01*
X142829502Y-116490820D01*
X142796993Y-116430000D01*
X142829502Y-116369180D01*
X142865812Y-116249482D01*
X142878072Y-116125000D01*
X142878072Y-115195000D01*
X142865812Y-115070518D01*
X142829502Y-114950820D01*
X142770537Y-114840506D01*
X142691185Y-114743815D01*
X142594494Y-114664463D01*
X142484180Y-114605498D01*
X142364482Y-114569188D01*
X142240000Y-114556928D01*
X141260000Y-114556928D01*
X141135518Y-114569188D01*
X141015820Y-114605498D01*
X140905506Y-114664463D01*
X140808815Y-114743815D01*
X140729463Y-114840506D01*
X140670498Y-114950820D01*
X140634188Y-115070518D01*
X140621928Y-115195000D01*
X128414250Y-115195000D01*
X128525000Y-115084250D01*
X128528072Y-114905000D01*
X128515812Y-114780518D01*
X128479502Y-114660820D01*
X128446993Y-114600000D01*
X128479502Y-114539180D01*
X128515812Y-114419482D01*
X128528072Y-114295000D01*
X128528072Y-113365000D01*
X128515812Y-113240518D01*
X128490188Y-113156047D01*
X128500405Y-113140756D01*
X128578426Y-112952398D01*
X128618200Y-112752439D01*
X128618200Y-112548561D01*
X128578426Y-112348602D01*
X128500405Y-112160244D01*
X128387137Y-111990726D01*
X128343200Y-111946789D01*
X128343200Y-109590000D01*
X141546928Y-109590000D01*
X141546928Y-110570000D01*
X141559188Y-110694482D01*
X141595498Y-110814180D01*
X141654463Y-110924494D01*
X141733815Y-111021185D01*
X141830506Y-111100537D01*
X141940820Y-111159502D01*
X142060518Y-111195812D01*
X142185000Y-111208072D01*
X143115000Y-111208072D01*
X143239482Y-111195812D01*
X143359180Y-111159502D01*
X143420000Y-111126993D01*
X143480820Y-111159502D01*
X143600518Y-111195812D01*
X143725000Y-111208072D01*
X144655000Y-111208072D01*
X144779482Y-111195812D01*
X144899180Y-111159502D01*
X145009494Y-111100537D01*
X145106185Y-111021185D01*
X145185537Y-110924494D01*
X145244502Y-110814180D01*
X145280812Y-110694482D01*
X145293072Y-110570000D01*
X145293072Y-109590000D01*
X145280812Y-109465518D01*
X145267003Y-109419996D01*
X145309482Y-109415812D01*
X145429180Y-109379502D01*
X145539494Y-109320537D01*
X145636185Y-109241185D01*
X145715537Y-109144494D01*
X145774502Y-109034180D01*
X145810812Y-108914482D01*
X145823072Y-108790000D01*
X145820000Y-108585750D01*
X145661250Y-108427000D01*
X144847000Y-108427000D01*
X144847000Y-108447000D01*
X144593000Y-108447000D01*
X144593000Y-108427000D01*
X144573000Y-108427000D01*
X144573000Y-108173000D01*
X144593000Y-108173000D01*
X144593000Y-107333750D01*
X144847000Y-107333750D01*
X144847000Y-108173000D01*
X145661250Y-108173000D01*
X145820000Y-108014250D01*
X145823072Y-107810000D01*
X145810812Y-107685518D01*
X145774502Y-107565820D01*
X145715537Y-107455506D01*
X145636185Y-107358815D01*
X145539494Y-107279463D01*
X145429180Y-107220498D01*
X145309482Y-107184188D01*
X145185000Y-107171928D01*
X145005750Y-107175000D01*
X144847000Y-107333750D01*
X144593000Y-107333750D01*
X144434250Y-107175000D01*
X144255000Y-107171928D01*
X144130518Y-107184188D01*
X144010820Y-107220498D01*
X143950000Y-107253007D01*
X143889180Y-107220498D01*
X143769482Y-107184188D01*
X143645000Y-107171928D01*
X142715000Y-107171928D01*
X142590518Y-107184188D01*
X142470820Y-107220498D01*
X142360506Y-107279463D01*
X142263815Y-107358815D01*
X142184463Y-107455506D01*
X142125498Y-107565820D01*
X142089188Y-107685518D01*
X142076928Y-107810000D01*
X142076928Y-108327145D01*
X142013355Y-108404608D01*
X141942599Y-108536985D01*
X141899027Y-108680622D01*
X141884314Y-108830000D01*
X141888001Y-108867433D01*
X141888001Y-109028731D01*
X141830506Y-109059463D01*
X141733815Y-109138815D01*
X141654463Y-109235506D01*
X141595498Y-109345820D01*
X141559188Y-109465518D01*
X141546928Y-109590000D01*
X128343200Y-109590000D01*
X128343200Y-108803151D01*
X129061080Y-108257830D01*
X129115398Y-108247026D01*
X129303756Y-108169005D01*
X129473274Y-108055737D01*
X129517211Y-108011800D01*
X138615878Y-108011800D01*
X138653200Y-108015476D01*
X138690522Y-108011800D01*
X138690533Y-108011800D01*
X138802186Y-108000803D01*
X138945447Y-107957346D01*
X139077476Y-107886774D01*
X139193201Y-107791801D01*
X139217004Y-107762797D01*
X145761730Y-101218072D01*
X145880301Y-101218072D01*
X145880300Y-103093877D01*
X145876624Y-103131200D01*
X145880300Y-103168522D01*
X145880300Y-103168532D01*
X145891297Y-103280185D01*
X145922257Y-103382247D01*
X145934754Y-103423446D01*
X146005326Y-103555476D01*
X146040637Y-103598502D01*
X146100299Y-103671201D01*
X146129303Y-103695004D01*
X157338805Y-114904508D01*
X157362599Y-114933501D01*
X157391592Y-114957295D01*
X157391596Y-114957299D01*
X157460691Y-115014003D01*
X157478324Y-115028474D01*
X157610353Y-115099046D01*
X157753614Y-115142503D01*
X157865267Y-115153500D01*
X157865276Y-115153500D01*
X157902599Y-115157176D01*
X157939922Y-115153500D01*
X169229578Y-115153500D01*
X169266900Y-115157176D01*
X169304222Y-115153500D01*
X169304233Y-115153500D01*
X169415886Y-115142503D01*
X169559147Y-115099046D01*
X169691176Y-115028474D01*
X169806901Y-114933501D01*
X169830702Y-114904499D01*
X169906401Y-114828801D01*
X169935401Y-114805001D01*
X170030374Y-114689276D01*
X170100946Y-114557247D01*
X170144403Y-114413986D01*
X170155400Y-114302333D01*
X170155400Y-114302323D01*
X170159076Y-114265001D01*
X170155400Y-114227678D01*
X170155400Y-106792722D01*
X170159076Y-106755399D01*
X170155400Y-106718076D01*
X170155400Y-106718067D01*
X170144403Y-106606414D01*
X170100946Y-106463153D01*
X170030374Y-106331124D01*
X169935401Y-106215399D01*
X169906404Y-106191602D01*
X169697107Y-105982305D01*
X169705000Y-105942622D01*
X169705000Y-105697378D01*
X169657155Y-105456847D01*
X169563305Y-105230271D01*
X169427055Y-105026359D01*
X169253641Y-104852945D01*
X169049729Y-104716695D01*
X168823153Y-104622845D01*
X168582622Y-104575000D01*
X168337378Y-104575000D01*
X168096847Y-104622845D01*
X167870271Y-104716695D01*
X167666359Y-104852945D01*
X167492945Y-105026359D01*
X167356695Y-105230271D01*
X167262845Y-105456847D01*
X167247449Y-105534247D01*
X161747801Y-100034600D01*
X164139799Y-100034600D01*
X167222893Y-103117695D01*
X167215000Y-103157378D01*
X167215000Y-103402622D01*
X167262845Y-103643153D01*
X167356695Y-103869729D01*
X167492945Y-104073641D01*
X167666359Y-104247055D01*
X167870271Y-104383305D01*
X168096847Y-104477155D01*
X168337378Y-104525000D01*
X168582622Y-104525000D01*
X168823153Y-104477155D01*
X169049729Y-104383305D01*
X169253641Y-104247055D01*
X169427055Y-104073641D01*
X169563305Y-103869729D01*
X169657155Y-103643153D01*
X169705000Y-103402622D01*
X169705000Y-103157378D01*
X169657155Y-102916847D01*
X169563305Y-102690271D01*
X169427055Y-102486359D01*
X169253641Y-102312945D01*
X169049729Y-102176695D01*
X168823153Y-102082845D01*
X168582622Y-102035000D01*
X168337378Y-102035000D01*
X168297695Y-102042893D01*
X168216568Y-101961766D01*
X168292954Y-101979821D01*
X168538041Y-101988587D01*
X168780128Y-101949370D01*
X169009914Y-101863679D01*
X169088789Y-101821520D01*
X169137314Y-101596919D01*
X168460000Y-100919605D01*
X168445858Y-100933748D01*
X168266253Y-100754143D01*
X168280395Y-100740000D01*
X168639605Y-100740000D01*
X169316919Y-101417314D01*
X169541520Y-101368789D01*
X169643409Y-101145713D01*
X169699821Y-100907046D01*
X169708587Y-100661959D01*
X169669370Y-100419872D01*
X169583679Y-100190086D01*
X169541520Y-100111211D01*
X169316919Y-100062686D01*
X168639605Y-100740000D01*
X168280395Y-100740000D01*
X167603081Y-100062686D01*
X167378480Y-100111211D01*
X167276591Y-100334287D01*
X167220179Y-100572954D01*
X167211413Y-100818041D01*
X167238200Y-100983399D01*
X166137882Y-99883081D01*
X167782686Y-99883081D01*
X168460000Y-100560395D01*
X169137314Y-99883081D01*
X169088789Y-99658480D01*
X168865713Y-99556591D01*
X168627046Y-99500179D01*
X168381959Y-99491413D01*
X168139872Y-99530630D01*
X167910086Y-99616321D01*
X167831211Y-99658480D01*
X167782686Y-99883081D01*
X166137882Y-99883081D01*
X165311720Y-99056919D01*
X167782686Y-99056919D01*
X167831211Y-99281520D01*
X168054287Y-99383409D01*
X168292954Y-99439821D01*
X168538041Y-99448587D01*
X168780128Y-99409370D01*
X169009914Y-99323679D01*
X169088789Y-99281520D01*
X169137314Y-99056919D01*
X168460000Y-98379605D01*
X167782686Y-99056919D01*
X165311720Y-99056919D01*
X165018404Y-98763603D01*
X164994601Y-98734599D01*
X164878876Y-98639626D01*
X164746847Y-98569054D01*
X164603586Y-98525597D01*
X164491933Y-98514600D01*
X164491922Y-98514600D01*
X164454600Y-98510924D01*
X164417278Y-98514600D01*
X159504945Y-98514600D01*
X159539821Y-98367046D01*
X159543004Y-98278041D01*
X167211413Y-98278041D01*
X167250630Y-98520128D01*
X167336321Y-98749914D01*
X167378480Y-98828789D01*
X167603081Y-98877314D01*
X168280395Y-98200000D01*
X168639605Y-98200000D01*
X169316919Y-98877314D01*
X169541520Y-98828789D01*
X169643409Y-98605713D01*
X169699821Y-98367046D01*
X169708587Y-98121959D01*
X169669370Y-97879872D01*
X169583679Y-97650086D01*
X169541520Y-97571211D01*
X169316919Y-97522686D01*
X168639605Y-98200000D01*
X168280395Y-98200000D01*
X167603081Y-97522686D01*
X167378480Y-97571211D01*
X167276591Y-97794287D01*
X167220179Y-98032954D01*
X167211413Y-98278041D01*
X159543004Y-98278041D01*
X159548587Y-98121959D01*
X159509370Y-97879872D01*
X159423679Y-97650086D01*
X159381520Y-97571211D01*
X159156919Y-97522686D01*
X158479605Y-98200000D01*
X158493748Y-98214143D01*
X158314143Y-98393748D01*
X158300000Y-98379605D01*
X158285858Y-98393748D01*
X158106253Y-98214143D01*
X158120395Y-98200000D01*
X157443081Y-97522686D01*
X157218480Y-97571211D01*
X157116591Y-97794287D01*
X157060179Y-98032954D01*
X157051413Y-98278041D01*
X157089734Y-98514600D01*
X155951802Y-98514600D01*
X155351203Y-97914002D01*
X155327401Y-97884999D01*
X155211676Y-97790026D01*
X155079647Y-97719454D01*
X154936386Y-97675997D01*
X154824733Y-97665000D01*
X154824722Y-97665000D01*
X154787400Y-97661324D01*
X154750078Y-97665000D01*
X152363728Y-97665000D01*
X152299180Y-97630498D01*
X152179482Y-97594188D01*
X152055000Y-97581928D01*
X150566622Y-97581928D01*
X150496005Y-97411444D01*
X150450327Y-97343081D01*
X157622686Y-97343081D01*
X158300000Y-98020395D01*
X158977314Y-97343081D01*
X167782686Y-97343081D01*
X168460000Y-98020395D01*
X169137314Y-97343081D01*
X169088789Y-97118480D01*
X168865713Y-97016591D01*
X168627046Y-96960179D01*
X168381959Y-96951413D01*
X168139872Y-96990630D01*
X167910086Y-97076321D01*
X167831211Y-97118480D01*
X167782686Y-97343081D01*
X158977314Y-97343081D01*
X158928789Y-97118480D01*
X158705713Y-97016591D01*
X158467046Y-96960179D01*
X158221959Y-96951413D01*
X157979872Y-96990630D01*
X157750086Y-97076321D01*
X157671211Y-97118480D01*
X157622686Y-97343081D01*
X150450327Y-97343081D01*
X150382737Y-97241926D01*
X150238574Y-97097763D01*
X150069056Y-96984495D01*
X149880698Y-96906474D01*
X149680739Y-96866700D01*
X149476861Y-96866700D01*
X149276902Y-96906474D01*
X149088544Y-96984495D01*
X148919026Y-97097763D01*
X148774863Y-97241926D01*
X148661595Y-97411444D01*
X148583574Y-97599802D01*
X148581296Y-97611257D01*
X147486958Y-96516919D01*
X157622686Y-96516919D01*
X157671211Y-96741520D01*
X157894287Y-96843409D01*
X158132954Y-96899821D01*
X158378041Y-96908587D01*
X158620128Y-96869370D01*
X158849914Y-96783679D01*
X158928789Y-96741520D01*
X158977314Y-96516919D01*
X167782686Y-96516919D01*
X167831211Y-96741520D01*
X168054287Y-96843409D01*
X168292954Y-96899821D01*
X168538041Y-96908587D01*
X168780128Y-96869370D01*
X169009914Y-96783679D01*
X169088789Y-96741520D01*
X169137314Y-96516919D01*
X168460000Y-95839605D01*
X167782686Y-96516919D01*
X158977314Y-96516919D01*
X158300000Y-95839605D01*
X157622686Y-96516919D01*
X147486958Y-96516919D01*
X146708080Y-95738041D01*
X157051413Y-95738041D01*
X157090630Y-95980128D01*
X157176321Y-96209914D01*
X157218480Y-96288789D01*
X157443081Y-96337314D01*
X158120395Y-95660000D01*
X158479605Y-95660000D01*
X159156919Y-96337314D01*
X159381520Y-96288789D01*
X159483409Y-96065713D01*
X159539821Y-95827046D01*
X159543004Y-95738041D01*
X167211413Y-95738041D01*
X167250630Y-95980128D01*
X167336321Y-96209914D01*
X167378480Y-96288789D01*
X167603081Y-96337314D01*
X168280395Y-95660000D01*
X168639605Y-95660000D01*
X169316919Y-96337314D01*
X169541520Y-96288789D01*
X169643409Y-96065713D01*
X169699821Y-95827046D01*
X169708587Y-95581959D01*
X169669370Y-95339872D01*
X169583679Y-95110086D01*
X169541520Y-95031211D01*
X169316919Y-94982686D01*
X168639605Y-95660000D01*
X168280395Y-95660000D01*
X167603081Y-94982686D01*
X167378480Y-95031211D01*
X167276591Y-95254287D01*
X167220179Y-95492954D01*
X167211413Y-95738041D01*
X159543004Y-95738041D01*
X159548587Y-95581959D01*
X159509370Y-95339872D01*
X159423679Y-95110086D01*
X159381520Y-95031211D01*
X159156919Y-94982686D01*
X158479605Y-95660000D01*
X158120395Y-95660000D01*
X157443081Y-94982686D01*
X157218480Y-95031211D01*
X157116591Y-95254287D01*
X157060179Y-95492954D01*
X157051413Y-95738041D01*
X146708080Y-95738041D01*
X146204940Y-95234901D01*
X146773403Y-94803081D01*
X157622686Y-94803081D01*
X158300000Y-95480395D01*
X158977314Y-94803081D01*
X167782686Y-94803081D01*
X168460000Y-95480395D01*
X169137314Y-94803081D01*
X169088789Y-94578480D01*
X168865713Y-94476591D01*
X168627046Y-94420179D01*
X168381959Y-94411413D01*
X168139872Y-94450630D01*
X167910086Y-94536321D01*
X167831211Y-94578480D01*
X167782686Y-94803081D01*
X158977314Y-94803081D01*
X158928789Y-94578480D01*
X158705713Y-94476591D01*
X158467046Y-94420179D01*
X158221959Y-94411413D01*
X157979872Y-94450630D01*
X157750086Y-94536321D01*
X157671211Y-94578480D01*
X157622686Y-94803081D01*
X146773403Y-94803081D01*
X147860992Y-93976919D01*
X157622686Y-93976919D01*
X157671211Y-94201520D01*
X157894287Y-94303409D01*
X158132954Y-94359821D01*
X158378041Y-94368587D01*
X158620128Y-94329370D01*
X158849914Y-94243679D01*
X158928789Y-94201520D01*
X158977314Y-93976919D01*
X167782686Y-93976919D01*
X167831211Y-94201520D01*
X168054287Y-94303409D01*
X168292954Y-94359821D01*
X168538041Y-94368587D01*
X168780128Y-94329370D01*
X169009914Y-94243679D01*
X169088789Y-94201520D01*
X169137314Y-93976919D01*
X168460000Y-93299605D01*
X167782686Y-93976919D01*
X158977314Y-93976919D01*
X158300000Y-93299605D01*
X157622686Y-93976919D01*
X147860992Y-93976919D01*
X148886336Y-93198041D01*
X157051413Y-93198041D01*
X157090630Y-93440128D01*
X157176321Y-93669914D01*
X157218480Y-93748789D01*
X157443081Y-93797314D01*
X158120395Y-93120000D01*
X158479605Y-93120000D01*
X159156919Y-93797314D01*
X159381520Y-93748789D01*
X159483409Y-93525713D01*
X159539821Y-93287046D01*
X159543004Y-93198041D01*
X167211413Y-93198041D01*
X167250630Y-93440128D01*
X167336321Y-93669914D01*
X167378480Y-93748789D01*
X167603081Y-93797314D01*
X168280395Y-93120000D01*
X168639605Y-93120000D01*
X169316919Y-93797314D01*
X169541520Y-93748789D01*
X169643409Y-93525713D01*
X169699821Y-93287046D01*
X169708587Y-93041959D01*
X169669370Y-92799872D01*
X169583679Y-92570086D01*
X169541520Y-92491211D01*
X169316919Y-92442686D01*
X168639605Y-93120000D01*
X168280395Y-93120000D01*
X167603081Y-92442686D01*
X167378480Y-92491211D01*
X167276591Y-92714287D01*
X167220179Y-92952954D01*
X167211413Y-93198041D01*
X159543004Y-93198041D01*
X159548587Y-93041959D01*
X159509370Y-92799872D01*
X159423679Y-92570086D01*
X159381520Y-92491211D01*
X159156919Y-92442686D01*
X158479605Y-93120000D01*
X158120395Y-93120000D01*
X157443081Y-92442686D01*
X157218480Y-92491211D01*
X157116591Y-92714287D01*
X157060179Y-92952954D01*
X157051413Y-93198041D01*
X148886336Y-93198041D01*
X150117151Y-92263081D01*
X157622686Y-92263081D01*
X158300000Y-92940395D01*
X158977314Y-92263081D01*
X167782686Y-92263081D01*
X168460000Y-92940395D01*
X169137314Y-92263081D01*
X169088789Y-92038480D01*
X168865713Y-91936591D01*
X168627046Y-91880179D01*
X168381959Y-91871413D01*
X168139872Y-91910630D01*
X167910086Y-91996321D01*
X167831211Y-92038480D01*
X167782686Y-92263081D01*
X158977314Y-92263081D01*
X158928789Y-92038480D01*
X158705713Y-91936591D01*
X158467046Y-91880179D01*
X158221959Y-91871413D01*
X157979872Y-91910630D01*
X157750086Y-91996321D01*
X157671211Y-92038480D01*
X157622686Y-92263081D01*
X150117151Y-92263081D01*
X151204741Y-91436919D01*
X157622686Y-91436919D01*
X157671211Y-91661520D01*
X157894287Y-91763409D01*
X158132954Y-91819821D01*
X158378041Y-91828587D01*
X158620128Y-91789370D01*
X158849914Y-91703679D01*
X158928789Y-91661520D01*
X158977314Y-91436919D01*
X167782686Y-91436919D01*
X167831211Y-91661520D01*
X168054287Y-91763409D01*
X168292954Y-91819821D01*
X168538041Y-91828587D01*
X168780128Y-91789370D01*
X169009914Y-91703679D01*
X169088789Y-91661520D01*
X169137314Y-91436919D01*
X168460000Y-90759605D01*
X167782686Y-91436919D01*
X158977314Y-91436919D01*
X158300000Y-90759605D01*
X157622686Y-91436919D01*
X151204741Y-91436919D01*
X152230085Y-90658041D01*
X157051413Y-90658041D01*
X157090630Y-90900128D01*
X157176321Y-91129914D01*
X157218480Y-91208789D01*
X157443081Y-91257314D01*
X158120395Y-90580000D01*
X158479605Y-90580000D01*
X159156919Y-91257314D01*
X159381520Y-91208789D01*
X159483409Y-90985713D01*
X159539821Y-90747046D01*
X159543004Y-90658041D01*
X167211413Y-90658041D01*
X167250630Y-90900128D01*
X167336321Y-91129914D01*
X167378480Y-91208789D01*
X167603081Y-91257314D01*
X168280395Y-90580000D01*
X168639605Y-90580000D01*
X169316919Y-91257314D01*
X169541520Y-91208789D01*
X169643409Y-90985713D01*
X169699821Y-90747046D01*
X169708587Y-90501959D01*
X169669370Y-90259872D01*
X169583679Y-90030086D01*
X169541520Y-89951211D01*
X169316919Y-89902686D01*
X168639605Y-90580000D01*
X168280395Y-90580000D01*
X167603081Y-89902686D01*
X167378480Y-89951211D01*
X167276591Y-90174287D01*
X167220179Y-90412954D01*
X167211413Y-90658041D01*
X159543004Y-90658041D01*
X159548587Y-90501959D01*
X159509370Y-90259872D01*
X159423679Y-90030086D01*
X159381520Y-89951211D01*
X159156919Y-89902686D01*
X158479605Y-90580000D01*
X158120395Y-90580000D01*
X157443081Y-89902686D01*
X157218480Y-89951211D01*
X157116591Y-90174287D01*
X157060179Y-90412954D01*
X157051413Y-90658041D01*
X152230085Y-90658041D01*
X153460900Y-89723081D01*
X157622686Y-89723081D01*
X158300000Y-90400395D01*
X158977314Y-89723081D01*
X167782686Y-89723081D01*
X168460000Y-90400395D01*
X169137314Y-89723081D01*
X169088789Y-89498480D01*
X168865713Y-89396591D01*
X168627046Y-89340179D01*
X168381959Y-89331413D01*
X168139872Y-89370630D01*
X167910086Y-89456321D01*
X167831211Y-89498480D01*
X167782686Y-89723081D01*
X158977314Y-89723081D01*
X158928789Y-89498480D01*
X158705713Y-89396591D01*
X158467046Y-89340179D01*
X158221959Y-89331413D01*
X157979872Y-89370630D01*
X157750086Y-89456321D01*
X157671211Y-89498480D01*
X157622686Y-89723081D01*
X153460900Y-89723081D01*
X154548490Y-88896919D01*
X157622686Y-88896919D01*
X157671211Y-89121520D01*
X157894287Y-89223409D01*
X158132954Y-89279821D01*
X158378041Y-89288587D01*
X158620128Y-89249370D01*
X158849914Y-89163679D01*
X158928789Y-89121520D01*
X158977314Y-88896919D01*
X167782686Y-88896919D01*
X167831211Y-89121520D01*
X168054287Y-89223409D01*
X168292954Y-89279821D01*
X168538041Y-89288587D01*
X168780128Y-89249370D01*
X169009914Y-89163679D01*
X169088789Y-89121520D01*
X169137314Y-88896919D01*
X168460000Y-88219605D01*
X167782686Y-88896919D01*
X158977314Y-88896919D01*
X158300000Y-88219605D01*
X157622686Y-88896919D01*
X154548490Y-88896919D01*
X155573834Y-88118041D01*
X157051413Y-88118041D01*
X157090630Y-88360128D01*
X157176321Y-88589914D01*
X157218480Y-88668789D01*
X157443081Y-88717314D01*
X158120395Y-88040000D01*
X158479605Y-88040000D01*
X159156919Y-88717314D01*
X159381520Y-88668789D01*
X159483409Y-88445713D01*
X159539821Y-88207046D01*
X159543004Y-88118041D01*
X167211413Y-88118041D01*
X167250630Y-88360128D01*
X167336321Y-88589914D01*
X167378480Y-88668789D01*
X167603081Y-88717314D01*
X168280395Y-88040000D01*
X168639605Y-88040000D01*
X169316919Y-88717314D01*
X169541520Y-88668789D01*
X169643409Y-88445713D01*
X169699821Y-88207046D01*
X169708587Y-87961959D01*
X169669370Y-87719872D01*
X169583679Y-87490086D01*
X169541520Y-87411211D01*
X169316919Y-87362686D01*
X168639605Y-88040000D01*
X168280395Y-88040000D01*
X167603081Y-87362686D01*
X167378480Y-87411211D01*
X167276591Y-87634287D01*
X167220179Y-87872954D01*
X167211413Y-88118041D01*
X159543004Y-88118041D01*
X159548587Y-87961959D01*
X159509370Y-87719872D01*
X159423679Y-87490086D01*
X159381520Y-87411211D01*
X159156919Y-87362686D01*
X158479605Y-88040000D01*
X158120395Y-88040000D01*
X157443081Y-87362686D01*
X157218480Y-87411211D01*
X157116591Y-87634287D01*
X157060179Y-87872954D01*
X157051413Y-88118041D01*
X155573834Y-88118041D01*
X156804649Y-87183081D01*
X157622686Y-87183081D01*
X158300000Y-87860395D01*
X158977314Y-87183081D01*
X167782686Y-87183081D01*
X168460000Y-87860395D01*
X169137314Y-87183081D01*
X169088789Y-86958480D01*
X168865713Y-86856591D01*
X168627046Y-86800179D01*
X168381959Y-86791413D01*
X168139872Y-86830630D01*
X167910086Y-86916321D01*
X167831211Y-86958480D01*
X167782686Y-87183081D01*
X158977314Y-87183081D01*
X158928789Y-86958480D01*
X158705713Y-86856591D01*
X158467046Y-86800179D01*
X158221959Y-86791413D01*
X157979872Y-86830630D01*
X157750086Y-86916321D01*
X157671211Y-86958480D01*
X157622686Y-87183081D01*
X156804649Y-87183081D01*
X168358165Y-78406726D01*
X170350000Y-78409185D01*
%TA.AperFunction,Conductor*%
D24*
G36*
X170350000Y-78409185D02*
G01*
X170350001Y-123470000D01*
X123060000Y-123470000D01*
X123060000Y-119105000D01*
X129111928Y-119105000D01*
X129124188Y-119229482D01*
X129160498Y-119349180D01*
X129219463Y-119459494D01*
X129298815Y-119556185D01*
X129395506Y-119635537D01*
X129505820Y-119694502D01*
X129625518Y-119730812D01*
X129750000Y-119743072D01*
X129954250Y-119740000D01*
X130113000Y-119581250D01*
X130113000Y-118767000D01*
X130367000Y-118767000D01*
X130367000Y-119581250D01*
X130525750Y-119740000D01*
X130730000Y-119743072D01*
X130854482Y-119730812D01*
X130974180Y-119694502D01*
X131084494Y-119635537D01*
X131181185Y-119556185D01*
X131260537Y-119459494D01*
X131319502Y-119349180D01*
X131355812Y-119229482D01*
X131368072Y-119105000D01*
X131365000Y-118925750D01*
X131206250Y-118767000D01*
X130367000Y-118767000D01*
X130113000Y-118767000D01*
X129273750Y-118767000D01*
X129115000Y-118925750D01*
X129111928Y-119105000D01*
X123060000Y-119105000D01*
X123060000Y-117620000D01*
X126226928Y-117620000D01*
X126239188Y-117744482D01*
X126275498Y-117864180D01*
X126334463Y-117974494D01*
X126413815Y-118071185D01*
X126510506Y-118150537D01*
X126620820Y-118209502D01*
X126740518Y-118245812D01*
X126865000Y-118258072D01*
X127044250Y-118255000D01*
X127203000Y-118096250D01*
X127203000Y-117257000D01*
X126388750Y-117257000D01*
X126230000Y-117415750D01*
X126226928Y-117620000D01*
X123060000Y-117620000D01*
X123060000Y-116640000D01*
X126226928Y-116640000D01*
X126230000Y-116844250D01*
X126388750Y-117003000D01*
X127203000Y-117003000D01*
X127203000Y-116381250D01*
X127273000Y-116311250D01*
X127273000Y-116163750D01*
X127457000Y-116163750D01*
X127457000Y-117003000D01*
X127477000Y-117003000D01*
X127477000Y-117257000D01*
X127457000Y-117257000D01*
X127457000Y-118096250D01*
X127615750Y-118255000D01*
X127795000Y-118258072D01*
X127919482Y-118245812D01*
X128039180Y-118209502D01*
X128100000Y-118176993D01*
X128160820Y-118209502D01*
X128280518Y-118245812D01*
X128405000Y-118258072D01*
X129113352Y-118258072D01*
X129115000Y-118354250D01*
X129273750Y-118513000D01*
X130113000Y-118513000D01*
X130113000Y-118493000D01*
X130367000Y-118493000D01*
X130367000Y-118513000D01*
X131206250Y-118513000D01*
X131365000Y-118354250D01*
X131368072Y-118175000D01*
X131355812Y-118050518D01*
X131319502Y-117930820D01*
X131286993Y-117870000D01*
X131319502Y-117809180D01*
X131355812Y-117689482D01*
X131358223Y-117665000D01*
X140621928Y-117665000D01*
X140634188Y-117789482D01*
X140670498Y-117909180D01*
X140729463Y-118019494D01*
X140808815Y-118116185D01*
X140905506Y-118195537D01*
X141015820Y-118254502D01*
X141135518Y-118290812D01*
X141260000Y-118303072D01*
X141464250Y-118300000D01*
X141623000Y-118141250D01*
X141623000Y-117327000D01*
X141877000Y-117327000D01*
X141877000Y-118141250D01*
X142035750Y-118300000D01*
X142240000Y-118303072D01*
X142364482Y-118290812D01*
X142484180Y-118254502D01*
X142594494Y-118195537D01*
X142691185Y-118116185D01*
X142770537Y-118019494D01*
X142829502Y-117909180D01*
X142865812Y-117789482D01*
X142878072Y-117665000D01*
X142875000Y-117485750D01*
X142716250Y-117327000D01*
X141877000Y-117327000D01*
X141623000Y-117327000D01*
X140783750Y-117327000D01*
X140625000Y-117485750D01*
X140621928Y-117665000D01*
X131358223Y-117665000D01*
X131368072Y-117565000D01*
X131368072Y-116635000D01*
X131355812Y-116510518D01*
X131319502Y-116390820D01*
X131260537Y-116280506D01*
X131181185Y-116183815D01*
X131084494Y-116104463D01*
X130974180Y-116045498D01*
X130854482Y-116009188D01*
X130730000Y-115996928D01*
X129750000Y-115996928D01*
X129625518Y-116009188D01*
X129534259Y-116036871D01*
X129459482Y-116014188D01*
X129335000Y-116001928D01*
X128502936Y-116001928D01*
X128515812Y-115959482D01*
X128528072Y-115835000D01*
X128525000Y-115655750D01*
X128366250Y-115497000D01*
X127527000Y-115497000D01*
X127527000Y-116093750D01*
X127457000Y-116163750D01*
X127273000Y-116163750D01*
X127273000Y-115497000D01*
X126433750Y-115497000D01*
X126275000Y-115655750D01*
X126271928Y-115835000D01*
X126284188Y-115959482D01*
X126320498Y-116079180D01*
X126379463Y-116189494D01*
X126396360Y-116210084D01*
X126334463Y-116285506D01*
X126275498Y-116395820D01*
X126239188Y-116515518D01*
X126226928Y-116640000D01*
X123060000Y-116640000D01*
X123060000Y-112816410D01*
X126823201Y-109957783D01*
X126823201Y-111946788D01*
X126779263Y-111990726D01*
X126665995Y-112160244D01*
X126587974Y-112348602D01*
X126548200Y-112548561D01*
X126548200Y-112752439D01*
X126563650Y-112830110D01*
X126555506Y-112834463D01*
X126458815Y-112913815D01*
X126379463Y-113010506D01*
X126320498Y-113120820D01*
X126284188Y-113240518D01*
X126271928Y-113365000D01*
X126271928Y-114295000D01*
X126284188Y-114419482D01*
X126320498Y-114539180D01*
X126353007Y-114600000D01*
X126320498Y-114660820D01*
X126284188Y-114780518D01*
X126271928Y-114905000D01*
X126275000Y-115084250D01*
X126433750Y-115243000D01*
X127273000Y-115243000D01*
X127273000Y-115223000D01*
X127527000Y-115223000D01*
X127527000Y-115243000D01*
X128366250Y-115243000D01*
X128414250Y-115195000D01*
X140621928Y-115195000D01*
X140621928Y-116125000D01*
X140634188Y-116249482D01*
X140670498Y-116369180D01*
X140703007Y-116430000D01*
X140670498Y-116490820D01*
X140634188Y-116610518D01*
X140621928Y-116735000D01*
X140625000Y-116914250D01*
X140783750Y-117073000D01*
X141623000Y-117073000D01*
X141623000Y-117053000D01*
X141877000Y-117053000D01*
X141877000Y-117073000D01*
X142716250Y-117073000D01*
X142875000Y-116914250D01*
X142878072Y-116735000D01*
X142865812Y-116610518D01*
X142829502Y-116490820D01*
X142796993Y-116430000D01*
X142829502Y-116369180D01*
X142865812Y-116249482D01*
X142878072Y-116125000D01*
X142878072Y-115195000D01*
X142865812Y-115070518D01*
X142829502Y-114950820D01*
X142770537Y-114840506D01*
X142691185Y-114743815D01*
X142594494Y-114664463D01*
X142484180Y-114605498D01*
X142364482Y-114569188D01*
X142240000Y-114556928D01*
X141260000Y-114556928D01*
X141135518Y-114569188D01*
X141015820Y-114605498D01*
X140905506Y-114664463D01*
X140808815Y-114743815D01*
X140729463Y-114840506D01*
X140670498Y-114950820D01*
X140634188Y-115070518D01*
X140621928Y-115195000D01*
X128414250Y-115195000D01*
X128525000Y-115084250D01*
X128528072Y-114905000D01*
X128515812Y-114780518D01*
X128479502Y-114660820D01*
X128446993Y-114600000D01*
X128479502Y-114539180D01*
X128515812Y-114419482D01*
X128528072Y-114295000D01*
X128528072Y-113365000D01*
X128515812Y-113240518D01*
X128490188Y-113156047D01*
X128500405Y-113140756D01*
X128578426Y-112952398D01*
X128618200Y-112752439D01*
X128618200Y-112548561D01*
X128578426Y-112348602D01*
X128500405Y-112160244D01*
X128387137Y-111990726D01*
X128343200Y-111946789D01*
X128343200Y-109590000D01*
X141546928Y-109590000D01*
X141546928Y-110570000D01*
X141559188Y-110694482D01*
X141595498Y-110814180D01*
X141654463Y-110924494D01*
X141733815Y-111021185D01*
X141830506Y-111100537D01*
X141940820Y-111159502D01*
X142060518Y-111195812D01*
X142185000Y-111208072D01*
X143115000Y-111208072D01*
X143239482Y-111195812D01*
X143359180Y-111159502D01*
X143420000Y-111126993D01*
X143480820Y-111159502D01*
X143600518Y-111195812D01*
X143725000Y-111208072D01*
X144655000Y-111208072D01*
X144779482Y-111195812D01*
X144899180Y-111159502D01*
X145009494Y-111100537D01*
X145106185Y-111021185D01*
X145185537Y-110924494D01*
X145244502Y-110814180D01*
X145280812Y-110694482D01*
X145293072Y-110570000D01*
X145293072Y-109590000D01*
X145280812Y-109465518D01*
X145267003Y-109419996D01*
X145309482Y-109415812D01*
X145429180Y-109379502D01*
X145539494Y-109320537D01*
X145636185Y-109241185D01*
X145715537Y-109144494D01*
X145774502Y-109034180D01*
X145810812Y-108914482D01*
X145823072Y-108790000D01*
X145820000Y-108585750D01*
X145661250Y-108427000D01*
X144847000Y-108427000D01*
X144847000Y-108447000D01*
X144593000Y-108447000D01*
X144593000Y-108427000D01*
X144573000Y-108427000D01*
X144573000Y-108173000D01*
X144593000Y-108173000D01*
X144593000Y-107333750D01*
X144847000Y-107333750D01*
X144847000Y-108173000D01*
X145661250Y-108173000D01*
X145820000Y-108014250D01*
X145823072Y-107810000D01*
X145810812Y-107685518D01*
X145774502Y-107565820D01*
X145715537Y-107455506D01*
X145636185Y-107358815D01*
X145539494Y-107279463D01*
X145429180Y-107220498D01*
X145309482Y-107184188D01*
X145185000Y-107171928D01*
X145005750Y-107175000D01*
X144847000Y-107333750D01*
X144593000Y-107333750D01*
X144434250Y-107175000D01*
X144255000Y-107171928D01*
X144130518Y-107184188D01*
X144010820Y-107220498D01*
X143950000Y-107253007D01*
X143889180Y-107220498D01*
X143769482Y-107184188D01*
X143645000Y-107171928D01*
X142715000Y-107171928D01*
X142590518Y-107184188D01*
X142470820Y-107220498D01*
X142360506Y-107279463D01*
X142263815Y-107358815D01*
X142184463Y-107455506D01*
X142125498Y-107565820D01*
X142089188Y-107685518D01*
X142076928Y-107810000D01*
X142076928Y-108327145D01*
X142013355Y-108404608D01*
X141942599Y-108536985D01*
X141899027Y-108680622D01*
X141884314Y-108830000D01*
X141888001Y-108867433D01*
X141888001Y-109028731D01*
X141830506Y-109059463D01*
X141733815Y-109138815D01*
X141654463Y-109235506D01*
X141595498Y-109345820D01*
X141559188Y-109465518D01*
X141546928Y-109590000D01*
X128343200Y-109590000D01*
X128343200Y-108803151D01*
X129061080Y-108257830D01*
X129115398Y-108247026D01*
X129303756Y-108169005D01*
X129473274Y-108055737D01*
X129517211Y-108011800D01*
X138615878Y-108011800D01*
X138653200Y-108015476D01*
X138690522Y-108011800D01*
X138690533Y-108011800D01*
X138802186Y-108000803D01*
X138945447Y-107957346D01*
X139077476Y-107886774D01*
X139193201Y-107791801D01*
X139217004Y-107762797D01*
X145761730Y-101218072D01*
X145880301Y-101218072D01*
X145880300Y-103093877D01*
X145876624Y-103131200D01*
X145880300Y-103168522D01*
X145880300Y-103168532D01*
X145891297Y-103280185D01*
X145922257Y-103382247D01*
X145934754Y-103423446D01*
X146005326Y-103555476D01*
X146040637Y-103598502D01*
X146100299Y-103671201D01*
X146129303Y-103695004D01*
X157338805Y-114904508D01*
X157362599Y-114933501D01*
X157391592Y-114957295D01*
X157391596Y-114957299D01*
X157460691Y-115014003D01*
X157478324Y-115028474D01*
X157610353Y-115099046D01*
X157753614Y-115142503D01*
X157865267Y-115153500D01*
X157865276Y-115153500D01*
X157902599Y-115157176D01*
X157939922Y-115153500D01*
X169229578Y-115153500D01*
X169266900Y-115157176D01*
X169304222Y-115153500D01*
X169304233Y-115153500D01*
X169415886Y-115142503D01*
X169559147Y-115099046D01*
X169691176Y-115028474D01*
X169806901Y-114933501D01*
X169830702Y-114904499D01*
X169906401Y-114828801D01*
X169935401Y-114805001D01*
X170030374Y-114689276D01*
X170100946Y-114557247D01*
X170144403Y-114413986D01*
X170155400Y-114302333D01*
X170155400Y-114302323D01*
X170159076Y-114265001D01*
X170155400Y-114227678D01*
X170155400Y-106792722D01*
X170159076Y-106755399D01*
X170155400Y-106718076D01*
X170155400Y-106718067D01*
X170144403Y-106606414D01*
X170100946Y-106463153D01*
X170030374Y-106331124D01*
X169935401Y-106215399D01*
X169906404Y-106191602D01*
X169697107Y-105982305D01*
X169705000Y-105942622D01*
X169705000Y-105697378D01*
X169657155Y-105456847D01*
X169563305Y-105230271D01*
X169427055Y-105026359D01*
X169253641Y-104852945D01*
X169049729Y-104716695D01*
X168823153Y-104622845D01*
X168582622Y-104575000D01*
X168337378Y-104575000D01*
X168096847Y-104622845D01*
X167870271Y-104716695D01*
X167666359Y-104852945D01*
X167492945Y-105026359D01*
X167356695Y-105230271D01*
X167262845Y-105456847D01*
X167247449Y-105534247D01*
X161747801Y-100034600D01*
X164139799Y-100034600D01*
X167222893Y-103117695D01*
X167215000Y-103157378D01*
X167215000Y-103402622D01*
X167262845Y-103643153D01*
X167356695Y-103869729D01*
X167492945Y-104073641D01*
X167666359Y-104247055D01*
X167870271Y-104383305D01*
X168096847Y-104477155D01*
X168337378Y-104525000D01*
X168582622Y-104525000D01*
X168823153Y-104477155D01*
X169049729Y-104383305D01*
X169253641Y-104247055D01*
X169427055Y-104073641D01*
X169563305Y-103869729D01*
X169657155Y-103643153D01*
X169705000Y-103402622D01*
X169705000Y-103157378D01*
X169657155Y-102916847D01*
X169563305Y-102690271D01*
X169427055Y-102486359D01*
X169253641Y-102312945D01*
X169049729Y-102176695D01*
X168823153Y-102082845D01*
X168582622Y-102035000D01*
X168337378Y-102035000D01*
X168297695Y-102042893D01*
X168216568Y-101961766D01*
X168292954Y-101979821D01*
X168538041Y-101988587D01*
X168780128Y-101949370D01*
X169009914Y-101863679D01*
X169088789Y-101821520D01*
X169137314Y-101596919D01*
X168460000Y-100919605D01*
X168445858Y-100933748D01*
X168266253Y-100754143D01*
X168280395Y-100740000D01*
X168639605Y-100740000D01*
X169316919Y-101417314D01*
X169541520Y-101368789D01*
X169643409Y-101145713D01*
X169699821Y-100907046D01*
X169708587Y-100661959D01*
X169669370Y-100419872D01*
X169583679Y-100190086D01*
X169541520Y-100111211D01*
X169316919Y-100062686D01*
X168639605Y-100740000D01*
X168280395Y-100740000D01*
X167603081Y-100062686D01*
X167378480Y-100111211D01*
X167276591Y-100334287D01*
X167220179Y-100572954D01*
X167211413Y-100818041D01*
X167238200Y-100983399D01*
X166137882Y-99883081D01*
X167782686Y-99883081D01*
X168460000Y-100560395D01*
X169137314Y-99883081D01*
X169088789Y-99658480D01*
X168865713Y-99556591D01*
X168627046Y-99500179D01*
X168381959Y-99491413D01*
X168139872Y-99530630D01*
X167910086Y-99616321D01*
X167831211Y-99658480D01*
X167782686Y-99883081D01*
X166137882Y-99883081D01*
X165311720Y-99056919D01*
X167782686Y-99056919D01*
X167831211Y-99281520D01*
X168054287Y-99383409D01*
X168292954Y-99439821D01*
X168538041Y-99448587D01*
X168780128Y-99409370D01*
X169009914Y-99323679D01*
X169088789Y-99281520D01*
X169137314Y-99056919D01*
X168460000Y-98379605D01*
X167782686Y-99056919D01*
X165311720Y-99056919D01*
X165018404Y-98763603D01*
X164994601Y-98734599D01*
X164878876Y-98639626D01*
X164746847Y-98569054D01*
X164603586Y-98525597D01*
X164491933Y-98514600D01*
X164491922Y-98514600D01*
X164454600Y-98510924D01*
X164417278Y-98514600D01*
X159504945Y-98514600D01*
X159539821Y-98367046D01*
X159543004Y-98278041D01*
X167211413Y-98278041D01*
X167250630Y-98520128D01*
X167336321Y-98749914D01*
X167378480Y-98828789D01*
X167603081Y-98877314D01*
X168280395Y-98200000D01*
X168639605Y-98200000D01*
X169316919Y-98877314D01*
X169541520Y-98828789D01*
X169643409Y-98605713D01*
X169699821Y-98367046D01*
X169708587Y-98121959D01*
X169669370Y-97879872D01*
X169583679Y-97650086D01*
X169541520Y-97571211D01*
X169316919Y-97522686D01*
X168639605Y-98200000D01*
X168280395Y-98200000D01*
X167603081Y-97522686D01*
X167378480Y-97571211D01*
X167276591Y-97794287D01*
X167220179Y-98032954D01*
X167211413Y-98278041D01*
X159543004Y-98278041D01*
X159548587Y-98121959D01*
X159509370Y-97879872D01*
X159423679Y-97650086D01*
X159381520Y-97571211D01*
X159156919Y-97522686D01*
X158479605Y-98200000D01*
X158493748Y-98214143D01*
X158314143Y-98393748D01*
X158300000Y-98379605D01*
X158285858Y-98393748D01*
X158106253Y-98214143D01*
X158120395Y-98200000D01*
X157443081Y-97522686D01*
X157218480Y-97571211D01*
X157116591Y-97794287D01*
X157060179Y-98032954D01*
X157051413Y-98278041D01*
X157089734Y-98514600D01*
X155951802Y-98514600D01*
X155351203Y-97914002D01*
X155327401Y-97884999D01*
X155211676Y-97790026D01*
X155079647Y-97719454D01*
X154936386Y-97675997D01*
X154824733Y-97665000D01*
X154824722Y-97665000D01*
X154787400Y-97661324D01*
X154750078Y-97665000D01*
X152363728Y-97665000D01*
X152299180Y-97630498D01*
X152179482Y-97594188D01*
X152055000Y-97581928D01*
X150566622Y-97581928D01*
X150496005Y-97411444D01*
X150450327Y-97343081D01*
X157622686Y-97343081D01*
X158300000Y-98020395D01*
X158977314Y-97343081D01*
X167782686Y-97343081D01*
X168460000Y-98020395D01*
X169137314Y-97343081D01*
X169088789Y-97118480D01*
X168865713Y-97016591D01*
X168627046Y-96960179D01*
X168381959Y-96951413D01*
X168139872Y-96990630D01*
X167910086Y-97076321D01*
X167831211Y-97118480D01*
X167782686Y-97343081D01*
X158977314Y-97343081D01*
X158928789Y-97118480D01*
X158705713Y-97016591D01*
X158467046Y-96960179D01*
X158221959Y-96951413D01*
X157979872Y-96990630D01*
X157750086Y-97076321D01*
X157671211Y-97118480D01*
X157622686Y-97343081D01*
X150450327Y-97343081D01*
X150382737Y-97241926D01*
X150238574Y-97097763D01*
X150069056Y-96984495D01*
X149880698Y-96906474D01*
X149680739Y-96866700D01*
X149476861Y-96866700D01*
X149276902Y-96906474D01*
X149088544Y-96984495D01*
X148919026Y-97097763D01*
X148774863Y-97241926D01*
X148661595Y-97411444D01*
X148583574Y-97599802D01*
X148581296Y-97611257D01*
X147486958Y-96516919D01*
X157622686Y-96516919D01*
X157671211Y-96741520D01*
X157894287Y-96843409D01*
X158132954Y-96899821D01*
X158378041Y-96908587D01*
X158620128Y-96869370D01*
X158849914Y-96783679D01*
X158928789Y-96741520D01*
X158977314Y-96516919D01*
X167782686Y-96516919D01*
X167831211Y-96741520D01*
X168054287Y-96843409D01*
X168292954Y-96899821D01*
X168538041Y-96908587D01*
X168780128Y-96869370D01*
X169009914Y-96783679D01*
X169088789Y-96741520D01*
X169137314Y-96516919D01*
X168460000Y-95839605D01*
X167782686Y-96516919D01*
X158977314Y-96516919D01*
X158300000Y-95839605D01*
X157622686Y-96516919D01*
X147486958Y-96516919D01*
X146708080Y-95738041D01*
X157051413Y-95738041D01*
X157090630Y-95980128D01*
X157176321Y-96209914D01*
X157218480Y-96288789D01*
X157443081Y-96337314D01*
X158120395Y-95660000D01*
X158479605Y-95660000D01*
X159156919Y-96337314D01*
X159381520Y-96288789D01*
X159483409Y-96065713D01*
X159539821Y-95827046D01*
X159543004Y-95738041D01*
X167211413Y-95738041D01*
X167250630Y-95980128D01*
X167336321Y-96209914D01*
X167378480Y-96288789D01*
X167603081Y-96337314D01*
X168280395Y-95660000D01*
X168639605Y-95660000D01*
X169316919Y-96337314D01*
X169541520Y-96288789D01*
X169643409Y-96065713D01*
X169699821Y-95827046D01*
X169708587Y-95581959D01*
X169669370Y-95339872D01*
X169583679Y-95110086D01*
X169541520Y-95031211D01*
X169316919Y-94982686D01*
X168639605Y-95660000D01*
X168280395Y-95660000D01*
X167603081Y-94982686D01*
X167378480Y-95031211D01*
X167276591Y-95254287D01*
X167220179Y-95492954D01*
X167211413Y-95738041D01*
X159543004Y-95738041D01*
X159548587Y-95581959D01*
X159509370Y-95339872D01*
X159423679Y-95110086D01*
X159381520Y-95031211D01*
X159156919Y-94982686D01*
X158479605Y-95660000D01*
X158120395Y-95660000D01*
X157443081Y-94982686D01*
X157218480Y-95031211D01*
X157116591Y-95254287D01*
X157060179Y-95492954D01*
X157051413Y-95738041D01*
X146708080Y-95738041D01*
X146204940Y-95234901D01*
X146773403Y-94803081D01*
X157622686Y-94803081D01*
X158300000Y-95480395D01*
X158977314Y-94803081D01*
X167782686Y-94803081D01*
X168460000Y-95480395D01*
X169137314Y-94803081D01*
X169088789Y-94578480D01*
X168865713Y-94476591D01*
X168627046Y-94420179D01*
X168381959Y-94411413D01*
X168139872Y-94450630D01*
X167910086Y-94536321D01*
X167831211Y-94578480D01*
X167782686Y-94803081D01*
X158977314Y-94803081D01*
X158928789Y-94578480D01*
X158705713Y-94476591D01*
X158467046Y-94420179D01*
X158221959Y-94411413D01*
X157979872Y-94450630D01*
X157750086Y-94536321D01*
X157671211Y-94578480D01*
X157622686Y-94803081D01*
X146773403Y-94803081D01*
X147860992Y-93976919D01*
X157622686Y-93976919D01*
X157671211Y-94201520D01*
X157894287Y-94303409D01*
X158132954Y-94359821D01*
X158378041Y-94368587D01*
X158620128Y-94329370D01*
X158849914Y-94243679D01*
X158928789Y-94201520D01*
X158977314Y-93976919D01*
X167782686Y-93976919D01*
X167831211Y-94201520D01*
X168054287Y-94303409D01*
X168292954Y-94359821D01*
X168538041Y-94368587D01*
X168780128Y-94329370D01*
X169009914Y-94243679D01*
X169088789Y-94201520D01*
X169137314Y-93976919D01*
X168460000Y-93299605D01*
X167782686Y-93976919D01*
X158977314Y-93976919D01*
X158300000Y-93299605D01*
X157622686Y-93976919D01*
X147860992Y-93976919D01*
X148886336Y-93198041D01*
X157051413Y-93198041D01*
X157090630Y-93440128D01*
X157176321Y-93669914D01*
X157218480Y-93748789D01*
X157443081Y-93797314D01*
X158120395Y-93120000D01*
X158479605Y-93120000D01*
X159156919Y-93797314D01*
X159381520Y-93748789D01*
X159483409Y-93525713D01*
X159539821Y-93287046D01*
X159543004Y-93198041D01*
X167211413Y-93198041D01*
X167250630Y-93440128D01*
X167336321Y-93669914D01*
X167378480Y-93748789D01*
X167603081Y-93797314D01*
X168280395Y-93120000D01*
X168639605Y-93120000D01*
X169316919Y-93797314D01*
X169541520Y-93748789D01*
X169643409Y-93525713D01*
X169699821Y-93287046D01*
X169708587Y-93041959D01*
X169669370Y-92799872D01*
X169583679Y-92570086D01*
X169541520Y-92491211D01*
X169316919Y-92442686D01*
X168639605Y-93120000D01*
X168280395Y-93120000D01*
X167603081Y-92442686D01*
X167378480Y-92491211D01*
X167276591Y-92714287D01*
X167220179Y-92952954D01*
X167211413Y-93198041D01*
X159543004Y-93198041D01*
X159548587Y-93041959D01*
X159509370Y-92799872D01*
X159423679Y-92570086D01*
X159381520Y-92491211D01*
X159156919Y-92442686D01*
X158479605Y-93120000D01*
X158120395Y-93120000D01*
X157443081Y-92442686D01*
X157218480Y-92491211D01*
X157116591Y-92714287D01*
X157060179Y-92952954D01*
X157051413Y-93198041D01*
X148886336Y-93198041D01*
X150117151Y-92263081D01*
X157622686Y-92263081D01*
X158300000Y-92940395D01*
X158977314Y-92263081D01*
X167782686Y-92263081D01*
X168460000Y-92940395D01*
X169137314Y-92263081D01*
X169088789Y-92038480D01*
X168865713Y-91936591D01*
X168627046Y-91880179D01*
X168381959Y-91871413D01*
X168139872Y-91910630D01*
X167910086Y-91996321D01*
X167831211Y-92038480D01*
X167782686Y-92263081D01*
X158977314Y-92263081D01*
X158928789Y-92038480D01*
X158705713Y-91936591D01*
X158467046Y-91880179D01*
X158221959Y-91871413D01*
X157979872Y-91910630D01*
X157750086Y-91996321D01*
X157671211Y-92038480D01*
X157622686Y-92263081D01*
X150117151Y-92263081D01*
X151204741Y-91436919D01*
X157622686Y-91436919D01*
X157671211Y-91661520D01*
X157894287Y-91763409D01*
X158132954Y-91819821D01*
X158378041Y-91828587D01*
X158620128Y-91789370D01*
X158849914Y-91703679D01*
X158928789Y-91661520D01*
X158977314Y-91436919D01*
X167782686Y-91436919D01*
X167831211Y-91661520D01*
X168054287Y-91763409D01*
X168292954Y-91819821D01*
X168538041Y-91828587D01*
X168780128Y-91789370D01*
X169009914Y-91703679D01*
X169088789Y-91661520D01*
X169137314Y-91436919D01*
X168460000Y-90759605D01*
X167782686Y-91436919D01*
X158977314Y-91436919D01*
X158300000Y-90759605D01*
X157622686Y-91436919D01*
X151204741Y-91436919D01*
X152230085Y-90658041D01*
X157051413Y-90658041D01*
X157090630Y-90900128D01*
X157176321Y-91129914D01*
X157218480Y-91208789D01*
X157443081Y-91257314D01*
X158120395Y-90580000D01*
X158479605Y-90580000D01*
X159156919Y-91257314D01*
X159381520Y-91208789D01*
X159483409Y-90985713D01*
X159539821Y-90747046D01*
X159543004Y-90658041D01*
X167211413Y-90658041D01*
X167250630Y-90900128D01*
X167336321Y-91129914D01*
X167378480Y-91208789D01*
X167603081Y-91257314D01*
X168280395Y-90580000D01*
X168639605Y-90580000D01*
X169316919Y-91257314D01*
X169541520Y-91208789D01*
X169643409Y-90985713D01*
X169699821Y-90747046D01*
X169708587Y-90501959D01*
X169669370Y-90259872D01*
X169583679Y-90030086D01*
X169541520Y-89951211D01*
X169316919Y-89902686D01*
X168639605Y-90580000D01*
X168280395Y-90580000D01*
X167603081Y-89902686D01*
X167378480Y-89951211D01*
X167276591Y-90174287D01*
X167220179Y-90412954D01*
X167211413Y-90658041D01*
X159543004Y-90658041D01*
X159548587Y-90501959D01*
X159509370Y-90259872D01*
X159423679Y-90030086D01*
X159381520Y-89951211D01*
X159156919Y-89902686D01*
X158479605Y-90580000D01*
X158120395Y-90580000D01*
X157443081Y-89902686D01*
X157218480Y-89951211D01*
X157116591Y-90174287D01*
X157060179Y-90412954D01*
X157051413Y-90658041D01*
X152230085Y-90658041D01*
X153460900Y-89723081D01*
X157622686Y-89723081D01*
X158300000Y-90400395D01*
X158977314Y-89723081D01*
X167782686Y-89723081D01*
X168460000Y-90400395D01*
X169137314Y-89723081D01*
X169088789Y-89498480D01*
X168865713Y-89396591D01*
X168627046Y-89340179D01*
X168381959Y-89331413D01*
X168139872Y-89370630D01*
X167910086Y-89456321D01*
X167831211Y-89498480D01*
X167782686Y-89723081D01*
X158977314Y-89723081D01*
X158928789Y-89498480D01*
X158705713Y-89396591D01*
X158467046Y-89340179D01*
X158221959Y-89331413D01*
X157979872Y-89370630D01*
X157750086Y-89456321D01*
X157671211Y-89498480D01*
X157622686Y-89723081D01*
X153460900Y-89723081D01*
X154548490Y-88896919D01*
X157622686Y-88896919D01*
X157671211Y-89121520D01*
X157894287Y-89223409D01*
X158132954Y-89279821D01*
X158378041Y-89288587D01*
X158620128Y-89249370D01*
X158849914Y-89163679D01*
X158928789Y-89121520D01*
X158977314Y-88896919D01*
X167782686Y-88896919D01*
X167831211Y-89121520D01*
X168054287Y-89223409D01*
X168292954Y-89279821D01*
X168538041Y-89288587D01*
X168780128Y-89249370D01*
X169009914Y-89163679D01*
X169088789Y-89121520D01*
X169137314Y-88896919D01*
X168460000Y-88219605D01*
X167782686Y-88896919D01*
X158977314Y-88896919D01*
X158300000Y-88219605D01*
X157622686Y-88896919D01*
X154548490Y-88896919D01*
X155573834Y-88118041D01*
X157051413Y-88118041D01*
X157090630Y-88360128D01*
X157176321Y-88589914D01*
X157218480Y-88668789D01*
X157443081Y-88717314D01*
X158120395Y-88040000D01*
X158479605Y-88040000D01*
X159156919Y-88717314D01*
X159381520Y-88668789D01*
X159483409Y-88445713D01*
X159539821Y-88207046D01*
X159543004Y-88118041D01*
X167211413Y-88118041D01*
X167250630Y-88360128D01*
X167336321Y-88589914D01*
X167378480Y-88668789D01*
X167603081Y-88717314D01*
X168280395Y-88040000D01*
X168639605Y-88040000D01*
X169316919Y-88717314D01*
X169541520Y-88668789D01*
X169643409Y-88445713D01*
X169699821Y-88207046D01*
X169708587Y-87961959D01*
X169669370Y-87719872D01*
X169583679Y-87490086D01*
X169541520Y-87411211D01*
X169316919Y-87362686D01*
X168639605Y-88040000D01*
X168280395Y-88040000D01*
X167603081Y-87362686D01*
X167378480Y-87411211D01*
X167276591Y-87634287D01*
X167220179Y-87872954D01*
X167211413Y-88118041D01*
X159543004Y-88118041D01*
X159548587Y-87961959D01*
X159509370Y-87719872D01*
X159423679Y-87490086D01*
X159381520Y-87411211D01*
X159156919Y-87362686D01*
X158479605Y-88040000D01*
X158120395Y-88040000D01*
X157443081Y-87362686D01*
X157218480Y-87411211D01*
X157116591Y-87634287D01*
X157060179Y-87872954D01*
X157051413Y-88118041D01*
X155573834Y-88118041D01*
X156804649Y-87183081D01*
X157622686Y-87183081D01*
X158300000Y-87860395D01*
X158977314Y-87183081D01*
X167782686Y-87183081D01*
X168460000Y-87860395D01*
X169137314Y-87183081D01*
X169088789Y-86958480D01*
X168865713Y-86856591D01*
X168627046Y-86800179D01*
X168381959Y-86791413D01*
X168139872Y-86830630D01*
X167910086Y-86916321D01*
X167831211Y-86958480D01*
X167782686Y-87183081D01*
X158977314Y-87183081D01*
X158928789Y-86958480D01*
X158705713Y-86856591D01*
X158467046Y-86800179D01*
X158221959Y-86791413D01*
X157979872Y-86830630D01*
X157750086Y-86916321D01*
X157671211Y-86958480D01*
X157622686Y-87183081D01*
X156804649Y-87183081D01*
X168358165Y-78406726D01*
X170350000Y-78409185D01*
G37*
%TD.AperFunction*%
D23*
X149359857Y-101083896D02*
X149245000Y-101081928D01*
X149120518Y-101094188D01*
X149000820Y-101130498D01*
X148890506Y-101189463D01*
X148793815Y-101268815D01*
X148714463Y-101365506D01*
X148655498Y-101475820D01*
X148619188Y-101595518D01*
X148606928Y-101720000D01*
X148610000Y-101924250D01*
X148768750Y-102083000D01*
X149583000Y-102083000D01*
X149583000Y-102063000D01*
X149837000Y-102063000D01*
X149837000Y-102083000D01*
X149857000Y-102083000D01*
X149857000Y-102337000D01*
X149837000Y-102337000D01*
X149837000Y-103176250D01*
X149995750Y-103335000D01*
X150175000Y-103338072D01*
X150299482Y-103325812D01*
X150419180Y-103289502D01*
X150480000Y-103256993D01*
X150540820Y-103289502D01*
X150660518Y-103325812D01*
X150785000Y-103338072D01*
X151715000Y-103338072D01*
X151839482Y-103325812D01*
X151959180Y-103289502D01*
X152069494Y-103230537D01*
X152166185Y-103151185D01*
X152209012Y-103099000D01*
X157063477Y-103099000D01*
X157060179Y-103112954D01*
X157051413Y-103358041D01*
X157090630Y-103600128D01*
X157176321Y-103829914D01*
X157218480Y-103908789D01*
X157443081Y-103957314D01*
X158120395Y-103280000D01*
X158106253Y-103265858D01*
X158273110Y-103099000D01*
X158298605Y-103099000D01*
X158300000Y-103100395D01*
X158301395Y-103099000D01*
X158326890Y-103099000D01*
X158493748Y-103265858D01*
X158479605Y-103280000D01*
X159156919Y-103957314D01*
X159381520Y-103908789D01*
X159483409Y-103685713D01*
X159539821Y-103447046D01*
X159548587Y-103201959D01*
X159531908Y-103099000D01*
X161651765Y-103099000D01*
X162511001Y-103958237D01*
X162511000Y-111446340D01*
X162506700Y-111490000D01*
X162511000Y-111533660D01*
X162511000Y-111533666D01*
X162519060Y-111615500D01*
X162523864Y-111664274D01*
X162544801Y-111733295D01*
X162574697Y-111831850D01*
X162657247Y-111986290D01*
X162768341Y-112121659D01*
X162802264Y-112149499D01*
X164286264Y-113633500D01*
X159533568Y-113633500D01*
X159539821Y-113607046D01*
X159548587Y-113361959D01*
X159509370Y-113119872D01*
X159423679Y-112890086D01*
X159381520Y-112811211D01*
X159156919Y-112762686D01*
X158479605Y-113440000D01*
X158493748Y-113454143D01*
X158314390Y-113633500D01*
X158313895Y-113633500D01*
X158300000Y-113619605D01*
X158286105Y-113633500D01*
X158285610Y-113633500D01*
X158106253Y-113454143D01*
X158120395Y-113440000D01*
X157443081Y-112762686D01*
X157363732Y-112779829D01*
X157166984Y-112583081D01*
X157622686Y-112583081D01*
X158300000Y-113260395D01*
X158977314Y-112583081D01*
X158928789Y-112358480D01*
X158705713Y-112256591D01*
X158467046Y-112200179D01*
X158221959Y-112191413D01*
X157979872Y-112230630D01*
X157750086Y-112316321D01*
X157671211Y-112358480D01*
X157622686Y-112583081D01*
X157166984Y-112583081D01*
X155361281Y-110777378D01*
X157055000Y-110777378D01*
X157055000Y-111022622D01*
X157102845Y-111263153D01*
X157196695Y-111489729D01*
X157332945Y-111693641D01*
X157506359Y-111867055D01*
X157710271Y-112003305D01*
X157936847Y-112097155D01*
X158177378Y-112145000D01*
X158422622Y-112145000D01*
X158663153Y-112097155D01*
X158889729Y-112003305D01*
X159093641Y-111867055D01*
X159267055Y-111693641D01*
X159403305Y-111489729D01*
X159497155Y-111263153D01*
X159545000Y-111022622D01*
X159545000Y-110777378D01*
X159497155Y-110536847D01*
X159403305Y-110310271D01*
X159267055Y-110106359D01*
X159093641Y-109932945D01*
X158889729Y-109796695D01*
X158663153Y-109702845D01*
X158422622Y-109655000D01*
X158177378Y-109655000D01*
X157936847Y-109702845D01*
X157710271Y-109796695D01*
X157506359Y-109932945D01*
X157332945Y-110106359D01*
X157196695Y-110310271D01*
X157102845Y-110536847D01*
X157055000Y-110777378D01*
X155361281Y-110777378D01*
X153800822Y-109216919D01*
X157622686Y-109216919D01*
X157671211Y-109441520D01*
X157894287Y-109543409D01*
X158132954Y-109599821D01*
X158378041Y-109608587D01*
X158620128Y-109569370D01*
X158849914Y-109483679D01*
X158928789Y-109441520D01*
X158977314Y-109216919D01*
X158300000Y-108539605D01*
X157622686Y-109216919D01*
X153800822Y-109216919D01*
X153021944Y-108438041D01*
X157051413Y-108438041D01*
X157090630Y-108680128D01*
X157176321Y-108909914D01*
X157218480Y-108988789D01*
X157443081Y-109037314D01*
X158120395Y-108360000D01*
X158479605Y-108360000D01*
X159156919Y-109037314D01*
X159381520Y-108988789D01*
X159483409Y-108765713D01*
X159539821Y-108527046D01*
X159548587Y-108281959D01*
X159509370Y-108039872D01*
X159423679Y-107810086D01*
X159381520Y-107731211D01*
X159156919Y-107682686D01*
X158479605Y-108360000D01*
X158120395Y-108360000D01*
X157443081Y-107682686D01*
X157218480Y-107731211D01*
X157116591Y-107954287D01*
X157060179Y-108192954D01*
X157051413Y-108438041D01*
X153021944Y-108438041D01*
X152086984Y-107503081D01*
X157622686Y-107503081D01*
X158300000Y-108180395D01*
X158977314Y-107503081D01*
X158928789Y-107278480D01*
X158705713Y-107176591D01*
X158467046Y-107120179D01*
X158221959Y-107111413D01*
X157979872Y-107150630D01*
X157750086Y-107236321D01*
X157671211Y-107278480D01*
X157622686Y-107503081D01*
X152086984Y-107503081D01*
X151260822Y-106676919D01*
X157622686Y-106676919D01*
X157671211Y-106901520D01*
X157894287Y-107003409D01*
X158132954Y-107059821D01*
X158378041Y-107068587D01*
X158620128Y-107029370D01*
X158849914Y-106943679D01*
X158928789Y-106901520D01*
X158977314Y-106676919D01*
X158300000Y-105999605D01*
X157622686Y-106676919D01*
X151260822Y-106676919D01*
X150481944Y-105898041D01*
X157051413Y-105898041D01*
X157090630Y-106140128D01*
X157176321Y-106369914D01*
X157218480Y-106448789D01*
X157443081Y-106497314D01*
X158120395Y-105820000D01*
X158479605Y-105820000D01*
X159156919Y-106497314D01*
X159381520Y-106448789D01*
X159483409Y-106225713D01*
X159539821Y-105987046D01*
X159548587Y-105741959D01*
X159509370Y-105499872D01*
X159423679Y-105270086D01*
X159381520Y-105191211D01*
X159156919Y-105142686D01*
X158479605Y-105820000D01*
X158120395Y-105820000D01*
X157443081Y-105142686D01*
X157218480Y-105191211D01*
X157116591Y-105414287D01*
X157060179Y-105652954D01*
X157051413Y-105898041D01*
X150481944Y-105898041D01*
X149546984Y-104963081D01*
X157622686Y-104963081D01*
X158300000Y-105640395D01*
X158977314Y-104963081D01*
X158928789Y-104738480D01*
X158705713Y-104636591D01*
X158467046Y-104580179D01*
X158221959Y-104571413D01*
X157979872Y-104610630D01*
X157750086Y-104696321D01*
X157671211Y-104738480D01*
X157622686Y-104963081D01*
X149546984Y-104963081D01*
X148720822Y-104136919D01*
X157622686Y-104136919D01*
X157671211Y-104361520D01*
X157894287Y-104463409D01*
X158132954Y-104519821D01*
X158378041Y-104528587D01*
X158620128Y-104489370D01*
X158849914Y-104403679D01*
X158928789Y-104361520D01*
X158977314Y-104136919D01*
X158300000Y-103459605D01*
X157622686Y-104136919D01*
X148720822Y-104136919D01*
X147400300Y-102816399D01*
X147400300Y-102700000D01*
X148606928Y-102700000D01*
X148619188Y-102824482D01*
X148655498Y-102944180D01*
X148714463Y-103054494D01*
X148793815Y-103151185D01*
X148890506Y-103230537D01*
X149000820Y-103289502D01*
X149120518Y-103325812D01*
X149245000Y-103338072D01*
X149424250Y-103335000D01*
X149583000Y-103176250D01*
X149583000Y-102337000D01*
X148768750Y-102337000D01*
X148610000Y-102495750D01*
X148606928Y-102700000D01*
X147400300Y-102700000D01*
X147400300Y-99762333D01*
X147403977Y-99725000D01*
X147389303Y-99576014D01*
X147345846Y-99432753D01*
X147275274Y-99300724D01*
X147180301Y-99184999D01*
X147064576Y-99090026D01*
X146953072Y-99030425D01*
X146953072Y-98870000D01*
X146940856Y-98745968D01*
X146948796Y-98672835D01*
X149359857Y-101083896D01*
%TA.AperFunction,Conductor*%
D24*
G36*
X149359857Y-101083896D02*
G01*
X149245000Y-101081928D01*
X149120518Y-101094188D01*
X149000820Y-101130498D01*
X148890506Y-101189463D01*
X148793815Y-101268815D01*
X148714463Y-101365506D01*
X148655498Y-101475820D01*
X148619188Y-101595518D01*
X148606928Y-101720000D01*
X148610000Y-101924250D01*
X148768750Y-102083000D01*
X149583000Y-102083000D01*
X149583000Y-102063000D01*
X149837000Y-102063000D01*
X149837000Y-102083000D01*
X149857000Y-102083000D01*
X149857000Y-102337000D01*
X149837000Y-102337000D01*
X149837000Y-103176250D01*
X149995750Y-103335000D01*
X150175000Y-103338072D01*
X150299482Y-103325812D01*
X150419180Y-103289502D01*
X150480000Y-103256993D01*
X150540820Y-103289502D01*
X150660518Y-103325812D01*
X150785000Y-103338072D01*
X151715000Y-103338072D01*
X151839482Y-103325812D01*
X151959180Y-103289502D01*
X152069494Y-103230537D01*
X152166185Y-103151185D01*
X152209012Y-103099000D01*
X157063477Y-103099000D01*
X157060179Y-103112954D01*
X157051413Y-103358041D01*
X157090630Y-103600128D01*
X157176321Y-103829914D01*
X157218480Y-103908789D01*
X157443081Y-103957314D01*
X158120395Y-103280000D01*
X158106253Y-103265858D01*
X158273110Y-103099000D01*
X158298605Y-103099000D01*
X158300000Y-103100395D01*
X158301395Y-103099000D01*
X158326890Y-103099000D01*
X158493748Y-103265858D01*
X158479605Y-103280000D01*
X159156919Y-103957314D01*
X159381520Y-103908789D01*
X159483409Y-103685713D01*
X159539821Y-103447046D01*
X159548587Y-103201959D01*
X159531908Y-103099000D01*
X161651765Y-103099000D01*
X162511001Y-103958237D01*
X162511000Y-111446340D01*
X162506700Y-111490000D01*
X162511000Y-111533660D01*
X162511000Y-111533666D01*
X162519060Y-111615500D01*
X162523864Y-111664274D01*
X162544801Y-111733295D01*
X162574697Y-111831850D01*
X162657247Y-111986290D01*
X162768341Y-112121659D01*
X162802264Y-112149499D01*
X164286264Y-113633500D01*
X159533568Y-113633500D01*
X159539821Y-113607046D01*
X159548587Y-113361959D01*
X159509370Y-113119872D01*
X159423679Y-112890086D01*
X159381520Y-112811211D01*
X159156919Y-112762686D01*
X158479605Y-113440000D01*
X158493748Y-113454143D01*
X158314390Y-113633500D01*
X158313895Y-113633500D01*
X158300000Y-113619605D01*
X158286105Y-113633500D01*
X158285610Y-113633500D01*
X158106253Y-113454143D01*
X158120395Y-113440000D01*
X157443081Y-112762686D01*
X157363732Y-112779829D01*
X157166984Y-112583081D01*
X157622686Y-112583081D01*
X158300000Y-113260395D01*
X158977314Y-112583081D01*
X158928789Y-112358480D01*
X158705713Y-112256591D01*
X158467046Y-112200179D01*
X158221959Y-112191413D01*
X157979872Y-112230630D01*
X157750086Y-112316321D01*
X157671211Y-112358480D01*
X157622686Y-112583081D01*
X157166984Y-112583081D01*
X155361281Y-110777378D01*
X157055000Y-110777378D01*
X157055000Y-111022622D01*
X157102845Y-111263153D01*
X157196695Y-111489729D01*
X157332945Y-111693641D01*
X157506359Y-111867055D01*
X157710271Y-112003305D01*
X157936847Y-112097155D01*
X158177378Y-112145000D01*
X158422622Y-112145000D01*
X158663153Y-112097155D01*
X158889729Y-112003305D01*
X159093641Y-111867055D01*
X159267055Y-111693641D01*
X159403305Y-111489729D01*
X159497155Y-111263153D01*
X159545000Y-111022622D01*
X159545000Y-110777378D01*
X159497155Y-110536847D01*
X159403305Y-110310271D01*
X159267055Y-110106359D01*
X159093641Y-109932945D01*
X158889729Y-109796695D01*
X158663153Y-109702845D01*
X158422622Y-109655000D01*
X158177378Y-109655000D01*
X157936847Y-109702845D01*
X157710271Y-109796695D01*
X157506359Y-109932945D01*
X157332945Y-110106359D01*
X157196695Y-110310271D01*
X157102845Y-110536847D01*
X157055000Y-110777378D01*
X155361281Y-110777378D01*
X153800822Y-109216919D01*
X157622686Y-109216919D01*
X157671211Y-109441520D01*
X157894287Y-109543409D01*
X158132954Y-109599821D01*
X158378041Y-109608587D01*
X158620128Y-109569370D01*
X158849914Y-109483679D01*
X158928789Y-109441520D01*
X158977314Y-109216919D01*
X158300000Y-108539605D01*
X157622686Y-109216919D01*
X153800822Y-109216919D01*
X153021944Y-108438041D01*
X157051413Y-108438041D01*
X157090630Y-108680128D01*
X157176321Y-108909914D01*
X157218480Y-108988789D01*
X157443081Y-109037314D01*
X158120395Y-108360000D01*
X158479605Y-108360000D01*
X159156919Y-109037314D01*
X159381520Y-108988789D01*
X159483409Y-108765713D01*
X159539821Y-108527046D01*
X159548587Y-108281959D01*
X159509370Y-108039872D01*
X159423679Y-107810086D01*
X159381520Y-107731211D01*
X159156919Y-107682686D01*
X158479605Y-108360000D01*
X158120395Y-108360000D01*
X157443081Y-107682686D01*
X157218480Y-107731211D01*
X157116591Y-107954287D01*
X157060179Y-108192954D01*
X157051413Y-108438041D01*
X153021944Y-108438041D01*
X152086984Y-107503081D01*
X157622686Y-107503081D01*
X158300000Y-108180395D01*
X158977314Y-107503081D01*
X158928789Y-107278480D01*
X158705713Y-107176591D01*
X158467046Y-107120179D01*
X158221959Y-107111413D01*
X157979872Y-107150630D01*
X157750086Y-107236321D01*
X157671211Y-107278480D01*
X157622686Y-107503081D01*
X152086984Y-107503081D01*
X151260822Y-106676919D01*
X157622686Y-106676919D01*
X157671211Y-106901520D01*
X157894287Y-107003409D01*
X158132954Y-107059821D01*
X158378041Y-107068587D01*
X158620128Y-107029370D01*
X158849914Y-106943679D01*
X158928789Y-106901520D01*
X158977314Y-106676919D01*
X158300000Y-105999605D01*
X157622686Y-106676919D01*
X151260822Y-106676919D01*
X150481944Y-105898041D01*
X157051413Y-105898041D01*
X157090630Y-106140128D01*
X157176321Y-106369914D01*
X157218480Y-106448789D01*
X157443081Y-106497314D01*
X158120395Y-105820000D01*
X158479605Y-105820000D01*
X159156919Y-106497314D01*
X159381520Y-106448789D01*
X159483409Y-106225713D01*
X159539821Y-105987046D01*
X159548587Y-105741959D01*
X159509370Y-105499872D01*
X159423679Y-105270086D01*
X159381520Y-105191211D01*
X159156919Y-105142686D01*
X158479605Y-105820000D01*
X158120395Y-105820000D01*
X157443081Y-105142686D01*
X157218480Y-105191211D01*
X157116591Y-105414287D01*
X157060179Y-105652954D01*
X157051413Y-105898041D01*
X150481944Y-105898041D01*
X149546984Y-104963081D01*
X157622686Y-104963081D01*
X158300000Y-105640395D01*
X158977314Y-104963081D01*
X158928789Y-104738480D01*
X158705713Y-104636591D01*
X158467046Y-104580179D01*
X158221959Y-104571413D01*
X157979872Y-104610630D01*
X157750086Y-104696321D01*
X157671211Y-104738480D01*
X157622686Y-104963081D01*
X149546984Y-104963081D01*
X148720822Y-104136919D01*
X157622686Y-104136919D01*
X157671211Y-104361520D01*
X157894287Y-104463409D01*
X158132954Y-104519821D01*
X158378041Y-104528587D01*
X158620128Y-104489370D01*
X158849914Y-104403679D01*
X158928789Y-104361520D01*
X158977314Y-104136919D01*
X158300000Y-103459605D01*
X157622686Y-104136919D01*
X148720822Y-104136919D01*
X147400300Y-102816399D01*
X147400300Y-102700000D01*
X148606928Y-102700000D01*
X148619188Y-102824482D01*
X148655498Y-102944180D01*
X148714463Y-103054494D01*
X148793815Y-103151185D01*
X148890506Y-103230537D01*
X149000820Y-103289502D01*
X149120518Y-103325812D01*
X149245000Y-103338072D01*
X149424250Y-103335000D01*
X149583000Y-103176250D01*
X149583000Y-102337000D01*
X148768750Y-102337000D01*
X148610000Y-102495750D01*
X148606928Y-102700000D01*
X147400300Y-102700000D01*
X147400300Y-99762333D01*
X147403977Y-99725000D01*
X147389303Y-99576014D01*
X147345846Y-99432753D01*
X147275274Y-99300724D01*
X147180301Y-99184999D01*
X147064576Y-99090026D01*
X146953072Y-99030425D01*
X146953072Y-98870000D01*
X146940856Y-98745968D01*
X146948796Y-98672835D01*
X149359857Y-101083896D01*
G37*
%TD.AperFunction*%
D23*
X145860686Y-97584724D02*
X145815750Y-97585000D01*
X145657000Y-97743750D01*
X145657000Y-98231928D01*
X145403000Y-98231928D01*
X145403000Y-97743750D01*
X145244250Y-97585000D01*
X144754187Y-97581994D01*
X144629541Y-97592461D01*
X144509333Y-97627044D01*
X144398181Y-97684414D01*
X144300358Y-97762366D01*
X144219621Y-97857904D01*
X144159075Y-97967358D01*
X144121045Y-98086521D01*
X144110000Y-98188250D01*
X144219748Y-98297998D01*
X144110000Y-98297998D01*
X144110000Y-98378783D01*
X143995424Y-98440026D01*
X143879699Y-98534999D01*
X143784726Y-98650724D01*
X143714154Y-98782753D01*
X143670697Y-98926014D01*
X143656023Y-99075000D01*
X143659701Y-99112342D01*
X143659700Y-99987498D01*
X141263085Y-102384114D01*
X141254502Y-102355820D01*
X141195537Y-102245506D01*
X141116185Y-102148815D01*
X141019494Y-102069463D01*
X140909180Y-102010498D01*
X140789482Y-101974188D01*
X140665000Y-101961928D01*
X140485750Y-101965000D01*
X140327000Y-102123750D01*
X140327000Y-102963000D01*
X140347000Y-102963000D01*
X140347000Y-103217000D01*
X140327000Y-103217000D01*
X140327000Y-103237000D01*
X140073000Y-103237000D01*
X140073000Y-103217000D01*
X140053000Y-103217000D01*
X140053000Y-102963000D01*
X140073000Y-102963000D01*
X140073000Y-102123750D01*
X139914250Y-101965000D01*
X139735000Y-101961928D01*
X139610518Y-101974188D01*
X139490820Y-102010498D01*
X139430000Y-102043007D01*
X139374996Y-102013607D01*
X139365546Y-101982453D01*
X139294974Y-101850424D01*
X139200001Y-101734699D01*
X139170997Y-101710896D01*
X139035000Y-101574899D01*
X139035000Y-100681377D01*
X144673890Y-96397928D01*
X145860686Y-97584724D01*
%TA.AperFunction,Conductor*%
D24*
G36*
X145860686Y-97584724D02*
G01*
X145815750Y-97585000D01*
X145657000Y-97743750D01*
X145657000Y-98231928D01*
X145403000Y-98231928D01*
X145403000Y-97743750D01*
X145244250Y-97585000D01*
X144754187Y-97581994D01*
X144629541Y-97592461D01*
X144509333Y-97627044D01*
X144398181Y-97684414D01*
X144300358Y-97762366D01*
X144219621Y-97857904D01*
X144159075Y-97967358D01*
X144121045Y-98086521D01*
X144110000Y-98188250D01*
X144219748Y-98297998D01*
X144110000Y-98297998D01*
X144110000Y-98378783D01*
X143995424Y-98440026D01*
X143879699Y-98534999D01*
X143784726Y-98650724D01*
X143714154Y-98782753D01*
X143670697Y-98926014D01*
X143656023Y-99075000D01*
X143659701Y-99112342D01*
X143659700Y-99987498D01*
X141263085Y-102384114D01*
X141254502Y-102355820D01*
X141195537Y-102245506D01*
X141116185Y-102148815D01*
X141019494Y-102069463D01*
X140909180Y-102010498D01*
X140789482Y-101974188D01*
X140665000Y-101961928D01*
X140485750Y-101965000D01*
X140327000Y-102123750D01*
X140327000Y-102963000D01*
X140347000Y-102963000D01*
X140347000Y-103217000D01*
X140327000Y-103217000D01*
X140327000Y-103237000D01*
X140073000Y-103237000D01*
X140073000Y-103217000D01*
X140053000Y-103217000D01*
X140053000Y-102963000D01*
X140073000Y-102963000D01*
X140073000Y-102123750D01*
X139914250Y-101965000D01*
X139735000Y-101961928D01*
X139610518Y-101974188D01*
X139490820Y-102010498D01*
X139430000Y-102043007D01*
X139374996Y-102013607D01*
X139365546Y-101982453D01*
X139294974Y-101850424D01*
X139200001Y-101734699D01*
X139170997Y-101710896D01*
X139035000Y-101574899D01*
X139035000Y-100681377D01*
X144673890Y-96397928D01*
X145860686Y-97584724D01*
G37*
%TD.AperFunction*%
D23*
X158493748Y-100725858D02*
X158479605Y-100740000D01*
X158493748Y-100754143D01*
X158314143Y-100933748D01*
X158300000Y-100919605D01*
X158285858Y-100933748D01*
X158106253Y-100754143D01*
X158120395Y-100740000D01*
X158106253Y-100725858D01*
X158285858Y-100546253D01*
X158300000Y-100560395D01*
X158314143Y-100546253D01*
X158493748Y-100725858D01*
%TA.AperFunction,Conductor*%
D24*
G36*
X158493748Y-100725858D02*
G01*
X158479605Y-100740000D01*
X158493748Y-100754143D01*
X158314143Y-100933748D01*
X158300000Y-100919605D01*
X158285858Y-100933748D01*
X158106253Y-100754143D01*
X158120395Y-100740000D01*
X158106253Y-100725858D01*
X158285858Y-100546253D01*
X158300000Y-100560395D01*
X158314143Y-100546253D01*
X158493748Y-100725858D01*
G37*
%TD.AperFunction*%
%TD*%
M02*
