%TF.GenerationSoftware,KiCad,Pcbnew,(5.1.8)-1*%
%TF.CreationDate,2021-05-09T22:57:12+08:00*%
%TF.ProjectId,ccd_with_stm32,6363645f-7769-4746-985f-73746d33322e,rev?*%
%TF.SameCoordinates,Original*%
%TF.FileFunction,Copper,L1,Top*%
%TF.FilePolarity,Positive*%
%FSLAX46Y46*%
G04 Gerber Fmt 4.6, Leading zero omitted, Abs format (unit mm)*
G04 Created by KiCad (PCBNEW (5.1.8)-1) date 2021-05-09 22:57:12*
%MOMM*%
%LPD*%
G01*
G04 APERTURE LIST*
%TA.AperFunction,SMDPad,CuDef*%
%ADD10R,0.700000X1.250000*%
%TD*%
%TA.AperFunction,SMDPad,CuDef*%
%ADD11C,0.100000*%
%TD*%
%TA.AperFunction,SMDPad,CuDef*%
%ADD12R,0.600000X1.450000*%
%TD*%
%TA.AperFunction,SMDPad,CuDef*%
%ADD13R,0.300000X1.450000*%
%TD*%
%TA.AperFunction,ComponentPad*%
%ADD14O,1.000000X2.100000*%
%TD*%
%TA.AperFunction,ComponentPad*%
%ADD15O,1.000000X1.600000*%
%TD*%
%TA.AperFunction,SMDPad,CuDef*%
%ADD16R,0.980000X0.930000*%
%TD*%
%TA.AperFunction,SMDPad,CuDef*%
%ADD17R,0.650000X0.600000*%
%TD*%
%TA.AperFunction,SMDPad,CuDef*%
%ADD18R,0.600000X0.650000*%
%TD*%
%TA.AperFunction,SMDPad,CuDef*%
%ADD19R,0.930000X0.980000*%
%TD*%
%TA.AperFunction,SMDPad,CuDef*%
%ADD20R,1.000000X0.600000*%
%TD*%
%TA.AperFunction,ComponentPad*%
%ADD21R,1.220000X1.220000*%
%TD*%
%TA.AperFunction,ComponentPad*%
%ADD22C,1.220000*%
%TD*%
%TA.AperFunction,ViaPad*%
%ADD23C,0.800000*%
%TD*%
%TA.AperFunction,Conductor*%
%ADD24C,0.250000*%
%TD*%
%TA.AperFunction,Conductor*%
%ADD25C,0.254000*%
%TD*%
%TA.AperFunction,Conductor*%
%ADD26C,0.508000*%
%TD*%
%TA.AperFunction,Conductor*%
%ADD27C,0.762000*%
%TD*%
%TA.AperFunction,Conductor*%
%ADD28C,0.381000*%
%TD*%
%TA.AperFunction,Conductor*%
%ADD29C,0.635000*%
%TD*%
%TA.AperFunction,Conductor*%
%ADD30C,0.100000*%
%TD*%
G04 APERTURE END LIST*
D10*
%TO.P,U4,3*%
%TO.N,Net-(R2-Pad1)*%
X152150000Y-109800000D03*
%TO.P,U4,2*%
%TO.N,/ADC_in*%
X151200000Y-107300000D03*
%TO.P,U4,1*%
%TO.N,Net-(R1-Pad2)*%
X153100000Y-107300000D03*
%TD*%
%TA.AperFunction,SMDPad,CuDef*%
D11*
%TO.P,Y1,2*%
%TO.N,Net-(C8-Pad2)*%
G36*
X143835770Y-117373076D02*
G01*
X144785770Y-115727628D01*
X146864230Y-116927628D01*
X145914230Y-118573076D01*
X143835770Y-117373076D01*
G37*
%TD.AperFunction*%
%TA.AperFunction,SMDPad,CuDef*%
%TO.P,Y1,1*%
%TO.N,Net-(C9-Pad2)*%
G36*
X145885770Y-113822372D02*
G01*
X146835770Y-112176924D01*
X148914230Y-113376924D01*
X147964230Y-115022372D01*
X145885770Y-113822372D01*
G37*
%TD.AperFunction*%
%TD*%
D12*
%TO.P,U3,B1*%
%TO.N,GND*%
X137930000Y-84435000D03*
%TO.P,U3,A9*%
%TO.N,VCC*%
X138730000Y-84435000D03*
%TO.P,U3,B9*%
X143630000Y-84435000D03*
%TO.P,U3,B12*%
%TO.N,GND*%
X144430000Y-84435000D03*
%TO.P,U3,A1*%
X144430000Y-84435000D03*
%TO.P,U3,A4*%
%TO.N,VCC*%
X143630000Y-84435000D03*
%TO.P,U3,B4*%
X138730000Y-84435000D03*
%TO.P,U3,A12*%
%TO.N,GND*%
X137930000Y-84435000D03*
D13*
%TO.P,U3,B8*%
%TO.N,Net-(U3-PadB8)*%
X142930000Y-84435000D03*
%TO.P,U3,A5*%
%TO.N,Net-(R24-Pad1)*%
X142430000Y-84435000D03*
%TO.P,U3,B7*%
%TO.N,/DM*%
X141930000Y-84435000D03*
%TO.P,U3,A7*%
X140930000Y-84435000D03*
%TO.P,U3,B6*%
%TO.N,/DP*%
X140430000Y-84435000D03*
%TO.P,U3,A8*%
%TO.N,Net-(U3-PadA8)*%
X139930000Y-84435000D03*
%TO.P,U3,B5*%
%TO.N,Net-(R16-Pad2)*%
X139430000Y-84435000D03*
%TO.P,U3,A6*%
%TO.N,/DP*%
X141430000Y-84435000D03*
D14*
%TO.P,U3,S1*%
%TO.N,GND*%
X136860000Y-83520000D03*
X145500000Y-83520000D03*
D15*
X145500000Y-79340000D03*
X136860000Y-79340000D03*
%TD*%
%TO.P,U2,64*%
%TO.N,/3v3_2*%
%TA.AperFunction,SMDPad,CuDef*%
G36*
G01*
X139800000Y-115525000D02*
X139800000Y-116925000D01*
G75*
G02*
X139725000Y-117000000I-75000J0D01*
G01*
X139575000Y-117000000D01*
G75*
G02*
X139500000Y-116925000I0J75000D01*
G01*
X139500000Y-115525000D01*
G75*
G02*
X139575000Y-115450000I75000J0D01*
G01*
X139725000Y-115450000D01*
G75*
G02*
X139800000Y-115525000I0J-75000D01*
G01*
G37*
%TD.AperFunction*%
%TO.P,U2,63*%
%TO.N,GND*%
%TA.AperFunction,SMDPad,CuDef*%
G36*
G01*
X139300000Y-115525000D02*
X139300000Y-116925000D01*
G75*
G02*
X139225000Y-117000000I-75000J0D01*
G01*
X139075000Y-117000000D01*
G75*
G02*
X139000000Y-116925000I0J75000D01*
G01*
X139000000Y-115525000D01*
G75*
G02*
X139075000Y-115450000I75000J0D01*
G01*
X139225000Y-115450000D01*
G75*
G02*
X139300000Y-115525000I0J-75000D01*
G01*
G37*
%TD.AperFunction*%
%TO.P,U2,62*%
%TO.N,Net-(U2-Pad62)*%
%TA.AperFunction,SMDPad,CuDef*%
G36*
G01*
X138800000Y-115525000D02*
X138800000Y-116925000D01*
G75*
G02*
X138725000Y-117000000I-75000J0D01*
G01*
X138575000Y-117000000D01*
G75*
G02*
X138500000Y-116925000I0J75000D01*
G01*
X138500000Y-115525000D01*
G75*
G02*
X138575000Y-115450000I75000J0D01*
G01*
X138725000Y-115450000D01*
G75*
G02*
X138800000Y-115525000I0J-75000D01*
G01*
G37*
%TD.AperFunction*%
%TO.P,U2,61*%
%TO.N,Net-(U2-Pad61)*%
%TA.AperFunction,SMDPad,CuDef*%
G36*
G01*
X138300000Y-115525000D02*
X138300000Y-116925000D01*
G75*
G02*
X138225000Y-117000000I-75000J0D01*
G01*
X138075000Y-117000000D01*
G75*
G02*
X138000000Y-116925000I0J75000D01*
G01*
X138000000Y-115525000D01*
G75*
G02*
X138075000Y-115450000I75000J0D01*
G01*
X138225000Y-115450000D01*
G75*
G02*
X138300000Y-115525000I0J-75000D01*
G01*
G37*
%TD.AperFunction*%
%TO.P,U2,60*%
%TO.N,Net-(R3-Pad2)*%
%TA.AperFunction,SMDPad,CuDef*%
G36*
G01*
X137800000Y-115525000D02*
X137800000Y-116925000D01*
G75*
G02*
X137725000Y-117000000I-75000J0D01*
G01*
X137575000Y-117000000D01*
G75*
G02*
X137500000Y-116925000I0J75000D01*
G01*
X137500000Y-115525000D01*
G75*
G02*
X137575000Y-115450000I75000J0D01*
G01*
X137725000Y-115450000D01*
G75*
G02*
X137800000Y-115525000I0J-75000D01*
G01*
G37*
%TD.AperFunction*%
%TO.P,U2,59*%
%TO.N,Net-(U2-Pad59)*%
%TA.AperFunction,SMDPad,CuDef*%
G36*
G01*
X137300000Y-115525000D02*
X137300000Y-116925000D01*
G75*
G02*
X137225000Y-117000000I-75000J0D01*
G01*
X137075000Y-117000000D01*
G75*
G02*
X137000000Y-116925000I0J75000D01*
G01*
X137000000Y-115525000D01*
G75*
G02*
X137075000Y-115450000I75000J0D01*
G01*
X137225000Y-115450000D01*
G75*
G02*
X137300000Y-115525000I0J-75000D01*
G01*
G37*
%TD.AperFunction*%
%TO.P,U2,58*%
%TO.N,Net-(U2-Pad58)*%
%TA.AperFunction,SMDPad,CuDef*%
G36*
G01*
X136800000Y-115525000D02*
X136800000Y-116925000D01*
G75*
G02*
X136725000Y-117000000I-75000J0D01*
G01*
X136575000Y-117000000D01*
G75*
G02*
X136500000Y-116925000I0J75000D01*
G01*
X136500000Y-115525000D01*
G75*
G02*
X136575000Y-115450000I75000J0D01*
G01*
X136725000Y-115450000D01*
G75*
G02*
X136800000Y-115525000I0J-75000D01*
G01*
G37*
%TD.AperFunction*%
%TO.P,U2,57*%
%TO.N,Net-(U2-Pad57)*%
%TA.AperFunction,SMDPad,CuDef*%
G36*
G01*
X136300000Y-115525000D02*
X136300000Y-116925000D01*
G75*
G02*
X136225000Y-117000000I-75000J0D01*
G01*
X136075000Y-117000000D01*
G75*
G02*
X136000000Y-116925000I0J75000D01*
G01*
X136000000Y-115525000D01*
G75*
G02*
X136075000Y-115450000I75000J0D01*
G01*
X136225000Y-115450000D01*
G75*
G02*
X136300000Y-115525000I0J-75000D01*
G01*
G37*
%TD.AperFunction*%
%TO.P,U2,56*%
%TO.N,Net-(U2-Pad56)*%
%TA.AperFunction,SMDPad,CuDef*%
G36*
G01*
X135800000Y-115525000D02*
X135800000Y-116925000D01*
G75*
G02*
X135725000Y-117000000I-75000J0D01*
G01*
X135575000Y-117000000D01*
G75*
G02*
X135500000Y-116925000I0J75000D01*
G01*
X135500000Y-115525000D01*
G75*
G02*
X135575000Y-115450000I75000J0D01*
G01*
X135725000Y-115450000D01*
G75*
G02*
X135800000Y-115525000I0J-75000D01*
G01*
G37*
%TD.AperFunction*%
%TO.P,U2,55*%
%TO.N,Net-(R20-Pad1)*%
%TA.AperFunction,SMDPad,CuDef*%
G36*
G01*
X135300000Y-115525000D02*
X135300000Y-116925000D01*
G75*
G02*
X135225000Y-117000000I-75000J0D01*
G01*
X135075000Y-117000000D01*
G75*
G02*
X135000000Y-116925000I0J75000D01*
G01*
X135000000Y-115525000D01*
G75*
G02*
X135075000Y-115450000I75000J0D01*
G01*
X135225000Y-115450000D01*
G75*
G02*
X135300000Y-115525000I0J-75000D01*
G01*
G37*
%TD.AperFunction*%
%TO.P,U2,54*%
%TO.N,Net-(U2-Pad54)*%
%TA.AperFunction,SMDPad,CuDef*%
G36*
G01*
X134800000Y-115525000D02*
X134800000Y-116925000D01*
G75*
G02*
X134725000Y-117000000I-75000J0D01*
G01*
X134575000Y-117000000D01*
G75*
G02*
X134500000Y-116925000I0J75000D01*
G01*
X134500000Y-115525000D01*
G75*
G02*
X134575000Y-115450000I75000J0D01*
G01*
X134725000Y-115450000D01*
G75*
G02*
X134800000Y-115525000I0J-75000D01*
G01*
G37*
%TD.AperFunction*%
%TO.P,U2,53*%
%TO.N,Net-(U2-Pad53)*%
%TA.AperFunction,SMDPad,CuDef*%
G36*
G01*
X134300000Y-115525000D02*
X134300000Y-116925000D01*
G75*
G02*
X134225000Y-117000000I-75000J0D01*
G01*
X134075000Y-117000000D01*
G75*
G02*
X134000000Y-116925000I0J75000D01*
G01*
X134000000Y-115525000D01*
G75*
G02*
X134075000Y-115450000I75000J0D01*
G01*
X134225000Y-115450000D01*
G75*
G02*
X134300000Y-115525000I0J-75000D01*
G01*
G37*
%TD.AperFunction*%
%TO.P,U2,52*%
%TO.N,Net-(U2-Pad52)*%
%TA.AperFunction,SMDPad,CuDef*%
G36*
G01*
X133800000Y-115525000D02*
X133800000Y-116925000D01*
G75*
G02*
X133725000Y-117000000I-75000J0D01*
G01*
X133575000Y-117000000D01*
G75*
G02*
X133500000Y-116925000I0J75000D01*
G01*
X133500000Y-115525000D01*
G75*
G02*
X133575000Y-115450000I75000J0D01*
G01*
X133725000Y-115450000D01*
G75*
G02*
X133800000Y-115525000I0J-75000D01*
G01*
G37*
%TD.AperFunction*%
%TO.P,U2,51*%
%TO.N,Net-(U2-Pad51)*%
%TA.AperFunction,SMDPad,CuDef*%
G36*
G01*
X133300000Y-115525000D02*
X133300000Y-116925000D01*
G75*
G02*
X133225000Y-117000000I-75000J0D01*
G01*
X133075000Y-117000000D01*
G75*
G02*
X133000000Y-116925000I0J75000D01*
G01*
X133000000Y-115525000D01*
G75*
G02*
X133075000Y-115450000I75000J0D01*
G01*
X133225000Y-115450000D01*
G75*
G02*
X133300000Y-115525000I0J-75000D01*
G01*
G37*
%TD.AperFunction*%
%TO.P,U2,50*%
%TO.N,Net-(R17-Pad1)*%
%TA.AperFunction,SMDPad,CuDef*%
G36*
G01*
X132800000Y-115525000D02*
X132800000Y-116925000D01*
G75*
G02*
X132725000Y-117000000I-75000J0D01*
G01*
X132575000Y-117000000D01*
G75*
G02*
X132500000Y-116925000I0J75000D01*
G01*
X132500000Y-115525000D01*
G75*
G02*
X132575000Y-115450000I75000J0D01*
G01*
X132725000Y-115450000D01*
G75*
G02*
X132800000Y-115525000I0J-75000D01*
G01*
G37*
%TD.AperFunction*%
%TO.P,U2,49*%
%TO.N,Net-(U2-Pad49)*%
%TA.AperFunction,SMDPad,CuDef*%
G36*
G01*
X132300000Y-115525000D02*
X132300000Y-116925000D01*
G75*
G02*
X132225000Y-117000000I-75000J0D01*
G01*
X132075000Y-117000000D01*
G75*
G02*
X132000000Y-116925000I0J75000D01*
G01*
X132000000Y-115525000D01*
G75*
G02*
X132075000Y-115450000I75000J0D01*
G01*
X132225000Y-115450000D01*
G75*
G02*
X132300000Y-115525000I0J-75000D01*
G01*
G37*
%TD.AperFunction*%
%TO.P,U2,48*%
%TO.N,/3v3_2*%
%TA.AperFunction,SMDPad,CuDef*%
G36*
G01*
X131000000Y-114225000D02*
X131000000Y-114375000D01*
G75*
G02*
X130925000Y-114450000I-75000J0D01*
G01*
X129525000Y-114450000D01*
G75*
G02*
X129450000Y-114375000I0J75000D01*
G01*
X129450000Y-114225000D01*
G75*
G02*
X129525000Y-114150000I75000J0D01*
G01*
X130925000Y-114150000D01*
G75*
G02*
X131000000Y-114225000I0J-75000D01*
G01*
G37*
%TD.AperFunction*%
%TO.P,U2,47*%
%TO.N,Net-(C15-Pad2)*%
%TA.AperFunction,SMDPad,CuDef*%
G36*
G01*
X131000000Y-113725000D02*
X131000000Y-113875000D01*
G75*
G02*
X130925000Y-113950000I-75000J0D01*
G01*
X129525000Y-113950000D01*
G75*
G02*
X129450000Y-113875000I0J75000D01*
G01*
X129450000Y-113725000D01*
G75*
G02*
X129525000Y-113650000I75000J0D01*
G01*
X130925000Y-113650000D01*
G75*
G02*
X131000000Y-113725000I0J-75000D01*
G01*
G37*
%TD.AperFunction*%
%TO.P,U2,46*%
%TO.N,Net-(U2-Pad46)*%
%TA.AperFunction,SMDPad,CuDef*%
G36*
G01*
X131000000Y-113225000D02*
X131000000Y-113375000D01*
G75*
G02*
X130925000Y-113450000I-75000J0D01*
G01*
X129525000Y-113450000D01*
G75*
G02*
X129450000Y-113375000I0J75000D01*
G01*
X129450000Y-113225000D01*
G75*
G02*
X129525000Y-113150000I75000J0D01*
G01*
X130925000Y-113150000D01*
G75*
G02*
X131000000Y-113225000I0J-75000D01*
G01*
G37*
%TD.AperFunction*%
%TO.P,U2,45*%
%TO.N,/DP*%
%TA.AperFunction,SMDPad,CuDef*%
G36*
G01*
X131000000Y-112725000D02*
X131000000Y-112875000D01*
G75*
G02*
X130925000Y-112950000I-75000J0D01*
G01*
X129525000Y-112950000D01*
G75*
G02*
X129450000Y-112875000I0J75000D01*
G01*
X129450000Y-112725000D01*
G75*
G02*
X129525000Y-112650000I75000J0D01*
G01*
X130925000Y-112650000D01*
G75*
G02*
X131000000Y-112725000I0J-75000D01*
G01*
G37*
%TD.AperFunction*%
%TO.P,U2,44*%
%TO.N,/DM*%
%TA.AperFunction,SMDPad,CuDef*%
G36*
G01*
X131000000Y-112225000D02*
X131000000Y-112375000D01*
G75*
G02*
X130925000Y-112450000I-75000J0D01*
G01*
X129525000Y-112450000D01*
G75*
G02*
X129450000Y-112375000I0J75000D01*
G01*
X129450000Y-112225000D01*
G75*
G02*
X129525000Y-112150000I75000J0D01*
G01*
X130925000Y-112150000D01*
G75*
G02*
X131000000Y-112225000I0J-75000D01*
G01*
G37*
%TD.AperFunction*%
%TO.P,U2,43*%
%TO.N,Net-(R15-Pad1)*%
%TA.AperFunction,SMDPad,CuDef*%
G36*
G01*
X131000000Y-111725000D02*
X131000000Y-111875000D01*
G75*
G02*
X130925000Y-111950000I-75000J0D01*
G01*
X129525000Y-111950000D01*
G75*
G02*
X129450000Y-111875000I0J75000D01*
G01*
X129450000Y-111725000D01*
G75*
G02*
X129525000Y-111650000I75000J0D01*
G01*
X130925000Y-111650000D01*
G75*
G02*
X131000000Y-111725000I0J-75000D01*
G01*
G37*
%TD.AperFunction*%
%TO.P,U2,42*%
%TO.N,Net-(R14-Pad1)*%
%TA.AperFunction,SMDPad,CuDef*%
G36*
G01*
X131000000Y-111225000D02*
X131000000Y-111375000D01*
G75*
G02*
X130925000Y-111450000I-75000J0D01*
G01*
X129525000Y-111450000D01*
G75*
G02*
X129450000Y-111375000I0J75000D01*
G01*
X129450000Y-111225000D01*
G75*
G02*
X129525000Y-111150000I75000J0D01*
G01*
X130925000Y-111150000D01*
G75*
G02*
X131000000Y-111225000I0J-75000D01*
G01*
G37*
%TD.AperFunction*%
%TO.P,U2,41*%
%TO.N,Net-(R13-Pad1)*%
%TA.AperFunction,SMDPad,CuDef*%
G36*
G01*
X131000000Y-110725000D02*
X131000000Y-110875000D01*
G75*
G02*
X130925000Y-110950000I-75000J0D01*
G01*
X129525000Y-110950000D01*
G75*
G02*
X129450000Y-110875000I0J75000D01*
G01*
X129450000Y-110725000D01*
G75*
G02*
X129525000Y-110650000I75000J0D01*
G01*
X130925000Y-110650000D01*
G75*
G02*
X131000000Y-110725000I0J-75000D01*
G01*
G37*
%TD.AperFunction*%
%TO.P,U2,40*%
%TO.N,Net-(U2-Pad40)*%
%TA.AperFunction,SMDPad,CuDef*%
G36*
G01*
X131000000Y-110225000D02*
X131000000Y-110375000D01*
G75*
G02*
X130925000Y-110450000I-75000J0D01*
G01*
X129525000Y-110450000D01*
G75*
G02*
X129450000Y-110375000I0J75000D01*
G01*
X129450000Y-110225000D01*
G75*
G02*
X129525000Y-110150000I75000J0D01*
G01*
X130925000Y-110150000D01*
G75*
G02*
X131000000Y-110225000I0J-75000D01*
G01*
G37*
%TD.AperFunction*%
%TO.P,U2,39*%
%TO.N,Net-(U2-Pad39)*%
%TA.AperFunction,SMDPad,CuDef*%
G36*
G01*
X131000000Y-109725000D02*
X131000000Y-109875000D01*
G75*
G02*
X130925000Y-109950000I-75000J0D01*
G01*
X129525000Y-109950000D01*
G75*
G02*
X129450000Y-109875000I0J75000D01*
G01*
X129450000Y-109725000D01*
G75*
G02*
X129525000Y-109650000I75000J0D01*
G01*
X130925000Y-109650000D01*
G75*
G02*
X131000000Y-109725000I0J-75000D01*
G01*
G37*
%TD.AperFunction*%
%TO.P,U2,38*%
%TO.N,Net-(U2-Pad38)*%
%TA.AperFunction,SMDPad,CuDef*%
G36*
G01*
X131000000Y-109225000D02*
X131000000Y-109375000D01*
G75*
G02*
X130925000Y-109450000I-75000J0D01*
G01*
X129525000Y-109450000D01*
G75*
G02*
X129450000Y-109375000I0J75000D01*
G01*
X129450000Y-109225000D01*
G75*
G02*
X129525000Y-109150000I75000J0D01*
G01*
X130925000Y-109150000D01*
G75*
G02*
X131000000Y-109225000I0J-75000D01*
G01*
G37*
%TD.AperFunction*%
%TO.P,U2,37*%
%TO.N,Net-(U2-Pad37)*%
%TA.AperFunction,SMDPad,CuDef*%
G36*
G01*
X131000000Y-108725000D02*
X131000000Y-108875000D01*
G75*
G02*
X130925000Y-108950000I-75000J0D01*
G01*
X129525000Y-108950000D01*
G75*
G02*
X129450000Y-108875000I0J75000D01*
G01*
X129450000Y-108725000D01*
G75*
G02*
X129525000Y-108650000I75000J0D01*
G01*
X130925000Y-108650000D01*
G75*
G02*
X131000000Y-108725000I0J-75000D01*
G01*
G37*
%TD.AperFunction*%
%TO.P,U2,36*%
%TO.N,Net-(U2-Pad36)*%
%TA.AperFunction,SMDPad,CuDef*%
G36*
G01*
X131000000Y-108225000D02*
X131000000Y-108375000D01*
G75*
G02*
X130925000Y-108450000I-75000J0D01*
G01*
X129525000Y-108450000D01*
G75*
G02*
X129450000Y-108375000I0J75000D01*
G01*
X129450000Y-108225000D01*
G75*
G02*
X129525000Y-108150000I75000J0D01*
G01*
X130925000Y-108150000D01*
G75*
G02*
X131000000Y-108225000I0J-75000D01*
G01*
G37*
%TD.AperFunction*%
%TO.P,U2,35*%
%TO.N,Net-(U2-Pad35)*%
%TA.AperFunction,SMDPad,CuDef*%
G36*
G01*
X131000000Y-107725000D02*
X131000000Y-107875000D01*
G75*
G02*
X130925000Y-107950000I-75000J0D01*
G01*
X129525000Y-107950000D01*
G75*
G02*
X129450000Y-107875000I0J75000D01*
G01*
X129450000Y-107725000D01*
G75*
G02*
X129525000Y-107650000I75000J0D01*
G01*
X130925000Y-107650000D01*
G75*
G02*
X131000000Y-107725000I0J-75000D01*
G01*
G37*
%TD.AperFunction*%
%TO.P,U2,34*%
%TO.N,Net-(U2-Pad34)*%
%TA.AperFunction,SMDPad,CuDef*%
G36*
G01*
X131000000Y-107225000D02*
X131000000Y-107375000D01*
G75*
G02*
X130925000Y-107450000I-75000J0D01*
G01*
X129525000Y-107450000D01*
G75*
G02*
X129450000Y-107375000I0J75000D01*
G01*
X129450000Y-107225000D01*
G75*
G02*
X129525000Y-107150000I75000J0D01*
G01*
X130925000Y-107150000D01*
G75*
G02*
X131000000Y-107225000I0J-75000D01*
G01*
G37*
%TD.AperFunction*%
%TO.P,U2,33*%
%TO.N,Net-(U2-Pad33)*%
%TA.AperFunction,SMDPad,CuDef*%
G36*
G01*
X131000000Y-106725000D02*
X131000000Y-106875000D01*
G75*
G02*
X130925000Y-106950000I-75000J0D01*
G01*
X129525000Y-106950000D01*
G75*
G02*
X129450000Y-106875000I0J75000D01*
G01*
X129450000Y-106725000D01*
G75*
G02*
X129525000Y-106650000I75000J0D01*
G01*
X130925000Y-106650000D01*
G75*
G02*
X131000000Y-106725000I0J-75000D01*
G01*
G37*
%TD.AperFunction*%
%TO.P,U2,32*%
%TO.N,/3v3_2*%
%TA.AperFunction,SMDPad,CuDef*%
G36*
G01*
X132300000Y-104175000D02*
X132300000Y-105575000D01*
G75*
G02*
X132225000Y-105650000I-75000J0D01*
G01*
X132075000Y-105650000D01*
G75*
G02*
X132000000Y-105575000I0J75000D01*
G01*
X132000000Y-104175000D01*
G75*
G02*
X132075000Y-104100000I75000J0D01*
G01*
X132225000Y-104100000D01*
G75*
G02*
X132300000Y-104175000I0J-75000D01*
G01*
G37*
%TD.AperFunction*%
%TO.P,U2,31*%
%TO.N,Net-(C12-Pad2)*%
%TA.AperFunction,SMDPad,CuDef*%
G36*
G01*
X132800000Y-104175000D02*
X132800000Y-105575000D01*
G75*
G02*
X132725000Y-105650000I-75000J0D01*
G01*
X132575000Y-105650000D01*
G75*
G02*
X132500000Y-105575000I0J75000D01*
G01*
X132500000Y-104175000D01*
G75*
G02*
X132575000Y-104100000I75000J0D01*
G01*
X132725000Y-104100000D01*
G75*
G02*
X132800000Y-104175000I0J-75000D01*
G01*
G37*
%TD.AperFunction*%
%TO.P,U2,30*%
%TO.N,Net-(R22-Pad1)*%
%TA.AperFunction,SMDPad,CuDef*%
G36*
G01*
X133300000Y-104175000D02*
X133300000Y-105575000D01*
G75*
G02*
X133225000Y-105650000I-75000J0D01*
G01*
X133075000Y-105650000D01*
G75*
G02*
X133000000Y-105575000I0J75000D01*
G01*
X133000000Y-104175000D01*
G75*
G02*
X133075000Y-104100000I75000J0D01*
G01*
X133225000Y-104100000D01*
G75*
G02*
X133300000Y-104175000I0J-75000D01*
G01*
G37*
%TD.AperFunction*%
%TO.P,U2,29*%
%TO.N,Net-(R21-Pad1)*%
%TA.AperFunction,SMDPad,CuDef*%
G36*
G01*
X133800000Y-104175000D02*
X133800000Y-105575000D01*
G75*
G02*
X133725000Y-105650000I-75000J0D01*
G01*
X133575000Y-105650000D01*
G75*
G02*
X133500000Y-105575000I0J75000D01*
G01*
X133500000Y-104175000D01*
G75*
G02*
X133575000Y-104100000I75000J0D01*
G01*
X133725000Y-104100000D01*
G75*
G02*
X133800000Y-104175000I0J-75000D01*
G01*
G37*
%TD.AperFunction*%
%TO.P,U2,28*%
%TO.N,Net-(U2-Pad28)*%
%TA.AperFunction,SMDPad,CuDef*%
G36*
G01*
X134300000Y-104175000D02*
X134300000Y-105575000D01*
G75*
G02*
X134225000Y-105650000I-75000J0D01*
G01*
X134075000Y-105650000D01*
G75*
G02*
X134000000Y-105575000I0J75000D01*
G01*
X134000000Y-104175000D01*
G75*
G02*
X134075000Y-104100000I75000J0D01*
G01*
X134225000Y-104100000D01*
G75*
G02*
X134300000Y-104175000I0J-75000D01*
G01*
G37*
%TD.AperFunction*%
%TO.P,U2,27*%
%TO.N,Net-(R19-Pad1)*%
%TA.AperFunction,SMDPad,CuDef*%
G36*
G01*
X134800000Y-104175000D02*
X134800000Y-105575000D01*
G75*
G02*
X134725000Y-105650000I-75000J0D01*
G01*
X134575000Y-105650000D01*
G75*
G02*
X134500000Y-105575000I0J75000D01*
G01*
X134500000Y-104175000D01*
G75*
G02*
X134575000Y-104100000I75000J0D01*
G01*
X134725000Y-104100000D01*
G75*
G02*
X134800000Y-104175000I0J-75000D01*
G01*
G37*
%TD.AperFunction*%
%TO.P,U2,26*%
%TO.N,Net-(R18-Pad1)*%
%TA.AperFunction,SMDPad,CuDef*%
G36*
G01*
X135300000Y-104175000D02*
X135300000Y-105575000D01*
G75*
G02*
X135225000Y-105650000I-75000J0D01*
G01*
X135075000Y-105650000D01*
G75*
G02*
X135000000Y-105575000I0J75000D01*
G01*
X135000000Y-104175000D01*
G75*
G02*
X135075000Y-104100000I75000J0D01*
G01*
X135225000Y-104100000D01*
G75*
G02*
X135300000Y-104175000I0J-75000D01*
G01*
G37*
%TD.AperFunction*%
%TO.P,U2,25*%
%TO.N,Net-(U2-Pad25)*%
%TA.AperFunction,SMDPad,CuDef*%
G36*
G01*
X135800000Y-104175000D02*
X135800000Y-105575000D01*
G75*
G02*
X135725000Y-105650000I-75000J0D01*
G01*
X135575000Y-105650000D01*
G75*
G02*
X135500000Y-105575000I0J75000D01*
G01*
X135500000Y-104175000D01*
G75*
G02*
X135575000Y-104100000I75000J0D01*
G01*
X135725000Y-104100000D01*
G75*
G02*
X135800000Y-104175000I0J-75000D01*
G01*
G37*
%TD.AperFunction*%
%TO.P,U2,24*%
%TO.N,Net-(U2-Pad24)*%
%TA.AperFunction,SMDPad,CuDef*%
G36*
G01*
X136300000Y-104175000D02*
X136300000Y-105575000D01*
G75*
G02*
X136225000Y-105650000I-75000J0D01*
G01*
X136075000Y-105650000D01*
G75*
G02*
X136000000Y-105575000I0J75000D01*
G01*
X136000000Y-104175000D01*
G75*
G02*
X136075000Y-104100000I75000J0D01*
G01*
X136225000Y-104100000D01*
G75*
G02*
X136300000Y-104175000I0J-75000D01*
G01*
G37*
%TD.AperFunction*%
%TO.P,U2,23*%
%TO.N,Net-(R12-Pad1)*%
%TA.AperFunction,SMDPad,CuDef*%
G36*
G01*
X136800000Y-104175000D02*
X136800000Y-105575000D01*
G75*
G02*
X136725000Y-105650000I-75000J0D01*
G01*
X136575000Y-105650000D01*
G75*
G02*
X136500000Y-105575000I0J75000D01*
G01*
X136500000Y-104175000D01*
G75*
G02*
X136575000Y-104100000I75000J0D01*
G01*
X136725000Y-104100000D01*
G75*
G02*
X136800000Y-104175000I0J-75000D01*
G01*
G37*
%TD.AperFunction*%
%TO.P,U2,22*%
%TO.N,Net-(R11-Pad1)*%
%TA.AperFunction,SMDPad,CuDef*%
G36*
G01*
X137300000Y-104175000D02*
X137300000Y-105575000D01*
G75*
G02*
X137225000Y-105650000I-75000J0D01*
G01*
X137075000Y-105650000D01*
G75*
G02*
X137000000Y-105575000I0J75000D01*
G01*
X137000000Y-104175000D01*
G75*
G02*
X137075000Y-104100000I75000J0D01*
G01*
X137225000Y-104100000D01*
G75*
G02*
X137300000Y-104175000I0J-75000D01*
G01*
G37*
%TD.AperFunction*%
%TO.P,U2,21*%
%TO.N,Net-(U2-Pad21)*%
%TA.AperFunction,SMDPad,CuDef*%
G36*
G01*
X137800000Y-104175000D02*
X137800000Y-105575000D01*
G75*
G02*
X137725000Y-105650000I-75000J0D01*
G01*
X137575000Y-105650000D01*
G75*
G02*
X137500000Y-105575000I0J75000D01*
G01*
X137500000Y-104175000D01*
G75*
G02*
X137575000Y-104100000I75000J0D01*
G01*
X137725000Y-104100000D01*
G75*
G02*
X137800000Y-104175000I0J-75000D01*
G01*
G37*
%TD.AperFunction*%
%TO.P,U2,20*%
%TO.N,Net-(R10-Pad1)*%
%TA.AperFunction,SMDPad,CuDef*%
G36*
G01*
X138300000Y-104175000D02*
X138300000Y-105575000D01*
G75*
G02*
X138225000Y-105650000I-75000J0D01*
G01*
X138075000Y-105650000D01*
G75*
G02*
X138000000Y-105575000I0J75000D01*
G01*
X138000000Y-104175000D01*
G75*
G02*
X138075000Y-104100000I75000J0D01*
G01*
X138225000Y-104100000D01*
G75*
G02*
X138300000Y-104175000I0J-75000D01*
G01*
G37*
%TD.AperFunction*%
%TO.P,U2,19*%
%TO.N,/3v3_2*%
%TA.AperFunction,SMDPad,CuDef*%
G36*
G01*
X138800000Y-104175000D02*
X138800000Y-105575000D01*
G75*
G02*
X138725000Y-105650000I-75000J0D01*
G01*
X138575000Y-105650000D01*
G75*
G02*
X138500000Y-105575000I0J75000D01*
G01*
X138500000Y-104175000D01*
G75*
G02*
X138575000Y-104100000I75000J0D01*
G01*
X138725000Y-104100000D01*
G75*
G02*
X138800000Y-104175000I0J-75000D01*
G01*
G37*
%TD.AperFunction*%
%TO.P,U2,18*%
%TO.N,GND*%
%TA.AperFunction,SMDPad,CuDef*%
G36*
G01*
X139300000Y-104175000D02*
X139300000Y-105575000D01*
G75*
G02*
X139225000Y-105650000I-75000J0D01*
G01*
X139075000Y-105650000D01*
G75*
G02*
X139000000Y-105575000I0J75000D01*
G01*
X139000000Y-104175000D01*
G75*
G02*
X139075000Y-104100000I75000J0D01*
G01*
X139225000Y-104100000D01*
G75*
G02*
X139300000Y-104175000I0J-75000D01*
G01*
G37*
%TD.AperFunction*%
%TO.P,U2,17*%
%TO.N,Net-(R9-Pad1)*%
%TA.AperFunction,SMDPad,CuDef*%
G36*
G01*
X139800000Y-104175000D02*
X139800000Y-105575000D01*
G75*
G02*
X139725000Y-105650000I-75000J0D01*
G01*
X139575000Y-105650000D01*
G75*
G02*
X139500000Y-105575000I0J75000D01*
G01*
X139500000Y-104175000D01*
G75*
G02*
X139575000Y-104100000I75000J0D01*
G01*
X139725000Y-104100000D01*
G75*
G02*
X139800000Y-104175000I0J-75000D01*
G01*
G37*
%TD.AperFunction*%
%TO.P,U2,16*%
%TO.N,Net-(R8-Pad1)*%
%TA.AperFunction,SMDPad,CuDef*%
G36*
G01*
X142350000Y-106725000D02*
X142350000Y-106875000D01*
G75*
G02*
X142275000Y-106950000I-75000J0D01*
G01*
X140875000Y-106950000D01*
G75*
G02*
X140800000Y-106875000I0J75000D01*
G01*
X140800000Y-106725000D01*
G75*
G02*
X140875000Y-106650000I75000J0D01*
G01*
X142275000Y-106650000D01*
G75*
G02*
X142350000Y-106725000I0J-75000D01*
G01*
G37*
%TD.AperFunction*%
%TO.P,U2,15*%
%TO.N,Net-(R7-Pad1)*%
%TA.AperFunction,SMDPad,CuDef*%
G36*
G01*
X142350000Y-107225000D02*
X142350000Y-107375000D01*
G75*
G02*
X142275000Y-107450000I-75000J0D01*
G01*
X140875000Y-107450000D01*
G75*
G02*
X140800000Y-107375000I0J75000D01*
G01*
X140800000Y-107225000D01*
G75*
G02*
X140875000Y-107150000I75000J0D01*
G01*
X142275000Y-107150000D01*
G75*
G02*
X142350000Y-107225000I0J-75000D01*
G01*
G37*
%TD.AperFunction*%
%TO.P,U2,14*%
%TO.N,Net-(R6-Pad1)*%
%TA.AperFunction,SMDPad,CuDef*%
G36*
G01*
X142350000Y-107725000D02*
X142350000Y-107875000D01*
G75*
G02*
X142275000Y-107950000I-75000J0D01*
G01*
X140875000Y-107950000D01*
G75*
G02*
X140800000Y-107875000I0J75000D01*
G01*
X140800000Y-107725000D01*
G75*
G02*
X140875000Y-107650000I75000J0D01*
G01*
X142275000Y-107650000D01*
G75*
G02*
X142350000Y-107725000I0J-75000D01*
G01*
G37*
%TD.AperFunction*%
%TO.P,U2,13*%
%TO.N,/3v3_2*%
%TA.AperFunction,SMDPad,CuDef*%
G36*
G01*
X142350000Y-108225000D02*
X142350000Y-108375000D01*
G75*
G02*
X142275000Y-108450000I-75000J0D01*
G01*
X140875000Y-108450000D01*
G75*
G02*
X140800000Y-108375000I0J75000D01*
G01*
X140800000Y-108225000D01*
G75*
G02*
X140875000Y-108150000I75000J0D01*
G01*
X142275000Y-108150000D01*
G75*
G02*
X142350000Y-108225000I0J-75000D01*
G01*
G37*
%TD.AperFunction*%
%TO.P,U2,12*%
%TO.N,GND*%
%TA.AperFunction,SMDPad,CuDef*%
G36*
G01*
X142350000Y-108725000D02*
X142350000Y-108875000D01*
G75*
G02*
X142275000Y-108950000I-75000J0D01*
G01*
X140875000Y-108950000D01*
G75*
G02*
X140800000Y-108875000I0J75000D01*
G01*
X140800000Y-108725000D01*
G75*
G02*
X140875000Y-108650000I75000J0D01*
G01*
X142275000Y-108650000D01*
G75*
G02*
X142350000Y-108725000I0J-75000D01*
G01*
G37*
%TD.AperFunction*%
%TO.P,U2,11*%
%TO.N,Net-(U2-Pad11)*%
%TA.AperFunction,SMDPad,CuDef*%
G36*
G01*
X142350000Y-109225000D02*
X142350000Y-109375000D01*
G75*
G02*
X142275000Y-109450000I-75000J0D01*
G01*
X140875000Y-109450000D01*
G75*
G02*
X140800000Y-109375000I0J75000D01*
G01*
X140800000Y-109225000D01*
G75*
G02*
X140875000Y-109150000I75000J0D01*
G01*
X142275000Y-109150000D01*
G75*
G02*
X142350000Y-109225000I0J-75000D01*
G01*
G37*
%TD.AperFunction*%
%TO.P,U2,10*%
%TO.N,Net-(U2-Pad10)*%
%TA.AperFunction,SMDPad,CuDef*%
G36*
G01*
X142350000Y-109725000D02*
X142350000Y-109875000D01*
G75*
G02*
X142275000Y-109950000I-75000J0D01*
G01*
X140875000Y-109950000D01*
G75*
G02*
X140800000Y-109875000I0J75000D01*
G01*
X140800000Y-109725000D01*
G75*
G02*
X140875000Y-109650000I75000J0D01*
G01*
X142275000Y-109650000D01*
G75*
G02*
X142350000Y-109725000I0J-75000D01*
G01*
G37*
%TD.AperFunction*%
%TO.P,U2,9*%
%TO.N,Net-(U2-Pad9)*%
%TA.AperFunction,SMDPad,CuDef*%
G36*
G01*
X142350000Y-110225000D02*
X142350000Y-110375000D01*
G75*
G02*
X142275000Y-110450000I-75000J0D01*
G01*
X140875000Y-110450000D01*
G75*
G02*
X140800000Y-110375000I0J75000D01*
G01*
X140800000Y-110225000D01*
G75*
G02*
X140875000Y-110150000I75000J0D01*
G01*
X142275000Y-110150000D01*
G75*
G02*
X142350000Y-110225000I0J-75000D01*
G01*
G37*
%TD.AperFunction*%
%TO.P,U2,8*%
%TO.N,Net-(U2-Pad8)*%
%TA.AperFunction,SMDPad,CuDef*%
G36*
G01*
X142350000Y-110725000D02*
X142350000Y-110875000D01*
G75*
G02*
X142275000Y-110950000I-75000J0D01*
G01*
X140875000Y-110950000D01*
G75*
G02*
X140800000Y-110875000I0J75000D01*
G01*
X140800000Y-110725000D01*
G75*
G02*
X140875000Y-110650000I75000J0D01*
G01*
X142275000Y-110650000D01*
G75*
G02*
X142350000Y-110725000I0J-75000D01*
G01*
G37*
%TD.AperFunction*%
%TO.P,U2,7*%
%TO.N,Net-(R4-Pad2)*%
%TA.AperFunction,SMDPad,CuDef*%
G36*
G01*
X142350000Y-111225000D02*
X142350000Y-111375000D01*
G75*
G02*
X142275000Y-111450000I-75000J0D01*
G01*
X140875000Y-111450000D01*
G75*
G02*
X140800000Y-111375000I0J75000D01*
G01*
X140800000Y-111225000D01*
G75*
G02*
X140875000Y-111150000I75000J0D01*
G01*
X142275000Y-111150000D01*
G75*
G02*
X142350000Y-111225000I0J-75000D01*
G01*
G37*
%TD.AperFunction*%
%TO.P,U2,6*%
%TO.N,Net-(C9-Pad2)*%
%TA.AperFunction,SMDPad,CuDef*%
G36*
G01*
X142350000Y-111725000D02*
X142350000Y-111875000D01*
G75*
G02*
X142275000Y-111950000I-75000J0D01*
G01*
X140875000Y-111950000D01*
G75*
G02*
X140800000Y-111875000I0J75000D01*
G01*
X140800000Y-111725000D01*
G75*
G02*
X140875000Y-111650000I75000J0D01*
G01*
X142275000Y-111650000D01*
G75*
G02*
X142350000Y-111725000I0J-75000D01*
G01*
G37*
%TD.AperFunction*%
%TO.P,U2,5*%
%TO.N,Net-(C8-Pad2)*%
%TA.AperFunction,SMDPad,CuDef*%
G36*
G01*
X142350000Y-112225000D02*
X142350000Y-112375000D01*
G75*
G02*
X142275000Y-112450000I-75000J0D01*
G01*
X140875000Y-112450000D01*
G75*
G02*
X140800000Y-112375000I0J75000D01*
G01*
X140800000Y-112225000D01*
G75*
G02*
X140875000Y-112150000I75000J0D01*
G01*
X142275000Y-112150000D01*
G75*
G02*
X142350000Y-112225000I0J-75000D01*
G01*
G37*
%TD.AperFunction*%
%TO.P,U2,4*%
%TO.N,Net-(U2-Pad4)*%
%TA.AperFunction,SMDPad,CuDef*%
G36*
G01*
X142350000Y-112725000D02*
X142350000Y-112875000D01*
G75*
G02*
X142275000Y-112950000I-75000J0D01*
G01*
X140875000Y-112950000D01*
G75*
G02*
X140800000Y-112875000I0J75000D01*
G01*
X140800000Y-112725000D01*
G75*
G02*
X140875000Y-112650000I75000J0D01*
G01*
X142275000Y-112650000D01*
G75*
G02*
X142350000Y-112725000I0J-75000D01*
G01*
G37*
%TD.AperFunction*%
%TO.P,U2,3*%
%TO.N,Net-(U2-Pad3)*%
%TA.AperFunction,SMDPad,CuDef*%
G36*
G01*
X142350000Y-113225000D02*
X142350000Y-113375000D01*
G75*
G02*
X142275000Y-113450000I-75000J0D01*
G01*
X140875000Y-113450000D01*
G75*
G02*
X140800000Y-113375000I0J75000D01*
G01*
X140800000Y-113225000D01*
G75*
G02*
X140875000Y-113150000I75000J0D01*
G01*
X142275000Y-113150000D01*
G75*
G02*
X142350000Y-113225000I0J-75000D01*
G01*
G37*
%TD.AperFunction*%
%TO.P,U2,2*%
%TO.N,Net-(U2-Pad2)*%
%TA.AperFunction,SMDPad,CuDef*%
G36*
G01*
X142350000Y-113725000D02*
X142350000Y-113875000D01*
G75*
G02*
X142275000Y-113950000I-75000J0D01*
G01*
X140875000Y-113950000D01*
G75*
G02*
X140800000Y-113875000I0J75000D01*
G01*
X140800000Y-113725000D01*
G75*
G02*
X140875000Y-113650000I75000J0D01*
G01*
X142275000Y-113650000D01*
G75*
G02*
X142350000Y-113725000I0J-75000D01*
G01*
G37*
%TD.AperFunction*%
%TO.P,U2,1*%
%TO.N,/3v3_2*%
%TA.AperFunction,SMDPad,CuDef*%
G36*
G01*
X142350000Y-114225000D02*
X142350000Y-114375000D01*
G75*
G02*
X142275000Y-114450000I-75000J0D01*
G01*
X140875000Y-114450000D01*
G75*
G02*
X140800000Y-114375000I0J75000D01*
G01*
X140800000Y-114225000D01*
G75*
G02*
X140875000Y-114150000I75000J0D01*
G01*
X142275000Y-114150000D01*
G75*
G02*
X142350000Y-114225000I0J-75000D01*
G01*
G37*
%TD.AperFunction*%
%TD*%
D16*
%TO.P,R23,2*%
%TO.N,/ADC_in*%
X151150000Y-105570000D03*
%TO.P,R23,1*%
%TO.N,/3v3_1*%
X151150000Y-104030000D03*
%TD*%
D17*
%TO.P,R21,2*%
%TO.N,/M*%
X133600000Y-101175000D03*
%TO.P,R21,1*%
%TO.N,Net-(R21-Pad1)*%
X133600000Y-102025000D03*
%TD*%
%TO.P,R20,2*%
%TO.N,/M*%
X135200000Y-120225000D03*
%TO.P,R20,1*%
%TO.N,Net-(R20-Pad1)*%
X135200000Y-119375000D03*
%TD*%
%TO.P,R18,2*%
%TO.N,/SH*%
X135200000Y-101175000D03*
%TO.P,R18,1*%
%TO.N,Net-(R18-Pad1)*%
X135200000Y-102025000D03*
%TD*%
%TO.P,R17,2*%
%TO.N,/M*%
X132600000Y-120225000D03*
%TO.P,R17,1*%
%TO.N,Net-(R17-Pad1)*%
X132600000Y-119375000D03*
%TD*%
%TA.AperFunction,SMDPad,CuDef*%
D11*
%TO.P,R15,2*%
%TO.N,/ICG*%
G36*
X125681802Y-113058578D02*
G01*
X126141422Y-113518198D01*
X125717158Y-113942462D01*
X125257538Y-113482842D01*
X125681802Y-113058578D01*
G37*
%TD.AperFunction*%
%TA.AperFunction,SMDPad,CuDef*%
%TO.P,R15,1*%
%TO.N,Net-(R15-Pad1)*%
G36*
X126282842Y-112457538D02*
G01*
X126742462Y-112917158D01*
X126318198Y-113341422D01*
X125858578Y-112881802D01*
X126282842Y-112457538D01*
G37*
%TD.AperFunction*%
%TD*%
D18*
%TO.P,R14,2*%
%TO.N,/ICG*%
X124575000Y-111200000D03*
%TO.P,R14,1*%
%TO.N,Net-(R14-Pad1)*%
X125425000Y-111200000D03*
%TD*%
%TA.AperFunction,SMDPad,CuDef*%
D11*
%TO.P,R13,2*%
%TO.N,/ICG*%
G36*
X126141422Y-108881802D02*
G01*
X125681802Y-109341422D01*
X125257538Y-108917158D01*
X125717158Y-108457538D01*
X126141422Y-108881802D01*
G37*
%TD.AperFunction*%
%TA.AperFunction,SMDPad,CuDef*%
%TO.P,R13,1*%
%TO.N,Net-(R13-Pad1)*%
G36*
X126742462Y-109482842D02*
G01*
X126282842Y-109942462D01*
X125858578Y-109518198D01*
X126318198Y-109058578D01*
X126742462Y-109482842D01*
G37*
%TD.AperFunction*%
%TD*%
D17*
%TO.P,R12,2*%
%TO.N,/SH*%
X136600000Y-101175000D03*
%TO.P,R12,1*%
%TO.N,Net-(R12-Pad1)*%
X136600000Y-102025000D03*
%TD*%
%TO.P,R10,2*%
%TO.N,/ADC_in*%
X138150000Y-101125000D03*
%TO.P,R10,1*%
%TO.N,Net-(R10-Pad1)*%
X138150000Y-101975000D03*
%TD*%
%TO.P,R9,2*%
%TO.N,/ADC_in*%
X139650000Y-101125000D03*
%TO.P,R9,1*%
%TO.N,Net-(R9-Pad1)*%
X139650000Y-101975000D03*
%TD*%
%TA.AperFunction,SMDPad,CuDef*%
D11*
%TO.P,R8,2*%
%TO.N,/ADC_in*%
G36*
X145970618Y-105435847D02*
G01*
X145503047Y-104984319D01*
X145919842Y-104552715D01*
X146387413Y-105004243D01*
X145970618Y-105435847D01*
G37*
%TD.AperFunction*%
%TA.AperFunction,SMDPad,CuDef*%
%TO.P,R8,1*%
%TO.N,Net-(R8-Pad1)*%
G36*
X145380158Y-106047285D02*
G01*
X144912587Y-105595757D01*
X145329382Y-105164153D01*
X145796953Y-105615681D01*
X145380158Y-106047285D01*
G37*
%TD.AperFunction*%
%TD*%
D18*
%TO.P,R7,2*%
%TO.N,/ADC_in*%
X147075000Y-107300000D03*
%TO.P,R7,1*%
%TO.N,Net-(R7-Pad1)*%
X146225000Y-107300000D03*
%TD*%
%TA.AperFunction,SMDPad,CuDef*%
D11*
%TO.P,R6,2*%
%TO.N,/ADC_in*%
G36*
X145508578Y-109618198D02*
G01*
X145968198Y-109158578D01*
X146392462Y-109582842D01*
X145932842Y-110042462D01*
X145508578Y-109618198D01*
G37*
%TD.AperFunction*%
%TA.AperFunction,SMDPad,CuDef*%
%TO.P,R6,1*%
%TO.N,Net-(R6-Pad1)*%
G36*
X144907538Y-109017158D02*
G01*
X145367158Y-108557538D01*
X145791422Y-108981802D01*
X145331802Y-109441422D01*
X144907538Y-109017158D01*
G37*
%TD.AperFunction*%
%TD*%
D18*
%TO.P,R4,2*%
%TO.N,Net-(R4-Pad2)*%
X144175000Y-111300000D03*
%TO.P,R4,1*%
%TO.N,GND*%
X145025000Y-111300000D03*
%TD*%
D19*
%TO.P,R3,2*%
%TO.N,Net-(R3-Pad2)*%
X137650000Y-119860000D03*
%TO.P,R3,1*%
%TO.N,GND*%
X139190000Y-119860000D03*
%TD*%
%TO.P,R2,2*%
%TO.N,GND*%
X153670000Y-112050000D03*
%TO.P,R2,1*%
%TO.N,Net-(R2-Pad1)*%
X152130000Y-112050000D03*
%TD*%
%TO.P,R1,2*%
%TO.N,Net-(R1-Pad2)*%
X153130000Y-105300000D03*
%TO.P,R1,1*%
%TO.N,Net-(IC1-Pad21)*%
X154670000Y-105300000D03*
%TD*%
D20*
%TO.P,PS1,1*%
%TO.N,/3v3_1*%
X142240000Y-91900000D03*
%TO.P,PS1,2*%
%TO.N,GND*%
X142240000Y-90950000D03*
%TO.P,PS1,3*%
%TO.N,VCC*%
X142240000Y-90000000D03*
%TO.P,PS1,4*%
X139640000Y-90000000D03*
%TO.P,PS1,5*%
X139640000Y-90950000D03*
%TO.P,PS1,6*%
%TO.N,/3v3_2*%
X139640000Y-91900000D03*
%TD*%
D21*
%TO.P,IC1,1*%
%TO.N,/3v3_1*%
X168460000Y-113440000D03*
D22*
%TO.P,IC1,2*%
X168460000Y-110900000D03*
%TO.P,IC1,3*%
%TO.N,Net-(IC1-Pad3)*%
X168460000Y-108360000D03*
%TO.P,IC1,4*%
%TO.N,Net-(IC1-Pad4)*%
X168460000Y-105820000D03*
%TO.P,IC1,5*%
%TO.N,Net-(IC1-Pad5)*%
X168460000Y-103280000D03*
%TO.P,IC1,6*%
%TO.N,GND*%
X168460000Y-100740000D03*
%TO.P,IC1,7*%
X168460000Y-98200000D03*
%TO.P,IC1,8*%
X168460000Y-95660000D03*
%TO.P,IC1,9*%
X168460000Y-93120000D03*
%TO.P,IC1,10*%
X168460000Y-90580000D03*
%TO.P,IC1,11*%
X168460000Y-88040000D03*
%TO.P,IC1,12*%
X158300000Y-88040000D03*
%TO.P,IC1,13*%
X158300000Y-90580000D03*
%TO.P,IC1,14*%
X158300000Y-93120000D03*
%TO.P,IC1,15*%
X158300000Y-95660000D03*
%TO.P,IC1,16*%
X158300000Y-98200000D03*
%TO.P,IC1,17*%
X158300000Y-100740000D03*
%TO.P,IC1,18*%
X158300000Y-103280000D03*
%TO.P,IC1,19*%
X158300000Y-105820000D03*
%TO.P,IC1,20*%
X158300000Y-108360000D03*
%TO.P,IC1,21*%
%TO.N,Net-(IC1-Pad21)*%
X158300000Y-110900000D03*
%TO.P,IC1,22*%
%TO.N,GND*%
X158300000Y-113440000D03*
%TD*%
%TA.AperFunction,SMDPad,CuDef*%
D11*
%TO.P,C10,2*%
%TO.N,GND*%
G36*
X141088148Y-120239138D02*
G01*
X141936852Y-119749138D01*
X142401852Y-120554542D01*
X141553148Y-121044542D01*
X141088148Y-120239138D01*
G37*
%TD.AperFunction*%
%TA.AperFunction,SMDPad,CuDef*%
%TO.P,C10,1*%
%TO.N,/3v3_2*%
G36*
X140318148Y-118905458D02*
G01*
X141166852Y-118415458D01*
X141631852Y-119220862D01*
X140783148Y-119710862D01*
X140318148Y-118905458D01*
G37*
%TD.AperFunction*%
%TD*%
%TA.AperFunction,SMDPad,CuDef*%
%TO.P,C9,2*%
%TO.N,Net-(C9-Pad2)*%
G36*
X150780862Y-114808148D02*
G01*
X150290862Y-115656852D01*
X149485458Y-115191852D01*
X149975458Y-114343148D01*
X150780862Y-114808148D01*
G37*
%TD.AperFunction*%
%TA.AperFunction,SMDPad,CuDef*%
%TO.P,C9,1*%
%TO.N,GND*%
G36*
X152114542Y-115578148D02*
G01*
X151624542Y-116426852D01*
X150819138Y-115961852D01*
X151309138Y-115113148D01*
X152114542Y-115578148D01*
G37*
%TD.AperFunction*%
%TD*%
%TA.AperFunction,SMDPad,CuDef*%
%TO.P,C8,2*%
%TO.N,Net-(C8-Pad2)*%
G36*
X148580862Y-118423148D02*
G01*
X148090862Y-119271852D01*
X147285458Y-118806852D01*
X147775458Y-117958148D01*
X148580862Y-118423148D01*
G37*
%TD.AperFunction*%
%TA.AperFunction,SMDPad,CuDef*%
%TO.P,C8,1*%
%TO.N,GND*%
G36*
X149914542Y-119193148D02*
G01*
X149424542Y-120041852D01*
X148619138Y-119576852D01*
X149109138Y-118728148D01*
X149914542Y-119193148D01*
G37*
%TD.AperFunction*%
%TD*%
D16*
%TO.P,C4,2*%
%TO.N,GND*%
X137740000Y-89380000D03*
%TO.P,C4,1*%
%TO.N,VCC*%
X137740000Y-90920000D03*
%TD*%
D23*
%TO.N,GND*%
X140780600Y-101989500D03*
X145075000Y-111300000D03*
X144340000Y-87150000D03*
X137880000Y-87160000D03*
%TO.N,/3v3_1*%
X151250000Y-102210000D03*
X142340000Y-93580000D03*
%TO.N,/3v3_2*%
X143180000Y-108527000D03*
X130240000Y-117100000D03*
X141750000Y-115660000D03*
X129880000Y-104880000D03*
X139540000Y-93580000D03*
%TO.N,VCC*%
X143576000Y-86080000D03*
X140930000Y-88930000D03*
%TO.N,Net-(C12-Pad2)*%
X131580300Y-103041900D03*
%TO.N,Net-(C15-Pad2)*%
X127400000Y-113830000D03*
%TO.N,Net-(R4-Pad2)*%
X144190000Y-110080000D03*
%TO.N,/SH*%
X136021500Y-98872300D03*
%TO.N,Net-(R11-Pad1)*%
X137200600Y-103462300D03*
%TO.N,/ICG*%
X128813500Y-107251800D03*
%TO.N,Net-(R16-Pad2)*%
X139420000Y-87160000D03*
%TO.N,/M*%
X134115200Y-98981300D03*
X149578800Y-97901700D03*
%TO.N,Net-(R19-Pad1)*%
X134400000Y-103462500D03*
%TO.N,Net-(R22-Pad1)*%
X132765100Y-102985000D03*
%TO.N,Net-(R24-Pad1)*%
X142800000Y-87150000D03*
%TO.N,/DP*%
X140181800Y-85958800D03*
X126857800Y-106092400D03*
%TO.N,/DM*%
X127583200Y-112650500D03*
X139298100Y-88449800D03*
%TD*%
D24*
%TO.N,GND*%
X140780600Y-101989500D02*
X140780600Y-105121200D01*
X140780600Y-105121200D02*
X139906700Y-105995100D01*
X139906700Y-105995100D02*
X139402100Y-105995100D01*
X139402100Y-105995100D02*
X139150000Y-105743000D01*
X139150000Y-105743000D02*
X139150000Y-104875000D01*
X158300000Y-90580000D02*
X158300000Y-88040000D01*
D25*
X153670000Y-113440000D02*
X153670000Y-112050000D01*
X152263500Y-114973500D02*
X153670000Y-113567000D01*
X153670000Y-113567000D02*
X153670000Y-113440000D01*
D24*
X158300000Y-113440000D02*
X153670000Y-113440000D01*
X151466800Y-115770000D02*
X151800000Y-115192900D01*
X151800000Y-115192900D02*
X151800000Y-115192800D01*
X151800000Y-115192800D02*
X147907200Y-111300000D01*
X147907200Y-111300000D02*
X145075000Y-111300000D01*
X151800000Y-115192900D02*
X151980300Y-114880500D01*
D26*
X144340000Y-87150000D02*
X144340000Y-89858000D01*
X144340000Y-89858000D02*
X143248000Y-90950000D01*
X143248000Y-90950000D02*
X142240000Y-90950000D01*
D24*
X152263500Y-114973500D02*
X152073300Y-114973500D01*
X152073300Y-114973500D02*
X151980300Y-114880500D01*
D25*
X149267000Y-118811200D02*
X149267000Y-117970000D01*
X149267000Y-117970000D02*
X152263500Y-114973500D01*
D24*
X149267000Y-118811200D02*
X149266800Y-118811400D01*
X149266800Y-118811400D02*
X149266800Y-119385000D01*
D25*
X149267000Y-119385000D02*
X149267000Y-118811200D01*
D24*
X137849000Y-84354000D02*
X137930000Y-84435000D01*
D27*
X136860000Y-83520000D02*
X137015000Y-83520000D01*
X137015000Y-83520000D02*
X137849000Y-84354000D01*
D24*
X158300000Y-100740000D02*
X158300000Y-98200000D01*
X158300000Y-103280000D02*
X158300000Y-100740000D01*
X145025000Y-111300000D02*
X145075000Y-111300000D01*
X145025000Y-111300000D02*
X145025000Y-109883200D01*
X145025000Y-109883200D02*
X144493100Y-109351300D01*
X144493100Y-109351300D02*
X142973100Y-109351300D01*
X142973100Y-109351300D02*
X142421800Y-108800000D01*
X142421800Y-108800000D02*
X141575000Y-108800000D01*
X168460000Y-95660000D02*
X158300000Y-95660000D01*
X141745000Y-120396800D02*
X142634500Y-119883300D01*
X149266800Y-119385000D02*
X148753300Y-120274500D01*
X148753300Y-120274500D02*
X148753200Y-120274400D01*
X148753200Y-120274400D02*
X143025600Y-120274400D01*
X143025600Y-120274400D02*
X142634500Y-119883300D01*
X139190000Y-119860000D02*
X139190000Y-119044700D01*
X139190000Y-119044700D02*
X139150000Y-119004700D01*
X139150000Y-119004700D02*
X139150000Y-116225000D01*
D25*
X139190000Y-119860000D02*
X139727000Y-120397000D01*
X139727000Y-120397000D02*
X141744800Y-120397000D01*
D24*
X141744800Y-120397000D02*
X141745000Y-120396800D01*
D25*
X141744800Y-120397000D02*
X141745000Y-120397000D01*
D28*
X137930000Y-84435000D02*
X137930000Y-87110000D01*
X137930000Y-87110000D02*
X137880000Y-87160000D01*
D24*
X144430000Y-85747500D02*
X144511000Y-85666500D01*
X144511000Y-85666500D02*
X144511000Y-84435000D01*
D26*
X144430000Y-85747500D02*
X144430000Y-87060000D01*
X144430000Y-87060000D02*
X144340000Y-87150000D01*
X144430000Y-84435000D02*
X144430000Y-85747500D01*
X137880000Y-87160000D02*
X137880000Y-89240000D01*
X137880000Y-89240000D02*
X137740000Y-89380000D01*
X137570000Y-89210000D02*
X137740000Y-89380000D01*
D29*
X136860000Y-79340000D02*
X145500000Y-79340000D01*
X145500000Y-79340000D02*
X145500000Y-83520000D01*
X136860000Y-83520000D02*
X136860000Y-79340000D01*
D27*
X145500000Y-83520000D02*
X145345000Y-83520000D01*
X145345000Y-83520000D02*
X144511000Y-84354000D01*
X144511000Y-84354000D02*
X144511000Y-84435000D01*
D24*
%TO.N,/3v3_1*%
X168460000Y-113440000D02*
X168460000Y-110900000D01*
D25*
X151150000Y-104030000D02*
X151150000Y-102310000D01*
X151150000Y-102310000D02*
X151250000Y-102210000D01*
D26*
X142240000Y-91900000D02*
X142240000Y-93480000D01*
X142240000Y-93480000D02*
X142340000Y-93580000D01*
D24*
%TO.N,/3v3_2*%
X132106500Y-104877500D02*
X132147500Y-104877500D01*
X132147500Y-104877500D02*
X132150000Y-104875000D01*
D28*
X132106500Y-104877500D02*
X132109000Y-104875000D01*
X129880000Y-104880000D02*
X132104000Y-104880000D01*
X132104000Y-104880000D02*
X132106500Y-104877500D01*
D25*
X139650000Y-116225000D02*
X139650000Y-117738000D01*
X139650000Y-117738000D02*
X140975000Y-119063000D01*
D24*
X140975000Y-119063000D02*
X140975000Y-119063200D01*
D25*
X132150000Y-105719000D02*
X132150000Y-104875000D01*
X131069000Y-114300000D02*
X132150000Y-113219000D01*
X132150000Y-113219000D02*
X132150000Y-105719000D01*
X131069000Y-114300000D02*
X130225000Y-114300000D01*
X141575000Y-108300000D02*
X142953000Y-108300000D01*
X142953000Y-108300000D02*
X143180000Y-108527000D01*
X141575000Y-108300000D02*
X140731000Y-108300000D01*
X140731000Y-108300000D02*
X139790000Y-109241000D01*
X139790000Y-109241000D02*
X139790000Y-113359000D01*
X139790000Y-113359000D02*
X140731000Y-114300000D01*
X139650000Y-116225000D02*
X139650000Y-114540000D01*
X139650000Y-114540000D02*
X139890000Y-114300000D01*
X139890000Y-114300000D02*
X140731000Y-114300000D01*
X140731000Y-114300000D02*
X141575000Y-114300000D01*
X130225000Y-114300000D02*
X130225000Y-117085000D01*
X130225000Y-117085000D02*
X130240000Y-117100000D01*
X141575000Y-114300000D02*
X141575000Y-115485000D01*
X141575000Y-115485000D02*
X141750000Y-115660000D01*
X130225000Y-114300000D02*
X131069000Y-114300000D01*
X139650000Y-116225000D02*
X139635000Y-116225000D01*
X139635000Y-116225000D02*
X139627000Y-116217000D01*
X139627000Y-116217000D02*
X139627000Y-115358000D01*
X139627000Y-115358000D02*
X138569000Y-114300000D01*
X138569000Y-114300000D02*
X131069000Y-114300000D01*
X138650000Y-105719000D02*
X138650000Y-106219000D01*
X138650000Y-106219000D02*
X140708000Y-108277000D01*
X140708000Y-108277000D02*
X141552000Y-108277000D01*
X141552000Y-108277000D02*
X141575000Y-108300000D01*
X132150000Y-104875000D02*
X132150000Y-105719000D01*
X132150000Y-105719000D02*
X133201000Y-106770000D01*
X133201000Y-106770000D02*
X137599000Y-106770000D01*
X137599000Y-106770000D02*
X138650000Y-105719000D01*
X138650000Y-105719000D02*
X138650000Y-104875000D01*
D26*
X139640000Y-91900000D02*
X139640000Y-93480000D01*
X139640000Y-93480000D02*
X139540000Y-93580000D01*
%TO.N,VCC*%
X139640000Y-90000000D02*
X139860000Y-90000000D01*
X139860000Y-90000000D02*
X140930000Y-88930000D01*
X142240000Y-90000000D02*
X142000000Y-90000000D01*
X142000000Y-90000000D02*
X140930000Y-88930000D01*
X139640000Y-90000000D02*
X139640000Y-90950000D01*
X139640000Y-90950000D02*
X137770000Y-90950000D01*
X137770000Y-90950000D02*
X137740000Y-90920000D01*
D25*
X143576000Y-86080000D02*
X143576000Y-84489000D01*
X143576000Y-84489000D02*
X143630000Y-84435000D01*
X138730000Y-84435000D02*
X138730000Y-83671400D01*
X138730000Y-83671400D02*
X139731000Y-82670000D01*
X139731000Y-82670000D02*
X142629000Y-82670000D01*
X142629000Y-82670000D02*
X143630000Y-83671400D01*
X143630000Y-83671400D02*
X143630000Y-84435000D01*
D24*
%TO.N,Net-(C8-Pad2)*%
X147933000Y-118615000D02*
X147933200Y-118615000D01*
D25*
X145350000Y-117150400D02*
X145350000Y-117151000D01*
X145350000Y-117151000D02*
X146814000Y-118615000D01*
X146814000Y-118615000D02*
X147933000Y-118615000D01*
X141575000Y-112300000D02*
X142419000Y-112300000D01*
X142419000Y-112300000D02*
X145350000Y-115231000D01*
X145350000Y-115231000D02*
X145350000Y-117150400D01*
D24*
%TO.N,Net-(C9-Pad2)*%
X147399600Y-113600000D02*
X147400000Y-113599600D01*
D25*
X147399600Y-113600000D02*
X147400000Y-113600000D01*
X147400000Y-113600000D02*
X148800000Y-115000000D01*
X148800000Y-115000000D02*
X150133000Y-115000000D01*
X141575000Y-111800000D02*
X142561000Y-111800000D01*
X142561000Y-111800000D02*
X144361000Y-113600000D01*
X144361000Y-113600000D02*
X147399600Y-113600000D01*
D24*
X150133000Y-115000000D02*
X150133200Y-115000000D01*
%TO.N,Net-(C12-Pad2)*%
X131580300Y-103041900D02*
X131658600Y-103041900D01*
X131658600Y-103041900D02*
X132650000Y-104033300D01*
X132650000Y-104033300D02*
X132650000Y-104875000D01*
D25*
%TO.N,Net-(C15-Pad2)*%
X130225000Y-113800000D02*
X127430000Y-113800000D01*
X127430000Y-113800000D02*
X127400000Y-113830000D01*
%TO.N,Net-(IC1-Pad21)*%
X158300000Y-110900000D02*
X154670000Y-107270000D01*
X154670000Y-107270000D02*
X154670000Y-105300000D01*
D24*
%TO.N,/ADC_in*%
X145950500Y-109600500D02*
X145951000Y-109601000D01*
X145945200Y-104994200D02*
X145945200Y-104994300D01*
D26*
X145945200Y-104994200D02*
X142076000Y-101125000D01*
X142076000Y-101125000D02*
X139650000Y-101125000D01*
X147075000Y-107300000D02*
X147075000Y-106124000D01*
X147075000Y-106124000D02*
X145945200Y-104994200D01*
X139650000Y-101125000D02*
X138150000Y-101125000D01*
X147075000Y-107300000D02*
X147075000Y-108476000D01*
X147075000Y-108476000D02*
X145951000Y-109601000D01*
X151200000Y-107300000D02*
X147075000Y-107300000D01*
D25*
X151150000Y-105570000D02*
X151150000Y-107250000D01*
X151150000Y-107250000D02*
X151200000Y-107300000D01*
%TO.N,Net-(R3-Pad2)*%
X137650000Y-116225000D02*
X137650000Y-119860000D01*
%TO.N,Net-(R4-Pad2)*%
X144175000Y-111300000D02*
X144175000Y-110095000D01*
X144175000Y-110095000D02*
X144190000Y-110080000D01*
X144175000Y-111300000D02*
X141575000Y-111300000D01*
D24*
%TO.N,Net-(R6-Pad1)*%
X145349000Y-108999000D02*
X145349500Y-108999500D01*
D25*
X145349000Y-108999000D02*
X144150000Y-107800000D01*
X144150000Y-107800000D02*
X141575000Y-107800000D01*
%TO.N,Net-(R7-Pad1)*%
X146225000Y-107300000D02*
X141575000Y-107300000D01*
D24*
%TO.N,Net-(R8-Pad1)*%
X141679000Y-106696000D02*
X141575000Y-106800000D01*
D26*
X144896900Y-106063700D02*
X144264000Y-106696000D01*
X144264000Y-106696000D02*
X141679000Y-106696000D01*
X141679000Y-106696000D02*
X141575000Y-106696000D01*
D24*
X144896900Y-106063700D02*
X144912400Y-106063700D01*
D26*
X145355000Y-105606000D02*
X144896900Y-106063700D01*
D24*
X145354800Y-105605700D02*
X144912400Y-106063700D01*
%TO.N,Net-(R9-Pad1)*%
X139650000Y-101975000D02*
X139650000Y-104875000D01*
%TO.N,Net-(R10-Pad1)*%
X138150000Y-101975000D02*
X138150000Y-104875000D01*
%TO.N,/SH*%
X136600000Y-101175000D02*
X136600000Y-100549700D01*
X136021500Y-100312900D02*
X135436800Y-100312900D01*
X135436800Y-100312900D02*
X135200000Y-100549700D01*
X136600000Y-100549700D02*
X136258300Y-100549700D01*
X136258300Y-100549700D02*
X136021500Y-100312900D01*
X136021500Y-98872300D02*
X136021500Y-100312900D01*
X135200000Y-101175000D02*
X135200000Y-100549700D01*
%TO.N,Net-(R11-Pad1)*%
X137150000Y-104875000D02*
X137150000Y-103512900D01*
X137150000Y-103512900D02*
X137200600Y-103462300D01*
%TO.N,Net-(R12-Pad1)*%
X136600000Y-102025000D02*
X136600000Y-102650300D01*
X136600000Y-102650300D02*
X136475200Y-102775100D01*
X136475200Y-102775100D02*
X136475200Y-103763300D01*
X136475200Y-103763300D02*
X136650000Y-103938100D01*
X136650000Y-103938100D02*
X136650000Y-104875000D01*
D25*
%TO.N,/ICG*%
X124575000Y-111200000D02*
X124575000Y-110024000D01*
X124575000Y-110024000D02*
X125699000Y-108899000D01*
D24*
X125699000Y-108899000D02*
X125699500Y-108899500D01*
X126159500Y-108439500D02*
X127347200Y-107251800D01*
X127347200Y-107251800D02*
X128813500Y-107251800D01*
X125699500Y-108899500D02*
X126159500Y-108439500D01*
X125137000Y-112938500D02*
X125137500Y-112938500D01*
X125137500Y-112938500D02*
X125699500Y-113500500D01*
D25*
X125137000Y-112938500D02*
X124575000Y-112376000D01*
X124575000Y-112376000D02*
X124575000Y-111200000D01*
X125699000Y-113501000D02*
X125137000Y-112938500D01*
%TO.N,Net-(R13-Pad1)*%
X130225000Y-110800000D02*
X130225000Y-110785000D01*
X130225000Y-110785000D02*
X130217000Y-110777000D01*
X130217000Y-110777000D02*
X127577000Y-110777000D01*
X127577000Y-110777000D02*
X126301000Y-109501000D01*
D24*
X126301000Y-109501000D02*
X126300500Y-109500500D01*
D25*
%TO.N,Net-(R14-Pad1)*%
X130225000Y-111300000D02*
X125525000Y-111300000D01*
X125525000Y-111300000D02*
X125425000Y-111200000D01*
D24*
%TO.N,Net-(R15-Pad1)*%
X126301000Y-112899000D02*
X126300500Y-112899500D01*
D25*
X130225000Y-111800000D02*
X127400000Y-111800000D01*
X127400000Y-111800000D02*
X126301000Y-112899000D01*
%TO.N,Net-(R16-Pad2)*%
X139430000Y-84435000D02*
X139430000Y-87150000D01*
X139430000Y-87150000D02*
X139420000Y-87160000D01*
D24*
%TO.N,/M*%
X133214700Y-100164400D02*
X133600000Y-100549700D01*
X132600000Y-120225000D02*
X131520600Y-120225000D01*
X131520600Y-120225000D02*
X123919100Y-112623500D01*
X123919100Y-112623500D02*
X123919100Y-107984000D01*
X123919100Y-107984000D02*
X131738700Y-100164400D01*
X131738700Y-100164400D02*
X133214700Y-100164400D01*
X133214700Y-100164400D02*
X134115200Y-99263900D01*
X134115200Y-99263900D02*
X134115200Y-98981300D01*
X134115200Y-98981300D02*
X135194800Y-97901700D01*
X135194800Y-97901700D02*
X149578800Y-97901700D01*
X133600000Y-101175000D02*
X133600000Y-100549700D01*
D25*
X132600000Y-120225000D02*
X135200000Y-120225000D01*
%TO.N,Net-(R17-Pad1)*%
X132650000Y-116225000D02*
X132655000Y-116225000D01*
X132655000Y-116225000D02*
X132673000Y-116243000D01*
X132673000Y-116243000D02*
X132673000Y-119302000D01*
X132673000Y-119302000D02*
X132600000Y-119375000D01*
D24*
%TO.N,Net-(R18-Pad1)*%
X135200000Y-102025000D02*
X135200000Y-102650300D01*
X135200000Y-102650300D02*
X135150000Y-102700300D01*
X135150000Y-102700300D02*
X135150000Y-104875000D01*
%TO.N,Net-(R19-Pad1)*%
X134400000Y-103462500D02*
X134650000Y-103712500D01*
X134650000Y-103712500D02*
X134650000Y-104875000D01*
D25*
%TO.N,Net-(R20-Pad1)*%
X135150000Y-116225000D02*
X135150000Y-119325000D01*
X135150000Y-119325000D02*
X135200000Y-119375000D01*
D24*
%TO.N,Net-(R21-Pad1)*%
X133600000Y-102025000D02*
X133600000Y-102650300D01*
X133650000Y-104875000D02*
X133650000Y-102700300D01*
X133650000Y-102700300D02*
X133600000Y-102650300D01*
%TO.N,Net-(R22-Pad1)*%
X132765100Y-102985000D02*
X133150000Y-103369900D01*
X133150000Y-103369900D02*
X133150000Y-104875000D01*
D25*
%TO.N,Net-(R24-Pad1)*%
X142430000Y-84435000D02*
X142430000Y-86780000D01*
X142430000Y-86780000D02*
X142800000Y-87150000D01*
D24*
%TO.N,/DP*%
X140430000Y-84435000D02*
X140430000Y-85710600D01*
X140430000Y-85710600D02*
X140181800Y-85958800D01*
X130225000Y-112800000D02*
X131067700Y-112800000D01*
X131067700Y-112800000D02*
X131384600Y-112483100D01*
X131384600Y-112483100D02*
X131384600Y-106610600D01*
X131384600Y-106610600D02*
X130866400Y-106092400D01*
X130866400Y-106092400D02*
X126857800Y-106092400D01*
D25*
X140430000Y-84435000D02*
X140430000Y-83471400D01*
X140430000Y-83471400D02*
X140681000Y-83220000D01*
X140681000Y-83220000D02*
X141179000Y-83220000D01*
X141179000Y-83220000D02*
X141430000Y-83471400D01*
X141430000Y-83471400D02*
X141430000Y-84435000D01*
X141440000Y-84425000D02*
X141430000Y-84435000D01*
D24*
%TO.N,/DM*%
X127583200Y-112650500D02*
X127933700Y-112300000D01*
X127933700Y-112300000D02*
X130225000Y-112300000D01*
X141430000Y-85700000D02*
X141430000Y-86317900D01*
X141430000Y-86317900D02*
X139298100Y-88449800D01*
D25*
X141430000Y-85700000D02*
X141629000Y-85700000D01*
X141629000Y-85700000D02*
X141930000Y-85398600D01*
X141930000Y-85398600D02*
X141930000Y-84435000D01*
X140930000Y-84435000D02*
X140930000Y-85398600D01*
X140930000Y-85398600D02*
X141231000Y-85700000D01*
X141231000Y-85700000D02*
X141430000Y-85700000D01*
%TO.N,Net-(R1-Pad2)*%
X153130000Y-105300000D02*
X153130000Y-107270000D01*
X153130000Y-107270000D02*
X153100000Y-107300000D01*
%TO.N,Net-(R2-Pad1)*%
X152150000Y-109800000D02*
X152150000Y-112030000D01*
X152150000Y-112030000D02*
X152130000Y-112050000D01*
%TD*%
%TO.N,GND*%
X135943603Y-78366717D02*
X135859997Y-78488322D01*
X135771585Y-78694013D01*
X135725000Y-78913000D01*
X135725000Y-79213000D01*
X136733000Y-79213000D01*
X136733000Y-79193000D01*
X136987000Y-79193000D01*
X136987000Y-79213000D01*
X137995000Y-79213000D01*
X137995000Y-78913000D01*
X137948415Y-78694013D01*
X137860003Y-78488322D01*
X137777953Y-78368981D01*
X144576277Y-78377372D01*
X144499997Y-78488322D01*
X144411585Y-78694013D01*
X144365000Y-78913000D01*
X144365000Y-79213000D01*
X145373000Y-79213000D01*
X145373000Y-79193000D01*
X145627000Y-79193000D01*
X145627000Y-79213000D01*
X146635000Y-79213000D01*
X146635000Y-78913000D01*
X146588415Y-78694013D01*
X146500003Y-78488322D01*
X146425292Y-78379655D01*
X170350000Y-78409185D01*
X170350001Y-123470000D01*
X123060000Y-123470000D01*
X123060000Y-121206807D01*
X140913596Y-121206807D01*
X141000561Y-121363578D01*
X141073419Y-121465252D01*
X141164714Y-121550759D01*
X141270936Y-121616811D01*
X141388002Y-121660872D01*
X141511415Y-121681247D01*
X141636432Y-121677156D01*
X141758249Y-121648752D01*
X141872184Y-121597128D01*
X142047533Y-121492343D01*
X142105640Y-121275486D01*
X141698515Y-120570325D01*
X140971703Y-120989950D01*
X140913596Y-121206807D01*
X123060000Y-121206807D01*
X123060000Y-107984000D01*
X123155424Y-107984000D01*
X123159101Y-108021332D01*
X123159100Y-112586177D01*
X123155424Y-112623500D01*
X123159100Y-112660822D01*
X123159100Y-112660832D01*
X123170097Y-112772485D01*
X123207927Y-112897196D01*
X123213554Y-112915746D01*
X123284126Y-113047776D01*
X123320622Y-113092246D01*
X123379099Y-113163501D01*
X123408103Y-113187304D01*
X130956805Y-120736008D01*
X130980599Y-120765001D01*
X131009592Y-120788795D01*
X131009596Y-120788799D01*
X131024689Y-120801185D01*
X131096324Y-120859974D01*
X131228353Y-120930546D01*
X131371614Y-120974003D01*
X131483267Y-120985000D01*
X131483276Y-120985000D01*
X131520599Y-120988676D01*
X131557922Y-120985000D01*
X131834556Y-120985000D01*
X131920506Y-121055537D01*
X132030820Y-121114502D01*
X132150518Y-121150812D01*
X132275000Y-121163072D01*
X132925000Y-121163072D01*
X133049482Y-121150812D01*
X133169180Y-121114502D01*
X133279494Y-121055537D01*
X133363007Y-120987000D01*
X134436993Y-120987000D01*
X134520506Y-121055537D01*
X134630820Y-121114502D01*
X134750518Y-121150812D01*
X134875000Y-121163072D01*
X135525000Y-121163072D01*
X135649482Y-121150812D01*
X135769180Y-121114502D01*
X135879494Y-121055537D01*
X135976185Y-120976185D01*
X136055537Y-120879494D01*
X136114502Y-120769180D01*
X136150812Y-120649482D01*
X136163072Y-120525000D01*
X136163072Y-119925000D01*
X136150812Y-119800518D01*
X136150655Y-119800000D01*
X136150812Y-119799482D01*
X136163072Y-119675000D01*
X136163072Y-119075000D01*
X136150812Y-118950518D01*
X136114502Y-118830820D01*
X136055537Y-118720506D01*
X135976185Y-118623815D01*
X135912000Y-118571140D01*
X135912000Y-117617125D01*
X135935887Y-117624371D01*
X136075000Y-117638072D01*
X136225000Y-117638072D01*
X136364113Y-117624371D01*
X136400000Y-117613485D01*
X136435887Y-117624371D01*
X136575000Y-117638072D01*
X136725000Y-117638072D01*
X136864113Y-117624371D01*
X136888000Y-117617125D01*
X136888001Y-118808731D01*
X136830506Y-118839463D01*
X136733815Y-118918815D01*
X136654463Y-119015506D01*
X136595498Y-119125820D01*
X136559188Y-119245518D01*
X136546928Y-119370000D01*
X136546928Y-120350000D01*
X136559188Y-120474482D01*
X136595498Y-120594180D01*
X136654463Y-120704494D01*
X136733815Y-120801185D01*
X136830506Y-120880537D01*
X136940820Y-120939502D01*
X137060518Y-120975812D01*
X137185000Y-120988072D01*
X138115000Y-120988072D01*
X138239482Y-120975812D01*
X138359180Y-120939502D01*
X138420000Y-120906993D01*
X138480820Y-120939502D01*
X138600518Y-120975812D01*
X138725000Y-120988072D01*
X138904250Y-120985000D01*
X139063000Y-120826250D01*
X139063000Y-119987000D01*
X139043000Y-119987000D01*
X139043000Y-119733000D01*
X139063000Y-119733000D01*
X139063000Y-118893750D01*
X138904250Y-118735000D01*
X138725000Y-118731928D01*
X138600518Y-118744188D01*
X138480820Y-118780498D01*
X138420000Y-118813007D01*
X138412000Y-118808731D01*
X138412000Y-117617125D01*
X138435887Y-117624371D01*
X138575000Y-117638072D01*
X138725000Y-117638072D01*
X138864113Y-117624371D01*
X138866003Y-117623798D01*
X138866439Y-117623937D01*
X138888001Y-117626280D01*
X138888001Y-117700567D01*
X138884314Y-117738000D01*
X138899027Y-117887378D01*
X138942599Y-118031015D01*
X139013355Y-118163392D01*
X139084721Y-118250351D01*
X139108579Y-118279422D01*
X139137649Y-118303279D01*
X139567792Y-118733423D01*
X139475750Y-118735000D01*
X139317000Y-118893750D01*
X139317000Y-119733000D01*
X139337000Y-119733000D01*
X139337000Y-119987000D01*
X139317000Y-119987000D01*
X139317000Y-120826250D01*
X139475750Y-120985000D01*
X139655000Y-120988072D01*
X139779482Y-120975812D01*
X139899180Y-120939502D01*
X140009494Y-120880537D01*
X140106185Y-120801185D01*
X140185537Y-120704494D01*
X140244502Y-120594180D01*
X140280812Y-120474482D01*
X140293072Y-120350000D01*
X140290000Y-120145750D01*
X140131252Y-119987002D01*
X140205795Y-119987002D01*
X140230561Y-120029898D01*
X140303420Y-120131572D01*
X140394715Y-120217079D01*
X140453278Y-120253496D01*
X140455534Y-120322423D01*
X140483937Y-120444240D01*
X140535561Y-120558174D01*
X140627846Y-120711873D01*
X140844703Y-120769980D01*
X141410486Y-120443325D01*
X141918485Y-120443325D01*
X142325610Y-121148486D01*
X142542467Y-121206593D01*
X142720888Y-121107128D01*
X142822563Y-121034270D01*
X142908070Y-120942976D01*
X142974122Y-120836753D01*
X143018183Y-120719687D01*
X143038558Y-120596274D01*
X143034466Y-120471257D01*
X143006063Y-120349440D01*
X142977000Y-120285297D01*
X148893700Y-120285297D01*
X148951807Y-120502154D01*
X149105506Y-120594439D01*
X149219440Y-120646063D01*
X149341257Y-120674466D01*
X149466274Y-120678558D01*
X149589687Y-120658183D01*
X149706753Y-120614122D01*
X149812976Y-120548070D01*
X149904270Y-120462563D01*
X149977128Y-120360888D01*
X150076593Y-120182467D01*
X150018486Y-119965610D01*
X149313325Y-119558485D01*
X148893700Y-120285297D01*
X142977000Y-120285297D01*
X142954439Y-120235506D01*
X142862154Y-120081807D01*
X142645297Y-120023700D01*
X141918485Y-120443325D01*
X141410486Y-120443325D01*
X141571515Y-120350355D01*
X141561515Y-120333034D01*
X141781485Y-120206034D01*
X141791485Y-120223355D01*
X142518297Y-119803730D01*
X142576404Y-119586873D01*
X142489439Y-119430102D01*
X142416581Y-119328428D01*
X142325286Y-119242921D01*
X142266722Y-119206504D01*
X142264465Y-119137577D01*
X142236062Y-119015761D01*
X142184439Y-118901826D01*
X141719439Y-118096422D01*
X141646580Y-117994748D01*
X141555285Y-117909241D01*
X141449064Y-117843188D01*
X141331997Y-117799128D01*
X141208584Y-117778752D01*
X141083567Y-117782845D01*
X140961750Y-117811248D01*
X140851041Y-117861411D01*
X140412000Y-117422370D01*
X140412000Y-117104895D01*
X140424371Y-117064113D01*
X140438072Y-116925000D01*
X140438072Y-115525000D01*
X140424371Y-115385887D01*
X140412000Y-115345105D01*
X140412000Y-115062000D01*
X140693577Y-115062000D01*
X140695840Y-115062223D01*
X140735887Y-115074371D01*
X140813001Y-115081966D01*
X140813001Y-115217531D01*
X140754774Y-115358102D01*
X140715000Y-115558061D01*
X140715000Y-115761939D01*
X140754774Y-115961898D01*
X140832795Y-116150256D01*
X140946063Y-116319774D01*
X141090226Y-116463937D01*
X141259744Y-116577205D01*
X141448102Y-116655226D01*
X141648061Y-116695000D01*
X141851939Y-116695000D01*
X142051898Y-116655226D01*
X142240256Y-116577205D01*
X142409774Y-116463937D01*
X142553937Y-116319774D01*
X142667205Y-116150256D01*
X142745226Y-115961898D01*
X142785000Y-115761939D01*
X142785000Y-115558061D01*
X142745226Y-115358102D01*
X142667205Y-115169744D01*
X142568870Y-115022574D01*
X142671162Y-114967898D01*
X142779218Y-114879218D01*
X142867898Y-114771162D01*
X142933793Y-114647881D01*
X142974371Y-114514113D01*
X142988072Y-114375000D01*
X142988072Y-114225000D01*
X142974371Y-114085887D01*
X142963485Y-114050000D01*
X142974371Y-114014113D01*
X142981643Y-113940274D01*
X144327856Y-115286487D01*
X144306042Y-115306918D01*
X144233183Y-115408592D01*
X143283183Y-117054040D01*
X143231560Y-117167974D01*
X143203157Y-117289791D01*
X143199064Y-117414808D01*
X143219440Y-117538221D01*
X143263501Y-117655288D01*
X143329553Y-117761510D01*
X143415060Y-117852804D01*
X143516734Y-117925662D01*
X145595194Y-119125662D01*
X145709128Y-119177286D01*
X145830945Y-119205689D01*
X145955962Y-119209782D01*
X146079375Y-119189406D01*
X146196442Y-119145345D01*
X146239771Y-119118401D01*
X146248716Y-119127346D01*
X146272578Y-119156422D01*
X146337598Y-119209782D01*
X146388607Y-119251645D01*
X146434981Y-119276432D01*
X146520985Y-119322402D01*
X146664622Y-119365974D01*
X146776574Y-119377000D01*
X146776577Y-119377000D01*
X146814000Y-119380686D01*
X146851423Y-119377000D01*
X146996839Y-119377000D01*
X147771826Y-119824439D01*
X147885760Y-119876062D01*
X148007577Y-119904465D01*
X148076504Y-119906722D01*
X148112921Y-119965286D01*
X148198428Y-120056581D01*
X148300102Y-120129439D01*
X148456873Y-120216404D01*
X148673730Y-120158297D01*
X149093355Y-119431485D01*
X149076034Y-119421485D01*
X149123936Y-119338515D01*
X149440325Y-119338515D01*
X150145486Y-119745640D01*
X150362343Y-119687533D01*
X150467128Y-119512184D01*
X150518752Y-119398249D01*
X150547156Y-119276432D01*
X150551247Y-119151415D01*
X150530872Y-119028002D01*
X150486811Y-118910936D01*
X150420759Y-118804714D01*
X150335252Y-118713419D01*
X150233578Y-118640561D01*
X150076807Y-118553596D01*
X149859950Y-118611703D01*
X149440325Y-119338515D01*
X149123936Y-119338515D01*
X149203034Y-119201515D01*
X149220355Y-119211515D01*
X149639980Y-118484703D01*
X149581873Y-118267846D01*
X149428174Y-118175561D01*
X149314240Y-118123937D01*
X149192423Y-118095534D01*
X149123495Y-118093278D01*
X149087078Y-118034714D01*
X149001572Y-117943420D01*
X148899898Y-117870561D01*
X148094494Y-117405561D01*
X147980560Y-117353938D01*
X147858743Y-117325535D01*
X147733726Y-117321442D01*
X147610313Y-117341818D01*
X147493246Y-117385878D01*
X147387025Y-117451931D01*
X147295730Y-117537438D01*
X147222872Y-117639112D01*
X147110455Y-117833825D01*
X147089765Y-117813135D01*
X147416817Y-117246664D01*
X147468440Y-117132730D01*
X147496843Y-117010913D01*
X147500936Y-116885896D01*
X147480560Y-116762483D01*
X147445864Y-116670297D01*
X151093700Y-116670297D01*
X151151807Y-116887154D01*
X151305506Y-116979439D01*
X151419440Y-117031063D01*
X151541257Y-117059466D01*
X151666274Y-117063558D01*
X151789687Y-117043183D01*
X151906753Y-116999122D01*
X152012976Y-116933070D01*
X152104270Y-116847563D01*
X152177128Y-116745888D01*
X152276593Y-116567467D01*
X152218486Y-116350610D01*
X151513325Y-115943485D01*
X151093700Y-116670297D01*
X147445864Y-116670297D01*
X147436499Y-116645416D01*
X147370447Y-116539194D01*
X147284940Y-116447900D01*
X147183266Y-116375042D01*
X146112000Y-115756546D01*
X146112000Y-115268423D01*
X146115686Y-115231000D01*
X146112000Y-115193574D01*
X146100974Y-115081622D01*
X146057402Y-114937985D01*
X146010915Y-114851014D01*
X145986645Y-114805607D01*
X145915279Y-114718648D01*
X145891422Y-114689578D01*
X145862353Y-114665722D01*
X145578221Y-114381590D01*
X147645194Y-115574958D01*
X147759128Y-115626582D01*
X147880945Y-115654985D01*
X148005962Y-115659078D01*
X148129375Y-115638702D01*
X148246442Y-115594641D01*
X148290240Y-115567406D01*
X148374607Y-115636645D01*
X148411552Y-115656392D01*
X148506985Y-115707402D01*
X148650622Y-115750974D01*
X148762574Y-115762000D01*
X148762577Y-115762000D01*
X148800000Y-115765686D01*
X148837423Y-115762000D01*
X149196839Y-115762000D01*
X149971826Y-116209439D01*
X150085760Y-116261062D01*
X150207577Y-116289465D01*
X150276504Y-116291722D01*
X150312921Y-116350286D01*
X150398428Y-116441581D01*
X150500102Y-116514439D01*
X150656873Y-116601404D01*
X150873730Y-116543297D01*
X151293355Y-115816485D01*
X151276034Y-115806485D01*
X151323936Y-115723515D01*
X151640325Y-115723515D01*
X152345486Y-116130640D01*
X152562343Y-116072533D01*
X152667128Y-115897184D01*
X152718752Y-115783249D01*
X152747156Y-115661432D01*
X152751247Y-115536415D01*
X152730872Y-115413002D01*
X152686811Y-115295936D01*
X152620759Y-115189714D01*
X152535252Y-115098419D01*
X152433578Y-115025561D01*
X152276807Y-114938596D01*
X152059950Y-114996703D01*
X151640325Y-115723515D01*
X151323936Y-115723515D01*
X151403034Y-115586515D01*
X151420355Y-115596515D01*
X151839980Y-114869703D01*
X151781873Y-114652846D01*
X151628174Y-114560561D01*
X151514240Y-114508937D01*
X151392423Y-114480534D01*
X151323495Y-114478278D01*
X151287078Y-114419714D01*
X151201572Y-114328420D01*
X151157613Y-114296919D01*
X157622686Y-114296919D01*
X157671211Y-114521520D01*
X157894287Y-114623409D01*
X158132954Y-114679821D01*
X158378041Y-114688587D01*
X158620128Y-114649370D01*
X158849914Y-114563679D01*
X158928789Y-114521520D01*
X158977314Y-114296919D01*
X158300000Y-113619605D01*
X157622686Y-114296919D01*
X151157613Y-114296919D01*
X151099898Y-114255561D01*
X150294494Y-113790561D01*
X150180560Y-113738938D01*
X150058743Y-113710535D01*
X149933726Y-113706442D01*
X149810313Y-113726818D01*
X149693246Y-113770878D01*
X149587025Y-113836931D01*
X149495730Y-113922438D01*
X149422872Y-114024112D01*
X149299384Y-114238000D01*
X149153870Y-114238000D01*
X149466817Y-113695960D01*
X149518440Y-113582026D01*
X149533358Y-113518041D01*
X157051413Y-113518041D01*
X157090630Y-113760128D01*
X157176321Y-113989914D01*
X157218480Y-114068789D01*
X157443081Y-114117314D01*
X158120395Y-113440000D01*
X158479605Y-113440000D01*
X159156919Y-114117314D01*
X159381520Y-114068789D01*
X159483409Y-113845713D01*
X159539821Y-113607046D01*
X159548587Y-113361959D01*
X159509370Y-113119872D01*
X159423679Y-112890086D01*
X159391563Y-112830000D01*
X167211928Y-112830000D01*
X167211928Y-114050000D01*
X167224188Y-114174482D01*
X167260498Y-114294180D01*
X167319463Y-114404494D01*
X167398815Y-114501185D01*
X167495506Y-114580537D01*
X167605820Y-114639502D01*
X167725518Y-114675812D01*
X167850000Y-114688072D01*
X169070000Y-114688072D01*
X169194482Y-114675812D01*
X169314180Y-114639502D01*
X169424494Y-114580537D01*
X169521185Y-114501185D01*
X169600537Y-114404494D01*
X169659502Y-114294180D01*
X169695812Y-114174482D01*
X169708072Y-114050000D01*
X169708072Y-112830000D01*
X169695812Y-112705518D01*
X169659502Y-112585820D01*
X169600537Y-112475506D01*
X169521185Y-112378815D01*
X169424494Y-112299463D01*
X169314180Y-112240498D01*
X169220000Y-112211929D01*
X169220000Y-111889533D01*
X169253641Y-111867055D01*
X169427055Y-111693641D01*
X169563305Y-111489729D01*
X169657155Y-111263153D01*
X169705000Y-111022622D01*
X169705000Y-110777378D01*
X169657155Y-110536847D01*
X169563305Y-110310271D01*
X169427055Y-110106359D01*
X169253641Y-109932945D01*
X169049729Y-109796695D01*
X168823153Y-109702845D01*
X168582622Y-109655000D01*
X168337378Y-109655000D01*
X168096847Y-109702845D01*
X167870271Y-109796695D01*
X167666359Y-109932945D01*
X167492945Y-110106359D01*
X167356695Y-110310271D01*
X167262845Y-110536847D01*
X167215000Y-110777378D01*
X167215000Y-111022622D01*
X167262845Y-111263153D01*
X167356695Y-111489729D01*
X167492945Y-111693641D01*
X167666359Y-111867055D01*
X167700001Y-111889534D01*
X167700000Y-112211929D01*
X167605820Y-112240498D01*
X167495506Y-112299463D01*
X167398815Y-112378815D01*
X167319463Y-112475506D01*
X167260498Y-112585820D01*
X167224188Y-112705518D01*
X167211928Y-112830000D01*
X159391563Y-112830000D01*
X159381520Y-112811211D01*
X159156919Y-112762686D01*
X158479605Y-113440000D01*
X158120395Y-113440000D01*
X157443081Y-112762686D01*
X157218480Y-112811211D01*
X157116591Y-113034287D01*
X157060179Y-113272954D01*
X157051413Y-113518041D01*
X149533358Y-113518041D01*
X149546843Y-113460209D01*
X149550936Y-113335192D01*
X149530560Y-113211779D01*
X149486499Y-113094712D01*
X149420447Y-112988490D01*
X149334940Y-112897196D01*
X149233266Y-112824338D01*
X147154806Y-111624338D01*
X147040872Y-111572714D01*
X146919055Y-111544311D01*
X146794038Y-111540218D01*
X146670625Y-111560594D01*
X146553558Y-111604655D01*
X146447336Y-111670707D01*
X146356042Y-111756214D01*
X146283183Y-111857888D01*
X145717315Y-112838000D01*
X144676631Y-112838000D01*
X144101703Y-112263072D01*
X144475000Y-112263072D01*
X144599482Y-112250812D01*
X144600000Y-112250655D01*
X144600518Y-112250812D01*
X144725000Y-112263072D01*
X144739250Y-112260000D01*
X144898000Y-112101250D01*
X144898000Y-112099316D01*
X144926185Y-112076185D01*
X145005537Y-111979494D01*
X145064502Y-111869180D01*
X145100812Y-111749482D01*
X145113072Y-111625000D01*
X145113072Y-111427000D01*
X145152000Y-111427000D01*
X145152000Y-112101250D01*
X145310750Y-112260000D01*
X145325000Y-112263072D01*
X145449482Y-112250812D01*
X145569180Y-112214502D01*
X145679494Y-112155537D01*
X145776185Y-112076185D01*
X145855537Y-111979494D01*
X145914502Y-111869180D01*
X145950812Y-111749482D01*
X145963072Y-111625000D01*
X145960000Y-111585750D01*
X145801250Y-111427000D01*
X145152000Y-111427000D01*
X145113072Y-111427000D01*
X145113072Y-111153000D01*
X145152000Y-111153000D01*
X145152000Y-111173000D01*
X145801250Y-111173000D01*
X145960000Y-111014250D01*
X145963072Y-110975000D01*
X145950812Y-110850518D01*
X145914502Y-110730820D01*
X145885110Y-110675833D01*
X145932842Y-110680534D01*
X146057324Y-110668274D01*
X146177022Y-110631964D01*
X146287336Y-110572999D01*
X146384027Y-110493647D01*
X146843647Y-110034027D01*
X146922999Y-109937336D01*
X146981964Y-109827022D01*
X146982011Y-109826866D01*
X147672892Y-109135371D01*
X147706659Y-109107659D01*
X147734622Y-109073586D01*
X147734760Y-109073448D01*
X147761886Y-109040365D01*
X147817753Y-108972291D01*
X147817848Y-108972113D01*
X147817972Y-108971962D01*
X147858763Y-108895566D01*
X147900303Y-108817851D01*
X147900361Y-108817661D01*
X147900454Y-108817486D01*
X147926041Y-108733002D01*
X147951136Y-108650274D01*
X147951156Y-108650076D01*
X147951213Y-108649886D01*
X147959631Y-108564023D01*
X147964000Y-108519667D01*
X147964000Y-108519463D01*
X147968300Y-108475604D01*
X147964000Y-108432143D01*
X147964000Y-108189000D01*
X150271092Y-108189000D01*
X150319463Y-108279494D01*
X150398815Y-108376185D01*
X150495506Y-108455537D01*
X150605820Y-108514502D01*
X150725518Y-108550812D01*
X150850000Y-108563072D01*
X151550000Y-108563072D01*
X151668089Y-108551442D01*
X151555820Y-108585498D01*
X151445506Y-108644463D01*
X151348815Y-108723815D01*
X151269463Y-108820506D01*
X151210498Y-108930820D01*
X151174188Y-109050518D01*
X151161928Y-109175000D01*
X151161928Y-110425000D01*
X151174188Y-110549482D01*
X151210498Y-110669180D01*
X151269463Y-110779494D01*
X151348815Y-110876185D01*
X151388000Y-110908344D01*
X151388001Y-110988041D01*
X151310506Y-111029463D01*
X151213815Y-111108815D01*
X151134463Y-111205506D01*
X151075498Y-111315820D01*
X151039188Y-111435518D01*
X151026928Y-111560000D01*
X151026928Y-112540000D01*
X151039188Y-112664482D01*
X151075498Y-112784180D01*
X151134463Y-112894494D01*
X151213815Y-112991185D01*
X151310506Y-113070537D01*
X151420820Y-113129502D01*
X151540518Y-113165812D01*
X151665000Y-113178072D01*
X152595000Y-113178072D01*
X152719482Y-113165812D01*
X152839180Y-113129502D01*
X152900000Y-113096993D01*
X152960820Y-113129502D01*
X153080518Y-113165812D01*
X153205000Y-113178072D01*
X153384250Y-113175000D01*
X153543000Y-113016250D01*
X153543000Y-112177000D01*
X153797000Y-112177000D01*
X153797000Y-113016250D01*
X153955750Y-113175000D01*
X154135000Y-113178072D01*
X154259482Y-113165812D01*
X154379180Y-113129502D01*
X154489494Y-113070537D01*
X154586185Y-112991185D01*
X154665537Y-112894494D01*
X154724502Y-112784180D01*
X154760812Y-112664482D01*
X154768829Y-112583081D01*
X157622686Y-112583081D01*
X158300000Y-113260395D01*
X158977314Y-112583081D01*
X158928789Y-112358480D01*
X158705713Y-112256591D01*
X158467046Y-112200179D01*
X158221959Y-112191413D01*
X157979872Y-112230630D01*
X157750086Y-112316321D01*
X157671211Y-112358480D01*
X157622686Y-112583081D01*
X154768829Y-112583081D01*
X154773072Y-112540000D01*
X154770000Y-112335750D01*
X154611250Y-112177000D01*
X153797000Y-112177000D01*
X153543000Y-112177000D01*
X153523000Y-112177000D01*
X153523000Y-111923000D01*
X153543000Y-111923000D01*
X153543000Y-111083750D01*
X153797000Y-111083750D01*
X153797000Y-111923000D01*
X154611250Y-111923000D01*
X154770000Y-111764250D01*
X154773072Y-111560000D01*
X154760812Y-111435518D01*
X154724502Y-111315820D01*
X154665537Y-111205506D01*
X154586185Y-111108815D01*
X154489494Y-111029463D01*
X154379180Y-110970498D01*
X154259482Y-110934188D01*
X154135000Y-110921928D01*
X153955750Y-110925000D01*
X153797000Y-111083750D01*
X153543000Y-111083750D01*
X153384250Y-110925000D01*
X153205000Y-110921928D01*
X153080518Y-110934188D01*
X152960820Y-110970498D01*
X152912000Y-110996593D01*
X152912000Y-110908343D01*
X152951185Y-110876185D01*
X153030537Y-110779494D01*
X153089502Y-110669180D01*
X153125812Y-110549482D01*
X153138072Y-110425000D01*
X153138072Y-109175000D01*
X153125812Y-109050518D01*
X153089502Y-108930820D01*
X153030537Y-108820506D01*
X152951185Y-108723815D01*
X152854494Y-108644463D01*
X152744180Y-108585498D01*
X152631911Y-108551442D01*
X152750000Y-108563072D01*
X153450000Y-108563072D01*
X153574482Y-108550812D01*
X153694180Y-108514502D01*
X153804494Y-108455537D01*
X153901185Y-108376185D01*
X153980537Y-108279494D01*
X154039502Y-108169180D01*
X154075812Y-108049482D01*
X154088072Y-107925000D01*
X154088072Y-107762065D01*
X154128578Y-107811422D01*
X154157654Y-107835284D01*
X157062424Y-110740055D01*
X157055000Y-110777378D01*
X157055000Y-111022622D01*
X157102845Y-111263153D01*
X157196695Y-111489729D01*
X157332945Y-111693641D01*
X157506359Y-111867055D01*
X157710271Y-112003305D01*
X157936847Y-112097155D01*
X158177378Y-112145000D01*
X158422622Y-112145000D01*
X158663153Y-112097155D01*
X158889729Y-112003305D01*
X159093641Y-111867055D01*
X159267055Y-111693641D01*
X159403305Y-111489729D01*
X159497155Y-111263153D01*
X159545000Y-111022622D01*
X159545000Y-110777378D01*
X159497155Y-110536847D01*
X159403305Y-110310271D01*
X159267055Y-110106359D01*
X159093641Y-109932945D01*
X158889729Y-109796695D01*
X158663153Y-109702845D01*
X158422622Y-109655000D01*
X158177378Y-109655000D01*
X158140055Y-109662424D01*
X158060273Y-109582642D01*
X158132954Y-109599821D01*
X158378041Y-109608587D01*
X158620128Y-109569370D01*
X158849914Y-109483679D01*
X158928789Y-109441520D01*
X158977314Y-109216919D01*
X158300000Y-108539605D01*
X158285858Y-108553748D01*
X158106253Y-108374143D01*
X158120395Y-108360000D01*
X158479605Y-108360000D01*
X159156919Y-109037314D01*
X159381520Y-108988789D01*
X159483409Y-108765713D01*
X159539821Y-108527046D01*
X159548587Y-108281959D01*
X159541366Y-108237378D01*
X167215000Y-108237378D01*
X167215000Y-108482622D01*
X167262845Y-108723153D01*
X167356695Y-108949729D01*
X167492945Y-109153641D01*
X167666359Y-109327055D01*
X167870271Y-109463305D01*
X168096847Y-109557155D01*
X168337378Y-109605000D01*
X168582622Y-109605000D01*
X168823153Y-109557155D01*
X169049729Y-109463305D01*
X169253641Y-109327055D01*
X169427055Y-109153641D01*
X169563305Y-108949729D01*
X169657155Y-108723153D01*
X169705000Y-108482622D01*
X169705000Y-108237378D01*
X169657155Y-107996847D01*
X169563305Y-107770271D01*
X169427055Y-107566359D01*
X169253641Y-107392945D01*
X169049729Y-107256695D01*
X168823153Y-107162845D01*
X168582622Y-107115000D01*
X168337378Y-107115000D01*
X168096847Y-107162845D01*
X167870271Y-107256695D01*
X167666359Y-107392945D01*
X167492945Y-107566359D01*
X167356695Y-107770271D01*
X167262845Y-107996847D01*
X167215000Y-108237378D01*
X159541366Y-108237378D01*
X159509370Y-108039872D01*
X159423679Y-107810086D01*
X159381520Y-107731211D01*
X159156919Y-107682686D01*
X158479605Y-108360000D01*
X158120395Y-108360000D01*
X157443081Y-107682686D01*
X157218480Y-107731211D01*
X157116591Y-107954287D01*
X157060179Y-108192954D01*
X157051413Y-108438041D01*
X157077653Y-108600023D01*
X155980711Y-107503081D01*
X157622686Y-107503081D01*
X158300000Y-108180395D01*
X158977314Y-107503081D01*
X158928789Y-107278480D01*
X158705713Y-107176591D01*
X158467046Y-107120179D01*
X158221959Y-107111413D01*
X157979872Y-107150630D01*
X157750086Y-107236321D01*
X157671211Y-107278480D01*
X157622686Y-107503081D01*
X155980711Y-107503081D01*
X155432000Y-106954370D01*
X155432000Y-106676919D01*
X157622686Y-106676919D01*
X157671211Y-106901520D01*
X157894287Y-107003409D01*
X158132954Y-107059821D01*
X158378041Y-107068587D01*
X158620128Y-107029370D01*
X158849914Y-106943679D01*
X158928789Y-106901520D01*
X158977314Y-106676919D01*
X158300000Y-105999605D01*
X157622686Y-106676919D01*
X155432000Y-106676919D01*
X155432000Y-106351269D01*
X155489494Y-106320537D01*
X155586185Y-106241185D01*
X155665537Y-106144494D01*
X155724502Y-106034180D01*
X155760812Y-105914482D01*
X155762431Y-105898041D01*
X157051413Y-105898041D01*
X157090630Y-106140128D01*
X157176321Y-106369914D01*
X157218480Y-106448789D01*
X157443081Y-106497314D01*
X158120395Y-105820000D01*
X158479605Y-105820000D01*
X159156919Y-106497314D01*
X159381520Y-106448789D01*
X159483409Y-106225713D01*
X159539821Y-105987046D01*
X159548587Y-105741959D01*
X159541366Y-105697378D01*
X167215000Y-105697378D01*
X167215000Y-105942622D01*
X167262845Y-106183153D01*
X167356695Y-106409729D01*
X167492945Y-106613641D01*
X167666359Y-106787055D01*
X167870271Y-106923305D01*
X168096847Y-107017155D01*
X168337378Y-107065000D01*
X168582622Y-107065000D01*
X168823153Y-107017155D01*
X169049729Y-106923305D01*
X169253641Y-106787055D01*
X169427055Y-106613641D01*
X169563305Y-106409729D01*
X169657155Y-106183153D01*
X169705000Y-105942622D01*
X169705000Y-105697378D01*
X169657155Y-105456847D01*
X169563305Y-105230271D01*
X169427055Y-105026359D01*
X169253641Y-104852945D01*
X169049729Y-104716695D01*
X168823153Y-104622845D01*
X168582622Y-104575000D01*
X168337378Y-104575000D01*
X168096847Y-104622845D01*
X167870271Y-104716695D01*
X167666359Y-104852945D01*
X167492945Y-105026359D01*
X167356695Y-105230271D01*
X167262845Y-105456847D01*
X167215000Y-105697378D01*
X159541366Y-105697378D01*
X159509370Y-105499872D01*
X159423679Y-105270086D01*
X159381520Y-105191211D01*
X159156919Y-105142686D01*
X158479605Y-105820000D01*
X158120395Y-105820000D01*
X157443081Y-105142686D01*
X157218480Y-105191211D01*
X157116591Y-105414287D01*
X157060179Y-105652954D01*
X157051413Y-105898041D01*
X155762431Y-105898041D01*
X155773072Y-105790000D01*
X155773072Y-104963081D01*
X157622686Y-104963081D01*
X158300000Y-105640395D01*
X158977314Y-104963081D01*
X158928789Y-104738480D01*
X158705713Y-104636591D01*
X158467046Y-104580179D01*
X158221959Y-104571413D01*
X157979872Y-104610630D01*
X157750086Y-104696321D01*
X157671211Y-104738480D01*
X157622686Y-104963081D01*
X155773072Y-104963081D01*
X155773072Y-104810000D01*
X155760812Y-104685518D01*
X155724502Y-104565820D01*
X155665537Y-104455506D01*
X155586185Y-104358815D01*
X155489494Y-104279463D01*
X155379180Y-104220498D01*
X155259482Y-104184188D01*
X155135000Y-104171928D01*
X154205000Y-104171928D01*
X154080518Y-104184188D01*
X153960820Y-104220498D01*
X153900000Y-104253007D01*
X153839180Y-104220498D01*
X153719482Y-104184188D01*
X153595000Y-104171928D01*
X152665000Y-104171928D01*
X152540518Y-104184188D01*
X152420820Y-104220498D01*
X152310506Y-104279463D01*
X152278072Y-104306081D01*
X152278072Y-104136919D01*
X157622686Y-104136919D01*
X157671211Y-104361520D01*
X157894287Y-104463409D01*
X158132954Y-104519821D01*
X158378041Y-104528587D01*
X158620128Y-104489370D01*
X158849914Y-104403679D01*
X158928789Y-104361520D01*
X158977314Y-104136919D01*
X158300000Y-103459605D01*
X157622686Y-104136919D01*
X152278072Y-104136919D01*
X152278072Y-103565000D01*
X152265812Y-103440518D01*
X152240793Y-103358041D01*
X157051413Y-103358041D01*
X157090630Y-103600128D01*
X157176321Y-103829914D01*
X157218480Y-103908789D01*
X157443081Y-103957314D01*
X158120395Y-103280000D01*
X158479605Y-103280000D01*
X159156919Y-103957314D01*
X159381520Y-103908789D01*
X159483409Y-103685713D01*
X159539821Y-103447046D01*
X159548587Y-103201959D01*
X159541366Y-103157378D01*
X167215000Y-103157378D01*
X167215000Y-103402622D01*
X167262845Y-103643153D01*
X167356695Y-103869729D01*
X167492945Y-104073641D01*
X167666359Y-104247055D01*
X167870271Y-104383305D01*
X168096847Y-104477155D01*
X168337378Y-104525000D01*
X168582622Y-104525000D01*
X168823153Y-104477155D01*
X169049729Y-104383305D01*
X169253641Y-104247055D01*
X169427055Y-104073641D01*
X169563305Y-103869729D01*
X169657155Y-103643153D01*
X169705000Y-103402622D01*
X169705000Y-103157378D01*
X169657155Y-102916847D01*
X169563305Y-102690271D01*
X169427055Y-102486359D01*
X169253641Y-102312945D01*
X169049729Y-102176695D01*
X168823153Y-102082845D01*
X168582622Y-102035000D01*
X168337378Y-102035000D01*
X168096847Y-102082845D01*
X167870271Y-102176695D01*
X167666359Y-102312945D01*
X167492945Y-102486359D01*
X167356695Y-102690271D01*
X167262845Y-102916847D01*
X167215000Y-103157378D01*
X159541366Y-103157378D01*
X159509370Y-102959872D01*
X159423679Y-102730086D01*
X159381520Y-102651211D01*
X159156919Y-102602686D01*
X158479605Y-103280000D01*
X158120395Y-103280000D01*
X157443081Y-102602686D01*
X157218480Y-102651211D01*
X157116591Y-102874287D01*
X157060179Y-103112954D01*
X157051413Y-103358041D01*
X152240793Y-103358041D01*
X152229502Y-103320820D01*
X152170537Y-103210506D01*
X152091185Y-103113815D01*
X151994494Y-103034463D01*
X151925908Y-102997803D01*
X152053937Y-102869774D01*
X152167205Y-102700256D01*
X152245226Y-102511898D01*
X152262892Y-102423081D01*
X157622686Y-102423081D01*
X158300000Y-103100395D01*
X158977314Y-102423081D01*
X158928789Y-102198480D01*
X158705713Y-102096591D01*
X158467046Y-102040179D01*
X158221959Y-102031413D01*
X157979872Y-102070630D01*
X157750086Y-102156321D01*
X157671211Y-102198480D01*
X157622686Y-102423081D01*
X152262892Y-102423081D01*
X152285000Y-102311939D01*
X152285000Y-102108061D01*
X152245226Y-101908102D01*
X152167205Y-101719744D01*
X152085137Y-101596919D01*
X157622686Y-101596919D01*
X157671211Y-101821520D01*
X157894287Y-101923409D01*
X158132954Y-101979821D01*
X158378041Y-101988587D01*
X158620128Y-101949370D01*
X158849914Y-101863679D01*
X158928789Y-101821520D01*
X158977314Y-101596919D01*
X167782686Y-101596919D01*
X167831211Y-101821520D01*
X168054287Y-101923409D01*
X168292954Y-101979821D01*
X168538041Y-101988587D01*
X168780128Y-101949370D01*
X169009914Y-101863679D01*
X169088789Y-101821520D01*
X169137314Y-101596919D01*
X168460000Y-100919605D01*
X167782686Y-101596919D01*
X158977314Y-101596919D01*
X158300000Y-100919605D01*
X157622686Y-101596919D01*
X152085137Y-101596919D01*
X152053937Y-101550226D01*
X151909774Y-101406063D01*
X151740256Y-101292795D01*
X151551898Y-101214774D01*
X151351939Y-101175000D01*
X151148061Y-101175000D01*
X150948102Y-101214774D01*
X150759744Y-101292795D01*
X150590226Y-101406063D01*
X150446063Y-101550226D01*
X150332795Y-101719744D01*
X150254774Y-101908102D01*
X150215000Y-102108061D01*
X150215000Y-102311939D01*
X150254774Y-102511898D01*
X150332795Y-102700256D01*
X150388001Y-102782877D01*
X150388001Y-102990368D01*
X150305506Y-103034463D01*
X150208815Y-103113815D01*
X150129463Y-103210506D01*
X150070498Y-103320820D01*
X150034188Y-103440518D01*
X150021928Y-103565000D01*
X150021928Y-104495000D01*
X150034188Y-104619482D01*
X150070498Y-104739180D01*
X150103007Y-104800000D01*
X150070498Y-104860820D01*
X150034188Y-104980518D01*
X150021928Y-105105000D01*
X150021928Y-106035000D01*
X150034188Y-106159482D01*
X150070498Y-106279180D01*
X150129463Y-106389494D01*
X150147112Y-106411000D01*
X147964000Y-106411000D01*
X147964000Y-106167659D01*
X147968300Y-106123999D01*
X147964000Y-106080339D01*
X147964000Y-106080333D01*
X147952233Y-105960862D01*
X147951136Y-105949724D01*
X147911785Y-105820000D01*
X147900303Y-105782149D01*
X147817753Y-105627709D01*
X147706659Y-105492341D01*
X147672741Y-105464505D01*
X146979473Y-104771238D01*
X146972563Y-104749812D01*
X146911683Y-104640544D01*
X146830655Y-104545252D01*
X146363084Y-104093724D01*
X146265023Y-104016071D01*
X146181543Y-103973307D01*
X143026277Y-100818041D01*
X157051413Y-100818041D01*
X157090630Y-101060128D01*
X157176321Y-101289914D01*
X157218480Y-101368789D01*
X157443081Y-101417314D01*
X158120395Y-100740000D01*
X158479605Y-100740000D01*
X159156919Y-101417314D01*
X159381520Y-101368789D01*
X159483409Y-101145713D01*
X159539821Y-100907046D01*
X159543004Y-100818041D01*
X167211413Y-100818041D01*
X167250630Y-101060128D01*
X167336321Y-101289914D01*
X167378480Y-101368789D01*
X167603081Y-101417314D01*
X168280395Y-100740000D01*
X168639605Y-100740000D01*
X169316919Y-101417314D01*
X169541520Y-101368789D01*
X169643409Y-101145713D01*
X169699821Y-100907046D01*
X169708587Y-100661959D01*
X169669370Y-100419872D01*
X169583679Y-100190086D01*
X169541520Y-100111211D01*
X169316919Y-100062686D01*
X168639605Y-100740000D01*
X168280395Y-100740000D01*
X167603081Y-100062686D01*
X167378480Y-100111211D01*
X167276591Y-100334287D01*
X167220179Y-100572954D01*
X167211413Y-100818041D01*
X159543004Y-100818041D01*
X159548587Y-100661959D01*
X159509370Y-100419872D01*
X159423679Y-100190086D01*
X159381520Y-100111211D01*
X159156919Y-100062686D01*
X158479605Y-100740000D01*
X158120395Y-100740000D01*
X157443081Y-100062686D01*
X157218480Y-100111211D01*
X157116591Y-100334287D01*
X157060179Y-100572954D01*
X157051413Y-100818041D01*
X143026277Y-100818041D01*
X142735499Y-100527264D01*
X142707659Y-100493341D01*
X142572291Y-100382247D01*
X142417851Y-100299697D01*
X142250274Y-100248864D01*
X142119667Y-100236000D01*
X142119660Y-100236000D01*
X142076000Y-100231700D01*
X142032340Y-100236000D01*
X140220119Y-100236000D01*
X140219180Y-100235498D01*
X140099482Y-100199188D01*
X139975000Y-100186928D01*
X139325000Y-100186928D01*
X139200518Y-100199188D01*
X139080820Y-100235498D01*
X139079881Y-100236000D01*
X138720119Y-100236000D01*
X138719180Y-100235498D01*
X138599482Y-100199188D01*
X138475000Y-100186928D01*
X137825000Y-100186928D01*
X137700518Y-100199188D01*
X137580820Y-100235498D01*
X137470506Y-100294463D01*
X137373815Y-100373815D01*
X137350249Y-100402530D01*
X137349088Y-100401577D01*
X137349003Y-100400714D01*
X137305546Y-100257453D01*
X137234974Y-100125424D01*
X137140001Y-100009699D01*
X137024276Y-99914726D01*
X136965074Y-99883081D01*
X157622686Y-99883081D01*
X158300000Y-100560395D01*
X158977314Y-99883081D01*
X167782686Y-99883081D01*
X168460000Y-100560395D01*
X169137314Y-99883081D01*
X169088789Y-99658480D01*
X168865713Y-99556591D01*
X168627046Y-99500179D01*
X168381959Y-99491413D01*
X168139872Y-99530630D01*
X167910086Y-99616321D01*
X167831211Y-99658480D01*
X167782686Y-99883081D01*
X158977314Y-99883081D01*
X158928789Y-99658480D01*
X158705713Y-99556591D01*
X158467046Y-99500179D01*
X158221959Y-99491413D01*
X157979872Y-99530630D01*
X157750086Y-99616321D01*
X157671211Y-99658480D01*
X157622686Y-99883081D01*
X136965074Y-99883081D01*
X136892247Y-99844154D01*
X136781500Y-99810560D01*
X136781500Y-99576011D01*
X136825437Y-99532074D01*
X136938705Y-99362556D01*
X137016726Y-99174198D01*
X137040054Y-99056919D01*
X157622686Y-99056919D01*
X157671211Y-99281520D01*
X157894287Y-99383409D01*
X158132954Y-99439821D01*
X158378041Y-99448587D01*
X158620128Y-99409370D01*
X158849914Y-99323679D01*
X158928789Y-99281520D01*
X158977314Y-99056919D01*
X167782686Y-99056919D01*
X167831211Y-99281520D01*
X168054287Y-99383409D01*
X168292954Y-99439821D01*
X168538041Y-99448587D01*
X168780128Y-99409370D01*
X169009914Y-99323679D01*
X169088789Y-99281520D01*
X169137314Y-99056919D01*
X168460000Y-98379605D01*
X167782686Y-99056919D01*
X158977314Y-99056919D01*
X158300000Y-98379605D01*
X157622686Y-99056919D01*
X137040054Y-99056919D01*
X137056500Y-98974239D01*
X137056500Y-98770361D01*
X137034886Y-98661700D01*
X148875089Y-98661700D01*
X148919026Y-98705637D01*
X149088544Y-98818905D01*
X149276902Y-98896926D01*
X149476861Y-98936700D01*
X149680739Y-98936700D01*
X149880698Y-98896926D01*
X150069056Y-98818905D01*
X150238574Y-98705637D01*
X150382737Y-98561474D01*
X150496005Y-98391956D01*
X150543190Y-98278041D01*
X157051413Y-98278041D01*
X157090630Y-98520128D01*
X157176321Y-98749914D01*
X157218480Y-98828789D01*
X157443081Y-98877314D01*
X158120395Y-98200000D01*
X158479605Y-98200000D01*
X159156919Y-98877314D01*
X159381520Y-98828789D01*
X159483409Y-98605713D01*
X159539821Y-98367046D01*
X159543004Y-98278041D01*
X167211413Y-98278041D01*
X167250630Y-98520128D01*
X167336321Y-98749914D01*
X167378480Y-98828789D01*
X167603081Y-98877314D01*
X168280395Y-98200000D01*
X168639605Y-98200000D01*
X169316919Y-98877314D01*
X169541520Y-98828789D01*
X169643409Y-98605713D01*
X169699821Y-98367046D01*
X169708587Y-98121959D01*
X169669370Y-97879872D01*
X169583679Y-97650086D01*
X169541520Y-97571211D01*
X169316919Y-97522686D01*
X168639605Y-98200000D01*
X168280395Y-98200000D01*
X167603081Y-97522686D01*
X167378480Y-97571211D01*
X167276591Y-97794287D01*
X167220179Y-98032954D01*
X167211413Y-98278041D01*
X159543004Y-98278041D01*
X159548587Y-98121959D01*
X159509370Y-97879872D01*
X159423679Y-97650086D01*
X159381520Y-97571211D01*
X159156919Y-97522686D01*
X158479605Y-98200000D01*
X158120395Y-98200000D01*
X157443081Y-97522686D01*
X157218480Y-97571211D01*
X157116591Y-97794287D01*
X157060179Y-98032954D01*
X157051413Y-98278041D01*
X150543190Y-98278041D01*
X150574026Y-98203598D01*
X150613800Y-98003639D01*
X150613800Y-97799761D01*
X150574026Y-97599802D01*
X150496005Y-97411444D01*
X150450327Y-97343081D01*
X157622686Y-97343081D01*
X158300000Y-98020395D01*
X158977314Y-97343081D01*
X167782686Y-97343081D01*
X168460000Y-98020395D01*
X169137314Y-97343081D01*
X169088789Y-97118480D01*
X168865713Y-97016591D01*
X168627046Y-96960179D01*
X168381959Y-96951413D01*
X168139872Y-96990630D01*
X167910086Y-97076321D01*
X167831211Y-97118480D01*
X167782686Y-97343081D01*
X158977314Y-97343081D01*
X158928789Y-97118480D01*
X158705713Y-97016591D01*
X158467046Y-96960179D01*
X158221959Y-96951413D01*
X157979872Y-96990630D01*
X157750086Y-97076321D01*
X157671211Y-97118480D01*
X157622686Y-97343081D01*
X150450327Y-97343081D01*
X150382737Y-97241926D01*
X150238574Y-97097763D01*
X150069056Y-96984495D01*
X149880698Y-96906474D01*
X149680739Y-96866700D01*
X149476861Y-96866700D01*
X149276902Y-96906474D01*
X149088544Y-96984495D01*
X148919026Y-97097763D01*
X148875089Y-97141700D01*
X135232123Y-97141700D01*
X135194800Y-97138024D01*
X135157477Y-97141700D01*
X135157467Y-97141700D01*
X135045814Y-97152697D01*
X134902553Y-97196154D01*
X134770523Y-97266726D01*
X134686883Y-97335368D01*
X134654799Y-97361699D01*
X134631001Y-97390697D01*
X134075399Y-97946300D01*
X134013261Y-97946300D01*
X133813302Y-97986074D01*
X133624944Y-98064095D01*
X133455426Y-98177363D01*
X133311263Y-98321526D01*
X133197995Y-98491044D01*
X133119974Y-98679402D01*
X133080200Y-98879361D01*
X133080200Y-99083239D01*
X133103570Y-99200729D01*
X132899899Y-99404400D01*
X131776022Y-99404400D01*
X131738699Y-99400724D01*
X131701376Y-99404400D01*
X131701367Y-99404400D01*
X131589714Y-99415397D01*
X131446453Y-99458854D01*
X131314424Y-99529426D01*
X131198699Y-99624399D01*
X131174901Y-99653397D01*
X123408098Y-107420201D01*
X123379100Y-107443999D01*
X123355302Y-107472997D01*
X123355301Y-107472998D01*
X123284126Y-107559724D01*
X123213554Y-107691754D01*
X123189737Y-107770271D01*
X123171096Y-107831726D01*
X123170098Y-107835015D01*
X123155424Y-107984000D01*
X123060000Y-107984000D01*
X123060000Y-96516919D01*
X157622686Y-96516919D01*
X157671211Y-96741520D01*
X157894287Y-96843409D01*
X158132954Y-96899821D01*
X158378041Y-96908587D01*
X158620128Y-96869370D01*
X158849914Y-96783679D01*
X158928789Y-96741520D01*
X158977314Y-96516919D01*
X167782686Y-96516919D01*
X167831211Y-96741520D01*
X168054287Y-96843409D01*
X168292954Y-96899821D01*
X168538041Y-96908587D01*
X168780128Y-96869370D01*
X169009914Y-96783679D01*
X169088789Y-96741520D01*
X169137314Y-96516919D01*
X168460000Y-95839605D01*
X167782686Y-96516919D01*
X158977314Y-96516919D01*
X158300000Y-95839605D01*
X157622686Y-96516919D01*
X123060000Y-96516919D01*
X123060000Y-95738041D01*
X157051413Y-95738041D01*
X157090630Y-95980128D01*
X157176321Y-96209914D01*
X157218480Y-96288789D01*
X157443081Y-96337314D01*
X158120395Y-95660000D01*
X158479605Y-95660000D01*
X159156919Y-96337314D01*
X159381520Y-96288789D01*
X159483409Y-96065713D01*
X159539821Y-95827046D01*
X159543004Y-95738041D01*
X167211413Y-95738041D01*
X167250630Y-95980128D01*
X167336321Y-96209914D01*
X167378480Y-96288789D01*
X167603081Y-96337314D01*
X168280395Y-95660000D01*
X168639605Y-95660000D01*
X169316919Y-96337314D01*
X169541520Y-96288789D01*
X169643409Y-96065713D01*
X169699821Y-95827046D01*
X169708587Y-95581959D01*
X169669370Y-95339872D01*
X169583679Y-95110086D01*
X169541520Y-95031211D01*
X169316919Y-94982686D01*
X168639605Y-95660000D01*
X168280395Y-95660000D01*
X167603081Y-94982686D01*
X167378480Y-95031211D01*
X167276591Y-95254287D01*
X167220179Y-95492954D01*
X167211413Y-95738041D01*
X159543004Y-95738041D01*
X159548587Y-95581959D01*
X159509370Y-95339872D01*
X159423679Y-95110086D01*
X159381520Y-95031211D01*
X159156919Y-94982686D01*
X158479605Y-95660000D01*
X158120395Y-95660000D01*
X157443081Y-94982686D01*
X157218480Y-95031211D01*
X157116591Y-95254287D01*
X157060179Y-95492954D01*
X157051413Y-95738041D01*
X123060000Y-95738041D01*
X123060000Y-94803081D01*
X157622686Y-94803081D01*
X158300000Y-95480395D01*
X158977314Y-94803081D01*
X167782686Y-94803081D01*
X168460000Y-95480395D01*
X169137314Y-94803081D01*
X169088789Y-94578480D01*
X168865713Y-94476591D01*
X168627046Y-94420179D01*
X168381959Y-94411413D01*
X168139872Y-94450630D01*
X167910086Y-94536321D01*
X167831211Y-94578480D01*
X167782686Y-94803081D01*
X158977314Y-94803081D01*
X158928789Y-94578480D01*
X158705713Y-94476591D01*
X158467046Y-94420179D01*
X158221959Y-94411413D01*
X157979872Y-94450630D01*
X157750086Y-94536321D01*
X157671211Y-94578480D01*
X157622686Y-94803081D01*
X123060000Y-94803081D01*
X123060000Y-89845000D01*
X136611928Y-89845000D01*
X136624188Y-89969482D01*
X136660498Y-90089180D01*
X136693007Y-90150000D01*
X136660498Y-90210820D01*
X136624188Y-90330518D01*
X136611928Y-90455000D01*
X136611928Y-91385000D01*
X136624188Y-91509482D01*
X136660498Y-91629180D01*
X136719463Y-91739494D01*
X136798815Y-91836185D01*
X136895506Y-91915537D01*
X137005820Y-91974502D01*
X137125518Y-92010812D01*
X137250000Y-92023072D01*
X138230000Y-92023072D01*
X138354482Y-92010812D01*
X138474180Y-91974502D01*
X138501928Y-91959670D01*
X138501928Y-92200000D01*
X138514188Y-92324482D01*
X138550498Y-92444180D01*
X138609463Y-92554494D01*
X138688815Y-92651185D01*
X138751001Y-92702219D01*
X138751001Y-92905288D01*
X138736063Y-92920226D01*
X138622795Y-93089744D01*
X138544774Y-93278102D01*
X138505000Y-93478061D01*
X138505000Y-93681939D01*
X138544774Y-93881898D01*
X138622795Y-94070256D01*
X138736063Y-94239774D01*
X138880226Y-94383937D01*
X139049744Y-94497205D01*
X139238102Y-94575226D01*
X139438061Y-94615000D01*
X139641939Y-94615000D01*
X139841898Y-94575226D01*
X140030256Y-94497205D01*
X140199774Y-94383937D01*
X140343937Y-94239774D01*
X140457205Y-94070256D01*
X140535226Y-93881898D01*
X140575000Y-93681939D01*
X140575000Y-93478061D01*
X140535226Y-93278102D01*
X140529000Y-93263071D01*
X140529000Y-92702219D01*
X140591185Y-92651185D01*
X140670537Y-92554494D01*
X140729502Y-92444180D01*
X140765812Y-92324482D01*
X140778072Y-92200000D01*
X140778072Y-91600000D01*
X140765812Y-91475518D01*
X140750488Y-91425000D01*
X140765812Y-91374482D01*
X140778072Y-91250000D01*
X141101928Y-91250000D01*
X141114188Y-91374482D01*
X141129512Y-91425000D01*
X141114188Y-91475518D01*
X141101928Y-91600000D01*
X141101928Y-92200000D01*
X141114188Y-92324482D01*
X141150498Y-92444180D01*
X141209463Y-92554494D01*
X141288815Y-92651185D01*
X141351001Y-92702219D01*
X141351001Y-93263069D01*
X141344774Y-93278102D01*
X141305000Y-93478061D01*
X141305000Y-93681939D01*
X141344774Y-93881898D01*
X141422795Y-94070256D01*
X141536063Y-94239774D01*
X141680226Y-94383937D01*
X141849744Y-94497205D01*
X142038102Y-94575226D01*
X142238061Y-94615000D01*
X142441939Y-94615000D01*
X142641898Y-94575226D01*
X142830256Y-94497205D01*
X142999774Y-94383937D01*
X143143937Y-94239774D01*
X143257205Y-94070256D01*
X143295866Y-93976919D01*
X157622686Y-93976919D01*
X157671211Y-94201520D01*
X157894287Y-94303409D01*
X158132954Y-94359821D01*
X158378041Y-94368587D01*
X158620128Y-94329370D01*
X158849914Y-94243679D01*
X158928789Y-94201520D01*
X158977314Y-93976919D01*
X167782686Y-93976919D01*
X167831211Y-94201520D01*
X168054287Y-94303409D01*
X168292954Y-94359821D01*
X168538041Y-94368587D01*
X168780128Y-94329370D01*
X169009914Y-94243679D01*
X169088789Y-94201520D01*
X169137314Y-93976919D01*
X168460000Y-93299605D01*
X167782686Y-93976919D01*
X158977314Y-93976919D01*
X158300000Y-93299605D01*
X157622686Y-93976919D01*
X143295866Y-93976919D01*
X143335226Y-93881898D01*
X143375000Y-93681939D01*
X143375000Y-93478061D01*
X143335226Y-93278102D01*
X143302064Y-93198041D01*
X157051413Y-93198041D01*
X157090630Y-93440128D01*
X157176321Y-93669914D01*
X157218480Y-93748789D01*
X157443081Y-93797314D01*
X158120395Y-93120000D01*
X158479605Y-93120000D01*
X159156919Y-93797314D01*
X159381520Y-93748789D01*
X159483409Y-93525713D01*
X159539821Y-93287046D01*
X159543004Y-93198041D01*
X167211413Y-93198041D01*
X167250630Y-93440128D01*
X167336321Y-93669914D01*
X167378480Y-93748789D01*
X167603081Y-93797314D01*
X168280395Y-93120000D01*
X168639605Y-93120000D01*
X169316919Y-93797314D01*
X169541520Y-93748789D01*
X169643409Y-93525713D01*
X169699821Y-93287046D01*
X169708587Y-93041959D01*
X169669370Y-92799872D01*
X169583679Y-92570086D01*
X169541520Y-92491211D01*
X169316919Y-92442686D01*
X168639605Y-93120000D01*
X168280395Y-93120000D01*
X167603081Y-92442686D01*
X167378480Y-92491211D01*
X167276591Y-92714287D01*
X167220179Y-92952954D01*
X167211413Y-93198041D01*
X159543004Y-93198041D01*
X159548587Y-93041959D01*
X159509370Y-92799872D01*
X159423679Y-92570086D01*
X159381520Y-92491211D01*
X159156919Y-92442686D01*
X158479605Y-93120000D01*
X158120395Y-93120000D01*
X157443081Y-92442686D01*
X157218480Y-92491211D01*
X157116591Y-92714287D01*
X157060179Y-92952954D01*
X157051413Y-93198041D01*
X143302064Y-93198041D01*
X143257205Y-93089744D01*
X143143937Y-92920226D01*
X143129000Y-92905289D01*
X143129000Y-92702219D01*
X143191185Y-92651185D01*
X143270537Y-92554494D01*
X143329502Y-92444180D01*
X143365812Y-92324482D01*
X143371859Y-92263081D01*
X157622686Y-92263081D01*
X158300000Y-92940395D01*
X158977314Y-92263081D01*
X167782686Y-92263081D01*
X168460000Y-92940395D01*
X169137314Y-92263081D01*
X169088789Y-92038480D01*
X168865713Y-91936591D01*
X168627046Y-91880179D01*
X168381959Y-91871413D01*
X168139872Y-91910630D01*
X167910086Y-91996321D01*
X167831211Y-92038480D01*
X167782686Y-92263081D01*
X158977314Y-92263081D01*
X158928789Y-92038480D01*
X158705713Y-91936591D01*
X158467046Y-91880179D01*
X158221959Y-91871413D01*
X157979872Y-91910630D01*
X157750086Y-91996321D01*
X157671211Y-92038480D01*
X157622686Y-92263081D01*
X143371859Y-92263081D01*
X143378072Y-92200000D01*
X143378072Y-91600000D01*
X143365812Y-91475518D01*
X143354104Y-91436919D01*
X157622686Y-91436919D01*
X157671211Y-91661520D01*
X157894287Y-91763409D01*
X158132954Y-91819821D01*
X158378041Y-91828587D01*
X158620128Y-91789370D01*
X158849914Y-91703679D01*
X158928789Y-91661520D01*
X158977314Y-91436919D01*
X167782686Y-91436919D01*
X167831211Y-91661520D01*
X168054287Y-91763409D01*
X168292954Y-91819821D01*
X168538041Y-91828587D01*
X168780128Y-91789370D01*
X169009914Y-91703679D01*
X169088789Y-91661520D01*
X169137314Y-91436919D01*
X168460000Y-90759605D01*
X167782686Y-91436919D01*
X158977314Y-91436919D01*
X158300000Y-90759605D01*
X157622686Y-91436919D01*
X143354104Y-91436919D01*
X143350488Y-91425000D01*
X143365812Y-91374482D01*
X143378072Y-91250000D01*
X143375000Y-91235750D01*
X143216250Y-91077000D01*
X143103678Y-91077000D01*
X143094494Y-91069463D01*
X142984180Y-91010498D01*
X142864482Y-90974188D01*
X142740000Y-90961928D01*
X141740000Y-90961928D01*
X141615518Y-90974188D01*
X141495820Y-91010498D01*
X141385506Y-91069463D01*
X141376322Y-91077000D01*
X141263750Y-91077000D01*
X141105000Y-91235750D01*
X141101928Y-91250000D01*
X140778072Y-91250000D01*
X140778072Y-90650000D01*
X140765812Y-90525518D01*
X140750488Y-90475000D01*
X140765812Y-90424482D01*
X140773794Y-90343442D01*
X140930000Y-90187236D01*
X141108392Y-90365627D01*
X141114188Y-90424482D01*
X141129512Y-90475000D01*
X141114188Y-90525518D01*
X141101928Y-90650000D01*
X141105000Y-90664250D01*
X141263750Y-90823000D01*
X141376322Y-90823000D01*
X141385506Y-90830537D01*
X141495820Y-90889502D01*
X141615518Y-90925812D01*
X141740000Y-90938072D01*
X142740000Y-90938072D01*
X142864482Y-90925812D01*
X142984180Y-90889502D01*
X143094494Y-90830537D01*
X143103678Y-90823000D01*
X143216250Y-90823000D01*
X143375000Y-90664250D01*
X143376338Y-90658041D01*
X157051413Y-90658041D01*
X157090630Y-90900128D01*
X157176321Y-91129914D01*
X157218480Y-91208789D01*
X157443081Y-91257314D01*
X158120395Y-90580000D01*
X158479605Y-90580000D01*
X159156919Y-91257314D01*
X159381520Y-91208789D01*
X159483409Y-90985713D01*
X159539821Y-90747046D01*
X159543004Y-90658041D01*
X167211413Y-90658041D01*
X167250630Y-90900128D01*
X167336321Y-91129914D01*
X167378480Y-91208789D01*
X167603081Y-91257314D01*
X168280395Y-90580000D01*
X168639605Y-90580000D01*
X169316919Y-91257314D01*
X169541520Y-91208789D01*
X169643409Y-90985713D01*
X169699821Y-90747046D01*
X169708587Y-90501959D01*
X169669370Y-90259872D01*
X169583679Y-90030086D01*
X169541520Y-89951211D01*
X169316919Y-89902686D01*
X168639605Y-90580000D01*
X168280395Y-90580000D01*
X167603081Y-89902686D01*
X167378480Y-89951211D01*
X167276591Y-90174287D01*
X167220179Y-90412954D01*
X167211413Y-90658041D01*
X159543004Y-90658041D01*
X159548587Y-90501959D01*
X159509370Y-90259872D01*
X159423679Y-90030086D01*
X159381520Y-89951211D01*
X159156919Y-89902686D01*
X158479605Y-90580000D01*
X158120395Y-90580000D01*
X157443081Y-89902686D01*
X157218480Y-89951211D01*
X157116591Y-90174287D01*
X157060179Y-90412954D01*
X157051413Y-90658041D01*
X143376338Y-90658041D01*
X143378072Y-90650000D01*
X143365812Y-90525518D01*
X143350488Y-90475000D01*
X143365812Y-90424482D01*
X143378072Y-90300000D01*
X143378072Y-89723081D01*
X157622686Y-89723081D01*
X158300000Y-90400395D01*
X158977314Y-89723081D01*
X167782686Y-89723081D01*
X168460000Y-90400395D01*
X169137314Y-89723081D01*
X169088789Y-89498480D01*
X168865713Y-89396591D01*
X168627046Y-89340179D01*
X168381959Y-89331413D01*
X168139872Y-89370630D01*
X167910086Y-89456321D01*
X167831211Y-89498480D01*
X167782686Y-89723081D01*
X158977314Y-89723081D01*
X158928789Y-89498480D01*
X158705713Y-89396591D01*
X158467046Y-89340179D01*
X158221959Y-89331413D01*
X157979872Y-89370630D01*
X157750086Y-89456321D01*
X157671211Y-89498480D01*
X157622686Y-89723081D01*
X143378072Y-89723081D01*
X143378072Y-89700000D01*
X143365812Y-89575518D01*
X143329502Y-89455820D01*
X143270537Y-89345506D01*
X143191185Y-89248815D01*
X143094494Y-89169463D01*
X142984180Y-89110498D01*
X142864482Y-89074188D01*
X142740000Y-89061928D01*
X142319164Y-89061928D01*
X142154155Y-88896919D01*
X157622686Y-88896919D01*
X157671211Y-89121520D01*
X157894287Y-89223409D01*
X158132954Y-89279821D01*
X158378041Y-89288587D01*
X158620128Y-89249370D01*
X158849914Y-89163679D01*
X158928789Y-89121520D01*
X158977314Y-88896919D01*
X167782686Y-88896919D01*
X167831211Y-89121520D01*
X168054287Y-89223409D01*
X168292954Y-89279821D01*
X168538041Y-89288587D01*
X168780128Y-89249370D01*
X169009914Y-89163679D01*
X169088789Y-89121520D01*
X169137314Y-88896919D01*
X168460000Y-88219605D01*
X167782686Y-88896919D01*
X158977314Y-88896919D01*
X158300000Y-88219605D01*
X157622686Y-88896919D01*
X142154155Y-88896919D01*
X141935130Y-88677895D01*
X141925226Y-88628102D01*
X141847205Y-88439744D01*
X141733937Y-88270226D01*
X141589774Y-88126063D01*
X141420256Y-88012795D01*
X141231898Y-87934774D01*
X141031939Y-87895000D01*
X140927702Y-87895000D01*
X141732034Y-87090668D01*
X141765000Y-87152343D01*
X141765000Y-87251939D01*
X141804774Y-87451898D01*
X141882795Y-87640256D01*
X141996063Y-87809774D01*
X142140226Y-87953937D01*
X142309744Y-88067205D01*
X142498102Y-88145226D01*
X142698061Y-88185000D01*
X142901939Y-88185000D01*
X143101898Y-88145226D01*
X143167527Y-88118041D01*
X157051413Y-88118041D01*
X157090630Y-88360128D01*
X157176321Y-88589914D01*
X157218480Y-88668789D01*
X157443081Y-88717314D01*
X158120395Y-88040000D01*
X158479605Y-88040000D01*
X159156919Y-88717314D01*
X159381520Y-88668789D01*
X159483409Y-88445713D01*
X159539821Y-88207046D01*
X159543004Y-88118041D01*
X167211413Y-88118041D01*
X167250630Y-88360128D01*
X167336321Y-88589914D01*
X167378480Y-88668789D01*
X167603081Y-88717314D01*
X168280395Y-88040000D01*
X168639605Y-88040000D01*
X169316919Y-88717314D01*
X169541520Y-88668789D01*
X169643409Y-88445713D01*
X169699821Y-88207046D01*
X169708587Y-87961959D01*
X169669370Y-87719872D01*
X169583679Y-87490086D01*
X169541520Y-87411211D01*
X169316919Y-87362686D01*
X168639605Y-88040000D01*
X168280395Y-88040000D01*
X167603081Y-87362686D01*
X167378480Y-87411211D01*
X167276591Y-87634287D01*
X167220179Y-87872954D01*
X167211413Y-88118041D01*
X159543004Y-88118041D01*
X159548587Y-87961959D01*
X159509370Y-87719872D01*
X159423679Y-87490086D01*
X159381520Y-87411211D01*
X159156919Y-87362686D01*
X158479605Y-88040000D01*
X158120395Y-88040000D01*
X157443081Y-87362686D01*
X157218480Y-87411211D01*
X157116591Y-87634287D01*
X157060179Y-87872954D01*
X157051413Y-88118041D01*
X143167527Y-88118041D01*
X143290256Y-88067205D01*
X143459774Y-87953937D01*
X143603937Y-87809774D01*
X143717205Y-87640256D01*
X143795226Y-87451898D01*
X143835000Y-87251939D01*
X143835000Y-87183081D01*
X157622686Y-87183081D01*
X158300000Y-87860395D01*
X158977314Y-87183081D01*
X167782686Y-87183081D01*
X168460000Y-87860395D01*
X169137314Y-87183081D01*
X169088789Y-86958480D01*
X168865713Y-86856591D01*
X168627046Y-86800179D01*
X168381959Y-86791413D01*
X168139872Y-86830630D01*
X167910086Y-86916321D01*
X167831211Y-86958480D01*
X167782686Y-87183081D01*
X158977314Y-87183081D01*
X158928789Y-86958480D01*
X158705713Y-86856591D01*
X158467046Y-86800179D01*
X158221959Y-86791413D01*
X157979872Y-86830630D01*
X157750086Y-86916321D01*
X157671211Y-86958480D01*
X157622686Y-87183081D01*
X143835000Y-87183081D01*
X143835000Y-87083759D01*
X143877898Y-87075226D01*
X144066256Y-86997205D01*
X144235774Y-86883937D01*
X144379937Y-86739774D01*
X144493205Y-86570256D01*
X144571226Y-86381898D01*
X144611000Y-86181939D01*
X144611000Y-85978061D01*
X144571226Y-85778102D01*
X144557002Y-85743762D01*
X144557002Y-85636252D01*
X144715750Y-85795000D01*
X144730000Y-85798072D01*
X144854482Y-85785812D01*
X144974180Y-85749502D01*
X145084494Y-85690537D01*
X145181185Y-85611185D01*
X145260537Y-85514494D01*
X145319502Y-85404180D01*
X145355812Y-85284482D01*
X145368072Y-85160000D01*
X145367247Y-85042104D01*
X145373000Y-85037954D01*
X145373000Y-83647000D01*
X145627000Y-83647000D01*
X145627000Y-85037954D01*
X145801874Y-85164119D01*
X146024976Y-85084276D01*
X146212764Y-84962369D01*
X146373161Y-84806169D01*
X146500003Y-84621678D01*
X146588415Y-84415987D01*
X146635000Y-84197000D01*
X146635000Y-83647000D01*
X145627000Y-83647000D01*
X145373000Y-83647000D01*
X145361867Y-83647000D01*
X145355812Y-83585518D01*
X145353000Y-83576248D01*
X145353000Y-83393000D01*
X145373000Y-83393000D01*
X145373000Y-82002046D01*
X145627000Y-82002046D01*
X145627000Y-83393000D01*
X146635000Y-83393000D01*
X146635000Y-82843000D01*
X146588415Y-82624013D01*
X146500003Y-82418322D01*
X146373161Y-82233831D01*
X146212764Y-82077631D01*
X146024976Y-81955724D01*
X145801874Y-81875881D01*
X145627000Y-82002046D01*
X145373000Y-82002046D01*
X145198126Y-81875881D01*
X144975024Y-81955724D01*
X144787236Y-82077631D01*
X144642884Y-82218206D01*
X144524731Y-82139259D01*
X144350022Y-82066892D01*
X144164552Y-82030000D01*
X143975448Y-82030000D01*
X143789978Y-82066892D01*
X143615269Y-82139259D01*
X143458036Y-82244319D01*
X143369453Y-82332902D01*
X143194330Y-82157710D01*
X143170422Y-82128578D01*
X143111468Y-82080196D01*
X143054519Y-82033440D01*
X143054452Y-82033404D01*
X143054392Y-82033355D01*
X142987917Y-81997823D01*
X142922157Y-81962657D01*
X142922084Y-81962635D01*
X142922015Y-81962598D01*
X142846985Y-81939838D01*
X142778528Y-81919057D01*
X142778457Y-81919050D01*
X142778378Y-81919026D01*
X142700743Y-81911380D01*
X142629152Y-81904314D01*
X142591652Y-81908000D01*
X139768347Y-81908000D01*
X139730847Y-81904314D01*
X139658784Y-81911426D01*
X139581622Y-81919026D01*
X139581543Y-81919050D01*
X139581471Y-81919057D01*
X139512272Y-81940063D01*
X139437985Y-81962598D01*
X139437916Y-81962635D01*
X139437843Y-81962657D01*
X139371033Y-81998385D01*
X139305608Y-82033355D01*
X139305550Y-82033403D01*
X139305480Y-82033440D01*
X139247716Y-82080866D01*
X139189578Y-82128578D01*
X139165670Y-82157711D01*
X138990548Y-82332903D01*
X138901964Y-82244319D01*
X138744731Y-82139259D01*
X138570022Y-82066892D01*
X138384552Y-82030000D01*
X138195448Y-82030000D01*
X138009978Y-82066892D01*
X137835269Y-82139259D01*
X137717116Y-82218206D01*
X137572764Y-82077631D01*
X137384976Y-81955724D01*
X137161874Y-81875881D01*
X136987000Y-82002046D01*
X136987000Y-83393000D01*
X137007000Y-83393000D01*
X137007000Y-83576248D01*
X137004188Y-83585518D01*
X136998133Y-83647000D01*
X136987000Y-83647000D01*
X136987000Y-85037954D01*
X136992753Y-85042104D01*
X136991928Y-85160000D01*
X137004188Y-85284482D01*
X137040498Y-85404180D01*
X137099463Y-85514494D01*
X137178815Y-85611185D01*
X137275506Y-85690537D01*
X137385820Y-85749502D01*
X137505518Y-85785812D01*
X137630000Y-85798072D01*
X137644250Y-85795000D01*
X137803000Y-85636250D01*
X137803000Y-85272420D01*
X137804188Y-85284482D01*
X137840498Y-85404180D01*
X137899463Y-85514494D01*
X137978815Y-85611185D01*
X138075506Y-85690537D01*
X138152375Y-85731625D01*
X138215750Y-85795000D01*
X138230000Y-85798072D01*
X138330000Y-85788223D01*
X138430000Y-85798072D01*
X138668001Y-85798072D01*
X138668001Y-86448288D01*
X138616063Y-86500226D01*
X138502795Y-86669744D01*
X138424774Y-86858102D01*
X138385000Y-87058061D01*
X138385000Y-87261939D01*
X138424774Y-87461898D01*
X138502795Y-87650256D01*
X138555321Y-87728868D01*
X138494163Y-87790026D01*
X138380895Y-87959544D01*
X138302874Y-88147902D01*
X138276302Y-88281488D01*
X138230000Y-88276928D01*
X138025750Y-88280000D01*
X137867000Y-88438750D01*
X137867000Y-89253000D01*
X137887000Y-89253000D01*
X137887000Y-89507000D01*
X137867000Y-89507000D01*
X137867000Y-89527000D01*
X137613000Y-89527000D01*
X137613000Y-89507000D01*
X136773750Y-89507000D01*
X136615000Y-89665750D01*
X136611928Y-89845000D01*
X123060000Y-89845000D01*
X123060000Y-88915000D01*
X136611928Y-88915000D01*
X136615000Y-89094250D01*
X136773750Y-89253000D01*
X137613000Y-89253000D01*
X137613000Y-88438750D01*
X137454250Y-88280000D01*
X137250000Y-88276928D01*
X137125518Y-88289188D01*
X137005820Y-88325498D01*
X136895506Y-88384463D01*
X136798815Y-88463815D01*
X136719463Y-88560506D01*
X136660498Y-88670820D01*
X136624188Y-88790518D01*
X136611928Y-88915000D01*
X123060000Y-88915000D01*
X123060000Y-83647000D01*
X135725000Y-83647000D01*
X135725000Y-84197000D01*
X135771585Y-84415987D01*
X135859997Y-84621678D01*
X135986839Y-84806169D01*
X136147236Y-84962369D01*
X136335024Y-85084276D01*
X136558126Y-85164119D01*
X136733000Y-85037954D01*
X136733000Y-83647000D01*
X135725000Y-83647000D01*
X123060000Y-83647000D01*
X123060000Y-82843000D01*
X135725000Y-82843000D01*
X135725000Y-83393000D01*
X136733000Y-83393000D01*
X136733000Y-82002046D01*
X136558126Y-81875881D01*
X136335024Y-81955724D01*
X136147236Y-82077631D01*
X135986839Y-82233831D01*
X135859997Y-82418322D01*
X135771585Y-82624013D01*
X135725000Y-82843000D01*
X123060000Y-82843000D01*
X123060000Y-79467000D01*
X135725000Y-79467000D01*
X135725000Y-79767000D01*
X135771585Y-79985987D01*
X135859997Y-80191678D01*
X135986839Y-80376169D01*
X136147236Y-80532369D01*
X136335024Y-80654276D01*
X136558126Y-80734119D01*
X136733000Y-80607954D01*
X136733000Y-79467000D01*
X136987000Y-79467000D01*
X136987000Y-80607954D01*
X137161874Y-80734119D01*
X137384976Y-80654276D01*
X137572764Y-80532369D01*
X137733161Y-80376169D01*
X137860003Y-80191678D01*
X137948415Y-79985987D01*
X137995000Y-79767000D01*
X137995000Y-79467000D01*
X144365000Y-79467000D01*
X144365000Y-79767000D01*
X144411585Y-79985987D01*
X144499997Y-80191678D01*
X144626839Y-80376169D01*
X144787236Y-80532369D01*
X144975024Y-80654276D01*
X145198126Y-80734119D01*
X145373000Y-80607954D01*
X145373000Y-79467000D01*
X145627000Y-79467000D01*
X145627000Y-80607954D01*
X145801874Y-80734119D01*
X146024976Y-80654276D01*
X146212764Y-80532369D01*
X146373161Y-80376169D01*
X146500003Y-80191678D01*
X146588415Y-79985987D01*
X146635000Y-79767000D01*
X146635000Y-79467000D01*
X145627000Y-79467000D01*
X145373000Y-79467000D01*
X144365000Y-79467000D01*
X137995000Y-79467000D01*
X136987000Y-79467000D01*
X136733000Y-79467000D01*
X135725000Y-79467000D01*
X123060000Y-79467000D01*
X123060000Y-78350815D01*
X135943603Y-78366717D01*
%TA.AperFunction,Conductor*%
D30*
G36*
X135943603Y-78366717D02*
G01*
X135859997Y-78488322D01*
X135771585Y-78694013D01*
X135725000Y-78913000D01*
X135725000Y-79213000D01*
X136733000Y-79213000D01*
X136733000Y-79193000D01*
X136987000Y-79193000D01*
X136987000Y-79213000D01*
X137995000Y-79213000D01*
X137995000Y-78913000D01*
X137948415Y-78694013D01*
X137860003Y-78488322D01*
X137777953Y-78368981D01*
X144576277Y-78377372D01*
X144499997Y-78488322D01*
X144411585Y-78694013D01*
X144365000Y-78913000D01*
X144365000Y-79213000D01*
X145373000Y-79213000D01*
X145373000Y-79193000D01*
X145627000Y-79193000D01*
X145627000Y-79213000D01*
X146635000Y-79213000D01*
X146635000Y-78913000D01*
X146588415Y-78694013D01*
X146500003Y-78488322D01*
X146425292Y-78379655D01*
X170350000Y-78409185D01*
X170350001Y-123470000D01*
X123060000Y-123470000D01*
X123060000Y-121206807D01*
X140913596Y-121206807D01*
X141000561Y-121363578D01*
X141073419Y-121465252D01*
X141164714Y-121550759D01*
X141270936Y-121616811D01*
X141388002Y-121660872D01*
X141511415Y-121681247D01*
X141636432Y-121677156D01*
X141758249Y-121648752D01*
X141872184Y-121597128D01*
X142047533Y-121492343D01*
X142105640Y-121275486D01*
X141698515Y-120570325D01*
X140971703Y-120989950D01*
X140913596Y-121206807D01*
X123060000Y-121206807D01*
X123060000Y-107984000D01*
X123155424Y-107984000D01*
X123159101Y-108021332D01*
X123159100Y-112586177D01*
X123155424Y-112623500D01*
X123159100Y-112660822D01*
X123159100Y-112660832D01*
X123170097Y-112772485D01*
X123207927Y-112897196D01*
X123213554Y-112915746D01*
X123284126Y-113047776D01*
X123320622Y-113092246D01*
X123379099Y-113163501D01*
X123408103Y-113187304D01*
X130956805Y-120736008D01*
X130980599Y-120765001D01*
X131009592Y-120788795D01*
X131009596Y-120788799D01*
X131024689Y-120801185D01*
X131096324Y-120859974D01*
X131228353Y-120930546D01*
X131371614Y-120974003D01*
X131483267Y-120985000D01*
X131483276Y-120985000D01*
X131520599Y-120988676D01*
X131557922Y-120985000D01*
X131834556Y-120985000D01*
X131920506Y-121055537D01*
X132030820Y-121114502D01*
X132150518Y-121150812D01*
X132275000Y-121163072D01*
X132925000Y-121163072D01*
X133049482Y-121150812D01*
X133169180Y-121114502D01*
X133279494Y-121055537D01*
X133363007Y-120987000D01*
X134436993Y-120987000D01*
X134520506Y-121055537D01*
X134630820Y-121114502D01*
X134750518Y-121150812D01*
X134875000Y-121163072D01*
X135525000Y-121163072D01*
X135649482Y-121150812D01*
X135769180Y-121114502D01*
X135879494Y-121055537D01*
X135976185Y-120976185D01*
X136055537Y-120879494D01*
X136114502Y-120769180D01*
X136150812Y-120649482D01*
X136163072Y-120525000D01*
X136163072Y-119925000D01*
X136150812Y-119800518D01*
X136150655Y-119800000D01*
X136150812Y-119799482D01*
X136163072Y-119675000D01*
X136163072Y-119075000D01*
X136150812Y-118950518D01*
X136114502Y-118830820D01*
X136055537Y-118720506D01*
X135976185Y-118623815D01*
X135912000Y-118571140D01*
X135912000Y-117617125D01*
X135935887Y-117624371D01*
X136075000Y-117638072D01*
X136225000Y-117638072D01*
X136364113Y-117624371D01*
X136400000Y-117613485D01*
X136435887Y-117624371D01*
X136575000Y-117638072D01*
X136725000Y-117638072D01*
X136864113Y-117624371D01*
X136888000Y-117617125D01*
X136888001Y-118808731D01*
X136830506Y-118839463D01*
X136733815Y-118918815D01*
X136654463Y-119015506D01*
X136595498Y-119125820D01*
X136559188Y-119245518D01*
X136546928Y-119370000D01*
X136546928Y-120350000D01*
X136559188Y-120474482D01*
X136595498Y-120594180D01*
X136654463Y-120704494D01*
X136733815Y-120801185D01*
X136830506Y-120880537D01*
X136940820Y-120939502D01*
X137060518Y-120975812D01*
X137185000Y-120988072D01*
X138115000Y-120988072D01*
X138239482Y-120975812D01*
X138359180Y-120939502D01*
X138420000Y-120906993D01*
X138480820Y-120939502D01*
X138600518Y-120975812D01*
X138725000Y-120988072D01*
X138904250Y-120985000D01*
X139063000Y-120826250D01*
X139063000Y-119987000D01*
X139043000Y-119987000D01*
X139043000Y-119733000D01*
X139063000Y-119733000D01*
X139063000Y-118893750D01*
X138904250Y-118735000D01*
X138725000Y-118731928D01*
X138600518Y-118744188D01*
X138480820Y-118780498D01*
X138420000Y-118813007D01*
X138412000Y-118808731D01*
X138412000Y-117617125D01*
X138435887Y-117624371D01*
X138575000Y-117638072D01*
X138725000Y-117638072D01*
X138864113Y-117624371D01*
X138866003Y-117623798D01*
X138866439Y-117623937D01*
X138888001Y-117626280D01*
X138888001Y-117700567D01*
X138884314Y-117738000D01*
X138899027Y-117887378D01*
X138942599Y-118031015D01*
X139013355Y-118163392D01*
X139084721Y-118250351D01*
X139108579Y-118279422D01*
X139137649Y-118303279D01*
X139567792Y-118733423D01*
X139475750Y-118735000D01*
X139317000Y-118893750D01*
X139317000Y-119733000D01*
X139337000Y-119733000D01*
X139337000Y-119987000D01*
X139317000Y-119987000D01*
X139317000Y-120826250D01*
X139475750Y-120985000D01*
X139655000Y-120988072D01*
X139779482Y-120975812D01*
X139899180Y-120939502D01*
X140009494Y-120880537D01*
X140106185Y-120801185D01*
X140185537Y-120704494D01*
X140244502Y-120594180D01*
X140280812Y-120474482D01*
X140293072Y-120350000D01*
X140290000Y-120145750D01*
X140131252Y-119987002D01*
X140205795Y-119987002D01*
X140230561Y-120029898D01*
X140303420Y-120131572D01*
X140394715Y-120217079D01*
X140453278Y-120253496D01*
X140455534Y-120322423D01*
X140483937Y-120444240D01*
X140535561Y-120558174D01*
X140627846Y-120711873D01*
X140844703Y-120769980D01*
X141410486Y-120443325D01*
X141918485Y-120443325D01*
X142325610Y-121148486D01*
X142542467Y-121206593D01*
X142720888Y-121107128D01*
X142822563Y-121034270D01*
X142908070Y-120942976D01*
X142974122Y-120836753D01*
X143018183Y-120719687D01*
X143038558Y-120596274D01*
X143034466Y-120471257D01*
X143006063Y-120349440D01*
X142977000Y-120285297D01*
X148893700Y-120285297D01*
X148951807Y-120502154D01*
X149105506Y-120594439D01*
X149219440Y-120646063D01*
X149341257Y-120674466D01*
X149466274Y-120678558D01*
X149589687Y-120658183D01*
X149706753Y-120614122D01*
X149812976Y-120548070D01*
X149904270Y-120462563D01*
X149977128Y-120360888D01*
X150076593Y-120182467D01*
X150018486Y-119965610D01*
X149313325Y-119558485D01*
X148893700Y-120285297D01*
X142977000Y-120285297D01*
X142954439Y-120235506D01*
X142862154Y-120081807D01*
X142645297Y-120023700D01*
X141918485Y-120443325D01*
X141410486Y-120443325D01*
X141571515Y-120350355D01*
X141561515Y-120333034D01*
X141781485Y-120206034D01*
X141791485Y-120223355D01*
X142518297Y-119803730D01*
X142576404Y-119586873D01*
X142489439Y-119430102D01*
X142416581Y-119328428D01*
X142325286Y-119242921D01*
X142266722Y-119206504D01*
X142264465Y-119137577D01*
X142236062Y-119015761D01*
X142184439Y-118901826D01*
X141719439Y-118096422D01*
X141646580Y-117994748D01*
X141555285Y-117909241D01*
X141449064Y-117843188D01*
X141331997Y-117799128D01*
X141208584Y-117778752D01*
X141083567Y-117782845D01*
X140961750Y-117811248D01*
X140851041Y-117861411D01*
X140412000Y-117422370D01*
X140412000Y-117104895D01*
X140424371Y-117064113D01*
X140438072Y-116925000D01*
X140438072Y-115525000D01*
X140424371Y-115385887D01*
X140412000Y-115345105D01*
X140412000Y-115062000D01*
X140693577Y-115062000D01*
X140695840Y-115062223D01*
X140735887Y-115074371D01*
X140813001Y-115081966D01*
X140813001Y-115217531D01*
X140754774Y-115358102D01*
X140715000Y-115558061D01*
X140715000Y-115761939D01*
X140754774Y-115961898D01*
X140832795Y-116150256D01*
X140946063Y-116319774D01*
X141090226Y-116463937D01*
X141259744Y-116577205D01*
X141448102Y-116655226D01*
X141648061Y-116695000D01*
X141851939Y-116695000D01*
X142051898Y-116655226D01*
X142240256Y-116577205D01*
X142409774Y-116463937D01*
X142553937Y-116319774D01*
X142667205Y-116150256D01*
X142745226Y-115961898D01*
X142785000Y-115761939D01*
X142785000Y-115558061D01*
X142745226Y-115358102D01*
X142667205Y-115169744D01*
X142568870Y-115022574D01*
X142671162Y-114967898D01*
X142779218Y-114879218D01*
X142867898Y-114771162D01*
X142933793Y-114647881D01*
X142974371Y-114514113D01*
X142988072Y-114375000D01*
X142988072Y-114225000D01*
X142974371Y-114085887D01*
X142963485Y-114050000D01*
X142974371Y-114014113D01*
X142981643Y-113940274D01*
X144327856Y-115286487D01*
X144306042Y-115306918D01*
X144233183Y-115408592D01*
X143283183Y-117054040D01*
X143231560Y-117167974D01*
X143203157Y-117289791D01*
X143199064Y-117414808D01*
X143219440Y-117538221D01*
X143263501Y-117655288D01*
X143329553Y-117761510D01*
X143415060Y-117852804D01*
X143516734Y-117925662D01*
X145595194Y-119125662D01*
X145709128Y-119177286D01*
X145830945Y-119205689D01*
X145955962Y-119209782D01*
X146079375Y-119189406D01*
X146196442Y-119145345D01*
X146239771Y-119118401D01*
X146248716Y-119127346D01*
X146272578Y-119156422D01*
X146337598Y-119209782D01*
X146388607Y-119251645D01*
X146434981Y-119276432D01*
X146520985Y-119322402D01*
X146664622Y-119365974D01*
X146776574Y-119377000D01*
X146776577Y-119377000D01*
X146814000Y-119380686D01*
X146851423Y-119377000D01*
X146996839Y-119377000D01*
X147771826Y-119824439D01*
X147885760Y-119876062D01*
X148007577Y-119904465D01*
X148076504Y-119906722D01*
X148112921Y-119965286D01*
X148198428Y-120056581D01*
X148300102Y-120129439D01*
X148456873Y-120216404D01*
X148673730Y-120158297D01*
X149093355Y-119431485D01*
X149076034Y-119421485D01*
X149123936Y-119338515D01*
X149440325Y-119338515D01*
X150145486Y-119745640D01*
X150362343Y-119687533D01*
X150467128Y-119512184D01*
X150518752Y-119398249D01*
X150547156Y-119276432D01*
X150551247Y-119151415D01*
X150530872Y-119028002D01*
X150486811Y-118910936D01*
X150420759Y-118804714D01*
X150335252Y-118713419D01*
X150233578Y-118640561D01*
X150076807Y-118553596D01*
X149859950Y-118611703D01*
X149440325Y-119338515D01*
X149123936Y-119338515D01*
X149203034Y-119201515D01*
X149220355Y-119211515D01*
X149639980Y-118484703D01*
X149581873Y-118267846D01*
X149428174Y-118175561D01*
X149314240Y-118123937D01*
X149192423Y-118095534D01*
X149123495Y-118093278D01*
X149087078Y-118034714D01*
X149001572Y-117943420D01*
X148899898Y-117870561D01*
X148094494Y-117405561D01*
X147980560Y-117353938D01*
X147858743Y-117325535D01*
X147733726Y-117321442D01*
X147610313Y-117341818D01*
X147493246Y-117385878D01*
X147387025Y-117451931D01*
X147295730Y-117537438D01*
X147222872Y-117639112D01*
X147110455Y-117833825D01*
X147089765Y-117813135D01*
X147416817Y-117246664D01*
X147468440Y-117132730D01*
X147496843Y-117010913D01*
X147500936Y-116885896D01*
X147480560Y-116762483D01*
X147445864Y-116670297D01*
X151093700Y-116670297D01*
X151151807Y-116887154D01*
X151305506Y-116979439D01*
X151419440Y-117031063D01*
X151541257Y-117059466D01*
X151666274Y-117063558D01*
X151789687Y-117043183D01*
X151906753Y-116999122D01*
X152012976Y-116933070D01*
X152104270Y-116847563D01*
X152177128Y-116745888D01*
X152276593Y-116567467D01*
X152218486Y-116350610D01*
X151513325Y-115943485D01*
X151093700Y-116670297D01*
X147445864Y-116670297D01*
X147436499Y-116645416D01*
X147370447Y-116539194D01*
X147284940Y-116447900D01*
X147183266Y-116375042D01*
X146112000Y-115756546D01*
X146112000Y-115268423D01*
X146115686Y-115231000D01*
X146112000Y-115193574D01*
X146100974Y-115081622D01*
X146057402Y-114937985D01*
X146010915Y-114851014D01*
X145986645Y-114805607D01*
X145915279Y-114718648D01*
X145891422Y-114689578D01*
X145862353Y-114665722D01*
X145578221Y-114381590D01*
X147645194Y-115574958D01*
X147759128Y-115626582D01*
X147880945Y-115654985D01*
X148005962Y-115659078D01*
X148129375Y-115638702D01*
X148246442Y-115594641D01*
X148290240Y-115567406D01*
X148374607Y-115636645D01*
X148411552Y-115656392D01*
X148506985Y-115707402D01*
X148650622Y-115750974D01*
X148762574Y-115762000D01*
X148762577Y-115762000D01*
X148800000Y-115765686D01*
X148837423Y-115762000D01*
X149196839Y-115762000D01*
X149971826Y-116209439D01*
X150085760Y-116261062D01*
X150207577Y-116289465D01*
X150276504Y-116291722D01*
X150312921Y-116350286D01*
X150398428Y-116441581D01*
X150500102Y-116514439D01*
X150656873Y-116601404D01*
X150873730Y-116543297D01*
X151293355Y-115816485D01*
X151276034Y-115806485D01*
X151323936Y-115723515D01*
X151640325Y-115723515D01*
X152345486Y-116130640D01*
X152562343Y-116072533D01*
X152667128Y-115897184D01*
X152718752Y-115783249D01*
X152747156Y-115661432D01*
X152751247Y-115536415D01*
X152730872Y-115413002D01*
X152686811Y-115295936D01*
X152620759Y-115189714D01*
X152535252Y-115098419D01*
X152433578Y-115025561D01*
X152276807Y-114938596D01*
X152059950Y-114996703D01*
X151640325Y-115723515D01*
X151323936Y-115723515D01*
X151403034Y-115586515D01*
X151420355Y-115596515D01*
X151839980Y-114869703D01*
X151781873Y-114652846D01*
X151628174Y-114560561D01*
X151514240Y-114508937D01*
X151392423Y-114480534D01*
X151323495Y-114478278D01*
X151287078Y-114419714D01*
X151201572Y-114328420D01*
X151157613Y-114296919D01*
X157622686Y-114296919D01*
X157671211Y-114521520D01*
X157894287Y-114623409D01*
X158132954Y-114679821D01*
X158378041Y-114688587D01*
X158620128Y-114649370D01*
X158849914Y-114563679D01*
X158928789Y-114521520D01*
X158977314Y-114296919D01*
X158300000Y-113619605D01*
X157622686Y-114296919D01*
X151157613Y-114296919D01*
X151099898Y-114255561D01*
X150294494Y-113790561D01*
X150180560Y-113738938D01*
X150058743Y-113710535D01*
X149933726Y-113706442D01*
X149810313Y-113726818D01*
X149693246Y-113770878D01*
X149587025Y-113836931D01*
X149495730Y-113922438D01*
X149422872Y-114024112D01*
X149299384Y-114238000D01*
X149153870Y-114238000D01*
X149466817Y-113695960D01*
X149518440Y-113582026D01*
X149533358Y-113518041D01*
X157051413Y-113518041D01*
X157090630Y-113760128D01*
X157176321Y-113989914D01*
X157218480Y-114068789D01*
X157443081Y-114117314D01*
X158120395Y-113440000D01*
X158479605Y-113440000D01*
X159156919Y-114117314D01*
X159381520Y-114068789D01*
X159483409Y-113845713D01*
X159539821Y-113607046D01*
X159548587Y-113361959D01*
X159509370Y-113119872D01*
X159423679Y-112890086D01*
X159391563Y-112830000D01*
X167211928Y-112830000D01*
X167211928Y-114050000D01*
X167224188Y-114174482D01*
X167260498Y-114294180D01*
X167319463Y-114404494D01*
X167398815Y-114501185D01*
X167495506Y-114580537D01*
X167605820Y-114639502D01*
X167725518Y-114675812D01*
X167850000Y-114688072D01*
X169070000Y-114688072D01*
X169194482Y-114675812D01*
X169314180Y-114639502D01*
X169424494Y-114580537D01*
X169521185Y-114501185D01*
X169600537Y-114404494D01*
X169659502Y-114294180D01*
X169695812Y-114174482D01*
X169708072Y-114050000D01*
X169708072Y-112830000D01*
X169695812Y-112705518D01*
X169659502Y-112585820D01*
X169600537Y-112475506D01*
X169521185Y-112378815D01*
X169424494Y-112299463D01*
X169314180Y-112240498D01*
X169220000Y-112211929D01*
X169220000Y-111889533D01*
X169253641Y-111867055D01*
X169427055Y-111693641D01*
X169563305Y-111489729D01*
X169657155Y-111263153D01*
X169705000Y-111022622D01*
X169705000Y-110777378D01*
X169657155Y-110536847D01*
X169563305Y-110310271D01*
X169427055Y-110106359D01*
X169253641Y-109932945D01*
X169049729Y-109796695D01*
X168823153Y-109702845D01*
X168582622Y-109655000D01*
X168337378Y-109655000D01*
X168096847Y-109702845D01*
X167870271Y-109796695D01*
X167666359Y-109932945D01*
X167492945Y-110106359D01*
X167356695Y-110310271D01*
X167262845Y-110536847D01*
X167215000Y-110777378D01*
X167215000Y-111022622D01*
X167262845Y-111263153D01*
X167356695Y-111489729D01*
X167492945Y-111693641D01*
X167666359Y-111867055D01*
X167700001Y-111889534D01*
X167700000Y-112211929D01*
X167605820Y-112240498D01*
X167495506Y-112299463D01*
X167398815Y-112378815D01*
X167319463Y-112475506D01*
X167260498Y-112585820D01*
X167224188Y-112705518D01*
X167211928Y-112830000D01*
X159391563Y-112830000D01*
X159381520Y-112811211D01*
X159156919Y-112762686D01*
X158479605Y-113440000D01*
X158120395Y-113440000D01*
X157443081Y-112762686D01*
X157218480Y-112811211D01*
X157116591Y-113034287D01*
X157060179Y-113272954D01*
X157051413Y-113518041D01*
X149533358Y-113518041D01*
X149546843Y-113460209D01*
X149550936Y-113335192D01*
X149530560Y-113211779D01*
X149486499Y-113094712D01*
X149420447Y-112988490D01*
X149334940Y-112897196D01*
X149233266Y-112824338D01*
X147154806Y-111624338D01*
X147040872Y-111572714D01*
X146919055Y-111544311D01*
X146794038Y-111540218D01*
X146670625Y-111560594D01*
X146553558Y-111604655D01*
X146447336Y-111670707D01*
X146356042Y-111756214D01*
X146283183Y-111857888D01*
X145717315Y-112838000D01*
X144676631Y-112838000D01*
X144101703Y-112263072D01*
X144475000Y-112263072D01*
X144599482Y-112250812D01*
X144600000Y-112250655D01*
X144600518Y-112250812D01*
X144725000Y-112263072D01*
X144739250Y-112260000D01*
X144898000Y-112101250D01*
X144898000Y-112099316D01*
X144926185Y-112076185D01*
X145005537Y-111979494D01*
X145064502Y-111869180D01*
X145100812Y-111749482D01*
X145113072Y-111625000D01*
X145113072Y-111427000D01*
X145152000Y-111427000D01*
X145152000Y-112101250D01*
X145310750Y-112260000D01*
X145325000Y-112263072D01*
X145449482Y-112250812D01*
X145569180Y-112214502D01*
X145679494Y-112155537D01*
X145776185Y-112076185D01*
X145855537Y-111979494D01*
X145914502Y-111869180D01*
X145950812Y-111749482D01*
X145963072Y-111625000D01*
X145960000Y-111585750D01*
X145801250Y-111427000D01*
X145152000Y-111427000D01*
X145113072Y-111427000D01*
X145113072Y-111153000D01*
X145152000Y-111153000D01*
X145152000Y-111173000D01*
X145801250Y-111173000D01*
X145960000Y-111014250D01*
X145963072Y-110975000D01*
X145950812Y-110850518D01*
X145914502Y-110730820D01*
X145885110Y-110675833D01*
X145932842Y-110680534D01*
X146057324Y-110668274D01*
X146177022Y-110631964D01*
X146287336Y-110572999D01*
X146384027Y-110493647D01*
X146843647Y-110034027D01*
X146922999Y-109937336D01*
X146981964Y-109827022D01*
X146982011Y-109826866D01*
X147672892Y-109135371D01*
X147706659Y-109107659D01*
X147734622Y-109073586D01*
X147734760Y-109073448D01*
X147761886Y-109040365D01*
X147817753Y-108972291D01*
X147817848Y-108972113D01*
X147817972Y-108971962D01*
X147858763Y-108895566D01*
X147900303Y-108817851D01*
X147900361Y-108817661D01*
X147900454Y-108817486D01*
X147926041Y-108733002D01*
X147951136Y-108650274D01*
X147951156Y-108650076D01*
X147951213Y-108649886D01*
X147959631Y-108564023D01*
X147964000Y-108519667D01*
X147964000Y-108519463D01*
X147968300Y-108475604D01*
X147964000Y-108432143D01*
X147964000Y-108189000D01*
X150271092Y-108189000D01*
X150319463Y-108279494D01*
X150398815Y-108376185D01*
X150495506Y-108455537D01*
X150605820Y-108514502D01*
X150725518Y-108550812D01*
X150850000Y-108563072D01*
X151550000Y-108563072D01*
X151668089Y-108551442D01*
X151555820Y-108585498D01*
X151445506Y-108644463D01*
X151348815Y-108723815D01*
X151269463Y-108820506D01*
X151210498Y-108930820D01*
X151174188Y-109050518D01*
X151161928Y-109175000D01*
X151161928Y-110425000D01*
X151174188Y-110549482D01*
X151210498Y-110669180D01*
X151269463Y-110779494D01*
X151348815Y-110876185D01*
X151388000Y-110908344D01*
X151388001Y-110988041D01*
X151310506Y-111029463D01*
X151213815Y-111108815D01*
X151134463Y-111205506D01*
X151075498Y-111315820D01*
X151039188Y-111435518D01*
X151026928Y-111560000D01*
X151026928Y-112540000D01*
X151039188Y-112664482D01*
X151075498Y-112784180D01*
X151134463Y-112894494D01*
X151213815Y-112991185D01*
X151310506Y-113070537D01*
X151420820Y-113129502D01*
X151540518Y-113165812D01*
X151665000Y-113178072D01*
X152595000Y-113178072D01*
X152719482Y-113165812D01*
X152839180Y-113129502D01*
X152900000Y-113096993D01*
X152960820Y-113129502D01*
X153080518Y-113165812D01*
X153205000Y-113178072D01*
X153384250Y-113175000D01*
X153543000Y-113016250D01*
X153543000Y-112177000D01*
X153797000Y-112177000D01*
X153797000Y-113016250D01*
X153955750Y-113175000D01*
X154135000Y-113178072D01*
X154259482Y-113165812D01*
X154379180Y-113129502D01*
X154489494Y-113070537D01*
X154586185Y-112991185D01*
X154665537Y-112894494D01*
X154724502Y-112784180D01*
X154760812Y-112664482D01*
X154768829Y-112583081D01*
X157622686Y-112583081D01*
X158300000Y-113260395D01*
X158977314Y-112583081D01*
X158928789Y-112358480D01*
X158705713Y-112256591D01*
X158467046Y-112200179D01*
X158221959Y-112191413D01*
X157979872Y-112230630D01*
X157750086Y-112316321D01*
X157671211Y-112358480D01*
X157622686Y-112583081D01*
X154768829Y-112583081D01*
X154773072Y-112540000D01*
X154770000Y-112335750D01*
X154611250Y-112177000D01*
X153797000Y-112177000D01*
X153543000Y-112177000D01*
X153523000Y-112177000D01*
X153523000Y-111923000D01*
X153543000Y-111923000D01*
X153543000Y-111083750D01*
X153797000Y-111083750D01*
X153797000Y-111923000D01*
X154611250Y-111923000D01*
X154770000Y-111764250D01*
X154773072Y-111560000D01*
X154760812Y-111435518D01*
X154724502Y-111315820D01*
X154665537Y-111205506D01*
X154586185Y-111108815D01*
X154489494Y-111029463D01*
X154379180Y-110970498D01*
X154259482Y-110934188D01*
X154135000Y-110921928D01*
X153955750Y-110925000D01*
X153797000Y-111083750D01*
X153543000Y-111083750D01*
X153384250Y-110925000D01*
X153205000Y-110921928D01*
X153080518Y-110934188D01*
X152960820Y-110970498D01*
X152912000Y-110996593D01*
X152912000Y-110908343D01*
X152951185Y-110876185D01*
X153030537Y-110779494D01*
X153089502Y-110669180D01*
X153125812Y-110549482D01*
X153138072Y-110425000D01*
X153138072Y-109175000D01*
X153125812Y-109050518D01*
X153089502Y-108930820D01*
X153030537Y-108820506D01*
X152951185Y-108723815D01*
X152854494Y-108644463D01*
X152744180Y-108585498D01*
X152631911Y-108551442D01*
X152750000Y-108563072D01*
X153450000Y-108563072D01*
X153574482Y-108550812D01*
X153694180Y-108514502D01*
X153804494Y-108455537D01*
X153901185Y-108376185D01*
X153980537Y-108279494D01*
X154039502Y-108169180D01*
X154075812Y-108049482D01*
X154088072Y-107925000D01*
X154088072Y-107762065D01*
X154128578Y-107811422D01*
X154157654Y-107835284D01*
X157062424Y-110740055D01*
X157055000Y-110777378D01*
X157055000Y-111022622D01*
X157102845Y-111263153D01*
X157196695Y-111489729D01*
X157332945Y-111693641D01*
X157506359Y-111867055D01*
X157710271Y-112003305D01*
X157936847Y-112097155D01*
X158177378Y-112145000D01*
X158422622Y-112145000D01*
X158663153Y-112097155D01*
X158889729Y-112003305D01*
X159093641Y-111867055D01*
X159267055Y-111693641D01*
X159403305Y-111489729D01*
X159497155Y-111263153D01*
X159545000Y-111022622D01*
X159545000Y-110777378D01*
X159497155Y-110536847D01*
X159403305Y-110310271D01*
X159267055Y-110106359D01*
X159093641Y-109932945D01*
X158889729Y-109796695D01*
X158663153Y-109702845D01*
X158422622Y-109655000D01*
X158177378Y-109655000D01*
X158140055Y-109662424D01*
X158060273Y-109582642D01*
X158132954Y-109599821D01*
X158378041Y-109608587D01*
X158620128Y-109569370D01*
X158849914Y-109483679D01*
X158928789Y-109441520D01*
X158977314Y-109216919D01*
X158300000Y-108539605D01*
X158285858Y-108553748D01*
X158106253Y-108374143D01*
X158120395Y-108360000D01*
X158479605Y-108360000D01*
X159156919Y-109037314D01*
X159381520Y-108988789D01*
X159483409Y-108765713D01*
X159539821Y-108527046D01*
X159548587Y-108281959D01*
X159541366Y-108237378D01*
X167215000Y-108237378D01*
X167215000Y-108482622D01*
X167262845Y-108723153D01*
X167356695Y-108949729D01*
X167492945Y-109153641D01*
X167666359Y-109327055D01*
X167870271Y-109463305D01*
X168096847Y-109557155D01*
X168337378Y-109605000D01*
X168582622Y-109605000D01*
X168823153Y-109557155D01*
X169049729Y-109463305D01*
X169253641Y-109327055D01*
X169427055Y-109153641D01*
X169563305Y-108949729D01*
X169657155Y-108723153D01*
X169705000Y-108482622D01*
X169705000Y-108237378D01*
X169657155Y-107996847D01*
X169563305Y-107770271D01*
X169427055Y-107566359D01*
X169253641Y-107392945D01*
X169049729Y-107256695D01*
X168823153Y-107162845D01*
X168582622Y-107115000D01*
X168337378Y-107115000D01*
X168096847Y-107162845D01*
X167870271Y-107256695D01*
X167666359Y-107392945D01*
X167492945Y-107566359D01*
X167356695Y-107770271D01*
X167262845Y-107996847D01*
X167215000Y-108237378D01*
X159541366Y-108237378D01*
X159509370Y-108039872D01*
X159423679Y-107810086D01*
X159381520Y-107731211D01*
X159156919Y-107682686D01*
X158479605Y-108360000D01*
X158120395Y-108360000D01*
X157443081Y-107682686D01*
X157218480Y-107731211D01*
X157116591Y-107954287D01*
X157060179Y-108192954D01*
X157051413Y-108438041D01*
X157077653Y-108600023D01*
X155980711Y-107503081D01*
X157622686Y-107503081D01*
X158300000Y-108180395D01*
X158977314Y-107503081D01*
X158928789Y-107278480D01*
X158705713Y-107176591D01*
X158467046Y-107120179D01*
X158221959Y-107111413D01*
X157979872Y-107150630D01*
X157750086Y-107236321D01*
X157671211Y-107278480D01*
X157622686Y-107503081D01*
X155980711Y-107503081D01*
X155432000Y-106954370D01*
X155432000Y-106676919D01*
X157622686Y-106676919D01*
X157671211Y-106901520D01*
X157894287Y-107003409D01*
X158132954Y-107059821D01*
X158378041Y-107068587D01*
X158620128Y-107029370D01*
X158849914Y-106943679D01*
X158928789Y-106901520D01*
X158977314Y-106676919D01*
X158300000Y-105999605D01*
X157622686Y-106676919D01*
X155432000Y-106676919D01*
X155432000Y-106351269D01*
X155489494Y-106320537D01*
X155586185Y-106241185D01*
X155665537Y-106144494D01*
X155724502Y-106034180D01*
X155760812Y-105914482D01*
X155762431Y-105898041D01*
X157051413Y-105898041D01*
X157090630Y-106140128D01*
X157176321Y-106369914D01*
X157218480Y-106448789D01*
X157443081Y-106497314D01*
X158120395Y-105820000D01*
X158479605Y-105820000D01*
X159156919Y-106497314D01*
X159381520Y-106448789D01*
X159483409Y-106225713D01*
X159539821Y-105987046D01*
X159548587Y-105741959D01*
X159541366Y-105697378D01*
X167215000Y-105697378D01*
X167215000Y-105942622D01*
X167262845Y-106183153D01*
X167356695Y-106409729D01*
X167492945Y-106613641D01*
X167666359Y-106787055D01*
X167870271Y-106923305D01*
X168096847Y-107017155D01*
X168337378Y-107065000D01*
X168582622Y-107065000D01*
X168823153Y-107017155D01*
X169049729Y-106923305D01*
X169253641Y-106787055D01*
X169427055Y-106613641D01*
X169563305Y-106409729D01*
X169657155Y-106183153D01*
X169705000Y-105942622D01*
X169705000Y-105697378D01*
X169657155Y-105456847D01*
X169563305Y-105230271D01*
X169427055Y-105026359D01*
X169253641Y-104852945D01*
X169049729Y-104716695D01*
X168823153Y-104622845D01*
X168582622Y-104575000D01*
X168337378Y-104575000D01*
X168096847Y-104622845D01*
X167870271Y-104716695D01*
X167666359Y-104852945D01*
X167492945Y-105026359D01*
X167356695Y-105230271D01*
X167262845Y-105456847D01*
X167215000Y-105697378D01*
X159541366Y-105697378D01*
X159509370Y-105499872D01*
X159423679Y-105270086D01*
X159381520Y-105191211D01*
X159156919Y-105142686D01*
X158479605Y-105820000D01*
X158120395Y-105820000D01*
X157443081Y-105142686D01*
X157218480Y-105191211D01*
X157116591Y-105414287D01*
X157060179Y-105652954D01*
X157051413Y-105898041D01*
X155762431Y-105898041D01*
X155773072Y-105790000D01*
X155773072Y-104963081D01*
X157622686Y-104963081D01*
X158300000Y-105640395D01*
X158977314Y-104963081D01*
X158928789Y-104738480D01*
X158705713Y-104636591D01*
X158467046Y-104580179D01*
X158221959Y-104571413D01*
X157979872Y-104610630D01*
X157750086Y-104696321D01*
X157671211Y-104738480D01*
X157622686Y-104963081D01*
X155773072Y-104963081D01*
X155773072Y-104810000D01*
X155760812Y-104685518D01*
X155724502Y-104565820D01*
X155665537Y-104455506D01*
X155586185Y-104358815D01*
X155489494Y-104279463D01*
X155379180Y-104220498D01*
X155259482Y-104184188D01*
X155135000Y-104171928D01*
X154205000Y-104171928D01*
X154080518Y-104184188D01*
X153960820Y-104220498D01*
X153900000Y-104253007D01*
X153839180Y-104220498D01*
X153719482Y-104184188D01*
X153595000Y-104171928D01*
X152665000Y-104171928D01*
X152540518Y-104184188D01*
X152420820Y-104220498D01*
X152310506Y-104279463D01*
X152278072Y-104306081D01*
X152278072Y-104136919D01*
X157622686Y-104136919D01*
X157671211Y-104361520D01*
X157894287Y-104463409D01*
X158132954Y-104519821D01*
X158378041Y-104528587D01*
X158620128Y-104489370D01*
X158849914Y-104403679D01*
X158928789Y-104361520D01*
X158977314Y-104136919D01*
X158300000Y-103459605D01*
X157622686Y-104136919D01*
X152278072Y-104136919D01*
X152278072Y-103565000D01*
X152265812Y-103440518D01*
X152240793Y-103358041D01*
X157051413Y-103358041D01*
X157090630Y-103600128D01*
X157176321Y-103829914D01*
X157218480Y-103908789D01*
X157443081Y-103957314D01*
X158120395Y-103280000D01*
X158479605Y-103280000D01*
X159156919Y-103957314D01*
X159381520Y-103908789D01*
X159483409Y-103685713D01*
X159539821Y-103447046D01*
X159548587Y-103201959D01*
X159541366Y-103157378D01*
X167215000Y-103157378D01*
X167215000Y-103402622D01*
X167262845Y-103643153D01*
X167356695Y-103869729D01*
X167492945Y-104073641D01*
X167666359Y-104247055D01*
X167870271Y-104383305D01*
X168096847Y-104477155D01*
X168337378Y-104525000D01*
X168582622Y-104525000D01*
X168823153Y-104477155D01*
X169049729Y-104383305D01*
X169253641Y-104247055D01*
X169427055Y-104073641D01*
X169563305Y-103869729D01*
X169657155Y-103643153D01*
X169705000Y-103402622D01*
X169705000Y-103157378D01*
X169657155Y-102916847D01*
X169563305Y-102690271D01*
X169427055Y-102486359D01*
X169253641Y-102312945D01*
X169049729Y-102176695D01*
X168823153Y-102082845D01*
X168582622Y-102035000D01*
X168337378Y-102035000D01*
X168096847Y-102082845D01*
X167870271Y-102176695D01*
X167666359Y-102312945D01*
X167492945Y-102486359D01*
X167356695Y-102690271D01*
X167262845Y-102916847D01*
X167215000Y-103157378D01*
X159541366Y-103157378D01*
X159509370Y-102959872D01*
X159423679Y-102730086D01*
X159381520Y-102651211D01*
X159156919Y-102602686D01*
X158479605Y-103280000D01*
X158120395Y-103280000D01*
X157443081Y-102602686D01*
X157218480Y-102651211D01*
X157116591Y-102874287D01*
X157060179Y-103112954D01*
X157051413Y-103358041D01*
X152240793Y-103358041D01*
X152229502Y-103320820D01*
X152170537Y-103210506D01*
X152091185Y-103113815D01*
X151994494Y-103034463D01*
X151925908Y-102997803D01*
X152053937Y-102869774D01*
X152167205Y-102700256D01*
X152245226Y-102511898D01*
X152262892Y-102423081D01*
X157622686Y-102423081D01*
X158300000Y-103100395D01*
X158977314Y-102423081D01*
X158928789Y-102198480D01*
X158705713Y-102096591D01*
X158467046Y-102040179D01*
X158221959Y-102031413D01*
X157979872Y-102070630D01*
X157750086Y-102156321D01*
X157671211Y-102198480D01*
X157622686Y-102423081D01*
X152262892Y-102423081D01*
X152285000Y-102311939D01*
X152285000Y-102108061D01*
X152245226Y-101908102D01*
X152167205Y-101719744D01*
X152085137Y-101596919D01*
X157622686Y-101596919D01*
X157671211Y-101821520D01*
X157894287Y-101923409D01*
X158132954Y-101979821D01*
X158378041Y-101988587D01*
X158620128Y-101949370D01*
X158849914Y-101863679D01*
X158928789Y-101821520D01*
X158977314Y-101596919D01*
X167782686Y-101596919D01*
X167831211Y-101821520D01*
X168054287Y-101923409D01*
X168292954Y-101979821D01*
X168538041Y-101988587D01*
X168780128Y-101949370D01*
X169009914Y-101863679D01*
X169088789Y-101821520D01*
X169137314Y-101596919D01*
X168460000Y-100919605D01*
X167782686Y-101596919D01*
X158977314Y-101596919D01*
X158300000Y-100919605D01*
X157622686Y-101596919D01*
X152085137Y-101596919D01*
X152053937Y-101550226D01*
X151909774Y-101406063D01*
X151740256Y-101292795D01*
X151551898Y-101214774D01*
X151351939Y-101175000D01*
X151148061Y-101175000D01*
X150948102Y-101214774D01*
X150759744Y-101292795D01*
X150590226Y-101406063D01*
X150446063Y-101550226D01*
X150332795Y-101719744D01*
X150254774Y-101908102D01*
X150215000Y-102108061D01*
X150215000Y-102311939D01*
X150254774Y-102511898D01*
X150332795Y-102700256D01*
X150388001Y-102782877D01*
X150388001Y-102990368D01*
X150305506Y-103034463D01*
X150208815Y-103113815D01*
X150129463Y-103210506D01*
X150070498Y-103320820D01*
X150034188Y-103440518D01*
X150021928Y-103565000D01*
X150021928Y-104495000D01*
X150034188Y-104619482D01*
X150070498Y-104739180D01*
X150103007Y-104800000D01*
X150070498Y-104860820D01*
X150034188Y-104980518D01*
X150021928Y-105105000D01*
X150021928Y-106035000D01*
X150034188Y-106159482D01*
X150070498Y-106279180D01*
X150129463Y-106389494D01*
X150147112Y-106411000D01*
X147964000Y-106411000D01*
X147964000Y-106167659D01*
X147968300Y-106123999D01*
X147964000Y-106080339D01*
X147964000Y-106080333D01*
X147952233Y-105960862D01*
X147951136Y-105949724D01*
X147911785Y-105820000D01*
X147900303Y-105782149D01*
X147817753Y-105627709D01*
X147706659Y-105492341D01*
X147672741Y-105464505D01*
X146979473Y-104771238D01*
X146972563Y-104749812D01*
X146911683Y-104640544D01*
X146830655Y-104545252D01*
X146363084Y-104093724D01*
X146265023Y-104016071D01*
X146181543Y-103973307D01*
X143026277Y-100818041D01*
X157051413Y-100818041D01*
X157090630Y-101060128D01*
X157176321Y-101289914D01*
X157218480Y-101368789D01*
X157443081Y-101417314D01*
X158120395Y-100740000D01*
X158479605Y-100740000D01*
X159156919Y-101417314D01*
X159381520Y-101368789D01*
X159483409Y-101145713D01*
X159539821Y-100907046D01*
X159543004Y-100818041D01*
X167211413Y-100818041D01*
X167250630Y-101060128D01*
X167336321Y-101289914D01*
X167378480Y-101368789D01*
X167603081Y-101417314D01*
X168280395Y-100740000D01*
X168639605Y-100740000D01*
X169316919Y-101417314D01*
X169541520Y-101368789D01*
X169643409Y-101145713D01*
X169699821Y-100907046D01*
X169708587Y-100661959D01*
X169669370Y-100419872D01*
X169583679Y-100190086D01*
X169541520Y-100111211D01*
X169316919Y-100062686D01*
X168639605Y-100740000D01*
X168280395Y-100740000D01*
X167603081Y-100062686D01*
X167378480Y-100111211D01*
X167276591Y-100334287D01*
X167220179Y-100572954D01*
X167211413Y-100818041D01*
X159543004Y-100818041D01*
X159548587Y-100661959D01*
X159509370Y-100419872D01*
X159423679Y-100190086D01*
X159381520Y-100111211D01*
X159156919Y-100062686D01*
X158479605Y-100740000D01*
X158120395Y-100740000D01*
X157443081Y-100062686D01*
X157218480Y-100111211D01*
X157116591Y-100334287D01*
X157060179Y-100572954D01*
X157051413Y-100818041D01*
X143026277Y-100818041D01*
X142735499Y-100527264D01*
X142707659Y-100493341D01*
X142572291Y-100382247D01*
X142417851Y-100299697D01*
X142250274Y-100248864D01*
X142119667Y-100236000D01*
X142119660Y-100236000D01*
X142076000Y-100231700D01*
X142032340Y-100236000D01*
X140220119Y-100236000D01*
X140219180Y-100235498D01*
X140099482Y-100199188D01*
X139975000Y-100186928D01*
X139325000Y-100186928D01*
X139200518Y-100199188D01*
X139080820Y-100235498D01*
X139079881Y-100236000D01*
X138720119Y-100236000D01*
X138719180Y-100235498D01*
X138599482Y-100199188D01*
X138475000Y-100186928D01*
X137825000Y-100186928D01*
X137700518Y-100199188D01*
X137580820Y-100235498D01*
X137470506Y-100294463D01*
X137373815Y-100373815D01*
X137350249Y-100402530D01*
X137349088Y-100401577D01*
X137349003Y-100400714D01*
X137305546Y-100257453D01*
X137234974Y-100125424D01*
X137140001Y-100009699D01*
X137024276Y-99914726D01*
X136965074Y-99883081D01*
X157622686Y-99883081D01*
X158300000Y-100560395D01*
X158977314Y-99883081D01*
X167782686Y-99883081D01*
X168460000Y-100560395D01*
X169137314Y-99883081D01*
X169088789Y-99658480D01*
X168865713Y-99556591D01*
X168627046Y-99500179D01*
X168381959Y-99491413D01*
X168139872Y-99530630D01*
X167910086Y-99616321D01*
X167831211Y-99658480D01*
X167782686Y-99883081D01*
X158977314Y-99883081D01*
X158928789Y-99658480D01*
X158705713Y-99556591D01*
X158467046Y-99500179D01*
X158221959Y-99491413D01*
X157979872Y-99530630D01*
X157750086Y-99616321D01*
X157671211Y-99658480D01*
X157622686Y-99883081D01*
X136965074Y-99883081D01*
X136892247Y-99844154D01*
X136781500Y-99810560D01*
X136781500Y-99576011D01*
X136825437Y-99532074D01*
X136938705Y-99362556D01*
X137016726Y-99174198D01*
X137040054Y-99056919D01*
X157622686Y-99056919D01*
X157671211Y-99281520D01*
X157894287Y-99383409D01*
X158132954Y-99439821D01*
X158378041Y-99448587D01*
X158620128Y-99409370D01*
X158849914Y-99323679D01*
X158928789Y-99281520D01*
X158977314Y-99056919D01*
X167782686Y-99056919D01*
X167831211Y-99281520D01*
X168054287Y-99383409D01*
X168292954Y-99439821D01*
X168538041Y-99448587D01*
X168780128Y-99409370D01*
X169009914Y-99323679D01*
X169088789Y-99281520D01*
X169137314Y-99056919D01*
X168460000Y-98379605D01*
X167782686Y-99056919D01*
X158977314Y-99056919D01*
X158300000Y-98379605D01*
X157622686Y-99056919D01*
X137040054Y-99056919D01*
X137056500Y-98974239D01*
X137056500Y-98770361D01*
X137034886Y-98661700D01*
X148875089Y-98661700D01*
X148919026Y-98705637D01*
X149088544Y-98818905D01*
X149276902Y-98896926D01*
X149476861Y-98936700D01*
X149680739Y-98936700D01*
X149880698Y-98896926D01*
X150069056Y-98818905D01*
X150238574Y-98705637D01*
X150382737Y-98561474D01*
X150496005Y-98391956D01*
X150543190Y-98278041D01*
X157051413Y-98278041D01*
X157090630Y-98520128D01*
X157176321Y-98749914D01*
X157218480Y-98828789D01*
X157443081Y-98877314D01*
X158120395Y-98200000D01*
X158479605Y-98200000D01*
X159156919Y-98877314D01*
X159381520Y-98828789D01*
X159483409Y-98605713D01*
X159539821Y-98367046D01*
X159543004Y-98278041D01*
X167211413Y-98278041D01*
X167250630Y-98520128D01*
X167336321Y-98749914D01*
X167378480Y-98828789D01*
X167603081Y-98877314D01*
X168280395Y-98200000D01*
X168639605Y-98200000D01*
X169316919Y-98877314D01*
X169541520Y-98828789D01*
X169643409Y-98605713D01*
X169699821Y-98367046D01*
X169708587Y-98121959D01*
X169669370Y-97879872D01*
X169583679Y-97650086D01*
X169541520Y-97571211D01*
X169316919Y-97522686D01*
X168639605Y-98200000D01*
X168280395Y-98200000D01*
X167603081Y-97522686D01*
X167378480Y-97571211D01*
X167276591Y-97794287D01*
X167220179Y-98032954D01*
X167211413Y-98278041D01*
X159543004Y-98278041D01*
X159548587Y-98121959D01*
X159509370Y-97879872D01*
X159423679Y-97650086D01*
X159381520Y-97571211D01*
X159156919Y-97522686D01*
X158479605Y-98200000D01*
X158120395Y-98200000D01*
X157443081Y-97522686D01*
X157218480Y-97571211D01*
X157116591Y-97794287D01*
X157060179Y-98032954D01*
X157051413Y-98278041D01*
X150543190Y-98278041D01*
X150574026Y-98203598D01*
X150613800Y-98003639D01*
X150613800Y-97799761D01*
X150574026Y-97599802D01*
X150496005Y-97411444D01*
X150450327Y-97343081D01*
X157622686Y-97343081D01*
X158300000Y-98020395D01*
X158977314Y-97343081D01*
X167782686Y-97343081D01*
X168460000Y-98020395D01*
X169137314Y-97343081D01*
X169088789Y-97118480D01*
X168865713Y-97016591D01*
X168627046Y-96960179D01*
X168381959Y-96951413D01*
X168139872Y-96990630D01*
X167910086Y-97076321D01*
X167831211Y-97118480D01*
X167782686Y-97343081D01*
X158977314Y-97343081D01*
X158928789Y-97118480D01*
X158705713Y-97016591D01*
X158467046Y-96960179D01*
X158221959Y-96951413D01*
X157979872Y-96990630D01*
X157750086Y-97076321D01*
X157671211Y-97118480D01*
X157622686Y-97343081D01*
X150450327Y-97343081D01*
X150382737Y-97241926D01*
X150238574Y-97097763D01*
X150069056Y-96984495D01*
X149880698Y-96906474D01*
X149680739Y-96866700D01*
X149476861Y-96866700D01*
X149276902Y-96906474D01*
X149088544Y-96984495D01*
X148919026Y-97097763D01*
X148875089Y-97141700D01*
X135232123Y-97141700D01*
X135194800Y-97138024D01*
X135157477Y-97141700D01*
X135157467Y-97141700D01*
X135045814Y-97152697D01*
X134902553Y-97196154D01*
X134770523Y-97266726D01*
X134686883Y-97335368D01*
X134654799Y-97361699D01*
X134631001Y-97390697D01*
X134075399Y-97946300D01*
X134013261Y-97946300D01*
X133813302Y-97986074D01*
X133624944Y-98064095D01*
X133455426Y-98177363D01*
X133311263Y-98321526D01*
X133197995Y-98491044D01*
X133119974Y-98679402D01*
X133080200Y-98879361D01*
X133080200Y-99083239D01*
X133103570Y-99200729D01*
X132899899Y-99404400D01*
X131776022Y-99404400D01*
X131738699Y-99400724D01*
X131701376Y-99404400D01*
X131701367Y-99404400D01*
X131589714Y-99415397D01*
X131446453Y-99458854D01*
X131314424Y-99529426D01*
X131198699Y-99624399D01*
X131174901Y-99653397D01*
X123408098Y-107420201D01*
X123379100Y-107443999D01*
X123355302Y-107472997D01*
X123355301Y-107472998D01*
X123284126Y-107559724D01*
X123213554Y-107691754D01*
X123189737Y-107770271D01*
X123171096Y-107831726D01*
X123170098Y-107835015D01*
X123155424Y-107984000D01*
X123060000Y-107984000D01*
X123060000Y-96516919D01*
X157622686Y-96516919D01*
X157671211Y-96741520D01*
X157894287Y-96843409D01*
X158132954Y-96899821D01*
X158378041Y-96908587D01*
X158620128Y-96869370D01*
X158849914Y-96783679D01*
X158928789Y-96741520D01*
X158977314Y-96516919D01*
X167782686Y-96516919D01*
X167831211Y-96741520D01*
X168054287Y-96843409D01*
X168292954Y-96899821D01*
X168538041Y-96908587D01*
X168780128Y-96869370D01*
X169009914Y-96783679D01*
X169088789Y-96741520D01*
X169137314Y-96516919D01*
X168460000Y-95839605D01*
X167782686Y-96516919D01*
X158977314Y-96516919D01*
X158300000Y-95839605D01*
X157622686Y-96516919D01*
X123060000Y-96516919D01*
X123060000Y-95738041D01*
X157051413Y-95738041D01*
X157090630Y-95980128D01*
X157176321Y-96209914D01*
X157218480Y-96288789D01*
X157443081Y-96337314D01*
X158120395Y-95660000D01*
X158479605Y-95660000D01*
X159156919Y-96337314D01*
X159381520Y-96288789D01*
X159483409Y-96065713D01*
X159539821Y-95827046D01*
X159543004Y-95738041D01*
X167211413Y-95738041D01*
X167250630Y-95980128D01*
X167336321Y-96209914D01*
X167378480Y-96288789D01*
X167603081Y-96337314D01*
X168280395Y-95660000D01*
X168639605Y-95660000D01*
X169316919Y-96337314D01*
X169541520Y-96288789D01*
X169643409Y-96065713D01*
X169699821Y-95827046D01*
X169708587Y-95581959D01*
X169669370Y-95339872D01*
X169583679Y-95110086D01*
X169541520Y-95031211D01*
X169316919Y-94982686D01*
X168639605Y-95660000D01*
X168280395Y-95660000D01*
X167603081Y-94982686D01*
X167378480Y-95031211D01*
X167276591Y-95254287D01*
X167220179Y-95492954D01*
X167211413Y-95738041D01*
X159543004Y-95738041D01*
X159548587Y-95581959D01*
X159509370Y-95339872D01*
X159423679Y-95110086D01*
X159381520Y-95031211D01*
X159156919Y-94982686D01*
X158479605Y-95660000D01*
X158120395Y-95660000D01*
X157443081Y-94982686D01*
X157218480Y-95031211D01*
X157116591Y-95254287D01*
X157060179Y-95492954D01*
X157051413Y-95738041D01*
X123060000Y-95738041D01*
X123060000Y-94803081D01*
X157622686Y-94803081D01*
X158300000Y-95480395D01*
X158977314Y-94803081D01*
X167782686Y-94803081D01*
X168460000Y-95480395D01*
X169137314Y-94803081D01*
X169088789Y-94578480D01*
X168865713Y-94476591D01*
X168627046Y-94420179D01*
X168381959Y-94411413D01*
X168139872Y-94450630D01*
X167910086Y-94536321D01*
X167831211Y-94578480D01*
X167782686Y-94803081D01*
X158977314Y-94803081D01*
X158928789Y-94578480D01*
X158705713Y-94476591D01*
X158467046Y-94420179D01*
X158221959Y-94411413D01*
X157979872Y-94450630D01*
X157750086Y-94536321D01*
X157671211Y-94578480D01*
X157622686Y-94803081D01*
X123060000Y-94803081D01*
X123060000Y-89845000D01*
X136611928Y-89845000D01*
X136624188Y-89969482D01*
X136660498Y-90089180D01*
X136693007Y-90150000D01*
X136660498Y-90210820D01*
X136624188Y-90330518D01*
X136611928Y-90455000D01*
X136611928Y-91385000D01*
X136624188Y-91509482D01*
X136660498Y-91629180D01*
X136719463Y-91739494D01*
X136798815Y-91836185D01*
X136895506Y-91915537D01*
X137005820Y-91974502D01*
X137125518Y-92010812D01*
X137250000Y-92023072D01*
X138230000Y-92023072D01*
X138354482Y-92010812D01*
X138474180Y-91974502D01*
X138501928Y-91959670D01*
X138501928Y-92200000D01*
X138514188Y-92324482D01*
X138550498Y-92444180D01*
X138609463Y-92554494D01*
X138688815Y-92651185D01*
X138751001Y-92702219D01*
X138751001Y-92905288D01*
X138736063Y-92920226D01*
X138622795Y-93089744D01*
X138544774Y-93278102D01*
X138505000Y-93478061D01*
X138505000Y-93681939D01*
X138544774Y-93881898D01*
X138622795Y-94070256D01*
X138736063Y-94239774D01*
X138880226Y-94383937D01*
X139049744Y-94497205D01*
X139238102Y-94575226D01*
X139438061Y-94615000D01*
X139641939Y-94615000D01*
X139841898Y-94575226D01*
X140030256Y-94497205D01*
X140199774Y-94383937D01*
X140343937Y-94239774D01*
X140457205Y-94070256D01*
X140535226Y-93881898D01*
X140575000Y-93681939D01*
X140575000Y-93478061D01*
X140535226Y-93278102D01*
X140529000Y-93263071D01*
X140529000Y-92702219D01*
X140591185Y-92651185D01*
X140670537Y-92554494D01*
X140729502Y-92444180D01*
X140765812Y-92324482D01*
X140778072Y-92200000D01*
X140778072Y-91600000D01*
X140765812Y-91475518D01*
X140750488Y-91425000D01*
X140765812Y-91374482D01*
X140778072Y-91250000D01*
X141101928Y-91250000D01*
X141114188Y-91374482D01*
X141129512Y-91425000D01*
X141114188Y-91475518D01*
X141101928Y-91600000D01*
X141101928Y-92200000D01*
X141114188Y-92324482D01*
X141150498Y-92444180D01*
X141209463Y-92554494D01*
X141288815Y-92651185D01*
X141351001Y-92702219D01*
X141351001Y-93263069D01*
X141344774Y-93278102D01*
X141305000Y-93478061D01*
X141305000Y-93681939D01*
X141344774Y-93881898D01*
X141422795Y-94070256D01*
X141536063Y-94239774D01*
X141680226Y-94383937D01*
X141849744Y-94497205D01*
X142038102Y-94575226D01*
X142238061Y-94615000D01*
X142441939Y-94615000D01*
X142641898Y-94575226D01*
X142830256Y-94497205D01*
X142999774Y-94383937D01*
X143143937Y-94239774D01*
X143257205Y-94070256D01*
X143295866Y-93976919D01*
X157622686Y-93976919D01*
X157671211Y-94201520D01*
X157894287Y-94303409D01*
X158132954Y-94359821D01*
X158378041Y-94368587D01*
X158620128Y-94329370D01*
X158849914Y-94243679D01*
X158928789Y-94201520D01*
X158977314Y-93976919D01*
X167782686Y-93976919D01*
X167831211Y-94201520D01*
X168054287Y-94303409D01*
X168292954Y-94359821D01*
X168538041Y-94368587D01*
X168780128Y-94329370D01*
X169009914Y-94243679D01*
X169088789Y-94201520D01*
X169137314Y-93976919D01*
X168460000Y-93299605D01*
X167782686Y-93976919D01*
X158977314Y-93976919D01*
X158300000Y-93299605D01*
X157622686Y-93976919D01*
X143295866Y-93976919D01*
X143335226Y-93881898D01*
X143375000Y-93681939D01*
X143375000Y-93478061D01*
X143335226Y-93278102D01*
X143302064Y-93198041D01*
X157051413Y-93198041D01*
X157090630Y-93440128D01*
X157176321Y-93669914D01*
X157218480Y-93748789D01*
X157443081Y-93797314D01*
X158120395Y-93120000D01*
X158479605Y-93120000D01*
X159156919Y-93797314D01*
X159381520Y-93748789D01*
X159483409Y-93525713D01*
X159539821Y-93287046D01*
X159543004Y-93198041D01*
X167211413Y-93198041D01*
X167250630Y-93440128D01*
X167336321Y-93669914D01*
X167378480Y-93748789D01*
X167603081Y-93797314D01*
X168280395Y-93120000D01*
X168639605Y-93120000D01*
X169316919Y-93797314D01*
X169541520Y-93748789D01*
X169643409Y-93525713D01*
X169699821Y-93287046D01*
X169708587Y-93041959D01*
X169669370Y-92799872D01*
X169583679Y-92570086D01*
X169541520Y-92491211D01*
X169316919Y-92442686D01*
X168639605Y-93120000D01*
X168280395Y-93120000D01*
X167603081Y-92442686D01*
X167378480Y-92491211D01*
X167276591Y-92714287D01*
X167220179Y-92952954D01*
X167211413Y-93198041D01*
X159543004Y-93198041D01*
X159548587Y-93041959D01*
X159509370Y-92799872D01*
X159423679Y-92570086D01*
X159381520Y-92491211D01*
X159156919Y-92442686D01*
X158479605Y-93120000D01*
X158120395Y-93120000D01*
X157443081Y-92442686D01*
X157218480Y-92491211D01*
X157116591Y-92714287D01*
X157060179Y-92952954D01*
X157051413Y-93198041D01*
X143302064Y-93198041D01*
X143257205Y-93089744D01*
X143143937Y-92920226D01*
X143129000Y-92905289D01*
X143129000Y-92702219D01*
X143191185Y-92651185D01*
X143270537Y-92554494D01*
X143329502Y-92444180D01*
X143365812Y-92324482D01*
X143371859Y-92263081D01*
X157622686Y-92263081D01*
X158300000Y-92940395D01*
X158977314Y-92263081D01*
X167782686Y-92263081D01*
X168460000Y-92940395D01*
X169137314Y-92263081D01*
X169088789Y-92038480D01*
X168865713Y-91936591D01*
X168627046Y-91880179D01*
X168381959Y-91871413D01*
X168139872Y-91910630D01*
X167910086Y-91996321D01*
X167831211Y-92038480D01*
X167782686Y-92263081D01*
X158977314Y-92263081D01*
X158928789Y-92038480D01*
X158705713Y-91936591D01*
X158467046Y-91880179D01*
X158221959Y-91871413D01*
X157979872Y-91910630D01*
X157750086Y-91996321D01*
X157671211Y-92038480D01*
X157622686Y-92263081D01*
X143371859Y-92263081D01*
X143378072Y-92200000D01*
X143378072Y-91600000D01*
X143365812Y-91475518D01*
X143354104Y-91436919D01*
X157622686Y-91436919D01*
X157671211Y-91661520D01*
X157894287Y-91763409D01*
X158132954Y-91819821D01*
X158378041Y-91828587D01*
X158620128Y-91789370D01*
X158849914Y-91703679D01*
X158928789Y-91661520D01*
X158977314Y-91436919D01*
X167782686Y-91436919D01*
X167831211Y-91661520D01*
X168054287Y-91763409D01*
X168292954Y-91819821D01*
X168538041Y-91828587D01*
X168780128Y-91789370D01*
X169009914Y-91703679D01*
X169088789Y-91661520D01*
X169137314Y-91436919D01*
X168460000Y-90759605D01*
X167782686Y-91436919D01*
X158977314Y-91436919D01*
X158300000Y-90759605D01*
X157622686Y-91436919D01*
X143354104Y-91436919D01*
X143350488Y-91425000D01*
X143365812Y-91374482D01*
X143378072Y-91250000D01*
X143375000Y-91235750D01*
X143216250Y-91077000D01*
X143103678Y-91077000D01*
X143094494Y-91069463D01*
X142984180Y-91010498D01*
X142864482Y-90974188D01*
X142740000Y-90961928D01*
X141740000Y-90961928D01*
X141615518Y-90974188D01*
X141495820Y-91010498D01*
X141385506Y-91069463D01*
X141376322Y-91077000D01*
X141263750Y-91077000D01*
X141105000Y-91235750D01*
X141101928Y-91250000D01*
X140778072Y-91250000D01*
X140778072Y-90650000D01*
X140765812Y-90525518D01*
X140750488Y-90475000D01*
X140765812Y-90424482D01*
X140773794Y-90343442D01*
X140930000Y-90187236D01*
X141108392Y-90365627D01*
X141114188Y-90424482D01*
X141129512Y-90475000D01*
X141114188Y-90525518D01*
X141101928Y-90650000D01*
X141105000Y-90664250D01*
X141263750Y-90823000D01*
X141376322Y-90823000D01*
X141385506Y-90830537D01*
X141495820Y-90889502D01*
X141615518Y-90925812D01*
X141740000Y-90938072D01*
X142740000Y-90938072D01*
X142864482Y-90925812D01*
X142984180Y-90889502D01*
X143094494Y-90830537D01*
X143103678Y-90823000D01*
X143216250Y-90823000D01*
X143375000Y-90664250D01*
X143376338Y-90658041D01*
X157051413Y-90658041D01*
X157090630Y-90900128D01*
X157176321Y-91129914D01*
X157218480Y-91208789D01*
X157443081Y-91257314D01*
X158120395Y-90580000D01*
X158479605Y-90580000D01*
X159156919Y-91257314D01*
X159381520Y-91208789D01*
X159483409Y-90985713D01*
X159539821Y-90747046D01*
X159543004Y-90658041D01*
X167211413Y-90658041D01*
X167250630Y-90900128D01*
X167336321Y-91129914D01*
X167378480Y-91208789D01*
X167603081Y-91257314D01*
X168280395Y-90580000D01*
X168639605Y-90580000D01*
X169316919Y-91257314D01*
X169541520Y-91208789D01*
X169643409Y-90985713D01*
X169699821Y-90747046D01*
X169708587Y-90501959D01*
X169669370Y-90259872D01*
X169583679Y-90030086D01*
X169541520Y-89951211D01*
X169316919Y-89902686D01*
X168639605Y-90580000D01*
X168280395Y-90580000D01*
X167603081Y-89902686D01*
X167378480Y-89951211D01*
X167276591Y-90174287D01*
X167220179Y-90412954D01*
X167211413Y-90658041D01*
X159543004Y-90658041D01*
X159548587Y-90501959D01*
X159509370Y-90259872D01*
X159423679Y-90030086D01*
X159381520Y-89951211D01*
X159156919Y-89902686D01*
X158479605Y-90580000D01*
X158120395Y-90580000D01*
X157443081Y-89902686D01*
X157218480Y-89951211D01*
X157116591Y-90174287D01*
X157060179Y-90412954D01*
X157051413Y-90658041D01*
X143376338Y-90658041D01*
X143378072Y-90650000D01*
X143365812Y-90525518D01*
X143350488Y-90475000D01*
X143365812Y-90424482D01*
X143378072Y-90300000D01*
X143378072Y-89723081D01*
X157622686Y-89723081D01*
X158300000Y-90400395D01*
X158977314Y-89723081D01*
X167782686Y-89723081D01*
X168460000Y-90400395D01*
X169137314Y-89723081D01*
X169088789Y-89498480D01*
X168865713Y-89396591D01*
X168627046Y-89340179D01*
X168381959Y-89331413D01*
X168139872Y-89370630D01*
X167910086Y-89456321D01*
X167831211Y-89498480D01*
X167782686Y-89723081D01*
X158977314Y-89723081D01*
X158928789Y-89498480D01*
X158705713Y-89396591D01*
X158467046Y-89340179D01*
X158221959Y-89331413D01*
X157979872Y-89370630D01*
X157750086Y-89456321D01*
X157671211Y-89498480D01*
X157622686Y-89723081D01*
X143378072Y-89723081D01*
X143378072Y-89700000D01*
X143365812Y-89575518D01*
X143329502Y-89455820D01*
X143270537Y-89345506D01*
X143191185Y-89248815D01*
X143094494Y-89169463D01*
X142984180Y-89110498D01*
X142864482Y-89074188D01*
X142740000Y-89061928D01*
X142319164Y-89061928D01*
X142154155Y-88896919D01*
X157622686Y-88896919D01*
X157671211Y-89121520D01*
X157894287Y-89223409D01*
X158132954Y-89279821D01*
X158378041Y-89288587D01*
X158620128Y-89249370D01*
X158849914Y-89163679D01*
X158928789Y-89121520D01*
X158977314Y-88896919D01*
X167782686Y-88896919D01*
X167831211Y-89121520D01*
X168054287Y-89223409D01*
X168292954Y-89279821D01*
X168538041Y-89288587D01*
X168780128Y-89249370D01*
X169009914Y-89163679D01*
X169088789Y-89121520D01*
X169137314Y-88896919D01*
X168460000Y-88219605D01*
X167782686Y-88896919D01*
X158977314Y-88896919D01*
X158300000Y-88219605D01*
X157622686Y-88896919D01*
X142154155Y-88896919D01*
X141935130Y-88677895D01*
X141925226Y-88628102D01*
X141847205Y-88439744D01*
X141733937Y-88270226D01*
X141589774Y-88126063D01*
X141420256Y-88012795D01*
X141231898Y-87934774D01*
X141031939Y-87895000D01*
X140927702Y-87895000D01*
X141732034Y-87090668D01*
X141765000Y-87152343D01*
X141765000Y-87251939D01*
X141804774Y-87451898D01*
X141882795Y-87640256D01*
X141996063Y-87809774D01*
X142140226Y-87953937D01*
X142309744Y-88067205D01*
X142498102Y-88145226D01*
X142698061Y-88185000D01*
X142901939Y-88185000D01*
X143101898Y-88145226D01*
X143167527Y-88118041D01*
X157051413Y-88118041D01*
X157090630Y-88360128D01*
X157176321Y-88589914D01*
X157218480Y-88668789D01*
X157443081Y-88717314D01*
X158120395Y-88040000D01*
X158479605Y-88040000D01*
X159156919Y-88717314D01*
X159381520Y-88668789D01*
X159483409Y-88445713D01*
X159539821Y-88207046D01*
X159543004Y-88118041D01*
X167211413Y-88118041D01*
X167250630Y-88360128D01*
X167336321Y-88589914D01*
X167378480Y-88668789D01*
X167603081Y-88717314D01*
X168280395Y-88040000D01*
X168639605Y-88040000D01*
X169316919Y-88717314D01*
X169541520Y-88668789D01*
X169643409Y-88445713D01*
X169699821Y-88207046D01*
X169708587Y-87961959D01*
X169669370Y-87719872D01*
X169583679Y-87490086D01*
X169541520Y-87411211D01*
X169316919Y-87362686D01*
X168639605Y-88040000D01*
X168280395Y-88040000D01*
X167603081Y-87362686D01*
X167378480Y-87411211D01*
X167276591Y-87634287D01*
X167220179Y-87872954D01*
X167211413Y-88118041D01*
X159543004Y-88118041D01*
X159548587Y-87961959D01*
X159509370Y-87719872D01*
X159423679Y-87490086D01*
X159381520Y-87411211D01*
X159156919Y-87362686D01*
X158479605Y-88040000D01*
X158120395Y-88040000D01*
X157443081Y-87362686D01*
X157218480Y-87411211D01*
X157116591Y-87634287D01*
X157060179Y-87872954D01*
X157051413Y-88118041D01*
X143167527Y-88118041D01*
X143290256Y-88067205D01*
X143459774Y-87953937D01*
X143603937Y-87809774D01*
X143717205Y-87640256D01*
X143795226Y-87451898D01*
X143835000Y-87251939D01*
X143835000Y-87183081D01*
X157622686Y-87183081D01*
X158300000Y-87860395D01*
X158977314Y-87183081D01*
X167782686Y-87183081D01*
X168460000Y-87860395D01*
X169137314Y-87183081D01*
X169088789Y-86958480D01*
X168865713Y-86856591D01*
X168627046Y-86800179D01*
X168381959Y-86791413D01*
X168139872Y-86830630D01*
X167910086Y-86916321D01*
X167831211Y-86958480D01*
X167782686Y-87183081D01*
X158977314Y-87183081D01*
X158928789Y-86958480D01*
X158705713Y-86856591D01*
X158467046Y-86800179D01*
X158221959Y-86791413D01*
X157979872Y-86830630D01*
X157750086Y-86916321D01*
X157671211Y-86958480D01*
X157622686Y-87183081D01*
X143835000Y-87183081D01*
X143835000Y-87083759D01*
X143877898Y-87075226D01*
X144066256Y-86997205D01*
X144235774Y-86883937D01*
X144379937Y-86739774D01*
X144493205Y-86570256D01*
X144571226Y-86381898D01*
X144611000Y-86181939D01*
X144611000Y-85978061D01*
X144571226Y-85778102D01*
X144557002Y-85743762D01*
X144557002Y-85636252D01*
X144715750Y-85795000D01*
X144730000Y-85798072D01*
X144854482Y-85785812D01*
X144974180Y-85749502D01*
X145084494Y-85690537D01*
X145181185Y-85611185D01*
X145260537Y-85514494D01*
X145319502Y-85404180D01*
X145355812Y-85284482D01*
X145368072Y-85160000D01*
X145367247Y-85042104D01*
X145373000Y-85037954D01*
X145373000Y-83647000D01*
X145627000Y-83647000D01*
X145627000Y-85037954D01*
X145801874Y-85164119D01*
X146024976Y-85084276D01*
X146212764Y-84962369D01*
X146373161Y-84806169D01*
X146500003Y-84621678D01*
X146588415Y-84415987D01*
X146635000Y-84197000D01*
X146635000Y-83647000D01*
X145627000Y-83647000D01*
X145373000Y-83647000D01*
X145361867Y-83647000D01*
X145355812Y-83585518D01*
X145353000Y-83576248D01*
X145353000Y-83393000D01*
X145373000Y-83393000D01*
X145373000Y-82002046D01*
X145627000Y-82002046D01*
X145627000Y-83393000D01*
X146635000Y-83393000D01*
X146635000Y-82843000D01*
X146588415Y-82624013D01*
X146500003Y-82418322D01*
X146373161Y-82233831D01*
X146212764Y-82077631D01*
X146024976Y-81955724D01*
X145801874Y-81875881D01*
X145627000Y-82002046D01*
X145373000Y-82002046D01*
X145198126Y-81875881D01*
X144975024Y-81955724D01*
X144787236Y-82077631D01*
X144642884Y-82218206D01*
X144524731Y-82139259D01*
X144350022Y-82066892D01*
X144164552Y-82030000D01*
X143975448Y-82030000D01*
X143789978Y-82066892D01*
X143615269Y-82139259D01*
X143458036Y-82244319D01*
X143369453Y-82332902D01*
X143194330Y-82157710D01*
X143170422Y-82128578D01*
X143111468Y-82080196D01*
X143054519Y-82033440D01*
X143054452Y-82033404D01*
X143054392Y-82033355D01*
X142987917Y-81997823D01*
X142922157Y-81962657D01*
X142922084Y-81962635D01*
X142922015Y-81962598D01*
X142846985Y-81939838D01*
X142778528Y-81919057D01*
X142778457Y-81919050D01*
X142778378Y-81919026D01*
X142700743Y-81911380D01*
X142629152Y-81904314D01*
X142591652Y-81908000D01*
X139768347Y-81908000D01*
X139730847Y-81904314D01*
X139658784Y-81911426D01*
X139581622Y-81919026D01*
X139581543Y-81919050D01*
X139581471Y-81919057D01*
X139512272Y-81940063D01*
X139437985Y-81962598D01*
X139437916Y-81962635D01*
X139437843Y-81962657D01*
X139371033Y-81998385D01*
X139305608Y-82033355D01*
X139305550Y-82033403D01*
X139305480Y-82033440D01*
X139247716Y-82080866D01*
X139189578Y-82128578D01*
X139165670Y-82157711D01*
X138990548Y-82332903D01*
X138901964Y-82244319D01*
X138744731Y-82139259D01*
X138570022Y-82066892D01*
X138384552Y-82030000D01*
X138195448Y-82030000D01*
X138009978Y-82066892D01*
X137835269Y-82139259D01*
X137717116Y-82218206D01*
X137572764Y-82077631D01*
X137384976Y-81955724D01*
X137161874Y-81875881D01*
X136987000Y-82002046D01*
X136987000Y-83393000D01*
X137007000Y-83393000D01*
X137007000Y-83576248D01*
X137004188Y-83585518D01*
X136998133Y-83647000D01*
X136987000Y-83647000D01*
X136987000Y-85037954D01*
X136992753Y-85042104D01*
X136991928Y-85160000D01*
X137004188Y-85284482D01*
X137040498Y-85404180D01*
X137099463Y-85514494D01*
X137178815Y-85611185D01*
X137275506Y-85690537D01*
X137385820Y-85749502D01*
X137505518Y-85785812D01*
X137630000Y-85798072D01*
X137644250Y-85795000D01*
X137803000Y-85636250D01*
X137803000Y-85272420D01*
X137804188Y-85284482D01*
X137840498Y-85404180D01*
X137899463Y-85514494D01*
X137978815Y-85611185D01*
X138075506Y-85690537D01*
X138152375Y-85731625D01*
X138215750Y-85795000D01*
X138230000Y-85798072D01*
X138330000Y-85788223D01*
X138430000Y-85798072D01*
X138668001Y-85798072D01*
X138668001Y-86448288D01*
X138616063Y-86500226D01*
X138502795Y-86669744D01*
X138424774Y-86858102D01*
X138385000Y-87058061D01*
X138385000Y-87261939D01*
X138424774Y-87461898D01*
X138502795Y-87650256D01*
X138555321Y-87728868D01*
X138494163Y-87790026D01*
X138380895Y-87959544D01*
X138302874Y-88147902D01*
X138276302Y-88281488D01*
X138230000Y-88276928D01*
X138025750Y-88280000D01*
X137867000Y-88438750D01*
X137867000Y-89253000D01*
X137887000Y-89253000D01*
X137887000Y-89507000D01*
X137867000Y-89507000D01*
X137867000Y-89527000D01*
X137613000Y-89527000D01*
X137613000Y-89507000D01*
X136773750Y-89507000D01*
X136615000Y-89665750D01*
X136611928Y-89845000D01*
X123060000Y-89845000D01*
X123060000Y-88915000D01*
X136611928Y-88915000D01*
X136615000Y-89094250D01*
X136773750Y-89253000D01*
X137613000Y-89253000D01*
X137613000Y-88438750D01*
X137454250Y-88280000D01*
X137250000Y-88276928D01*
X137125518Y-88289188D01*
X137005820Y-88325498D01*
X136895506Y-88384463D01*
X136798815Y-88463815D01*
X136719463Y-88560506D01*
X136660498Y-88670820D01*
X136624188Y-88790518D01*
X136611928Y-88915000D01*
X123060000Y-88915000D01*
X123060000Y-83647000D01*
X135725000Y-83647000D01*
X135725000Y-84197000D01*
X135771585Y-84415987D01*
X135859997Y-84621678D01*
X135986839Y-84806169D01*
X136147236Y-84962369D01*
X136335024Y-85084276D01*
X136558126Y-85164119D01*
X136733000Y-85037954D01*
X136733000Y-83647000D01*
X135725000Y-83647000D01*
X123060000Y-83647000D01*
X123060000Y-82843000D01*
X135725000Y-82843000D01*
X135725000Y-83393000D01*
X136733000Y-83393000D01*
X136733000Y-82002046D01*
X136558126Y-81875881D01*
X136335024Y-81955724D01*
X136147236Y-82077631D01*
X135986839Y-82233831D01*
X135859997Y-82418322D01*
X135771585Y-82624013D01*
X135725000Y-82843000D01*
X123060000Y-82843000D01*
X123060000Y-79467000D01*
X135725000Y-79467000D01*
X135725000Y-79767000D01*
X135771585Y-79985987D01*
X135859997Y-80191678D01*
X135986839Y-80376169D01*
X136147236Y-80532369D01*
X136335024Y-80654276D01*
X136558126Y-80734119D01*
X136733000Y-80607954D01*
X136733000Y-79467000D01*
X136987000Y-79467000D01*
X136987000Y-80607954D01*
X137161874Y-80734119D01*
X137384976Y-80654276D01*
X137572764Y-80532369D01*
X137733161Y-80376169D01*
X137860003Y-80191678D01*
X137948415Y-79985987D01*
X137995000Y-79767000D01*
X137995000Y-79467000D01*
X144365000Y-79467000D01*
X144365000Y-79767000D01*
X144411585Y-79985987D01*
X144499997Y-80191678D01*
X144626839Y-80376169D01*
X144787236Y-80532369D01*
X144975024Y-80654276D01*
X145198126Y-80734119D01*
X145373000Y-80607954D01*
X145373000Y-79467000D01*
X145627000Y-79467000D01*
X145627000Y-80607954D01*
X145801874Y-80734119D01*
X146024976Y-80654276D01*
X146212764Y-80532369D01*
X146373161Y-80376169D01*
X146500003Y-80191678D01*
X146588415Y-79985987D01*
X146635000Y-79767000D01*
X146635000Y-79467000D01*
X145627000Y-79467000D01*
X145373000Y-79467000D01*
X144365000Y-79467000D01*
X137995000Y-79467000D01*
X136987000Y-79467000D01*
X136733000Y-79467000D01*
X135725000Y-79467000D01*
X123060000Y-79467000D01*
X123060000Y-78350815D01*
X135943603Y-78366717D01*
G37*
%TD.AperFunction*%
D25*
X144646510Y-104952746D02*
X144453596Y-105152515D01*
X144375944Y-105250576D01*
X144318914Y-105361903D01*
X144309939Y-105393463D01*
X144277388Y-105425985D01*
X143896012Y-105807000D01*
X141531333Y-105807000D01*
X141400726Y-105819864D01*
X141233149Y-105870697D01*
X141078709Y-105953247D01*
X141007206Y-106011928D01*
X140875000Y-106011928D01*
X140735887Y-106025629D01*
X140602119Y-106066207D01*
X140478838Y-106132102D01*
X140370782Y-106220782D01*
X140282102Y-106328838D01*
X140216207Y-106452119D01*
X140175629Y-106585887D01*
X140168357Y-106659727D01*
X139790273Y-106281643D01*
X139864113Y-106274371D01*
X139997881Y-106233793D01*
X140121162Y-106167898D01*
X140229218Y-106079218D01*
X140317898Y-105971162D01*
X140383793Y-105847881D01*
X140424371Y-105714113D01*
X140438072Y-105575000D01*
X140438072Y-104175000D01*
X140424371Y-104035887D01*
X140410000Y-103988512D01*
X140410000Y-102739468D01*
X140426185Y-102726185D01*
X140505537Y-102629494D01*
X140564502Y-102519180D01*
X140600812Y-102399482D01*
X140613072Y-102275000D01*
X140613072Y-102014000D01*
X141707765Y-102014000D01*
X144646510Y-104952746D01*
%TA.AperFunction,Conductor*%
D30*
G36*
X144646510Y-104952746D02*
G01*
X144453596Y-105152515D01*
X144375944Y-105250576D01*
X144318914Y-105361903D01*
X144309939Y-105393463D01*
X144277388Y-105425985D01*
X143896012Y-105807000D01*
X141531333Y-105807000D01*
X141400726Y-105819864D01*
X141233149Y-105870697D01*
X141078709Y-105953247D01*
X141007206Y-106011928D01*
X140875000Y-106011928D01*
X140735887Y-106025629D01*
X140602119Y-106066207D01*
X140478838Y-106132102D01*
X140370782Y-106220782D01*
X140282102Y-106328838D01*
X140216207Y-106452119D01*
X140175629Y-106585887D01*
X140168357Y-106659727D01*
X139790273Y-106281643D01*
X139864113Y-106274371D01*
X139997881Y-106233793D01*
X140121162Y-106167898D01*
X140229218Y-106079218D01*
X140317898Y-105971162D01*
X140383793Y-105847881D01*
X140424371Y-105714113D01*
X140438072Y-105575000D01*
X140438072Y-104175000D01*
X140424371Y-104035887D01*
X140410000Y-103988512D01*
X140410000Y-102739468D01*
X140426185Y-102726185D01*
X140505537Y-102629494D01*
X140564502Y-102519180D01*
X140600812Y-102399482D01*
X140613072Y-102275000D01*
X140613072Y-102014000D01*
X141707765Y-102014000D01*
X144646510Y-104952746D01*
G37*
%TD.AperFunction*%
%TD*%
M02*
