M48
; DRILL file {KiCad (5.1.8)-1} date 05/09/21 22:55:44
; FORMAT={-:-/ absolute / inch / decimal}
; #@! TF.CreationDate,2021-05-09T22:55:44+08:00
; #@! TF.GenerationSoftware,Kicad,Pcbnew,(5.1.8)-1
; #@! TF.FileFunction,Plated,1,2,PTH
FMAT,2
INCH
T1C0.0157
T2C0.0236
T3C0.0323
%
G90
G05
T1
X4.9944Y-4.1769
X5.0157Y-4.4815
X5.023Y-4.4351
X5.0714Y-4.2225
X5.1134Y-4.1291
X5.1276Y-4.6102
X5.1803Y-4.0568
X5.227Y-4.0545
X5.2801Y-3.8969
X5.2913Y-4.0733
X5.3552Y-3.8926
X5.4016Y-4.0733
X5.4283Y-3.4315
X5.4842Y-3.4823
X5.489Y-3.4315
X5.4937Y-3.6843
X5.519Y-3.3842
X5.5425Y-4.0153
X5.5484Y-3.5012
X5.5807Y-4.5535
X5.6039Y-3.6843
X5.622Y-3.4311
X5.637Y-4.2727
X5.6526Y-3.389
X5.6768Y-4.3339
X5.6827Y-3.4311
X5.7116Y-4.3819
X5.8889Y-3.8544
X5.9547Y-4.024
T3
X6.2323Y-3.4661
X6.2323Y-3.5661
X6.2323Y-3.6661
X6.2323Y-3.7661
X6.2323Y-3.8661
X6.2323Y-3.9661
X6.2323Y-4.0661
X6.2323Y-4.1661
X6.2323Y-4.2661
X6.2323Y-4.3661
X6.2323Y-4.4661
X6.6323Y-3.4661
X6.6323Y-3.5661
X6.6323Y-3.6661
X6.6323Y-3.7661
X6.6323Y-3.8661
X6.6323Y-3.9661
X6.6323Y-4.0661
X6.6323Y-4.1661
X6.6323Y-4.2661
X6.6323Y-4.3661
X6.6323Y-4.4661
T2
G00X5.3882Y-3.1354
M15
G01X5.3882Y-3.1118
M16
G05
G00X5.3882Y-3.3098
M15
G01X5.3882Y-3.2665
M16
G05
G00X5.7283Y-3.1354
M15
G01X5.7283Y-3.1118
M16
G05
G00X5.7283Y-3.3098
M15
G01X5.7283Y-3.2665
M16
G05
T0
M30
