G04 ================== begin FILE IDENTIFICATION RECORD ==================*
G04 Layout Name:  F:/PCB/Cadence_PCB/FPGA_CCD/allegro/fpga_ccd_3_with_logo.brd*
G04 Film Name:    ADT*
G04 File Format:  Gerber RS274X*
G04 File Origin:  Cadence Allegro 17.4-S017*
G04 Origin Date:  Thu Jul  1 17:25:21 2021*
G04 *
G04 Layer:  REF DES/SILKSCREEN_TOP*
G04 Layer:  PIN/TOP*
G04 Layer:  PACKAGE GEOMETRY/SILKSCREEN_TOP*
G04 Layer:  BOARD GEOMETRY/SILKSCREEN_TOP*
G04 Layer:  BOARD GEOMETRY/OUTLINE*
G04 *
G04 Offset:    (0.00 0.00)*
G04 Mirror:    No*
G04 Mode:      Positive*
G04 Rotation:  0*
G04 FullContactRelief:  No*
G04 UndefLineWidth:     6.00*
G04 ================== end FILE IDENTIFICATION RECORD ====================*
%FSLAX25Y25*MOIN*%
%IR0*IPPOS*OFA0.00000B0.00000*MIA0B0*SFA1.00000B1.00000*%
%ADD10C,.04803*%
%ADD20R,.04803X.04803*%
%ADD28C,.06299*%
%ADD26C,.07677*%
%AMMACRO25*
4,1,40,.00945,.0311,
.00945,-.0311,
.009413,-.031511,
.009306,-.031908,
.009131,-.032282,
.008894,-.032619,
.008602,-.03291,
.008264,-.033146,
.00789,-.033319,
.007491,-.033425,
.00709,-.03346,
-.00709,-.03346,
-.007501,-.033423,
-.007898,-.033316,
-.008272,-.033141,
-.008609,-.032904,
-.0089,-.032612,
-.009136,-.032274,
-.009309,-.0319,
-.009415,-.031501,
-.00945,-.0311,
-.00945,.0311,
-.009413,.031511,
-.009306,.031908,
-.009131,.032282,
-.008894,.032619,
-.008602,.03291,
-.008264,.033146,
-.00789,.033319,
-.007491,.033425,
-.00709,.03346,
.00709,.03346,
.007501,.033423,
.007898,.033316,
.008272,.033141,
.008609,.032904,
.0089,.032612,
.009136,.032274,
.009309,.0319,
.009415,.031501,
.00945,.0311,
0.0*
%
%ADD25MACRO25*%
%ADD19R,.017X.02*%
%ADD27R,.05X.025*%
%ADD22R,.0535X.011*%
%ADD23R,.011X.0535*%
%AMMACRO21*
21,1,.02126,.03701,0.0,0.0,45.*%
%ADD21MACRO21*%
%ADD14R,.03701X.02126*%
%ADD15R,.0395X.014*%
%ADD13R,.02126X.03701*%
%ADD16R,.01181X.05118*%
%ADD17R,.02362X.05118*%
%ADD11O,.0315X.06299*%
%ADD12O,.04134X.08268*%
%ADD18R,.01181X.03937*%
%ADD24R,.07087X.06299*%
%ADD29C,.005*%
%ADD30C,.006*%
%ADD31C,.008*%
%ADD32C,.00394*%
%ADD33C,.00787*%
G75*
%LPD*%
G75*
G36*
G01X455199Y836952D02*
X455650D01*
Y836501D01*
X455240D01*
Y836090D01*
X454829D01*
Y835680D01*
X454419D01*
Y835269D01*
X454008D01*
Y834859D01*
X453598D01*
Y834448D01*
X453187D01*
Y834038D01*
X452777D01*
Y833627D01*
X452366D01*
Y832806D01*
X451956D01*
Y831574D01*
X451545D01*
Y829152D01*
X451956D01*
Y828331D01*
X452366D01*
Y827510D01*
X452777D01*
Y827100D01*
X453187D01*
Y826689D01*
X454008D01*
Y826279D01*
X454829D01*
Y825868D01*
X456061D01*
Y825458D01*
X462588D01*
Y825868D01*
X464230D01*
Y826279D01*
X465462D01*
Y826689D01*
X466283D01*
Y827100D01*
X467104D01*
Y827510D01*
X467556D01*
Y827059D01*
X467145D01*
Y826648D01*
X466324D01*
Y826238D01*
X465503D01*
Y825827D01*
X464682D01*
Y825417D01*
X463450D01*
Y825006D01*
X462219D01*
Y824596D01*
X460166D01*
Y824185D01*
X456020D01*
Y824596D01*
X453967D01*
Y825006D01*
X453146D01*
Y825417D01*
X452325D01*
Y825827D01*
X451915D01*
Y826238D01*
X451094D01*
Y827059D01*
X450683D01*
Y827469D01*
X450273D01*
Y828701D01*
X449862D01*
Y830794D01*
X450273D01*
Y832026D01*
X450683D01*
Y832847D01*
X451094D01*
Y833258D01*
X451504D01*
Y834079D01*
X451915D01*
Y834489D01*
X452325D01*
Y834900D01*
X452736D01*
Y835310D01*
X453557D01*
Y835721D01*
X453967D01*
Y836131D01*
X454378D01*
Y836542D01*
X455199D01*
Y836952D01*
G37*
G36*
G01X456430Y834900D02*
X458524D01*
Y834489D01*
X458935D01*
Y834038D01*
X456471D01*
Y833627D01*
X455650D01*
Y833217D01*
X455240D01*
Y832806D01*
X454829D01*
Y831574D01*
X454419D01*
Y830794D01*
X454829D01*
Y829973D01*
X455240D01*
Y829563D01*
X457251D01*
Y830384D01*
X457662D01*
Y831164D01*
X456430D01*
Y832026D01*
X458524D01*
Y829522D01*
X458114D01*
Y828701D01*
X454788D01*
Y829111D01*
X453967D01*
Y829932D01*
X453557D01*
Y832847D01*
X453967D01*
Y833258D01*
X454378D01*
Y833668D01*
X454788D01*
Y834079D01*
X455199D01*
Y834489D01*
X456430D01*
Y834900D01*
G37*
G36*
G01X459715D02*
X464271D01*
Y834038D01*
X462629D01*
Y833627D01*
X462219D01*
Y831985D01*
X461808D01*
Y829932D01*
X461398D01*
Y828701D01*
X460536D01*
Y830794D01*
X460946D01*
Y832847D01*
X461357D01*
Y834038D01*
X459715D01*
Y834900D01*
G37*
G36*
G01X465051D02*
X468377D01*
Y834038D01*
X465914D01*
Y832026D01*
X467966D01*
Y831574D01*
X467556D01*
Y831164D01*
X465503D01*
Y829152D01*
X467556D01*
Y828290D01*
X464230D01*
Y830384D01*
X464641D01*
Y832847D01*
X465051D01*
Y834900D01*
G37*
G36*
G01X504400Y833612D02*
Y832112D01*
X505400D01*
Y833612D01*
X504400D01*
G37*
G36*
G01Y853297D02*
Y851797D01*
X505400D01*
Y853297D01*
X504400D01*
G37*
G36*
G01Y872982D02*
Y871482D01*
X505400D01*
Y872982D01*
X504400D01*
G37*
G36*
G01X521807Y809800D02*
Y808800D01*
X523307D01*
Y809800D01*
X521807D01*
G37*
G36*
G01X523775Y901200D02*
Y902200D01*
X525275D01*
Y901200D01*
X523775D01*
G37*
G36*
G01X541492Y809800D02*
Y808800D01*
X542992D01*
Y809800D01*
X541492D01*
G37*
G36*
G01X543460Y901200D02*
Y902200D01*
X544960D01*
Y901200D01*
X543460D01*
G37*
G36*
G01X561177Y809800D02*
Y808800D01*
X562677D01*
Y809800D01*
X561177D01*
G37*
G36*
G01X563145Y901200D02*
Y902200D01*
X564645D01*
Y901200D01*
X563145D01*
G37*
G36*
G01X580862Y809800D02*
Y808800D01*
X582362D01*
Y809800D01*
X580862D01*
G37*
G36*
G01X597800Y835581D02*
Y834081D01*
X596800D01*
Y835581D01*
X597800D01*
G37*
G36*
G01Y855266D02*
Y853766D01*
X596800D01*
Y855266D01*
X597800D01*
G37*
G36*
G01Y874951D02*
Y873451D01*
X596800D01*
Y874951D01*
X597800D01*
G37*
G36*
G01X582830Y901200D02*
Y902200D01*
X584330D01*
Y901200D01*
X582830D01*
G37*
G36*
G01X456020Y836911D02*
Y837363D01*
X456471D01*
Y836911D01*
X456020D01*
G37*
G36*
G01X467925Y827469D02*
Y827921D01*
X468377D01*
Y827469D01*
X467925D01*
G37*
G54D10*
X440400Y861500D03*
Y851500D03*
Y871500D03*
Y891500D03*
Y881500D03*
Y911500D03*
Y901500D03*
Y931500D03*
Y921500D03*
Y941500D03*
Y951500D03*
X480400Y851500D03*
Y861500D03*
Y871500D03*
Y881500D03*
Y891500D03*
Y901500D03*
Y911500D03*
Y921500D03*
Y931500D03*
Y941500D03*
G54D11*
X453592Y751124D03*
X487608D03*
G54D20*
X480400Y951500D03*
G54D30*
G01X627600Y740600D02*
Y987700D01*
X434200D01*
Y740600D01*
X627600D01*
G01X451432Y929133D02*
X454218Y932800D01*
G01X452825Y933467D02*
Y928467D01*
G01X454218Y929133D02*
X451432Y932800D01*
G01X450925Y930967D02*
X454725D01*
G01X468185Y786910D02*
G03I-787J0D01*
G01X502507Y889766D02*
X505293Y893433D01*
G01X503900Y894100D02*
Y889100D01*
G01X505293Y889766D02*
X502507Y893433D01*
G01X502000Y891600D02*
X505800D01*
G01X584350Y772500D02*
Y792500D01*
X597850D01*
Y772500D01*
X584350D01*
G01X586100Y792500D02*
Y772500D01*
G01X588350Y790000D02*
G03I-1000J0D01*
G01X451139Y785170D02*
X451389Y784820D01*
X451689Y784587D01*
X452039Y784470D01*
X452439Y784587D01*
X452739Y784820D01*
X453039Y785170D01*
X453139Y785637D01*
Y787970D01*
G01X454989Y787387D02*
X455289Y787737D01*
X455639Y787912D01*
X456039Y787970D01*
X456539Y787853D01*
X456889Y787562D01*
X456989Y787212D01*
X456939Y786862D01*
X456739Y786570D01*
X455739Y785987D01*
X455289Y785578D01*
X454989Y784995D01*
X454889Y784470D01*
X456989D01*
G01X459200Y808808D02*
X458900Y808983D01*
X458550Y809100D01*
X458150D01*
X457700Y808925D01*
X457350Y808633D01*
X457100Y808283D01*
X456900Y807700D01*
X456850Y807175D01*
X456950Y806650D01*
X457100Y806300D01*
X457400Y805950D01*
X457750Y805717D01*
X458100Y805600D01*
X458450D01*
X458800Y805717D01*
X459100Y805892D01*
X459350Y806125D01*
G01X460950Y808517D02*
X461250Y808867D01*
X461600Y809042D01*
X462000Y809100D01*
X462500Y808983D01*
X462850Y808692D01*
X462950Y808342D01*
X462900Y807992D01*
X462700Y807700D01*
X461700Y807117D01*
X461250Y806708D01*
X460950Y806125D01*
X460850Y805600D01*
X462950D01*
G01X465700D02*
X466050Y805658D01*
X466450Y805833D01*
X466700Y806125D01*
X466800Y806533D01*
X466700Y806942D01*
X466400Y807292D01*
X465950Y807467D01*
X465450D01*
X465150Y807583D01*
X464900Y807875D01*
X464800Y808283D01*
X464950Y808692D01*
X465300Y808983D01*
X465700Y809100D01*
X466100Y808983D01*
X466450Y808692D01*
X466600Y808283D01*
X466500Y807875D01*
X466250Y807583D01*
X465950Y807467D01*
X465450D01*
X465000Y807292D01*
X464700Y806942D01*
X464600Y806533D01*
X464700Y806125D01*
X464950Y805833D01*
X465350Y805658D01*
X465700Y805600D01*
G01X454000Y883000D02*
X450500D01*
Y884250D01*
X450675Y884650D01*
X450908Y884900D01*
X451375Y885000D01*
X451842Y884900D01*
X452133Y884600D01*
X452308Y884250D01*
Y883000D01*
G01Y884250D02*
X454000Y885000D01*
G01X451083Y886850D02*
X450733Y887150D01*
X450558Y887500D01*
X450500Y887900D01*
X450617Y888400D01*
X450908Y888750D01*
X451258Y888850D01*
X451608Y888800D01*
X451900Y888600D01*
X452483Y887600D01*
X452892Y887150D01*
X453475Y886850D01*
X454000Y886750D01*
Y888850D01*
G01Y891600D02*
X453942Y891950D01*
X453767Y892350D01*
X453475Y892600D01*
X453067Y892700D01*
X452658Y892600D01*
X452308Y892300D01*
X452133Y891850D01*
Y891350D01*
X452017Y891050D01*
X451725Y890800D01*
X451317Y890700D01*
X450908Y890850D01*
X450617Y891200D01*
X450500Y891600D01*
X450617Y892000D01*
X450908Y892350D01*
X451317Y892500D01*
X451725Y892400D01*
X452017Y892150D01*
X452133Y891850D01*
Y891350D01*
X452308Y890900D01*
X452658Y890600D01*
X453067Y890500D01*
X453475Y890600D01*
X453767Y890850D01*
X453942Y891250D01*
X454000Y891600D01*
G01X455300Y910800D02*
X467300D01*
G01Y923200D02*
X455300D01*
G01X457800Y937800D02*
X454300D01*
Y939050D01*
X454475Y939450D01*
X454708Y939700D01*
X455175Y939800D01*
X455642Y939700D01*
X455933Y939400D01*
X456108Y939050D01*
Y937800D01*
G01Y939050D02*
X457800Y939800D01*
G01X454883Y941650D02*
X454533Y941950D01*
X454358Y942300D01*
X454300Y942700D01*
X454417Y943200D01*
X454708Y943550D01*
X455058Y943650D01*
X455408Y943600D01*
X455700Y943400D01*
X456283Y942400D01*
X456692Y941950D01*
X457275Y941650D01*
X457800Y941550D01*
Y943650D01*
G01X456342Y945450D02*
X455933Y945800D01*
X455700Y946100D01*
X455583Y946500D01*
X455700Y946850D01*
X455933Y947100D01*
X456283Y947300D01*
X456692Y947350D01*
X457042Y947300D01*
X457392Y947100D01*
X457683Y946800D01*
X457800Y946450D01*
X457683Y946050D01*
X457333Y945700D01*
X456808Y945500D01*
X456225Y945450D01*
X455467Y945550D01*
X455058Y945700D01*
X454650Y945950D01*
X454358Y946300D01*
X454300Y946650D01*
X454417Y947000D01*
X454708Y947250D01*
G01X457800Y960500D02*
X457400Y960558D01*
X457050Y960792D01*
X456750Y961142D01*
X456550Y961550D01*
X456450Y962017D01*
Y962483D01*
X456550Y962950D01*
X456750Y963358D01*
X457050Y963708D01*
X457400Y963942D01*
X457800Y964000D01*
X458200Y963942D01*
X458550Y963708D01*
X458850Y963358D01*
X459050Y962950D01*
X459150Y962483D01*
Y962017D01*
X459050Y961550D01*
X458850Y961142D01*
X458550Y960792D01*
X458200Y960558D01*
X457800Y960500D01*
G01X458200Y961433D02*
X458800Y960500D01*
G01X461600D02*
Y964000D01*
X461000Y963300D01*
G01Y960500D02*
X462200D01*
G01X462500Y790800D02*
X465008D01*
X465533Y791000D01*
X465883Y791400D01*
X466000Y791900D01*
X465883Y792400D01*
X465533Y792800D01*
X465008Y793000D01*
X462500D01*
G01X465475Y794600D02*
X465767Y794900D01*
X465942Y795250D01*
X466000Y795700D01*
X465883Y796150D01*
X465650Y796500D01*
X465242Y796750D01*
X464775Y796800D01*
X464308Y796700D01*
X464017Y796450D01*
X463783Y796100D01*
X463725Y795750D01*
X463783Y795400D01*
X464017Y794950D01*
X462500Y795100D01*
Y796450D01*
G01X466300Y883200D02*
X462800D01*
Y884450D01*
X462975Y884850D01*
X463208Y885100D01*
X463675Y885200D01*
X464142Y885100D01*
X464433Y884800D01*
X464608Y884450D01*
Y883200D01*
G01Y884450D02*
X466300Y885200D01*
G01X465600Y886900D02*
X466008Y887200D01*
X466242Y887600D01*
X466300Y888050D01*
X466242Y888450D01*
X465950Y888850D01*
X465600Y889100D01*
X465250Y889150D01*
X464842Y889050D01*
X464550Y888700D01*
X464433Y888350D01*
Y887900D01*
G01Y888350D02*
X464258Y888650D01*
X463967Y888900D01*
X463617Y889000D01*
X463267Y888900D01*
X462975Y888650D01*
X462800Y888200D01*
X462858Y887750D01*
X463092Y887300D01*
G01X462800Y891800D02*
X462917Y891400D01*
X463208Y891100D01*
X463558Y890900D01*
X464025Y890750D01*
X464550Y890700D01*
X465075Y890750D01*
X465542Y890900D01*
X465892Y891100D01*
X466183Y891400D01*
X466300Y891800D01*
X466183Y892200D01*
X465892Y892500D01*
X465542Y892700D01*
X465075Y892850D01*
X464550Y892900D01*
X464025Y892850D01*
X463558Y892700D01*
X463208Y892500D01*
X462917Y892200D01*
X462800Y891800D01*
G01X460500Y883100D02*
X457000D01*
Y884350D01*
X457175Y884750D01*
X457408Y885000D01*
X457875Y885100D01*
X458342Y885000D01*
X458633Y884700D01*
X458808Y884350D01*
Y883100D01*
G01Y884350D02*
X460500Y885100D01*
G01X457583Y886950D02*
X457233Y887250D01*
X457058Y887600D01*
X457000Y888000D01*
X457117Y888500D01*
X457408Y888850D01*
X457758Y888950D01*
X458108Y888900D01*
X458400Y888700D01*
X458983Y887700D01*
X459392Y887250D01*
X459975Y886950D01*
X460500Y886850D01*
Y888950D01*
G01X460092Y890850D02*
X460383Y891200D01*
X460500Y891600D01*
X460383Y892000D01*
X460033Y892350D01*
X459508Y892600D01*
X458983Y892700D01*
X458342D01*
X457817Y892600D01*
X457350Y892350D01*
X457117Y892050D01*
X457000Y891700D01*
X457117Y891300D01*
X457350Y891000D01*
X457700Y890800D01*
X458167Y890700D01*
X458575Y890800D01*
X458983Y891050D01*
X459217Y891350D01*
X459275Y891700D01*
X459158Y892100D01*
X458867Y892400D01*
X458342Y892700D01*
G01X458300Y918000D02*
Y915492D01*
X458500Y914967D01*
X458900Y914617D01*
X459400Y914500D01*
X459900Y914617D01*
X460300Y914967D01*
X460500Y915492D01*
Y918000D01*
G01X463100Y914500D02*
X463200Y915258D01*
X463350Y915900D01*
X463550Y916483D01*
X463800Y917125D01*
X464200Y918000D01*
X462200D01*
G01X467300Y935700D02*
Y939200D01*
X468550D01*
X468950Y939025D01*
X469200Y938792D01*
X469300Y938325D01*
X469200Y937858D01*
X468900Y937567D01*
X468550Y937392D01*
X467300D01*
G01X468550D02*
X469300Y935700D01*
G01X471150Y938617D02*
X471450Y938967D01*
X471800Y939142D01*
X472200Y939200D01*
X472700Y939083D01*
X473050Y938792D01*
X473150Y938442D01*
X473100Y938092D01*
X472900Y937800D01*
X471900Y937217D01*
X471450Y936808D01*
X471150Y936225D01*
X471050Y935700D01*
X473150D01*
G01X474800Y936225D02*
X475100Y935933D01*
X475450Y935758D01*
X475900Y935700D01*
X476350Y935817D01*
X476700Y936050D01*
X476950Y936458D01*
X477000Y936925D01*
X476900Y937392D01*
X476650Y937683D01*
X476300Y937917D01*
X475950Y937975D01*
X475600Y937917D01*
X475150Y937683D01*
X475300Y939200D01*
X476650D01*
G01X469700Y977800D02*
X473200D01*
Y976550D01*
X473025Y976150D01*
X472792Y975900D01*
X472325Y975800D01*
X471858Y975900D01*
X471567Y976200D01*
X471392Y976550D01*
Y977800D01*
G01Y976550D02*
X469700Y975800D01*
G01X472617Y973950D02*
X472967Y973650D01*
X473142Y973300D01*
X473200Y972900D01*
X473083Y972400D01*
X472792Y972050D01*
X472442Y971950D01*
X472092Y972000D01*
X471800Y972200D01*
X471217Y973200D01*
X470808Y973650D01*
X470225Y973950D01*
X469700Y974050D01*
Y971950D01*
G01Y969300D02*
X470458Y969200D01*
X471100Y969050D01*
X471683Y968850D01*
X472325Y968600D01*
X473200Y968200D01*
Y970200D01*
G01X489292Y789200D02*
X489117Y788900D01*
X489000Y788550D01*
Y788150D01*
X489175Y787700D01*
X489467Y787350D01*
X489817Y787100D01*
X490400Y786900D01*
X490925Y786850D01*
X491450Y786950D01*
X491800Y787100D01*
X492150Y787400D01*
X492383Y787750D01*
X492500Y788100D01*
Y788450D01*
X492383Y788800D01*
X492208Y789100D01*
X491975Y789350D01*
G01X489583Y790950D02*
X489233Y791250D01*
X489058Y791600D01*
X489000Y792000D01*
X489117Y792500D01*
X489408Y792850D01*
X489758Y792950D01*
X490108Y792900D01*
X490400Y792700D01*
X490983Y791700D01*
X491392Y791250D01*
X491975Y790950D01*
X492500Y790850D01*
Y792950D01*
G01X491042Y794750D02*
X490633Y795100D01*
X490400Y795400D01*
X490283Y795800D01*
X490400Y796150D01*
X490633Y796400D01*
X490983Y796600D01*
X491392Y796650D01*
X491742Y796600D01*
X492092Y796400D01*
X492383Y796100D01*
X492500Y795750D01*
X492383Y795350D01*
X492033Y795000D01*
X491508Y794800D01*
X490925Y794750D01*
X490167Y794850D01*
X489758Y795000D01*
X489350Y795250D01*
X489058Y795600D01*
X489000Y795950D01*
X489117Y796300D01*
X489408Y796550D01*
G01X485108Y815800D02*
X485283Y816100D01*
X485400Y816450D01*
Y816850D01*
X485225Y817300D01*
X484933Y817650D01*
X484583Y817900D01*
X484000Y818100D01*
X483475Y818150D01*
X482950Y818050D01*
X482600Y817900D01*
X482250Y817600D01*
X482017Y817250D01*
X481900Y816900D01*
Y816550D01*
X482017Y816200D01*
X482192Y815900D01*
X482425Y815650D01*
G01X482600Y814200D02*
X482192Y813900D01*
X481958Y813500D01*
X481900Y813050D01*
X481958Y812650D01*
X482250Y812250D01*
X482600Y812000D01*
X482950Y811950D01*
X483358Y812050D01*
X483650Y812400D01*
X483767Y812750D01*
Y813200D01*
G01Y812750D02*
X483942Y812450D01*
X484233Y812200D01*
X484583Y812100D01*
X484933Y812200D01*
X485225Y812450D01*
X485400Y812900D01*
X485342Y813350D01*
X485108Y813800D01*
G01X485400Y809300D02*
X485283Y809700D01*
X484992Y810000D01*
X484642Y810200D01*
X484175Y810350D01*
X483650Y810400D01*
X483125Y810350D01*
X482658Y810200D01*
X482308Y810000D01*
X482017Y809700D01*
X481900Y809300D01*
X482017Y808900D01*
X482308Y808600D01*
X482658Y808400D01*
X483125Y808250D01*
X483650Y808200D01*
X484175Y808250D01*
X484642Y808400D01*
X484992Y808600D01*
X485283Y808900D01*
X485400Y809300D01*
G01X489808Y816000D02*
X489983Y816300D01*
X490100Y816650D01*
Y817050D01*
X489925Y817500D01*
X489633Y817850D01*
X489283Y818100D01*
X488700Y818300D01*
X488175Y818350D01*
X487650Y818250D01*
X487300Y818100D01*
X486950Y817800D01*
X486717Y817450D01*
X486600Y817100D01*
Y816750D01*
X486717Y816400D01*
X486892Y816100D01*
X487125Y815850D01*
G01X489517Y814250D02*
X489867Y813950D01*
X490042Y813600D01*
X490100Y813200D01*
X489983Y812700D01*
X489692Y812350D01*
X489342Y812250D01*
X488992Y812300D01*
X488700Y812500D01*
X488117Y813500D01*
X487708Y813950D01*
X487125Y814250D01*
X486600Y814350D01*
Y812250D01*
G01X487008Y810350D02*
X486717Y810000D01*
X486600Y809600D01*
X486717Y809200D01*
X487067Y808850D01*
X487592Y808600D01*
X488117Y808500D01*
X488758D01*
X489283Y808600D01*
X489750Y808850D01*
X489983Y809150D01*
X490100Y809500D01*
X489983Y809900D01*
X489750Y810200D01*
X489400Y810400D01*
X488933Y810500D01*
X488525Y810400D01*
X488117Y810150D01*
X487883Y809850D01*
X487825Y809500D01*
X487942Y809100D01*
X488233Y808800D01*
X488758Y808500D01*
G01X508792Y752300D02*
X508617Y752000D01*
X508500Y751650D01*
Y751250D01*
X508675Y750800D01*
X508967Y750450D01*
X509317Y750200D01*
X509900Y750000D01*
X510425Y749950D01*
X510950Y750050D01*
X511300Y750200D01*
X511650Y750500D01*
X511883Y750850D01*
X512000Y751200D01*
Y751550D01*
X511883Y751900D01*
X511708Y752200D01*
X511475Y752450D01*
G01X512000Y755000D02*
X508500D01*
X509200Y754400D01*
G01X512000D02*
Y755600D01*
G01X511475Y757700D02*
X511767Y758000D01*
X511942Y758350D01*
X512000Y758800D01*
X511883Y759250D01*
X511650Y759600D01*
X511242Y759850D01*
X510775Y759900D01*
X510308Y759800D01*
X510017Y759550D01*
X509783Y759200D01*
X509725Y758850D01*
X509783Y758500D01*
X510017Y758050D01*
X508500Y758200D01*
Y759550D01*
G01X511238Y770321D02*
X511413Y770621D01*
X511530Y770971D01*
Y771371D01*
X511355Y771821D01*
X511063Y772171D01*
X510713Y772421D01*
X510130Y772621D01*
X509605Y772671D01*
X509080Y772571D01*
X508730Y772421D01*
X508380Y772121D01*
X508147Y771771D01*
X508030Y771421D01*
Y771071D01*
X508147Y770721D01*
X508322Y770421D01*
X508555Y770171D01*
G01X508030Y767621D02*
X511530D01*
X510830Y768221D01*
G01X508030D02*
Y767021D01*
G01X510947Y764771D02*
X511297Y764471D01*
X511472Y764121D01*
X511530Y763721D01*
X511413Y763221D01*
X511122Y762871D01*
X510772Y762771D01*
X510422Y762821D01*
X510130Y763021D01*
X509547Y764021D01*
X509138Y764471D01*
X508555Y764771D01*
X508030Y764871D01*
Y762771D01*
G01X505800Y785592D02*
X506100Y785417D01*
X506450Y785300D01*
X506850D01*
X507300Y785475D01*
X507650Y785767D01*
X507900Y786117D01*
X508100Y786700D01*
X508150Y787225D01*
X508050Y787750D01*
X507900Y788100D01*
X507600Y788450D01*
X507250Y788683D01*
X506900Y788800D01*
X506550D01*
X506200Y788683D01*
X505900Y788508D01*
X505650Y788275D01*
G01X503100Y788800D02*
Y785300D01*
X503700Y786000D01*
G01Y788800D02*
X502500D01*
G01X498510Y911155D02*
X495010D01*
Y912405D01*
X495185Y912805D01*
X495418Y913055D01*
X495885Y913155D01*
X496352Y913055D01*
X496643Y912755D01*
X496818Y912405D01*
Y911155D01*
G01Y912405D02*
X498510Y913155D01*
G01Y916555D02*
X495010D01*
X497518Y914705D01*
Y917205D01*
G01X495010Y919755D02*
X495127Y919355D01*
X495418Y919055D01*
X495768Y918855D01*
X496235Y918705D01*
X496760Y918655D01*
X497285Y918705D01*
X497752Y918855D01*
X498102Y919055D01*
X498393Y919355D01*
X498510Y919755D01*
X498393Y920155D01*
X498102Y920455D01*
X497752Y920655D01*
X497285Y920805D01*
X496760Y920855D01*
X496235Y920805D01*
X495768Y920655D01*
X495418Y920455D01*
X495127Y920155D01*
X495010Y919755D01*
G01X506600Y931500D02*
X510100D01*
Y930500D01*
X509925Y930100D01*
X509692Y929800D01*
X509342Y929550D01*
X508933Y929350D01*
X508350Y929300D01*
X507767Y929350D01*
X507358Y929550D01*
X507008Y929800D01*
X506775Y930100D01*
X506600Y930500D01*
Y931500D01*
G01Y926600D02*
X510100D01*
X509400Y927200D01*
G01X506600D02*
Y926000D01*
G01X511250Y819191D02*
Y815650D01*
G01D02*
X514791D01*
G01Y895350D02*
X511250D01*
G01D02*
Y891809D01*
G01X529500Y924300D02*
X526000D01*
Y925550D01*
X526175Y925950D01*
X526408Y926200D01*
X526875Y926300D01*
X527342Y926200D01*
X527633Y925900D01*
X527808Y925550D01*
Y924300D01*
G01Y925550D02*
X529500Y926300D01*
G01X526583Y928150D02*
X526233Y928450D01*
X526058Y928800D01*
X526000Y929200D01*
X526117Y929700D01*
X526408Y930050D01*
X526758Y930150D01*
X527108Y930100D01*
X527400Y929900D01*
X527983Y928900D01*
X528392Y928450D01*
X528975Y928150D01*
X529500Y928050D01*
Y930150D01*
G01Y933500D02*
X526000D01*
X528508Y931650D01*
Y934150D01*
G01X523900Y924600D02*
X520400D01*
Y925850D01*
X520575Y926250D01*
X520808Y926500D01*
X521275Y926600D01*
X521742Y926500D01*
X522033Y926200D01*
X522208Y925850D01*
Y924600D01*
G01Y925850D02*
X523900Y926600D01*
G01X520983Y928450D02*
X520633Y928750D01*
X520458Y929100D01*
X520400Y929500D01*
X520517Y930000D01*
X520808Y930350D01*
X521158Y930450D01*
X521508Y930400D01*
X521800Y930200D01*
X522383Y929200D01*
X522792Y928750D01*
X523375Y928450D01*
X523900Y928350D01*
Y930450D01*
G01X523200Y932100D02*
X523608Y932400D01*
X523842Y932800D01*
X523900Y933250D01*
X523842Y933650D01*
X523550Y934050D01*
X523200Y934300D01*
X522850Y934350D01*
X522442Y934250D01*
X522150Y933900D01*
X522033Y933550D01*
Y933100D01*
G01Y933550D02*
X521858Y933850D01*
X521567Y934100D01*
X521217Y934200D01*
X520867Y934100D01*
X520575Y933850D01*
X520400Y933400D01*
X520458Y932950D01*
X520692Y932500D01*
G01X518000Y924500D02*
X514500D01*
Y925750D01*
X514675Y926150D01*
X514908Y926400D01*
X515375Y926500D01*
X515842Y926400D01*
X516133Y926100D01*
X516308Y925750D01*
Y924500D01*
G01Y925750D02*
X518000Y926500D01*
G01X515083Y928350D02*
X514733Y928650D01*
X514558Y929000D01*
X514500Y929400D01*
X514617Y929900D01*
X514908Y930250D01*
X515258Y930350D01*
X515608Y930300D01*
X515900Y930100D01*
X516483Y929100D01*
X516892Y928650D01*
X517475Y928350D01*
X518000Y928250D01*
Y930350D01*
G01X515083Y932150D02*
X514733Y932450D01*
X514558Y932800D01*
X514500Y933200D01*
X514617Y933700D01*
X514908Y934050D01*
X515258Y934150D01*
X515608Y934100D01*
X515900Y933900D01*
X516483Y932900D01*
X516892Y932450D01*
X517475Y932150D01*
X518000Y932050D01*
Y934150D01*
G01X544025Y781500D02*
Y783075D01*
X543025Y785000D01*
G01X545025D02*
X544025Y783075D01*
G01X547825Y781500D02*
Y785000D01*
X547225Y784300D01*
G01Y781500D02*
X548425D01*
G01X528669Y947117D02*
X531177D01*
X531702Y947317D01*
X532052Y947717D01*
X532169Y948217D01*
X532052Y948717D01*
X531702Y949117D01*
X531177Y949317D01*
X528669D01*
G01X530711Y951067D02*
X530302Y951417D01*
X530069Y951717D01*
X529952Y952117D01*
X530069Y952467D01*
X530302Y952717D01*
X530652Y952917D01*
X531061Y952967D01*
X531411Y952917D01*
X531761Y952717D01*
X532052Y952417D01*
X532169Y952067D01*
X532052Y951667D01*
X531702Y951317D01*
X531177Y951117D01*
X530594Y951067D01*
X529836Y951167D01*
X529427Y951317D01*
X529019Y951567D01*
X528727Y951917D01*
X528669Y952267D01*
X528786Y952617D01*
X529077Y952867D01*
G01X534800Y975900D02*
X531300D01*
Y977150D01*
X531475Y977550D01*
X531708Y977800D01*
X532175Y977900D01*
X532642Y977800D01*
X532933Y977500D01*
X533108Y977150D01*
Y975900D01*
G01Y977150D02*
X534800Y977900D01*
G01X534100Y979600D02*
X534508Y979900D01*
X534742Y980300D01*
X534800Y980750D01*
X534742Y981150D01*
X534450Y981550D01*
X534100Y981800D01*
X533750Y981850D01*
X533342Y981750D01*
X533050Y981400D01*
X532933Y981050D01*
Y980600D01*
G01Y981050D02*
X532758Y981350D01*
X532467Y981600D01*
X532117Y981700D01*
X531767Y981600D01*
X531475Y981350D01*
X531300Y980900D01*
X531358Y980450D01*
X531592Y980000D01*
G01X534275Y983400D02*
X534567Y983700D01*
X534742Y984050D01*
X534800Y984500D01*
X534683Y984950D01*
X534450Y985300D01*
X534042Y985550D01*
X533575Y985600D01*
X533108Y985500D01*
X532817Y985250D01*
X532583Y984900D01*
X532525Y984550D01*
X532583Y984200D01*
X532817Y983750D01*
X531300Y983900D01*
Y985250D01*
G01X536592Y977900D02*
X536417Y977600D01*
X536300Y977250D01*
Y976850D01*
X536475Y976400D01*
X536767Y976050D01*
X537117Y975800D01*
X537700Y975600D01*
X538225Y975550D01*
X538750Y975650D01*
X539100Y975800D01*
X539450Y976100D01*
X539683Y976450D01*
X539800Y976800D01*
Y977150D01*
X539683Y977500D01*
X539508Y977800D01*
X539275Y978050D01*
G01X539100Y979500D02*
X539508Y979800D01*
X539742Y980200D01*
X539800Y980650D01*
X539742Y981050D01*
X539450Y981450D01*
X539100Y981700D01*
X538750Y981750D01*
X538342Y981650D01*
X538050Y981300D01*
X537933Y980950D01*
Y980500D01*
G01Y980950D02*
X537758Y981250D01*
X537467Y981500D01*
X537117Y981600D01*
X536767Y981500D01*
X536475Y981250D01*
X536300Y980800D01*
X536358Y980350D01*
X536592Y979900D01*
G01X539800Y984400D02*
X539742Y984750D01*
X539567Y985150D01*
X539275Y985400D01*
X538867Y985500D01*
X538458Y985400D01*
X538108Y985100D01*
X537933Y984650D01*
Y984150D01*
X537817Y983850D01*
X537525Y983600D01*
X537117Y983500D01*
X536708Y983650D01*
X536417Y984000D01*
X536300Y984400D01*
X536417Y984800D01*
X536708Y985150D01*
X537117Y985300D01*
X537525Y985200D01*
X537817Y984950D01*
X537933Y984650D01*
Y984150D01*
X538108Y983700D01*
X538458Y983400D01*
X538867Y983300D01*
X539275Y983400D01*
X539567Y983650D01*
X539742Y984050D01*
X539800Y984400D01*
G01X558500Y804200D02*
X562000D01*
Y802950D01*
X561825Y802550D01*
X561592Y802300D01*
X561125Y802200D01*
X560658Y802300D01*
X560367Y802600D01*
X560192Y802950D01*
Y804200D01*
G01Y802950D02*
X558500Y802200D01*
G01X559025Y800500D02*
X558733Y800200D01*
X558558Y799850D01*
X558500Y799400D01*
X558617Y798950D01*
X558850Y798600D01*
X559258Y798350D01*
X559725Y798300D01*
X560192Y798400D01*
X560483Y798650D01*
X560717Y799000D01*
X560775Y799350D01*
X560717Y799700D01*
X560483Y800150D01*
X562000Y800000D01*
Y798650D01*
G01X548100Y856500D02*
Y853992D01*
X548300Y853467D01*
X548700Y853117D01*
X549200Y853000D01*
X549700Y853117D01*
X550100Y853467D01*
X550300Y853992D01*
Y856500D01*
G01X553000Y853000D02*
Y856500D01*
X552400Y855800D01*
G01Y853000D02*
X553600D01*
G01X565600Y922800D02*
X562100D01*
Y924050D01*
X562275Y924450D01*
X562508Y924700D01*
X562975Y924800D01*
X563442Y924700D01*
X563733Y924400D01*
X563908Y924050D01*
Y922800D01*
G01Y924050D02*
X565600Y924800D01*
G01Y927600D02*
X562100D01*
X562800Y927000D01*
G01X565600D02*
Y928200D01*
G01X564900Y930300D02*
X565308Y930600D01*
X565542Y931000D01*
X565600Y931450D01*
X565542Y931850D01*
X565250Y932250D01*
X564900Y932500D01*
X564550Y932550D01*
X564142Y932450D01*
X563850Y932100D01*
X563733Y931750D01*
Y931300D01*
G01Y931750D02*
X563558Y932050D01*
X563267Y932300D01*
X562917Y932400D01*
X562567Y932300D01*
X562275Y932050D01*
X562100Y931600D01*
X562158Y931150D01*
X562392Y930700D01*
G01X560100Y922800D02*
X556600D01*
Y924050D01*
X556775Y924450D01*
X557008Y924700D01*
X557475Y924800D01*
X557942Y924700D01*
X558233Y924400D01*
X558408Y924050D01*
Y922800D01*
G01Y924050D02*
X560100Y924800D01*
G01Y927600D02*
X556600D01*
X557300Y927000D01*
G01X560100D02*
Y928200D01*
G01X557183Y930450D02*
X556833Y930750D01*
X556658Y931100D01*
X556600Y931500D01*
X556717Y932000D01*
X557008Y932350D01*
X557358Y932450D01*
X557708Y932400D01*
X558000Y932200D01*
X558583Y931200D01*
X558992Y930750D01*
X559575Y930450D01*
X560100Y930350D01*
Y932450D01*
G01X555100Y923300D02*
X551600D01*
Y924550D01*
X551775Y924950D01*
X552008Y925200D01*
X552475Y925300D01*
X552942Y925200D01*
X553233Y924900D01*
X553408Y924550D01*
Y923300D01*
G01Y924550D02*
X555100Y925300D01*
G01Y928100D02*
X551600D01*
X552300Y927500D01*
G01X555100D02*
Y928700D01*
G01Y931900D02*
X551600D01*
X552300Y931300D01*
G01X555100D02*
Y932500D01*
G01X567600Y785800D02*
X564100D01*
Y787050D01*
X564275Y787450D01*
X564508Y787700D01*
X564975Y787800D01*
X565442Y787700D01*
X565733Y787400D01*
X565908Y787050D01*
Y785800D01*
G01Y787050D02*
X567600Y787800D01*
G01Y790500D02*
X566842Y790600D01*
X566200Y790750D01*
X565617Y790950D01*
X564975Y791200D01*
X564100Y791600D01*
Y789600D01*
G01X580500Y922900D02*
X577000D01*
Y924150D01*
X577175Y924550D01*
X577408Y924800D01*
X577875Y924900D01*
X578342Y924800D01*
X578633Y924500D01*
X578808Y924150D01*
Y922900D01*
G01Y924150D02*
X580500Y924900D01*
G01Y927700D02*
X577000D01*
X577700Y927100D01*
G01X580500D02*
Y928300D01*
G01X579042Y930550D02*
X578633Y930900D01*
X578400Y931200D01*
X578283Y931600D01*
X578400Y931950D01*
X578633Y932200D01*
X578983Y932400D01*
X579392Y932450D01*
X579742Y932400D01*
X580092Y932200D01*
X580383Y931900D01*
X580500Y931550D01*
X580383Y931150D01*
X580033Y930800D01*
X579508Y930600D01*
X578925Y930550D01*
X578167Y930650D01*
X577758Y930800D01*
X577350Y931050D01*
X577058Y931400D01*
X577000Y931750D01*
X577117Y932100D01*
X577408Y932350D01*
G01X575400Y922900D02*
X571900D01*
Y924150D01*
X572075Y924550D01*
X572308Y924800D01*
X572775Y924900D01*
X573242Y924800D01*
X573533Y924500D01*
X573708Y924150D01*
Y922900D01*
G01Y924150D02*
X575400Y924900D01*
G01Y927700D02*
X571900D01*
X572600Y927100D01*
G01X575400D02*
Y928300D01*
G01X574875Y930400D02*
X575167Y930700D01*
X575342Y931050D01*
X575400Y931500D01*
X575283Y931950D01*
X575050Y932300D01*
X574642Y932550D01*
X574175Y932600D01*
X573708Y932500D01*
X573417Y932250D01*
X573183Y931900D01*
X573125Y931550D01*
X573183Y931200D01*
X573417Y930750D01*
X571900Y930900D01*
Y932250D01*
G01X570600Y922800D02*
X567100D01*
Y924050D01*
X567275Y924450D01*
X567508Y924700D01*
X567975Y924800D01*
X568442Y924700D01*
X568733Y924400D01*
X568908Y924050D01*
Y922800D01*
G01Y924050D02*
X570600Y924800D01*
G01Y927600D02*
X567100D01*
X567800Y927000D01*
G01X570600D02*
Y928200D01*
G01Y932000D02*
X567100D01*
X569608Y930150D01*
Y932650D01*
G01X581408Y981900D02*
X581583Y982200D01*
X581700Y982550D01*
Y982950D01*
X581525Y983400D01*
X581233Y983750D01*
X580883Y984000D01*
X580300Y984200D01*
X579775Y984250D01*
X579250Y984150D01*
X578900Y984000D01*
X578550Y983700D01*
X578317Y983350D01*
X578200Y983000D01*
Y982650D01*
X578317Y982300D01*
X578492Y982000D01*
X578725Y981750D01*
G01X578900Y980300D02*
X578492Y980000D01*
X578258Y979600D01*
X578200Y979150D01*
X578258Y978750D01*
X578550Y978350D01*
X578900Y978100D01*
X579250Y978050D01*
X579658Y978150D01*
X579950Y978500D01*
X580067Y978850D01*
Y979300D01*
G01Y978850D02*
X580242Y978550D01*
X580533Y978300D01*
X580883Y978200D01*
X581233Y978300D01*
X581525Y978550D01*
X581700Y979000D01*
X581642Y979450D01*
X581408Y979900D01*
G01X578725Y976500D02*
X578433Y976200D01*
X578258Y975850D01*
X578200Y975400D01*
X578317Y974950D01*
X578550Y974600D01*
X578958Y974350D01*
X579425Y974300D01*
X579892Y974400D01*
X580183Y974650D01*
X580417Y975000D01*
X580475Y975350D01*
X580417Y975700D01*
X580183Y976150D01*
X581700Y976000D01*
Y974650D01*
G01X577208Y981900D02*
X577383Y982200D01*
X577500Y982550D01*
Y982950D01*
X577325Y983400D01*
X577033Y983750D01*
X576683Y984000D01*
X576100Y984200D01*
X575575Y984250D01*
X575050Y984150D01*
X574700Y984000D01*
X574350Y983700D01*
X574117Y983350D01*
X574000Y983000D01*
Y982650D01*
X574117Y982300D01*
X574292Y982000D01*
X574525Y981750D01*
G01X574700Y980300D02*
X574292Y980000D01*
X574058Y979600D01*
X574000Y979150D01*
X574058Y978750D01*
X574350Y978350D01*
X574700Y978100D01*
X575050Y978050D01*
X575458Y978150D01*
X575750Y978500D01*
X575867Y978850D01*
Y979300D01*
G01Y978850D02*
X576042Y978550D01*
X576333Y978300D01*
X576683Y978200D01*
X577033Y978300D01*
X577325Y978550D01*
X577500Y979000D01*
X577442Y979450D01*
X577208Y979900D01*
G01X574000Y974800D02*
X577500D01*
X574992Y976650D01*
Y974150D01*
G01X587900Y751200D02*
X588150Y750850D01*
X588450Y750617D01*
X588800Y750500D01*
X589200Y750617D01*
X589500Y750850D01*
X589800Y751200D01*
X589900Y751667D01*
Y754000D01*
G01X591600Y751200D02*
X591900Y750792D01*
X592300Y750558D01*
X592750Y750500D01*
X593150Y750558D01*
X593550Y750850D01*
X593800Y751200D01*
X593850Y751550D01*
X593750Y751958D01*
X593400Y752250D01*
X593050Y752367D01*
X592600D01*
G01X593050D02*
X593350Y752542D01*
X593600Y752833D01*
X593700Y753183D01*
X593600Y753533D01*
X593350Y753825D01*
X592900Y754000D01*
X592450Y753942D01*
X592000Y753708D01*
G01X589650Y788500D02*
Y785992D01*
X589850Y785467D01*
X590250Y785117D01*
X590750Y785000D01*
X591250Y785117D01*
X591650Y785467D01*
X591850Y785992D01*
Y788500D01*
G01X595150Y785000D02*
Y788500D01*
X593300Y785992D01*
X595800D01*
G01X587409Y815650D02*
X590950D01*
G01D02*
Y819191D01*
G01Y891809D02*
Y895350D01*
G01D02*
X587409D01*
G01X591200Y923100D02*
X587700D01*
Y924350D01*
X587875Y924750D01*
X588108Y925000D01*
X588575Y925100D01*
X589042Y925000D01*
X589333Y924700D01*
X589508Y924350D01*
Y923100D01*
G01Y924350D02*
X591200Y925100D01*
G01Y927900D02*
X587700D01*
X588400Y927300D01*
G01X591200D02*
Y928500D01*
G01Y931700D02*
X591142Y932050D01*
X590967Y932450D01*
X590675Y932700D01*
X590267Y932800D01*
X589858Y932700D01*
X589508Y932400D01*
X589333Y931950D01*
Y931450D01*
X589217Y931150D01*
X588925Y930900D01*
X588517Y930800D01*
X588108Y930950D01*
X587817Y931300D01*
X587700Y931700D01*
X587817Y932100D01*
X588108Y932450D01*
X588517Y932600D01*
X588925Y932500D01*
X589217Y932250D01*
X589333Y931950D01*
Y931450D01*
X589508Y931000D01*
X589858Y930700D01*
X590267Y930600D01*
X590675Y930700D01*
X590967Y930950D01*
X591142Y931350D01*
X591200Y931700D01*
G01X585700Y922800D02*
X582200D01*
Y924050D01*
X582375Y924450D01*
X582608Y924700D01*
X583075Y924800D01*
X583542Y924700D01*
X583833Y924400D01*
X584008Y924050D01*
Y922800D01*
G01Y924050D02*
X585700Y924800D01*
G01Y927600D02*
X582200D01*
X582900Y927000D01*
G01X585700D02*
Y928200D01*
G01Y931300D02*
X584942Y931400D01*
X584300Y931550D01*
X583717Y931750D01*
X583075Y932000D01*
X582200Y932400D01*
Y930400D01*
G01X594300Y966100D02*
Y969600D01*
X595550D01*
X595950Y969425D01*
X596200Y969192D01*
X596300Y968725D01*
X596200Y968258D01*
X595900Y967967D01*
X595550Y967792D01*
X594300D01*
G01X595550D02*
X596300Y966100D01*
G01X599100D02*
Y969600D01*
X598500Y968900D01*
G01Y966100D02*
X599700D01*
G01X602050Y966508D02*
X602400Y966217D01*
X602800Y966100D01*
X603200Y966217D01*
X603550Y966567D01*
X603800Y967092D01*
X603900Y967617D01*
Y968258D01*
X603800Y968783D01*
X603550Y969250D01*
X603250Y969483D01*
X602900Y969600D01*
X602500Y969483D01*
X602200Y969250D01*
X602000Y968900D01*
X601900Y968433D01*
X602000Y968025D01*
X602250Y967617D01*
X602550Y967383D01*
X602900Y967325D01*
X603300Y967442D01*
X603600Y967733D01*
X603900Y968258D01*
G01X594100Y978000D02*
Y981500D01*
X595350D01*
X595750Y981325D01*
X596000Y981092D01*
X596100Y980625D01*
X596000Y980158D01*
X595700Y979867D01*
X595350Y979692D01*
X594100D01*
G01X595350D02*
X596100Y978000D01*
G01X597950Y980917D02*
X598250Y981267D01*
X598600Y981442D01*
X599000Y981500D01*
X599500Y981383D01*
X599850Y981092D01*
X599950Y980742D01*
X599900Y980392D01*
X599700Y980100D01*
X598700Y979517D01*
X598250Y979108D01*
X597950Y978525D01*
X597850Y978000D01*
X599950D01*
G01X602700D02*
Y981500D01*
X602100Y980800D01*
G01Y978000D02*
X603300D01*
G01X594400Y972500D02*
Y976000D01*
X595650D01*
X596050Y975825D01*
X596300Y975592D01*
X596400Y975125D01*
X596300Y974658D01*
X596000Y974367D01*
X595650Y974192D01*
X594400D01*
G01X595650D02*
X596400Y972500D01*
G01X598250Y975417D02*
X598550Y975767D01*
X598900Y975942D01*
X599300Y976000D01*
X599800Y975883D01*
X600150Y975592D01*
X600250Y975242D01*
X600200Y974892D01*
X600000Y974600D01*
X599000Y974017D01*
X598550Y973608D01*
X598250Y973025D01*
X598150Y972500D01*
X600250D01*
G01X603000Y976000D02*
X602600Y975883D01*
X602300Y975592D01*
X602100Y975242D01*
X601950Y974775D01*
X601900Y974250D01*
X601950Y973725D01*
X602100Y973258D01*
X602300Y972908D01*
X602600Y972617D01*
X603000Y972500D01*
X603400Y972617D01*
X603700Y972908D01*
X603900Y973258D01*
X604050Y973725D01*
X604100Y974250D01*
X604050Y974775D01*
X603900Y975242D01*
X603700Y975592D01*
X603400Y975883D01*
X603000Y976000D01*
G01X614700Y785400D02*
X618200D01*
Y784150D01*
X618025Y783750D01*
X617792Y783500D01*
X617325Y783400D01*
X616858Y783500D01*
X616567Y783800D01*
X616392Y784150D01*
Y785400D01*
G01Y784150D02*
X614700Y783400D01*
G01Y780600D02*
X614758Y780250D01*
X614933Y779850D01*
X615225Y779600D01*
X615633Y779500D01*
X616042Y779600D01*
X616392Y779900D01*
X616567Y780350D01*
Y780850D01*
X616683Y781150D01*
X616975Y781400D01*
X617383Y781500D01*
X617792Y781350D01*
X618083Y781000D01*
X618200Y780600D01*
X618083Y780200D01*
X617792Y779850D01*
X617383Y779700D01*
X616975Y779800D01*
X616683Y780050D01*
X616567Y780350D01*
Y780850D01*
X616392Y781300D01*
X616042Y781600D01*
X615633Y781700D01*
X615225Y781600D01*
X614933Y781350D01*
X614758Y780950D01*
X614700Y780600D01*
G01X601668Y807726D02*
X602018Y807976D01*
X602251Y808276D01*
X602368Y808626D01*
X602251Y809026D01*
X602018Y809326D01*
X601668Y809626D01*
X601201Y809726D01*
X598868D01*
G01X602368Y812526D02*
X598868D01*
X599568Y811926D01*
G01X602368D02*
Y813126D01*
G54D12*
X453592Y767580D03*
X487608D03*
G54D21*
X497540Y764681D03*
X501994Y769135D03*
G54D31*
G01X467890Y799312D02*
Y788288D01*
G01X479110D02*
Y799312D01*
G54D13*
X456350Y801900D03*
X462650D03*
X502150Y778000D03*
X508450D03*
X590250Y967400D03*
X583950D03*
X590250Y978500D03*
X583950D03*
X590250Y973400D03*
X583950D03*
G54D22*
X509075Y821051D03*
Y823020D03*
Y824988D03*
Y826957D03*
Y828925D03*
Y830894D03*
Y832862D03*
Y834831D03*
Y836799D03*
Y838768D03*
Y840736D03*
Y842705D03*
Y844673D03*
Y846642D03*
Y848610D03*
Y850579D03*
Y852547D03*
Y854516D03*
Y856484D03*
Y858453D03*
Y860421D03*
Y862390D03*
Y864358D03*
Y866327D03*
Y868295D03*
Y870264D03*
Y872232D03*
Y874201D03*
Y876169D03*
Y878138D03*
Y880106D03*
Y882075D03*
Y884043D03*
Y886012D03*
Y887980D03*
Y889949D03*
X593125Y824988D03*
Y823020D03*
Y821051D03*
Y842705D03*
Y840736D03*
Y838768D03*
Y836799D03*
Y834831D03*
Y832862D03*
Y830894D03*
Y828925D03*
Y826957D03*
Y860421D03*
Y858453D03*
Y856484D03*
Y854516D03*
Y852547D03*
Y850579D03*
Y848610D03*
Y846642D03*
Y844673D03*
Y878138D03*
Y876169D03*
Y874201D03*
Y872232D03*
Y870264D03*
Y868295D03*
Y866327D03*
Y864358D03*
Y862390D03*
Y889949D03*
Y887980D03*
Y886012D03*
Y884043D03*
Y882075D03*
Y880106D03*
G54D32*
G01X548037Y771264D02*
X540163D01*
G01D02*
X548037D01*
G01X529927Y784453D02*
Y778547D01*
G01D02*
Y784453D01*
G01X548037Y791736D02*
X540163D01*
G01D02*
X548037D01*
G01X558273Y784453D02*
Y778547D01*
G01D02*
Y784453D01*
G01X567400Y734358D02*
Y766642D01*
G01X607400Y734358D02*
X567400D01*
G01Y766642D02*
X607400D01*
G01D02*
Y734358D01*
G54D14*
X453200Y895550D03*
Y901850D03*
X464300Y895550D03*
X458800D03*
X464300Y901850D03*
X458800D03*
X462000Y944650D03*
Y938350D03*
X469600Y947850D03*
Y941550D03*
X465700Y970250D03*
Y976550D03*
X491000Y784250D03*
Y777950D03*
X484300Y799050D03*
Y805350D03*
X489400Y799050D03*
Y805350D03*
X503000Y751850D03*
Y758150D03*
X502610Y912005D03*
Y918305D03*
X502600Y925450D03*
Y931750D03*
X527700Y920450D03*
Y914150D03*
X522600Y920450D03*
Y914150D03*
X517500Y920450D03*
Y914150D03*
X544000Y983250D03*
Y976950D03*
X554100Y796350D03*
Y802650D03*
X558800Y920450D03*
Y914150D03*
X553700Y920450D03*
Y914150D03*
X549200Y976950D03*
Y983250D03*
X560700Y976950D03*
Y983250D03*
X554300Y976950D03*
Y983250D03*
X571800Y785050D03*
Y791350D03*
X579200Y920450D03*
Y914150D03*
X574100Y920450D03*
Y914150D03*
X569000Y920450D03*
Y914150D03*
X563900Y920450D03*
Y914150D03*
X589400Y920450D03*
Y914150D03*
X584300Y920450D03*
Y914150D03*
X610800Y779950D03*
Y786250D03*
G54D23*
X526494Y813475D03*
X524525D03*
X522557D03*
X520588D03*
X518620D03*
X516651D03*
Y897525D03*
X518620D03*
X520588D03*
X522557D03*
X524525D03*
X526494D03*
X544210Y813475D03*
X542242D03*
X540273D03*
X538305D03*
X536336D03*
X534368D03*
X532399D03*
X530431D03*
X528462D03*
Y897525D03*
X530431D03*
X532399D03*
X534368D03*
X536336D03*
X538305D03*
X540273D03*
X542242D03*
X544210D03*
X561927Y813475D03*
X559958D03*
X557990D03*
X556021D03*
X554053D03*
X552084D03*
X550116D03*
X548147D03*
X546179D03*
Y897525D03*
X548147D03*
X550116D03*
X552084D03*
X554053D03*
X556021D03*
X557990D03*
X559958D03*
X561927D03*
X579643Y813475D03*
X577675D03*
X575706D03*
X573738D03*
X571769D03*
X569801D03*
X567832D03*
X565864D03*
X563895D03*
Y897525D03*
X565864D03*
X567832D03*
X569801D03*
X571769D03*
X573738D03*
X575706D03*
X577675D03*
X579643D03*
X585549Y813475D03*
X583580D03*
X581612D03*
Y897525D03*
X583580D03*
X585549D03*
G54D33*
G01X452019Y898700D02*
X454381D01*
G01X457805Y775415D02*
G03I-394J0D01*
G01X459500Y803081D02*
Y800719D01*
G01X463119Y898700D02*
X465481D01*
G01X457619D02*
X459981D01*
G01X460819Y941500D02*
X463181D01*
G01X468419Y944700D02*
X470781D01*
G01X466881Y973400D02*
X464519D01*
G01X489819Y781100D02*
X492181D01*
G01X485481Y802200D02*
X483119D01*
G01X490581D02*
X488219D01*
G01X501819Y755000D02*
X504181D01*
G01X500602Y766073D02*
X498932Y767743D01*
G01X505300Y776819D02*
Y779181D01*
G01X501429Y915155D02*
X503791D01*
G01X503781Y928600D02*
X501419D01*
G01X526777Y772445D02*
G03X527171I197J0D01*
G01D02*
G03X526777I-197J0D01*
G01D02*
G03X527171I197J0D01*
G01X526519Y917300D02*
X528881D01*
G01X521419D02*
X523781D01*
G01X516319D02*
X518681D01*
G01X536870Y933485D02*
G03I-394J0D01*
G01X542819Y980100D02*
X545181D01*
G01X555281Y799500D02*
X552919D01*
G01X557619Y917300D02*
X559981D01*
G01X552519D02*
X554881D01*
G01X550381Y980100D02*
X548019D01*
G01X561881D02*
X559519D01*
G01X555481D02*
X553119D01*
G01X570619Y788200D02*
X572981D01*
G01X578019Y917300D02*
X580381D01*
G01X572919D02*
X575281D01*
G01X567819D02*
X570181D01*
G01X562719D02*
X565081D01*
G01X588219D02*
X590581D01*
G01X583119D02*
X585481D01*
G01X587100Y979681D02*
Y977319D01*
G01Y974581D02*
Y972219D01*
G01Y968581D02*
Y966219D01*
G01X611981Y783100D02*
X609619D01*
G01X607289Y811163D02*
Y866281D01*
G01X623037Y811163D02*
X607289D01*
G01Y866281D02*
X623037D01*
G01D02*
Y811163D01*
G01X619494Y808604D02*
G03I-394J0D01*
G54D24*
X534100Y773232D03*
Y789768D03*
X554100Y773232D03*
Y789768D03*
G54D15*
X453825Y913100D03*
Y915700D03*
Y918300D03*
Y920900D03*
X468775Y913100D03*
Y920900D03*
Y918300D03*
Y915700D03*
G54D16*
X463710Y770100D03*
X467647D03*
X473553D03*
X471584D03*
X469616D03*
X465679D03*
X477490D03*
X475521D03*
G54D25*
X543484Y940178D03*
X540925D03*
X538366D03*
Y967422D03*
X540925D03*
X543484D03*
X558839Y940178D03*
X556280D03*
X553720D03*
X551161D03*
X548602D03*
X546043D03*
X561398D03*
X546043Y967422D03*
X548602D03*
X551161D03*
X553720D03*
X556280D03*
X558839D03*
X561398D03*
X571634Y940178D03*
X569075D03*
X566516D03*
X563957D03*
Y967422D03*
X566516D03*
X569075D03*
X571634D03*
G54D17*
X461151Y770100D03*
X458002D03*
X480049D03*
X483198D03*
G54D26*
X577400Y750500D03*
X597400D03*
G54D18*
X473500Y785729D03*
X471531D03*
X469563D03*
X471531Y801871D03*
X473500D03*
X469563D03*
X477437Y785729D03*
X475469D03*
Y801871D03*
X477437D03*
G54D27*
X581350Y790000D03*
Y785000D03*
Y780000D03*
Y775000D03*
X600850Y785000D03*
Y790000D03*
Y780000D03*
Y775000D03*
G54D19*
X469500Y952900D03*
X462000D03*
X465700Y959900D03*
G54D28*
X611226Y822974D03*
Y815100D03*
Y838722D03*
Y830848D03*
Y862344D03*
Y854470D03*
Y846596D03*
X619100Y822974D03*
Y815100D03*
Y838722D03*
Y830848D03*
Y862344D03*
Y854470D03*
Y846596D03*
G54D29*
G01X453002Y745887D02*
Y740887D01*
X488198D01*
Y745887D01*
G01X453002Y762029D02*
Y756124D01*
G01X488198Y762029D02*
Y756124D01*
G01X534665Y943209D02*
Y964391D01*
G01X575335Y943209D02*
Y964391D01*
M02*
