G04 ================== begin FILE IDENTIFICATION RECORD ==================*
G04 Layout Name:  F:/PCB/Cadence_PCB/FPGA_CCD/allegro/fpga_ccd_3_with_logo.brd*
G04 Film Name:    BOTTOM*
G04 File Format:  Gerber RS274X*
G04 File Origin:  Cadence Allegro 17.4-S017*
G04 Origin Date:  Thu Jul  1 17:25:21 2021*
G04 *
G04 Layer:  PIN/SOLDERMASK_BOTTOM*
G04 Layer:  PACKAGE GEOMETRY/SOLDERMASK_BOTTOM*
G04 Layer:  BOARD GEOMETRY/SOLDERMASK_BOTTOM*
G04 Layer:  VIA CLASS/BOTTOM*
G04 Layer:  PIN/BOTTOM*
G04 Layer:  ETCH/BOTTOM*
G04 Layer:  BOARD GEOMETRY/OUTLINE*
G04 *
G04 Offset:    (0.00 0.00)*
G04 Mirror:    No*
G04 Mode:      Positive*
G04 Rotation:  0*
G04 FullContactRelief:  No*
G04 UndefLineWidth:     6.00*
G04 ================== end FILE IDENTIFICATION RECORD ====================*
%FSLAX25Y25*MOIN*%
%IR0*IPPOS*OFA0.00000B0.00000*MIA0B0*SFA1.00000B1.00000*%
%ADD15C,.024*%
%AMMACRO24*
21,1,.02126,.03701,0.0,0.0,135.*%
%ADD24MACRO24*%
%ADD23R,.058X.126*%
%ADD21R,.126X.058*%
%ADD11C,.04803*%
%ADD10C,.05394*%
%ADD19R,.04803X.04803*%
%ADD27C,.0689*%
%ADD25C,.08268*%
%ADD28C,.06299*%
%ADD26C,.07677*%
%ADD18R,.05394X.05394*%
%ADD20R,.058X.035*%
%ADD17R,.035X.058*%
%ADD16R,.03701X.02126*%
%ADD14R,.02126X.03701*%
%ADD12O,.0315X.06299*%
%ADD22R,.05709X.04134*%
%ADD13O,.04134X.08268*%
%ADD29C,.01*%
%ADD30C,.02*%
%ADD31C,.03*%
%ADD32C,.04*%
%ADD33C,.005*%
%ADD34C,.006*%
%ADD38C,.03404*%
%ADD36C,.07302*%
%ADD37C,.05806*%
%ADD39C,.0868*%
%ADD35O,.05136X.0927*%
G75*
%LPD*%
G75*
G36*
G01X434300Y740700D02*
Y987600D01*
X627500D01*
Y740700D01*
X434300D01*
G37*
%LPC*%
G75*
G36*
G01X607575Y815100D02*
G02X614877I3651J0D01*
G02X612370Y811633I-3651J0D01*
G01X612325Y811618D01*
X612228Y811522D01*
Y811364D01*
X612458Y811134D01*
G02X612752Y810426I-708J-709D01*
G01Y808274D01*
X612912Y808242D01*
G02X613314Y807751I-99J-491D01*
G01Y804048D01*
G02X612813Y803548I-501J1D01*
G01X610687D01*
G02X610186Y804048I0J501D01*
G01Y804898D01*
X609687D01*
G02X608979Y805192I1J1002D01*
G01X607472Y806698D01*
X606814D01*
Y805848D01*
G02X606313Y805348I-501J1D01*
G01X604187D01*
G02X603686Y805848I0J501D01*
G01Y809552D01*
G02X604187Y810052I501J-1D01*
G01X606313D01*
G02X606814Y809552I0J-501D01*
G01Y808702D01*
X607887D01*
G02X608595Y808408I-1J-1002D01*
G01X609844Y807159D01*
G03X610186Y807300I142J141D01*
G01Y807751D01*
G02X610588Y808242I501J0D01*
G01X610748Y808274D01*
Y810011D01*
X610552Y810208D01*
G02X610224Y810950I675J742D01*
G01Y811586D01*
X610087Y811631D01*
G02X607575Y815100I1139J3469D01*
G37*
G36*
G01X526314Y882148D02*
G02X525813Y881648I-501J1D01*
G01X523687D01*
G02X523186Y882148I0J501D01*
G01Y885852D01*
G02X523687Y886352I501J-1D01*
G01X525813D01*
G02X526314Y885852I0J-501D01*
G01Y882148D01*
G37*
G36*
G01X578514Y825248D02*
G02X578013Y824748I-501J1D01*
G01X575887D01*
G02X575386Y825248I0J501D01*
G01Y828952D01*
G02X575887Y829452I501J-1D01*
G01X578013D01*
G02X578514Y828952I0J-501D01*
G01Y825248D01*
G37*
G36*
G01Y878248D02*
G02X578013Y877748I-501J1D01*
G01X575887D01*
G02X575386Y878248I0J501D01*
G01Y881952D01*
G02X575887Y882452I501J-1D01*
G01X578013D01*
G02X578514Y881952I0J-501D01*
G01Y878248D01*
G37*
G36*
G01X558148Y883914D02*
X561852D01*
G02X562352Y883413I-1J-501D01*
G01Y881287D01*
G02X561852Y880786I-501J0D01*
G01X558148D01*
G02X557648Y881287I1J501D01*
G01Y883413D01*
G02X558148Y883914I501J0D01*
G37*
G36*
G01X552248D02*
X555952D01*
G02X556452Y883413I-1J-501D01*
G01Y881287D01*
G02X555952Y880786I-501J0D01*
G01X552248D01*
G02X551748Y881287I1J501D01*
G01Y883413D01*
G02X552248Y883914I501J0D01*
G37*
G36*
G01X532548Y884014D02*
X536252D01*
G02X536752Y883513I-1J-501D01*
G01Y881387D01*
G02X536252Y880886I-501J0D01*
G01X532548D01*
G02X532048Y881387I1J501D01*
G01Y883513D01*
G02X532548Y884014I501J0D01*
G37*
G36*
G01X619614Y804048D02*
G02X619113Y803548I-501J1D01*
G01X616987D01*
G02X616486Y804048I0J501D01*
G01Y807752D01*
G02X616987Y808252I501J-1D01*
G01X619113D01*
G02X619614Y807752I0J-501D01*
G01Y804048D01*
G37*
G36*
G01X560414Y957048D02*
G02X559913Y956548I-501J1D01*
G01X557787D01*
G02X557286Y957048I0J501D01*
G01Y960752D01*
G02X557787Y961252I501J-1D01*
G01X559913D01*
G02X560414Y960752I0J-501D01*
G01Y957048D01*
G37*
G36*
G01X535191Y955883D02*
X533687Y957387D01*
G02Y958096I355J354D01*
G01X536304Y960713D01*
G02X537013I354J-355D01*
G01X538517Y959209D01*
G02Y958500I-355J-355D01*
G01X535900Y955883D01*
G02X535191I-354J355D01*
G37*
G36*
G01X546414Y944848D02*
G02X545913Y944348I-501J1D01*
G01X543787D01*
G02X543286Y944848I0J501D01*
G01Y948552D01*
G02X543787Y949052I501J-1D01*
G01X545913D01*
G02X546414Y948552I0J-501D01*
G01Y944848D01*
G37*
G36*
G01X565948Y829814D02*
X569652D01*
G02X570152Y829313I-1J-501D01*
G01Y827187D01*
G02X569652Y826686I-501J0D01*
G01X565948D01*
G02X565448Y827187I1J501D01*
G01Y829313D01*
G02X565948Y829814I501J0D01*
G37*
G36*
G01X477497Y949098D02*
Y953902D01*
G02X477998Y954403I501J-1D01*
G01X482802D01*
G02X483303Y953902I0J-502D01*
G01Y949098D01*
G02X482802Y948597I-501J0D01*
G01X477998D01*
G02X477497Y949098I1J502D01*
G37*
G36*
G01X455668Y749549D02*
G02X451516I-2076J0D01*
G01Y752699D01*
G02X455668I2076J0D01*
G01Y749549D01*
G37*
G36*
G01X489684D02*
G02X485532I-2076J0D01*
G01Y752699D01*
G02X489684I2076J0D01*
G01Y749549D01*
G37*
G36*
G01X592048Y812914D02*
X595752D01*
G02X596252Y812413I-1J-501D01*
G01Y810287D01*
G02X595752Y809786I-501J0D01*
G01X592048D01*
G02X591548Y810287I1J501D01*
G01Y812413D01*
G02X592048Y812914I501J0D01*
G37*
G36*
G01X557214Y822148D02*
G02X556713Y821648I-501J1D01*
G01X554587D01*
G02X554086Y822148I0J501D01*
G01Y825852D01*
G02X554587Y826352I501J-1D01*
G01X556713D01*
G02X557214Y825852I0J-501D01*
G01Y822148D01*
G37*
G36*
G01X538844Y755328D02*
X544556D01*
G02X545056Y754827I-1J-501D01*
G01Y750693D01*
G02X544556Y750192I-501J0D01*
G01X538844D01*
G02X538344Y750693I1J501D01*
G01Y754827D01*
G02X538844Y755328I501J0D01*
G37*
G36*
G01X506864Y775150D02*
Y780950D01*
G02X507366Y781452I502J0D01*
G01X510866D01*
G02X511368Y780950I0J-502D01*
G01Y775150D01*
G02X510866Y774648I-502J0D01*
G01X507366D01*
G02X506864Y775150I0J502D01*
G37*
G36*
G01X488832D02*
Y780950D01*
G02X489334Y781452I502J0D01*
G01X492834D01*
G02X493336Y780950I0J-502D01*
G01Y775150D01*
G02X492834Y774648I-502J0D01*
G01X489334D01*
G02X488832Y775150I0J502D01*
G37*
G36*
G01X499448Y749434D02*
Y752934D01*
G02X499950Y753436I502J0D01*
G01X505750D01*
G02X506252Y752934I0J-502D01*
G01Y749434D01*
G02X505750Y748932I-502J0D01*
G01X499950D01*
G02X499448Y749434I0J502D01*
G37*
G36*
G01Y767466D02*
Y770966D01*
G02X499950Y771468I502J0D01*
G01X505750D01*
G02X506252Y770966I0J-502D01*
G01Y767466D01*
G02X505750Y766964I-502J0D01*
G01X499950D01*
G02X499448Y767466I0J502D01*
G37*
G36*
G01X475678Y760114D02*
X476752D01*
G02X477252Y759613I-1J-501D01*
G01Y757487D01*
G02X476752Y756986I-501J0D01*
G01X475440D01*
X475410Y756976D01*
G02X474900Y756898I-509J1624D01*
G02X474390Y756976I-1J1702D01*
G01X474360Y756986D01*
X473048D01*
G02X472548Y757487I1J501D01*
G01Y759613D01*
G02X473048Y760114I501J0D01*
G01X474122D01*
X474163Y760134D01*
G02X474900Y760302I737J-1534D01*
G02X475637Y760134I0J-1702D01*
G01X475678Y760114D01*
G37*
G36*
G01X489214Y759371D02*
X489229Y759335D01*
G02Y758065I-1578J-635D01*
G01X489214Y758029D01*
Y756848D01*
G02X488713Y756348I-501J1D01*
G01X486587D01*
G02X486086Y756848I0J501D01*
G01Y758029D01*
X486071Y758065D01*
G02Y759335I1578J635D01*
G01X486086Y759371D01*
Y760552D01*
G02X486587Y761052I501J-1D01*
G01X488713D01*
G02X489214Y760552I0J-501D01*
G01Y759371D01*
G37*
G36*
G01X455214Y759471D02*
X455229Y759435D01*
G02Y758165I-1578J-635D01*
G01X455214Y758129D01*
Y756948D01*
G02X454713Y756448I-501J1D01*
G01X452587D01*
G02X452086Y756948I0J501D01*
G01Y758129D01*
X452071Y758165D01*
G02Y759435I1578J635D01*
G01X452086Y759471D01*
Y760652D01*
G02X452587Y761152I501J-1D01*
G01X454713D01*
G02X455214Y760652I0J-501D01*
G01Y759471D01*
G37*
G36*
G01X461514Y759240D02*
X461524Y759210D01*
G02X461602Y758700I-1624J-509D01*
G02X461524Y758190I-1702J-1D01*
G01X461514Y758160D01*
Y756948D01*
G02X461013Y756448I-501J1D01*
G01X458887D01*
G02X458386Y756948I0J501D01*
G01Y757922D01*
X458366Y757963D01*
G02X458198Y758700I1534J737D01*
G02X458366Y759437I1702J0D01*
G01X458386Y759478D01*
Y760652D01*
G02X458887Y761152I501J-1D01*
G01X461013D01*
G02X461514Y760652I0J-501D01*
G01Y759240D01*
G37*
G36*
G01X538846Y762808D02*
X544556D01*
G02X545056Y762307I-1J-501D01*
G01Y758173D01*
G02X544556Y757672I-501J0D01*
G01X538846D01*
G02X538632Y757719I-2J501D01*
G01X538591Y757738D01*
X534396D01*
X534379Y757736D01*
G02X533950Y757698I-434J2464D01*
G01X531952D01*
Y753900D01*
G02X531450Y753398I-502J0D01*
G01X525650D01*
G02X525148Y753900I0J502D01*
G01Y757698D01*
X502850D01*
G02X501760Y757948I0J2501D01*
G01X499950D01*
G02X499448Y758450I0J502D01*
G01Y761950D01*
G02X499950Y762452I502J0D01*
G01X501760D01*
G02X502850Y762702I1090J-2251D01*
G01X525148D01*
Y766500D01*
G02X525650Y767002I502J0D01*
G01X531450D01*
G02X531952Y766500I0J-502D01*
G01Y762702D01*
X533544D01*
X533561Y762704D01*
G02X533990Y762742I434J-2464D01*
G01X538591D01*
X538632Y762761D01*
G02X538846Y762808I212J-454D01*
G37*
G36*
G01X595714Y798978D02*
X595734Y798937D01*
G02X595902Y798200I-1534J-737D01*
G02X595734Y797463I-1702J0D01*
G01X595714Y797422D01*
Y796348D01*
G02X595213Y795848I-501J1D01*
G01X593087D01*
G02X592586Y796348I0J501D01*
G01Y797660D01*
X592576Y797690D01*
G02X592498Y798200I1624J509D01*
G02X592576Y798710I1702J1D01*
G01X592586Y798740D01*
Y800052D01*
G02X593087Y800552I501J-1D01*
G01X595213D01*
G02X595714Y800052I0J-501D01*
G01Y798978D01*
G37*
G36*
G01X589414Y796348D02*
G02X588913Y795848I-501J1D01*
G01X586787D01*
G02X586286Y796348I0J501D01*
G01Y797198D01*
X585798D01*
X582701Y797129D01*
X582643Y797055D01*
G02X581300Y796398I-1343J1044D01*
G02X579598Y798100I0J1702D01*
G02X579607Y798273I1702J-2D01*
G01X579616Y798367D01*
X578485Y799498D01*
X541176D01*
G02X539800Y798798I-1376J1002D01*
G02Y802202I0J1702D01*
G02X541176Y801502I0J-1702D01*
G01X578900D01*
G02X579608Y801208I-1J-1002D01*
G01X581033Y799784D01*
X581127Y799793D01*
G02X581300Y799802I175J-1693D01*
G02X582595Y799204I0J-1701D01*
G01X582657Y799132D01*
X585765Y799201D01*
G02X585787Y799202I56J-999D01*
G01X586286D01*
Y800052D01*
G02X586787Y800552I501J-1D01*
G01X588913D01*
G02X589414Y800052I0J-501D01*
G01Y796348D01*
G37*
G36*
G01X511914Y804821D02*
X511929Y804785D01*
G02Y803515I-1578J-635D01*
G01X511914Y803479D01*
Y801948D01*
G02X511413Y801448I-501J1D01*
G01X509287D01*
G02X508786Y801948I0J501D01*
G01Y803479D01*
X508771Y803515D01*
G02Y804785I1578J635D01*
G01X508786Y804821D01*
Y805652D01*
G02X509287Y806152I501J-1D01*
G01X511413D01*
G02X511914Y805652I0J-501D01*
G01Y804821D01*
G37*
G36*
G01X518214Y804625D02*
X518229Y804589D01*
G02Y803313I-1579J-638D01*
G01X518214Y803277D01*
Y801948D01*
G02X517713Y801448I-501J1D01*
G01X515587D01*
G02X515086Y801948I0J501D01*
G01Y803282D01*
X515071Y803318D01*
G02Y804584I1581J633D01*
G01X515086Y804620D01*
Y805652D01*
G02X515587Y806152I501J-1D01*
G01X517713D01*
G02X518214Y805652I0J-501D01*
G01Y804625D01*
G37*
G36*
G01X532114Y806040D02*
X532124Y806010D01*
G02X532202Y805500I-1624J-509D01*
G02X532124Y804990I-1702J-1D01*
G01X532114Y804960D01*
Y803648D01*
G02X531613Y803148I-501J1D01*
G01X529487D01*
G02X528986Y803648I0J501D01*
G01Y804722D01*
X528966Y804763D01*
G02X528798Y805500I1534J737D01*
G02X528966Y806237I1702J0D01*
G01X528986Y806278D01*
Y807352D01*
G02X529487Y807852I501J-1D01*
G01X531613D01*
G02X532114Y807352I0J-501D01*
G01Y806040D01*
G37*
G36*
G01X538414Y806171D02*
X538429Y806135D01*
G02Y804865I-1578J-635D01*
G01X538414Y804829D01*
Y803648D01*
G02X537913Y803148I-501J1D01*
G01X535787D01*
G02X535286Y803648I0J501D01*
G01Y804829D01*
X535271Y804865D01*
G02Y806135I1578J635D01*
G01X535286Y806171D01*
Y807352D01*
G02X535787Y807852I501J-1D01*
G01X537913D01*
G02X538414Y807352I0J-501D01*
G01Y806171D01*
G37*
G36*
G01X600514Y805848D02*
G02X600013Y805348I-501J1D01*
G01X597887D01*
G02X597386Y805848I0J501D01*
G01Y806619D01*
G02X596998Y807700I1314J1082D01*
G02X597386Y808781I1702J-1D01*
G01Y809552D01*
G02X597887Y810052I501J-1D01*
G01X600013D01*
G02X600514Y809552I0J-501D01*
G01Y805848D01*
G37*
G36*
G01X497244Y813628D02*
X502956D01*
G02X503456Y813127I-1J-501D01*
G01Y808993D01*
G02X502956Y808492I-501J0D01*
G01X502602D01*
Y807152D01*
X506400D01*
G02X506902Y806650I0J-502D01*
G01Y800850D01*
G02X506400Y800348I-502J0D01*
G01X502602D01*
Y780506D01*
X502750Y780466D01*
G02X503869Y779819I-650J-2416D01*
G01X503919Y779769D01*
G02X504652Y778000I-1768J-1769D01*
G02X502522Y775526I-2502J0D01*
G01X502352Y775501D01*
Y775150D01*
G02X501850Y774648I-502J0D01*
G01X498350D01*
G02X497848Y775150I0J502D01*
G01Y776960D01*
G02X497598Y778050I2251J1090D01*
G01Y800348D01*
X493800D01*
G02X493298Y800850I0J502D01*
G01Y806650D01*
G02X493800Y807152I502J0D01*
G01X497598D01*
Y808492D01*
X497244D01*
G02X496744Y808993I1J501D01*
G01Y813127D01*
G02X497244Y813628I501J0D01*
G37*
G36*
G01X581214Y821712D02*
X581228Y821677D01*
G02X581345Y821057I-1584J-620D01*
G02X581336Y820884I-1702J2D01*
G01X581327Y820790D01*
X583465Y818652D01*
X591526D01*
X591558Y818812D01*
G02X592049Y819214I491J-99D01*
G01X595752D01*
G02X596252Y818713I-1J-501D01*
G01Y816587D01*
G02X595752Y816086I-501J0D01*
G01X592049D01*
G02X591558Y816488I0J501D01*
G01X591526Y816648D01*
X583050D01*
G02X582342Y816942I1J1002D01*
G01X580536Y818748D01*
X578587D01*
G02X578086Y819248I0J501D01*
G01Y820370D01*
X578070Y820406D01*
G02X577941Y821057I1573J650D01*
G02X578070Y821708I1702J1D01*
G01X578086Y821744D01*
Y822952D01*
G02X578587Y823452I501J-1D01*
G01X580713D01*
G02X581214Y822952I0J-501D01*
G01Y821712D01*
G37*
G36*
G01X571786Y822952D02*
G02X572287Y823452I501J-1D01*
G01X574413D01*
G02X574914Y822952I0J-501D01*
G01Y819248D01*
G02X574413Y818748I-501J1D01*
G01X572287D01*
G02X571786Y819248I0J501D01*
G01Y820098D01*
X571287D01*
G02X570579Y820392I1J1002D01*
G01X570501Y820470D01*
G03X569966Y820497I-282J-283D01*
G02X569650Y820386I-315J390D01*
G01X568544D01*
X568506Y820369D01*
G02X567832Y820230I-674J1563D01*
G02X567158Y820369I0J1702D01*
G01X567120Y820386D01*
X565948D01*
G02X565448Y820887I1J501D01*
G01Y823013D01*
G02X565948Y823514I501J0D01*
G01X567204D01*
X567238Y823527D01*
G02X568426I594J-1595D01*
G01X568460Y823514D01*
X569650D01*
G02X570145Y823099I1J-501D01*
G01X570173Y822934D01*
X570455D01*
G02X571163Y822640I-1J-1002D01*
G01X571444Y822359D01*
G03X571786Y822500I142J141D01*
G01Y822952D01*
G37*
G36*
G01X601978Y823714D02*
X603052D01*
G02X603552Y823213I-1J-501D01*
G01Y821087D01*
G02X603052Y820586I-501J0D01*
G01X601740D01*
X601710Y820576D01*
G02X601200Y820498I-509J1624D01*
G02X600690Y820576I-1J1702D01*
G01X600660Y820586D01*
X599348D01*
G02X598848Y821087I1J501D01*
G01Y823213D01*
G02X599348Y823714I501J0D01*
G01X600422D01*
X600463Y823734D01*
G02X601200Y823902I737J-1534D01*
G02X601937Y823734I0J-1702D01*
G01X601978Y823714D01*
G37*
G36*
G01X584814Y827965D02*
G02X585145Y826957I-1371J-1008D01*
G02X584814Y825949I-1702J0D01*
G01Y825248D01*
G02X584313Y824748I-501J1D01*
G01X582187D01*
G02X581686Y825248I0J501D01*
G01Y828952D01*
G02X582187Y829452I501J-1D01*
G01X584313D01*
G02X584814Y828952I0J-501D01*
G01Y827965D01*
G37*
G36*
G01X557214Y829871D02*
X557229Y829835D01*
G02Y828565I-1578J-635D01*
G01X557214Y828529D01*
Y827348D01*
G02X556713Y826848I-501J1D01*
G01X554587D01*
G02X554086Y827348I0J501D01*
G01Y828529D01*
X554071Y828565D01*
G02Y829835I1578J635D01*
G01X554086Y829871D01*
Y831052D01*
G02X554587Y831552I501J-1D01*
G01X556713D01*
G02X557214Y831052I0J-501D01*
G01Y829871D01*
G37*
G36*
G01X563514Y827349D02*
G02X563112Y826858I-501J0D01*
G01X562952Y826826D01*
Y826374D01*
X563112Y826342D01*
G02X563514Y825851I-99J-491D01*
G01Y824588D01*
X563527Y824555D01*
G02X563629Y823973I-1600J-580D01*
G02X563527Y823391I-1702J-2D01*
G01X563514Y823358D01*
Y822148D01*
G02X563013Y821648I-501J1D01*
G01X560887D01*
G02X560386Y822148I0J501D01*
G01Y823250D01*
X560369Y823289D01*
G02X560225Y823973I1558J685D01*
G02X560369Y824657I1702J-1D01*
G01X560386Y824696D01*
Y825850D01*
G02X560785Y826342I501J1D01*
G03X560941Y826502I-41J196D01*
G02X560945Y826521I982J-197D01*
G01X560948Y826540D01*
Y826826D01*
X560788Y826858D01*
G02X560386Y827349I99J491D01*
G01Y831052D01*
G02X560887Y831552I501J-1D01*
G01X563013D01*
G02X563514Y831052I0J-501D01*
G01Y827349D01*
G37*
G36*
G01X501602Y821108D02*
X502956D01*
G02X503456Y820607I-1J-501D01*
G01Y816473D01*
G02X502956Y815972I-501J0D01*
G01X497244D01*
G02X496744Y816473I1J501D01*
G01Y820607D01*
G02X497244Y821108I501J0D01*
G01X498598D01*
Y836099D01*
G02X498398Y836899I1502J801D01*
G01Y836900D01*
G02X501802I1702J0D01*
G01Y836899D01*
G02X501602Y836099I-1702J1D01*
G01Y821108D01*
G37*
G36*
G01X521714Y840049D02*
G02X521312Y839558I-501J0D01*
G01X521152Y839526D01*
Y839174D01*
X521312Y839142D01*
G02X521714Y838651I-99J-491D01*
G01Y837575D01*
X521734Y837534D01*
G02Y836064I-1534J-735D01*
G01X521714Y836023D01*
Y834948D01*
G02X521213Y834448I-501J1D01*
G01X519087D01*
G02X518586Y834948I0J501D01*
G01Y836256D01*
X518576Y836286D01*
G02X518497Y836799I1623J513D01*
G02X518576Y837312I1702J0D01*
G01X518586Y837342D01*
Y838651D01*
G02X518988Y839142I501J0D01*
G01X519148Y839174D01*
Y839526D01*
X518988Y839558D01*
G02X518586Y840049I99J491D01*
G01Y843752D01*
G02X519087Y844252I501J-1D01*
G01X521213D01*
G02X521714Y843752I0J-501D01*
G01Y840049D01*
G37*
G36*
G01X584814Y881061D02*
G02X585108Y880106I-1408J-956D01*
G02X584814Y879151I-1702J1D01*
G01Y878248D01*
G02X584313Y877748I-501J1D01*
G01X582187D01*
G02X581686Y878248I0J501D01*
G01Y881952D01*
G02X582187Y882452I501J-1D01*
G01X584313D01*
G02X584814Y881952I0J-501D01*
G01Y881061D01*
G37*
G36*
G01X520014Y882148D02*
G02X519513Y881648I-501J1D01*
G01X517387D01*
G02X516886Y882148I0J501D01*
G01Y883035D01*
G02X516555Y884043I1371J1008D01*
G02X516886Y885051I1702J0D01*
G01Y885852D01*
G02X517387Y886352I501J-1D01*
G01X519513D01*
G02X520014Y885852I0J-501D01*
G01Y882148D01*
G37*
G36*
G01X567669Y882831D02*
X570355Y885518D01*
X570330Y885626D01*
G02X570286Y886009I1658J385D01*
G01Y886012D01*
G02X571988Y884310I1702J0D01*
G02X571495Y884383I0J1701D01*
G01X571380Y884418D01*
X568952Y881989D01*
Y842111D01*
X571589Y839474D01*
X598295D01*
G02X599822Y840424I1527J-752D01*
G02Y837020I0J-1702D01*
G02X598295Y837970I0J1702D01*
G01X571278D01*
G02X570747Y838191I1J751D01*
G01X567669Y841269D01*
G02X567448Y841800I530J532D01*
G01Y882300D01*
G02X567669Y882831I751J-1D01*
G37*
G36*
G01X560610Y890214D02*
X561852D01*
G02X562352Y889713I-1J-501D01*
G01Y887587D01*
G02X561852Y887086I-501J0D01*
G01X560648D01*
X560611Y887070D01*
G02X559958Y886940I-652J1572D01*
G02X559305Y887070I-1J1702D01*
G01X559268Y887086D01*
X558148D01*
G02X557648Y887587I1J501D01*
G01Y889713D01*
G02X558148Y890214I501J0D01*
G01X559306D01*
X559341Y890228D01*
G02X559958Y890344I618J-1586D01*
G02X560575Y890228I-1J-1702D01*
G01X560610Y890214D01*
G37*
G36*
G01X534996Y890314D02*
X536252D01*
G02X536752Y889813I-1J-501D01*
G01Y887687D01*
G02X536252Y887186I-501J0D01*
G01X535080D01*
X535042Y887169D01*
G02X534368Y887030I-674J1563D01*
G02X533694Y887169I0J1702D01*
G01X533656Y887186D01*
X532548D01*
G02X532048Y887687I1J501D01*
G01Y889813D01*
G02X532548Y890314I501J0D01*
G01X533740D01*
X533774Y890327D01*
G02X534962I594J-1595D01*
G01X534996Y890314D01*
G37*
G36*
G01X554915Y890214D02*
X555952D01*
G02X556452Y889713I-1J-501D01*
G01Y887587D01*
G02X555952Y887086I-501J0D01*
G01X554423D01*
X554402Y887081D01*
G02X554053Y887045I-348J1666D01*
G02X553704Y887081I-1J1702D01*
G01X553683Y887086D01*
X552248D01*
G02X551748Y887587I1J501D01*
G01Y889713D01*
G02X552248Y890214I501J0D01*
G01X553191D01*
G02X554053Y890449I863J-1467D01*
G02X554915Y890214I-1J-1702D01*
G37*
G36*
G01X603052Y826886D02*
X599348D01*
G02X598848Y827387I1J501D01*
G01Y829513D01*
G02X599348Y830014I501J0D01*
G01X602157D01*
G03X602440Y830697I0J400D01*
G01X601089Y832048D01*
X571000D01*
G02X570469Y832269I1J751D01*
G01X563169Y839569D01*
G02X562948Y840100I530J532D01*
G01Y886800D01*
G02X563169Y887331I751J-1D01*
G01X566269Y890431D01*
G02X566800Y890652I532J-530D01*
G01X576273D01*
G02X577800Y891602I1527J-752D01*
G02Y888198I0J-1702D01*
G02X576273Y889148I0J1702D01*
G01X567111D01*
X564452Y886489D01*
Y840411D01*
X571311Y833552D01*
X601400D01*
G02X601931Y833331I-1J-751D01*
G01X609229Y826034D01*
X609362Y826113D01*
G02X611226Y826625I1864J-3139D01*
G02X607575Y822974I0J-3651D01*
G02X608087Y824838I3651J0D01*
G01X608166Y824971D01*
X604235Y828902D01*
G03X603552Y828620I-283J-282D01*
G01Y827387D01*
G02X603052Y826886I-501J0D01*
G37*
G36*
G01X593125Y895823D02*
G02X594827Y897525I0J1702D01*
G02X594769Y897085I-1702J1D01*
G01X594739Y896973D01*
X606331Y885381D01*
G02X606552Y884850I-530J-532D01*
G01Y832685D01*
X607178Y832059D01*
G03X607832Y832194I283J283D01*
G02X611226Y834499I3394J-1346D01*
G02Y827197I0J-3651D01*
G02X607688Y829946I0J3651D01*
G01X607650Y830096D01*
X607326D01*
G02X606795Y830317I1J751D01*
G01X605269Y831843D01*
G02X605048Y832374I530J532D01*
G01Y884539D01*
X593677Y895911D01*
X593565Y895881D01*
G02X593125Y895823I-441J1644D01*
G37*
G36*
G01X615952Y857446D02*
G03X616623Y857152I400J0D01*
G02X619100Y858121I2477J-2681D01*
G02Y850819I0J-3651D01*
G02X616623Y851788I0J3650D01*
G03X615952Y851494I-271J-294D01*
G01Y850570D01*
G02X615731Y850039I-751J1D01*
G01X614286Y848593D01*
X614365Y848460D01*
G02X614877Y846596I-3139J-1864D01*
G02X611226Y850247I-3651J0D01*
G02X613221Y849654I0J-3652D01*
G01X614448Y850881D01*
Y851564D01*
G03X613770Y851851I-400J0D01*
G02X611226Y850819I-2544J2620D01*
G02Y858121I0J3651D01*
G02X613770Y857089I0J-3652D01*
G03X614448Y857376I278J287D01*
G01Y859438D01*
G03X613770Y859725I-400J0D01*
G02X611226Y858693I-2544J2620D01*
G02Y865995I0J3651D01*
G02X613770Y864963I0J-3652D01*
G03X614448Y865250I278J287D01*
G01Y890689D01*
X603289Y901848D01*
X595027D01*
G02X593500Y900898I-1527J752D01*
G02Y904302I0J1702D01*
G02X595027Y903352I0J-1702D01*
G01X603600D01*
G02X604131Y903131I-1J-751D01*
G01X615731Y891531D01*
G02X615952Y891000I-530J-532D01*
G01Y865320D01*
G03X616623Y865026I400J0D01*
G02X619100Y865995I2477J-2681D01*
G02Y858693I0J-3651D01*
G02X616623Y859662I0J3650D01*
G03X615952Y859368I-271J-294D01*
G01Y857446D01*
G37*
G36*
G01X552714Y944848D02*
G02X552213Y944348I-501J1D01*
G01X550087D01*
G02X549586Y944848I0J501D01*
G01Y945486D01*
G02X549076Y946700I1192J1215D01*
G02X549586Y947914I1702J-1D01*
G01Y948552D01*
G02X550087Y949052I501J-1D01*
G01X552213D01*
G02X552714Y948552I0J-501D01*
G01Y944848D01*
G37*
G36*
G01X550914Y952678D02*
X550934Y952637D01*
G02X551102Y951900I-1534J-737D01*
G02X550934Y951163I-1702J0D01*
G01X550914Y951122D01*
Y950048D01*
G02X550413Y949548I-501J1D01*
G01X548287D01*
G02X547786Y950048I0J501D01*
G01Y951360D01*
X547776Y951390D01*
G02X547698Y951900I1624J509D01*
G02X547776Y952410I1702J1D01*
G01X547786Y952440D01*
Y953752D01*
G02X548287Y954252I501J-1D01*
G01X550413D01*
G02X550914Y953752I0J-501D01*
G01Y952678D01*
G37*
G36*
G01X544614Y957740D02*
X544624Y957710D01*
G02X544702Y957200I-1624J-509D01*
G02X544624Y956690I-1702J-1D01*
G01X544614Y956660D01*
Y955349D01*
G02X544212Y954858I-501J0D01*
G01X544052Y954826D01*
Y954274D01*
X544212Y954242D01*
G02X544614Y953751I-99J-491D01*
G01Y950048D01*
G02X544113Y949548I-501J1D01*
G01X541987D01*
G02X541486Y950048I0J501D01*
G01Y953751D01*
G02X541888Y954242I501J0D01*
G01X542048Y954274D01*
Y954686D01*
X542040Y954714D01*
G02X542010Y954849I960J284D01*
G02X541486Y955349I-23J501D01*
G01Y956422D01*
X541466Y956463D01*
G02X541298Y957200I1534J737D01*
G02X541466Y957937I1702J0D01*
G01X541486Y957978D01*
Y959052D01*
G02X541987Y959552I501J-1D01*
G01X544113D01*
G02X544614Y959052I0J-501D01*
G01Y957740D01*
G37*
G36*
G01X550914Y957978D02*
X550934Y957937D01*
G02X551102Y957200I-1534J-737D01*
G02X550934Y956463I-1702J0D01*
G01X550914Y956422D01*
Y955348D01*
G02X550413Y954848I-501J1D01*
G01X548287D01*
G02X547786Y955348I0J501D01*
G01Y956660D01*
X547776Y956690D01*
G02X547698Y957200I1624J509D01*
G02X547776Y957710I1702J1D01*
G01X547786Y957740D01*
Y959052D01*
G02X548287Y959552I501J-1D01*
G01X550413D01*
G02X550914Y959052I0J-501D01*
G01Y957978D01*
G37*
G36*
G01X566714Y959340D02*
X566724Y959310D01*
G02X566802Y958800I-1624J-509D01*
G02X566724Y958290I-1702J-1D01*
G01X566714Y958260D01*
Y957048D01*
G02X566213Y956548I-501J1D01*
G01X564087D01*
G02X563586Y957048I0J501D01*
G01Y958022D01*
X563566Y958063D01*
G02X563398Y958800I1534J737D01*
G02X563566Y959537I1702J0D01*
G01X563586Y959578D01*
Y960752D01*
G02X564087Y961252I501J-1D01*
G01X566213D01*
G02X566714Y960752I0J-501D01*
G01Y959340D01*
G37*
G36*
G01X530981Y964318D02*
X531016Y964333D01*
X531850Y965167D01*
G02X532559I354J-355D01*
G01X534063Y963663D01*
G02Y962954I-355J-355D01*
G01X533229Y962120D01*
X533214Y962085D01*
G02X532315Y961186I-1566J667D01*
G01X532280Y961171D01*
X531446Y960337D01*
G02X530737I-354J355D01*
G01X529233Y961841D01*
G02Y962550I355J354D01*
G01X530067Y963384D01*
X530082Y963419D01*
G02X530981Y964318I1566J-667D01*
G37*
G36*
G01X555914Y980349D02*
G02X555512Y979858I-501J0D01*
G01X555352Y979826D01*
Y979474D01*
X555512Y979442D01*
G02X555914Y978951I-99J-491D01*
G01Y977490D01*
X555924Y977460D01*
G02X556002Y976950I-1624J-509D01*
G02X555924Y976440I-1702J-1D01*
G01X555914Y976410D01*
Y975248D01*
G02X555413Y974748I-501J1D01*
G01X553287D01*
G02X552786Y975248I0J501D01*
G01Y976172D01*
X552766Y976213D01*
G02X552598Y976950I1534J737D01*
G02X552766Y977687I1702J0D01*
G01X552786Y977728D01*
Y978951D01*
G02X553188Y979442I501J0D01*
G01X553348Y979474D01*
Y979826D01*
X553188Y979858D01*
G02X552786Y980349I99J491D01*
G01Y984052D01*
G02X553287Y984552I501J-1D01*
G01X555413D01*
G02X555914Y984052I0J-501D01*
G01Y980349D01*
G37*
G36*
G01X562214D02*
G02X561812Y979858I-501J0D01*
G01X561652Y979826D01*
Y979474D01*
X561812Y979442D01*
G02X562214Y978951I-99J-491D01*
G01Y977728D01*
X562234Y977687D01*
G02X562402Y976950I-1534J-737D01*
G02X562234Y976213I-1702J0D01*
G01X562214Y976172D01*
Y975248D01*
G02X561713Y974748I-501J1D01*
G01X559587D01*
G02X559086Y975248I0J501D01*
G01Y976410D01*
X559076Y976440D01*
G02X558998Y976950I1624J509D01*
G02X559076Y977460I1702J1D01*
G01X559086Y977490D01*
Y978951D01*
G02X559488Y979442I501J0D01*
G01X559648Y979474D01*
Y979826D01*
X559488Y979858D01*
G02X559086Y980349I99J491D01*
G01Y984052D01*
G02X559587Y984552I501J-1D01*
G01X561713D01*
G02X562214Y984052I0J-501D01*
G01Y980349D01*
G37*
G36*
G01X482914Y759478D02*
X482934Y759437D01*
G02X483102Y758700I-1534J-737D01*
G02X482934Y757963I-1702J0D01*
G01X482914Y757922D01*
Y756848D01*
G02X482413Y756348I-501J1D01*
G01X480287D01*
G02X480094Y756387I1J501D01*
G03X479847Y756097I-77J-184D01*
G02X480102Y755202I-1447J-896D01*
G01Y755200D01*
G02X478400Y753498I-1702J0D01*
G01X478398D01*
G02X477503Y753753I1J1702D01*
G03X477213Y753506I-106J-170D01*
G02X477252Y753313I-462J-194D01*
G01Y751187D01*
G02X476752Y750686I-501J0D01*
G01X473048D01*
G02X472548Y751187I1J501D01*
G01Y753313D01*
G02X472627Y753583I501J0D01*
G03X472290Y754198I-337J215D01*
G01X469310D01*
G03X468973Y753583I0J-400D01*
G02X469052Y753313I-422J-270D01*
G01Y751187D01*
G02X468552Y750686I-501J0D01*
G01X464848D01*
G02X464348Y751187I1J501D01*
G01Y753313D01*
G02X464848Y753814I501J0D01*
G01X467805D01*
Y754184D01*
X467637Y754212D01*
G02X467092Y754492I163J988D01*
G01X465892Y755692D01*
G02X465598Y756400I708J709D01*
G01Y756986D01*
X464848D01*
G02X464348Y757487I1J501D01*
G01Y759613D01*
G02X464848Y760114I501J0D01*
G01X465822D01*
X465863Y760134D01*
G02X466600Y760302I737J-1534D01*
G02X467337Y760134I0J-1702D01*
G01X467378Y760114D01*
X468552D01*
G02X469052Y759613I-1J-501D01*
G01Y757487D01*
G02X468552Y756986I-501J0D01*
G01X468396D01*
G03X468114Y756303I1J-400D01*
G01X468215Y756202D01*
X477024D01*
G02X478400Y756902I1376J-1002D01*
G02X479482Y756514I0J-1703D01*
G03X479803Y756720I128J154D01*
G02X479786Y756849I484J129D01*
G01Y758160D01*
X479776Y758190D01*
G02X479698Y758700I1624J509D01*
G02X479776Y759210I1702J1D01*
G01X479786Y759240D01*
Y760552D01*
G02X480287Y761052I501J-1D01*
G01X482413D01*
G02X482914Y760552I0J-501D01*
G01Y759478D01*
G37*
G36*
G01X550678Y823514D02*
X551652D01*
G02X552152Y823013I-1J-501D01*
G01Y820887D01*
G02X551652Y820386I-501J0D01*
G01X550440D01*
X550410Y820376D01*
G02X549900Y820298I-509J1624D01*
G02X549390Y820376I-1J1702D01*
G01X549360Y820386D01*
X547950D01*
G02X547560Y820571I-1J501D01*
G03X546940I-310J-253D01*
G02X546550Y820386I-389J316D01*
G01X545478D01*
X545437Y820366D01*
G02X544700Y820198I-737J1534D01*
G02X543963Y820366I0J1702D01*
G01X543922Y820386D01*
X542848D01*
G02X542348Y820887I1J501D01*
G01Y823013D01*
G02X542848Y823514I501J0D01*
G01X544160D01*
X544190Y823524D01*
G02X544700Y823602I509J-1624D01*
G02X545210Y823524I1J-1702D01*
G01X545240Y823514D01*
X546550D01*
G02X546940Y823329I1J-501D01*
G03X547560I310J253D01*
G02X547950Y823514I389J-316D01*
G01X549122D01*
X549163Y823534D01*
G02X549900Y823702I737J-1534D01*
G02X550637Y823534I0J-1702D01*
G01X550678Y823514D01*
G37*
G36*
G01X547950Y829814D02*
X551652D01*
G02X552152Y829313I-1J-501D01*
G01Y827187D01*
G02X551652Y826686I-501J0D01*
G01X547950D01*
G02X547560Y826871I-1J501D01*
G03X546940I-310J-253D01*
G02X546550Y826686I-389J316D01*
G01X542848D01*
G02X542348Y827187I1J501D01*
G01Y829313D01*
G02X542848Y829814I501J0D01*
G01X546550D01*
G02X546940Y829629I1J-501D01*
G03X547560I310J253D01*
G02X547950Y829814I389J-316D01*
G37*
G36*
G01X521714Y828849D02*
G02X521312Y828358I-501J0D01*
G01X521152Y828326D01*
Y827974D01*
X521312Y827942D01*
G02X521714Y827451I-99J-491D01*
G01Y823750D01*
G02X521529Y823360I-501J-1D01*
G03Y822740I253J-310D01*
G02X521714Y822350I-316J-389D01*
G01Y818648D01*
G02X521213Y818148I-501J1D01*
G01X519087D01*
G02X518586Y818648I0J501D01*
G01Y822350D01*
G02X518771Y822740I501J1D01*
G03Y823360I-253J310D01*
G02X518586Y823750I316J389D01*
G01Y827451D01*
G02X518988Y827942I501J0D01*
G01X519148Y827974D01*
Y828326D01*
X518988Y828358D01*
G02X518586Y828849I99J491D01*
G01Y829820D01*
G02X518204Y830894I1319J1074D01*
G01Y830896D01*
G02X518545Y831917I1702J-1D01*
G01X518586Y831970D01*
Y832552D01*
G02X519087Y833052I501J-1D01*
G01X521213D01*
G02X521714Y832552I0J-501D01*
G01Y828849D01*
G37*
G36*
G01X528014Y828850D02*
G02X527829Y828460I-501J-1D01*
G03Y827840I253J-310D01*
G02X528014Y827450I-316J-389D01*
G01Y823750D01*
G02X527829Y823360I-501J-1D01*
G03Y822740I253J-310D01*
G02X528014Y822350I-316J-389D01*
G01Y821172D01*
X528034Y821132D01*
G02X528196Y820406I-1540J-725D01*
G02X528034Y819680I-1702J-1D01*
G01X528014Y819640D01*
Y818648D01*
G02X527513Y818148I-501J1D01*
G01X525387D01*
G02X524886Y818648I0J501D01*
G01Y819849D01*
X524876Y819879D01*
G02X524792Y820406I1618J528D01*
G02X524876Y820933I1702J-1D01*
G01X524886Y820963D01*
Y822350D01*
G02X525071Y822740I501J1D01*
G03Y823360I-253J310D01*
G02X524886Y823750I316J389D01*
G01Y827450D01*
G02X525071Y827840I501J1D01*
G03Y828460I-253J310D01*
G02X524886Y828850I316J389D01*
G01Y832552D01*
G02X525387Y833052I501J-1D01*
G01X527513D01*
G02X528014Y832552I0J-501D01*
G01Y828850D01*
G37*
G36*
G01Y840050D02*
G02X527829Y839660I-501J-1D01*
G03Y839040I253J-310D01*
G02X528014Y838650I-316J-389D01*
G01Y834948D01*
G02X527513Y834448I-501J1D01*
G01X525387D01*
G02X524886Y834948I0J501D01*
G01Y838650D01*
G02X525071Y839040I501J1D01*
G03Y839660I-253J310D01*
G02X524886Y840050I316J389D01*
G01Y843752D01*
G02X525387Y844252I501J-1D01*
G01X527513D01*
G02X528014Y843752I0J-501D01*
G01Y840050D01*
G37*
G36*
G01X578614Y854350D02*
G02X578429Y853960I-501J-1D01*
G03Y853340I253J-310D01*
G02X578614Y852950I-316J-389D01*
G01Y849250D01*
G02X578429Y848860I-501J-1D01*
G03Y848240I253J-310D01*
G02X578614Y847850I-316J-389D01*
G01Y844148D01*
G02X578113Y843648I-501J1D01*
G01X575987D01*
G02X575486Y844148I0J501D01*
G01Y847850D01*
G02X575671Y848240I501J1D01*
G03Y848860I-253J310D01*
G02X575486Y849250I316J389D01*
G01Y852950D01*
G02X575671Y853340I501J1D01*
G03Y853960I-253J310D01*
G02X575486Y854350I316J389D01*
G01Y858052D01*
G02X575987Y858552I501J-1D01*
G01X578113D01*
G02X578614Y858052I0J-501D01*
G01Y854350D01*
G37*
G36*
G01X584914Y856840D02*
X584924Y856810D01*
G02X585002Y856300I-1624J-509D01*
G02X584924Y855790I-1702J-1D01*
G01X584914Y855760D01*
Y854350D01*
G02X584729Y853960I-501J-1D01*
G03Y853340I253J-310D01*
G02X584914Y852950I-316J-389D01*
G01Y851878D01*
X584934Y851837D01*
G02X585102Y851100I-1534J-737D01*
G02X584934Y850363I-1702J0D01*
G01X584914Y850322D01*
Y849250D01*
G02X584729Y848860I-501J-1D01*
G03Y848240I253J-310D01*
G02X584914Y847850I-316J-389D01*
G01Y846478D01*
X584934Y846437D01*
G02X585102Y845700I-1534J-737D01*
G02X584934Y844963I-1702J0D01*
G01X584914Y844922D01*
Y844148D01*
G02X584413Y843648I-501J1D01*
G01X582287D01*
G02X581786Y844148I0J501D01*
G01Y845160D01*
X581776Y845190D01*
G02X581698Y845700I1624J509D01*
G02X581776Y846210I1702J1D01*
G01X581786Y846240D01*
Y847850D01*
G02X581971Y848240I501J1D01*
G03Y848860I-253J310D01*
G02X581786Y849250I316J389D01*
G01Y850560D01*
X581776Y850590D01*
G02X581698Y851100I1624J509D01*
G02X581776Y851610I1702J1D01*
G01X581786Y851640D01*
Y852950D01*
G02X581971Y853340I501J1D01*
G03Y853960I-253J310D01*
G02X581786Y854350I316J389D01*
G01Y855522D01*
X581766Y855563D01*
G02X581598Y856300I1534J737D01*
G02X581766Y857037I1702J0D01*
G01X581786Y857078D01*
Y858052D01*
G02X582287Y858552I501J-1D01*
G01X584413D01*
G02X584914Y858052I0J-501D01*
G01Y856840D01*
G37*
G36*
G01X521714Y860140D02*
X521724Y860110D01*
G02X521802Y859600I-1624J-509D01*
G02X521724Y859090I-1702J-1D01*
G01X521714Y859060D01*
Y857750D01*
G02X521529Y857360I-501J-1D01*
G03Y856740I253J-310D01*
G02X521714Y856350I-316J-389D01*
G01Y855005D01*
X521722Y854978D01*
G02X521786Y854516I-1638J-462D01*
G02X521722Y854054I-1702J0D01*
G01X521714Y854027D01*
Y852650D01*
G02X521529Y852260I-501J-1D01*
G03Y851640I253J-310D01*
G02X521714Y851250I-316J-389D01*
G01Y849740D01*
X521724Y849710D01*
G02X521802Y849200I-1624J-509D01*
G02X521724Y848690I-1702J-1D01*
G01X521714Y848660D01*
Y847548D01*
G02X521213Y847048I-501J1D01*
G01X519087D01*
G02X518586Y847548I0J501D01*
G01Y848422D01*
X518566Y848463D01*
G02X518398Y849200I1534J737D01*
G02X518566Y849937I1702J0D01*
G01X518586Y849978D01*
Y851250D01*
G02X518771Y851640I501J1D01*
G03Y852260I-253J310D01*
G02X518586Y852650I316J389D01*
G01Y853709D01*
G02X518382Y854516I1498J808D01*
G02X518586Y855323I1702J-1D01*
G01Y856350D01*
G02X518771Y856740I501J1D01*
G03Y857360I-253J310D01*
G02X518586Y857750I316J389D01*
G01Y858822D01*
X518566Y858863D01*
G02X518398Y859600I1534J737D01*
G02X518566Y860337I1702J0D01*
G01X518586Y860378D01*
Y861452D01*
G02X519087Y861952I501J-1D01*
G01X521213D01*
G02X521714Y861452I0J-501D01*
G01Y860140D01*
G37*
G36*
G01X528014Y857750D02*
G02X527829Y857360I-501J-1D01*
G03Y856740I253J-310D01*
G02X528014Y856350I-316J-389D01*
G01Y852650D01*
G02X527829Y852260I-501J-1D01*
G03Y851640I253J-310D01*
G02X528014Y851250I-316J-389D01*
G01Y847548D01*
G02X527513Y847048I-501J1D01*
G01X525387D01*
G02X524886Y847548I0J501D01*
G01Y851250D01*
G02X525071Y851640I501J1D01*
G03Y852260I-253J310D01*
G02X524886Y852650I316J389D01*
G01Y856350D01*
G02X525071Y856740I501J1D01*
G03Y857360I-253J310D01*
G02X524886Y857750I316J389D01*
G01Y861452D01*
G02X525387Y861952I501J-1D01*
G01X527513D01*
G02X528014Y861452I0J-501D01*
G01Y857750D01*
G37*
G36*
G01X546350Y883914D02*
X550052D01*
G02X550552Y883413I-1J-501D01*
G01Y881287D01*
G02X550052Y880786I-501J0D01*
G01X546350D01*
G02X545960Y880971I-1J501D01*
G03X545340I-310J-253D01*
G02X544950Y880786I-389J316D01*
G01X541248D01*
G02X540748Y881287I1J501D01*
G01Y883413D01*
G02X541248Y883914I501J0D01*
G01X544950D01*
G02X545340Y883729I1J-501D01*
G03X545960I310J253D01*
G02X546350Y883914I389J-316D01*
G37*
G36*
G01X549019Y890214D02*
X550052D01*
G02X550552Y889713I-1J-501D01*
G01Y887587D01*
G02X550052Y887086I-501J0D01*
G01X548488D01*
X548470Y887082D01*
G02X548147Y887051I-323J1671D01*
G02X547824Y887082I0J1702D01*
G01X547806Y887086D01*
X546350D01*
G02X545960Y887271I-1J501D01*
G03X545340I-310J-253D01*
G02X544950Y887086I-389J316D01*
G01X543640D01*
X543610Y887076D01*
G02X543100Y886998I-509J1624D01*
G02X542590Y887076I-1J1702D01*
G01X542560Y887086D01*
X541248D01*
G02X540748Y887587I1J501D01*
G01Y889713D01*
G02X541248Y890214I501J0D01*
G01X542322D01*
X542363Y890234D01*
G02X543100Y890402I737J-1534D01*
G02X543837Y890234I0J-1702D01*
G01X543878Y890214D01*
X544950D01*
G02X545340Y890029I1J-501D01*
G03X545960I310J253D01*
G02X546350Y890214I389J-316D01*
G01X547275D01*
G02X548147Y890455I873J-1461D01*
G02X549019Y890214I-1J-1702D01*
G37*
G54D38*
X534100Y789768D03*
X465700Y976550D03*
X461151Y775251D03*
X489400Y805350D03*
X480049Y775249D03*
X470275Y924600D03*
G54D36*
X619100Y846596D03*
Y838722D03*
Y830848D03*
Y822974D03*
X611226Y838722D03*
X619100Y815100D03*
G54D37*
X480400Y941500D03*
X440400Y951500D03*
X480400Y911500D03*
X440400Y941500D03*
Y871500D03*
Y861500D03*
Y851500D03*
X480400D03*
Y861500D03*
Y871500D03*
Y881500D03*
Y891500D03*
Y901500D03*
X440400Y931500D03*
Y921500D03*
Y911500D03*
Y901500D03*
Y891500D03*
Y881500D03*
X480400Y921500D03*
Y931500D03*
G54D39*
X597400Y750500D03*
X577400D03*
G54D35*
X453592Y767580D03*
X487608D03*
%LPD*%
G75*
G54D10*
X440400Y861500D03*
Y851500D03*
Y871500D03*
Y891500D03*
Y881500D03*
Y911500D03*
Y901500D03*
Y931500D03*
Y921500D03*
Y941500D03*
Y951500D03*
X480400Y851500D03*
Y861500D03*
Y871500D03*
Y881500D03*
Y891500D03*
Y901500D03*
Y911500D03*
Y921500D03*
Y931500D03*
Y941500D03*
G54D20*
X502850Y751184D03*
D03*
Y769216D03*
D03*
Y760200D03*
D03*
G54D11*
X440400Y861500D03*
Y851500D03*
Y871500D03*
Y891500D03*
Y881500D03*
Y911500D03*
Y901500D03*
Y931500D03*
Y921500D03*
Y941500D03*
Y951500D03*
X480400Y851500D03*
Y861500D03*
Y871500D03*
Y881500D03*
Y891500D03*
Y901500D03*
Y911500D03*
Y921500D03*
Y931500D03*
Y941500D03*
G54D30*
G01X500100Y818540D02*
Y836900D01*
G54D12*
X453592Y751124D03*
D03*
X487608D03*
D03*
G54D21*
X500100Y803750D03*
D03*
G54D31*
G01X457167Y751124D02*
X453592D01*
G01X458293Y752250D02*
X457167Y751124D01*
G01X466700Y752250D02*
X474900D01*
G01X466700D02*
X458293D01*
G01X474900D02*
X475150Y752000D01*
X483157D01*
G01X487608Y751124D02*
X497890D01*
G01X483157Y752000D02*
X484033Y751124D01*
G01D02*
X487608D01*
G01X497890D02*
X497950Y751184D01*
G01D02*
X502850D01*
G54D13*
X453592Y767580D03*
D03*
X487608D03*
D03*
G54D22*
X500100Y818540D03*
D03*
Y811060D03*
D03*
X541700Y752760D03*
D03*
Y760240D03*
D03*
G54D32*
G01X502850Y760200D02*
X528550D01*
G01X500100Y778050D02*
Y803750D01*
G01Y778050D02*
X502100D01*
X502150Y778000D01*
G01X500100Y811060D02*
Y803750D01*
G01X528550Y760200D02*
X533950D01*
X533990Y760240D01*
X541700D01*
G54D14*
X453650Y758800D03*
D03*
X459950D03*
D03*
X487650Y758700D03*
D03*
X481350D03*
D03*
X516650Y803800D03*
D03*
X510350D03*
D03*
X520150Y820500D03*
D03*
X526450D03*
D03*
Y825600D03*
D03*
X520150D03*
D03*
X526450Y841900D03*
D03*
X520150D03*
D03*
X526450Y836800D03*
D03*
X520150D03*
D03*
X526450Y830700D03*
D03*
X520150D03*
D03*
X526450Y854500D03*
D03*
X520150D03*
D03*
X526450Y849400D03*
D03*
X520150D03*
D03*
X526450Y859600D03*
D03*
X520150D03*
D03*
X524750Y884000D03*
D03*
X518450D03*
D03*
X530550Y805500D03*
D03*
X536850D03*
D03*
X544850Y946700D03*
D03*
X543050Y951900D03*
D03*
Y957200D03*
D03*
X561950Y824000D03*
D03*
X555650D03*
D03*
Y829200D03*
D03*
X561950D03*
D03*
X551150Y946700D03*
D03*
X549350Y951900D03*
D03*
Y957200D03*
D03*
X558850Y958900D03*
D03*
X560650Y977100D03*
D03*
X554350D03*
D03*
X560650Y982200D03*
D03*
X554350D03*
D03*
X573350Y821100D03*
D03*
X579650D03*
D03*
X576950Y827100D03*
D03*
X577050Y851100D03*
D03*
Y856200D03*
D03*
Y846000D03*
D03*
X576950Y880100D03*
D03*
X565150Y958900D03*
D03*
X587850Y798200D03*
D03*
X594150D03*
D03*
X583250Y827100D03*
D03*
X583350Y851100D03*
D03*
Y856200D03*
D03*
Y846000D03*
D03*
X583250Y880100D03*
D03*
X605250Y807700D03*
D03*
X598950D03*
D03*
X611750Y805900D03*
D03*
X618050D03*
D03*
G54D23*
X528550Y760200D03*
D03*
G54D33*
G01X437296Y851500D02*
X440400D01*
G01X437296Y861500D02*
X440400D01*
G01X437296Y871500D02*
X440400D01*
G01X437296Y881500D02*
X440400D01*
G01X437296Y891500D02*
X440400D01*
G01X437296Y901500D02*
X440400D01*
G01X437296Y911500D02*
X440400D01*
G01X437296Y921500D02*
X440400D01*
G01X437296Y931500D02*
X440400D01*
G01X437296Y951500D02*
X440400D01*
G01X453592Y747272D02*
Y751124D01*
G01D02*
Y754976D01*
G01X451315Y751124D02*
X453592D01*
G01X453650Y756247D02*
Y758800D01*
G01D02*
Y761353D01*
G01X451885Y758800D02*
X453650D01*
G01D02*
X455415D01*
G01X453592Y762744D02*
Y767580D01*
G01D02*
Y772416D01*
G01X450823Y767580D02*
X453592D01*
G01D02*
X456361D01*
G01X440400Y848396D02*
Y851500D01*
G01D02*
Y854604D01*
G01Y851500D02*
X443504D01*
G01X440400Y858396D02*
Y861500D01*
G01D02*
Y864604D01*
G01Y861500D02*
X443504D01*
G01X440400Y868396D02*
Y871500D01*
G01D02*
Y874604D01*
G01Y871500D02*
X443504D01*
G01X440400Y878396D02*
Y881500D01*
G01D02*
Y884604D01*
G01Y881500D02*
X443504D01*
G01X440400Y888396D02*
Y891500D01*
G01D02*
Y894604D01*
G01Y891500D02*
X443504D01*
G01X440400Y898396D02*
Y901500D01*
G01D02*
Y904604D01*
G01Y901500D02*
X443504D01*
G01X440400Y908396D02*
Y911500D01*
G01D02*
Y914604D01*
G01Y911500D02*
X443504D01*
G01X440400Y918396D02*
Y921500D01*
G01D02*
Y924604D01*
G01Y921500D02*
X443504D01*
G01X440400Y928396D02*
Y931500D01*
G01D02*
Y934604D01*
G01Y931500D02*
X443504D01*
G01X440400Y948396D02*
Y951500D01*
G01D02*
Y954604D01*
G01Y951500D02*
X443504D01*
G01X466700Y750485D02*
Y752250D01*
G01D02*
Y754015D01*
G01X465700Y976550D02*
Y976600D01*
G01X487608Y747272D02*
Y751124D01*
G01D02*
Y754976D01*
G01X474900Y750485D02*
Y752250D01*
G01D02*
X477453D01*
G01X487650Y756147D02*
Y758700D01*
G01D02*
Y761253D01*
G01X485885Y758700D02*
X487650D01*
G01D02*
X489415D01*
G01X487608Y762744D02*
Y767580D01*
G01D02*
Y772416D01*
G01X484839Y767580D02*
X487608D01*
G01D02*
X490377D01*
G01X480049Y775249D02*
X479949D01*
G01X480400Y858396D02*
Y861500D01*
G01Y848396D02*
Y851500D01*
G01D02*
Y854604D01*
G01X477296Y851500D02*
X480400D01*
G01D02*
X483504D01*
G01X480400Y868396D02*
Y871500D01*
G01D02*
Y874604D01*
G01X477296Y871500D02*
X480400D01*
G01D02*
X483504D01*
G01X480400Y861500D02*
Y864604D01*
G01X477296Y861500D02*
X480400D01*
G01D02*
X483504D01*
G01X480400Y888396D02*
Y891500D01*
G01D02*
Y894604D01*
G01X477296Y891500D02*
X480400D01*
G01D02*
X483504D01*
G01X480400Y878396D02*
Y881500D01*
G01D02*
Y884604D01*
G01X477296Y881500D02*
X480400D01*
G01D02*
X483504D01*
G01X480400Y898396D02*
Y901500D01*
G01D02*
Y904604D01*
G01X477296Y901500D02*
X480400D01*
G01D02*
X483504D01*
G01X502850Y748732D02*
Y751184D01*
G01D02*
Y753636D01*
G01Y751184D02*
X506452D01*
G01X509116Y774448D02*
Y778050D01*
G01D02*
Y781652D01*
G01X506664Y778050D02*
X509116D01*
G01D02*
X511568D01*
G01X510350Y803800D02*
Y804150D01*
G01X520150Y817947D02*
Y820500D01*
G01X518385D02*
X520150D01*
G01D02*
X521915D01*
G01X524685Y836800D02*
X526450D01*
G01D02*
X528215D01*
G01X524685Y830700D02*
X526450D01*
G01D02*
X528215D01*
G01X524685Y841900D02*
X526450D01*
G01D02*
X528215D01*
G01X524685Y825600D02*
X526450D01*
G01D02*
X528215D01*
G01X524685Y849400D02*
X526450D01*
G01D02*
X528215D01*
G01X524685Y854500D02*
X526450D01*
G01D02*
X528215D01*
G01X526450Y859600D02*
Y862153D01*
G01X524685Y859600D02*
X526450D01*
G01D02*
X528215D01*
G01X524750Y881447D02*
Y884000D01*
G01D02*
Y886553D01*
G01X522985Y884000D02*
X524750D01*
G01D02*
X526515D01*
G01X534100Y789768D02*
X534168D01*
G01X542147Y828250D02*
X544700D01*
G01X543100Y880585D02*
Y882350D01*
G01D02*
Y884115D01*
G01X540547Y882350D02*
X543100D01*
G01X534400Y880685D02*
Y882450D01*
G01D02*
Y884215D01*
G01X531847Y882450D02*
X534400D01*
G01D02*
X536953D01*
G01X543085Y946700D02*
X544850D01*
G01X534854Y959546D02*
X536102Y958298D01*
G01D02*
X537350Y957050D01*
G01X534297Y956493D02*
X536102Y958298D01*
G01D02*
X537907Y960103D01*
G01X555650Y821447D02*
Y824000D01*
G01D02*
Y826553D01*
G01X553885Y824000D02*
X555650D01*
G01D02*
X557415D01*
G01X544700Y826485D02*
Y828250D01*
G01D02*
Y830015D01*
G01X549800Y826485D02*
Y828250D01*
G01D02*
Y830015D01*
G01Y828250D02*
X552353D01*
G01X560000Y880585D02*
Y882350D01*
G01D02*
Y884115D01*
G01Y882350D02*
X562553D01*
G01X554100Y880585D02*
Y882350D01*
G01D02*
Y884115D01*
G01X548200Y880585D02*
Y882350D01*
G01D02*
Y884115D01*
G01X544850Y944147D02*
Y946700D01*
G01D02*
Y949253D01*
G01Y946700D02*
X546615D01*
G01X558850Y956347D02*
Y958900D01*
G01D02*
Y961453D01*
G01X557085Y958900D02*
X558850D01*
G01D02*
X560615D01*
G01X576950Y824547D02*
Y827100D01*
G01X599822Y838722D02*
X571278D01*
X568200Y841800D01*
Y882300D01*
X571912Y886012D01*
G01X611226Y822974D02*
X601400Y832800D01*
X571000D01*
X563700Y840100D01*
Y886800D01*
X566800Y889900D01*
X577800D01*
G01X567800Y826485D02*
Y828250D01*
G01D02*
Y830015D01*
G01X565247Y828250D02*
X567800D01*
G01D02*
X570353D01*
G01X576950Y827100D02*
Y829653D01*
G01X575185Y827100D02*
X576950D01*
G01D02*
X578715D01*
G01X577050Y843447D02*
Y846000D01*
G01X575285D02*
X577050D01*
G01D02*
X578815D01*
G01X575285Y851100D02*
X577050D01*
G01D02*
X578815D01*
G01X577050Y856200D02*
Y858753D01*
G01X575285Y856200D02*
X577050D01*
G01D02*
X578815D01*
G01X576950Y877547D02*
Y880100D01*
G01X571988Y886012D02*
X571912D01*
G01D02*
X572000Y886100D01*
G01X576950Y880100D02*
Y882653D01*
G01X575185Y880100D02*
X576950D01*
G01D02*
X578715D01*
G01X592859Y750500D02*
X597400D01*
G01X593900Y809585D02*
Y811350D01*
G01D02*
Y813115D01*
G01X591347Y811350D02*
X593900D01*
G01D02*
X596453D01*
G01X611226Y830848D02*
X607326D01*
X605800Y832374D01*
Y884850D01*
X593125Y897525D01*
G01X611226Y846596D02*
X615200Y850570D01*
Y891000D01*
X603600Y902600D01*
X593500D01*
G01X597400Y745959D02*
Y750500D01*
G01D02*
Y755041D01*
G01Y750500D02*
X601941D01*
G01X601200Y828450D02*
Y830215D01*
G01X598647Y828450D02*
X601200D01*
G01D02*
X603753D01*
G01X618050Y803347D02*
Y805900D01*
G01D02*
Y808453D01*
G01X616285Y805900D02*
X618050D01*
G01D02*
X619815D01*
G01X619100Y819122D02*
Y822974D01*
G01D02*
Y826826D01*
G01X615248Y822974D02*
X619100D01*
G01D02*
X622952D01*
G01X619100Y811248D02*
Y815100D01*
G01D02*
Y818952D01*
G01X615248Y815100D02*
X619100D01*
G01D02*
X622952D01*
G01X619100Y826996D02*
Y830848D01*
G01D02*
Y834700D01*
G01X615248Y830848D02*
X619100D01*
G01D02*
X622952D01*
G01X619100Y834870D02*
Y838722D01*
G01D02*
Y842574D01*
G01X615248Y838722D02*
X619100D01*
G01D02*
X622952D01*
G01X619100Y842744D02*
Y846596D01*
G01D02*
Y850448D01*
G01X615248Y846596D02*
X619100D01*
G01D02*
X622952D01*
G01X619100Y850618D02*
Y854470D01*
G01D02*
Y858322D01*
G01Y854470D02*
X622952D01*
G01X619100Y858492D02*
Y862344D01*
G01D02*
Y866196D01*
G01Y862344D02*
X622952D01*
G54D24*
X536102Y958298D03*
D03*
X531648Y962752D03*
D03*
G54D15*
X453650Y758800D03*
X466600Y758600D03*
X474900D03*
X459900Y758700D03*
X461151Y775251D03*
X470275Y924600D03*
X465700Y976550D03*
X478400Y755200D03*
X487650Y758700D03*
X481400D03*
X480049Y775249D03*
X491084Y778050D03*
X489400Y805350D03*
X502850Y751184D03*
X501994Y769135D03*
X502850Y760200D03*
X509116Y778050D03*
X502150Y778000D03*
X510350Y804150D03*
X500100Y836900D03*
X516651Y803951D03*
X526494Y820406D03*
X520199Y836799D03*
X519906Y830894D03*
X520084Y854516D03*
X520100Y849200D03*
Y859600D03*
X518257Y884043D03*
X541700Y752760D03*
X534100Y789768D03*
X530500Y805500D03*
X539800Y800500D03*
X536850Y805500D03*
X544700Y821900D03*
X543100Y888700D03*
X534368Y888732D03*
X543000Y957200D03*
X531648Y962752D03*
X561927Y823973D03*
X549900Y822000D03*
X555650Y829200D03*
X548147Y888753D03*
X554053Y888747D03*
X559958Y888642D03*
X550778Y946700D03*
X549400Y957200D03*
Y951900D03*
X560700Y976950D03*
X554300D03*
X581300Y798100D03*
X579643Y821057D03*
X567832Y821932D03*
X571988Y886012D03*
X577800Y889900D03*
X565100Y958800D03*
X598700Y807700D03*
X594200Y798200D03*
X583443Y826957D03*
X583400Y851100D03*
X583300Y856300D03*
X583400Y845700D03*
X593125Y897525D03*
X583406Y880106D03*
X593500Y902600D03*
X601200Y822200D03*
X599822Y838722D03*
G54D34*
G01X627600Y740600D02*
Y987700D01*
X434200D01*
Y740600D01*
X627600D01*
G54D16*
X474900Y752250D03*
D03*
X466700D03*
D03*
X474900Y758550D03*
D03*
X466700D03*
D03*
X544700Y821950D03*
D03*
Y828250D03*
D03*
X534400Y882450D03*
D03*
Y888750D03*
D03*
X543100Y882350D03*
D03*
Y888650D03*
D03*
X549800Y821950D03*
D03*
Y828250D03*
D03*
X548200Y882350D03*
D03*
Y888650D03*
D03*
X554100Y882350D03*
D03*
Y888650D03*
D03*
X560000Y882350D03*
D03*
Y888650D03*
D03*
X567800Y821950D03*
D03*
Y828250D03*
D03*
X593900Y817650D03*
D03*
Y811350D03*
D03*
X601200Y822150D03*
D03*
Y828450D03*
D03*
G54D25*
X577400Y750500D03*
X597400D03*
G54D17*
X491084Y778050D03*
D03*
X500100D03*
D03*
X509116D03*
D03*
G54D26*
X577400Y750500D03*
X597400D03*
G54D18*
X480400Y951500D03*
G54D27*
X611226Y822974D03*
Y815100D03*
Y838722D03*
Y830848D03*
Y862344D03*
Y854470D03*
Y846596D03*
X619100Y822974D03*
Y815100D03*
Y838722D03*
Y830848D03*
Y862344D03*
Y854470D03*
Y846596D03*
G54D28*
X611226Y822974D03*
Y815100D03*
Y838722D03*
Y830848D03*
Y862344D03*
Y854470D03*
Y846596D03*
X619100Y822974D03*
Y815100D03*
Y838722D03*
Y830848D03*
Y862344D03*
Y854470D03*
Y846596D03*
G54D19*
X480400Y951500D03*
G54D29*
G01X466700Y758550D02*
X466600Y758450D01*
Y756400D01*
X467800Y755200D01*
X478400D01*
G01X520150Y830700D02*
Y825600D01*
G01X526450Y830700D02*
Y825600D01*
G01X520150Y836800D02*
Y841900D01*
G01X526450Y836800D02*
Y830700D01*
G01Y841900D02*
Y849400D01*
G01Y836800D02*
Y841900D01*
G01Y854500D02*
Y859600D01*
G01Y849400D02*
Y854500D01*
G01X539800Y800500D02*
X578900D01*
X581300Y798100D01*
G01X544700Y828250D02*
X549800D01*
G01X543100Y882350D02*
X548200D01*
G01X543050Y951900D02*
Y954950D01*
X543000Y955000D01*
Y957200D01*
G01X561950Y829200D02*
Y826349D01*
X561927Y826326D01*
Y823973D01*
G01X560000Y882350D02*
X554100D01*
G01D02*
X548200D01*
G01X560650Y982200D02*
Y979349D01*
X560700Y976950D01*
G01X554350Y982200D02*
Y979349D01*
X554300Y976950D01*
G01X593900Y817650D02*
X583050D01*
X579643Y821057D01*
G01X573350Y821100D02*
X571287D01*
X570455Y821932D01*
X567832D01*
G01X577050Y846000D02*
Y851100D01*
G01D02*
Y856200D01*
G01X587850Y798200D02*
X585787D01*
X581300Y798100D01*
G01X611750Y805900D02*
Y810426D01*
X611226Y810950D01*
Y815100D01*
G01X605250Y807700D02*
X607887D01*
X609687Y805900D01*
X611750D01*
G01X601200Y828400D02*
Y828450D01*
M02*
