M48
INCH,TZ
T01C.013
T02C.03228
T03C.03937
T04C.05118
;LEADER: 12 
;HEADER: 
;CODE  : ASCII 
;FILE  : fpga_ccd_3_with_logo-1-4.drl for board F:/PCB/Cadence_PCB/FPGA_CCD/allegro/#Taaaaah13864.tmp ... layers TOP and BOTTOM
;T01 Holesize 1. = 13.000000 Tolerance = +0.000000/-0.000000 PLATED MILS Quantity = 66
;T02 Holesize 2. = 32.280000 Tolerance = +0.000000/-0.000000 PLATED MILS Quantity = 22
;T03 Holesize 3. = 39.370000 Tolerance = +0.000000/-0.000000 PLATED MILS Quantity = 14
;T04 Holesize 4. = 51.180000 Tolerance = +0.000000/-0.000000 PLATED MILS Quantity = 2
%
G90
T01
X541700Y752760
X502850Y751184
X487650Y758700
X481400Y758700
X478400Y755200
X474900Y758600
X466600Y758600
X459900Y758700
X453650Y758800
X461151Y775251
X480049Y775249
X491084Y778050
X501994Y769135
X502150Y778000
X502850Y760200
X509116Y778050
X534100Y789768
X581300Y798100
X594200Y798200
X601200Y822200
X599822Y838722
X598700Y807700
X583443Y826957
X579643Y821057
X567832Y821932
X561927Y823973
X555650Y829200
X549900Y822000
X544700Y821900
X539800Y800500
X536850Y805500
X530500Y805500
X526494Y820406
X520199Y836799
X519906Y830894
X516651Y803951
X510350Y804150
X500100Y836900
X489400Y805350
X520100Y849200
X520084Y854516
X520100Y859600
X583300Y856300
X583400Y845700
X583400Y851100
X593500Y902600
X593125Y897525
X583406Y880106
X577800Y889900
X571988Y886012
X559958Y888642
X554053Y888747
X548147Y888753
X543100Y888700
X534368Y888732
X518257Y884043
X470275Y924600
X543000Y957200
X549400Y951900
X549400Y957200
X550778Y946700
X565100Y958800
X560700Y976950
X554300Y976950
X531648Y962752
X465700Y976550
T02
X440400Y851500
R10Y10000
X480400Y951500
R10Y-10000
T03
X611226Y815100
X619100Y815100
X619100Y822974
X611226Y822974
X611226Y830848
X611226Y838722
X619100Y830848
R02Y7874
X611226Y846596
X611226Y854470
X619100Y854470
X619100Y862344
X611226Y862344
T04
X577400Y750500
X597400Y750500
M30
