G04 ================== begin FILE IDENTIFICATION RECORD ==================*
G04 Layout Name:  F:/PCB/Cadence_PCB/FPGA_CCD/allegro/fpga_ccd_3_with_logo.brd*
G04 Film Name:    GND*
G04 File Format:  Gerber RS274X*
G04 File Origin:  Cadence Allegro 17.4-S017*
G04 Origin Date:  Thu Jul  1 17:25:21 2021*
G04 *
G04 Layer:  VIA CLASS/GND*
G04 Layer:  PIN/GND*
G04 Layer:  ETCH/GND*
G04 Layer:  BOARD GEOMETRY/OUTLINE*
G04 *
G04 Offset:    (0.00 0.00)*
G04 Mirror:    No*
G04 Mode:      Positive*
G04 Rotation:  0*
G04 FullContactRelief:  No*
G04 UndefLineWidth:     6.00*
G04 ================== end FILE IDENTIFICATION RECORD ====================*
%FSLAX25Y25*MOIN*%
%IR0*IPPOS*OFA0.00000B0.00000*MIA0B0*SFA1.00000B1.00000*%
%ADD13C,.024*%
%ADD10C,.04803*%
%ADD15C,.06299*%
%ADD14C,.07677*%
%ADD11O,.0315X.06299*%
%ADD12O,.04134X.08268*%
%ADD16C,.005*%
%ADD17C,.006*%
%ADD21C,.03404*%
%ADD19C,.07302*%
%ADD20C,.05806*%
%ADD22C,.0868*%
%ADD18O,.05136X.0927*%
G75*
%LPD*%
G75*
G36*
G01X434300Y740700D02*
Y987600D01*
X627500D01*
Y740700D01*
X434300D01*
G37*
%LPC*%
G75*
G36*
G01X451516Y749550D02*
Y752698D01*
G02X455668I2076J1D01*
G01Y749550D01*
G02X451516I-2076J-1D01*
G37*
G36*
G01X485532D02*
Y752698D01*
G02X489684I2076J1D01*
G01Y749550D01*
G02X485532I-2076J-1D01*
G37*
G54D21*
X520084Y854516D03*
X583400Y851100D03*
X520199Y836799D03*
X548147Y888753D03*
X531648Y962752D03*
X544700Y821900D03*
X543000Y957200D03*
X549400D03*
X554300Y976950D03*
X560700D03*
X549400Y951900D03*
X539800Y800500D03*
X534100Y789768D03*
X581300Y798100D03*
X549900Y822000D03*
X579643Y821057D03*
X561927Y823973D03*
X577800Y889900D03*
X593500Y902600D03*
X599822Y838722D03*
X571988Y886012D03*
X593125Y897525D03*
X583443Y826957D03*
X516651Y803951D03*
X530500Y805500D03*
X567832Y821932D03*
X583400Y845700D03*
X583300Y856300D03*
X583406Y880106D03*
X559958Y888642D03*
X554053Y888747D03*
X534368Y888732D03*
X518257Y884043D03*
X520100Y859600D03*
X519906Y830894D03*
X510350Y804150D03*
X500100Y836900D03*
X598700Y807700D03*
X543100Y888700D03*
X601200Y822200D03*
X520100Y849200D03*
X565100Y958800D03*
X526494Y820406D03*
X594200Y798200D03*
X550778Y946700D03*
X465700Y976550D03*
X461151Y775251D03*
X489400Y805350D03*
X480049Y775249D03*
X474900Y758600D03*
X502850Y760200D03*
X491084Y778050D03*
X466600Y758600D03*
X502150Y778000D03*
X481400Y758700D03*
X555650Y829200D03*
X459900Y758700D03*
X501994Y769135D03*
X541700Y752760D03*
X478400Y755200D03*
X536850Y805500D03*
X470275Y924600D03*
G54D19*
X611226Y822974D03*
Y815100D03*
X619100Y862344D03*
Y854470D03*
Y846596D03*
Y838722D03*
Y830848D03*
Y822974D03*
X611226Y862344D03*
Y854470D03*
Y846596D03*
Y838722D03*
Y830848D03*
X619100Y815100D03*
G54D20*
X480400Y951500D03*
Y941500D03*
X440400Y951500D03*
X480400Y911500D03*
X440400Y941500D03*
Y871500D03*
Y861500D03*
Y851500D03*
X480400D03*
Y861500D03*
Y871500D03*
Y881500D03*
Y891500D03*
Y901500D03*
X440400Y931500D03*
Y921500D03*
Y911500D03*
Y901500D03*
Y891500D03*
Y881500D03*
X480400Y921500D03*
Y931500D03*
G54D22*
X597400Y750500D03*
X577400D03*
G54D18*
X453592Y767580D03*
X487608D03*
%LPD*%
G75*
G54D10*
X440400Y861500D03*
Y851500D03*
Y871500D03*
Y891500D03*
Y881500D03*
Y911500D03*
Y901500D03*
Y931500D03*
Y921500D03*
Y941500D03*
Y951500D03*
X480400Y851500D03*
Y861500D03*
Y871500D03*
Y881500D03*
Y891500D03*
Y901500D03*
Y911500D03*
Y921500D03*
Y931500D03*
Y941500D03*
Y951500D03*
G54D11*
X453592Y751124D03*
X487608D03*
G54D12*
X453592Y767580D03*
X487608D03*
G54D13*
X453650Y758800D03*
X466600Y758600D03*
X474900D03*
X459900Y758700D03*
X461151Y775251D03*
X470275Y924600D03*
X465700Y976550D03*
X478400Y755200D03*
X487650Y758700D03*
X481400D03*
X480049Y775249D03*
X491084Y778050D03*
X489400Y805350D03*
X502850Y751184D03*
X501994Y769135D03*
X502850Y760200D03*
X509116Y778050D03*
X502150Y778000D03*
X510350Y804150D03*
X500100Y836900D03*
X516651Y803951D03*
X526494Y820406D03*
X520199Y836799D03*
X519906Y830894D03*
X520084Y854516D03*
X520100Y849200D03*
Y859600D03*
X518257Y884043D03*
X541700Y752760D03*
X534100Y789768D03*
X530500Y805500D03*
X539800Y800500D03*
X536850Y805500D03*
X544700Y821900D03*
X543100Y888700D03*
X534368Y888732D03*
X543000Y957200D03*
X531648Y962752D03*
X561927Y823973D03*
X549900Y822000D03*
X555650Y829200D03*
X548147Y888753D03*
X554053Y888747D03*
X559958Y888642D03*
X550778Y946700D03*
X549400Y957200D03*
Y951900D03*
X560700Y976950D03*
X554300D03*
X581300Y798100D03*
X579643Y821057D03*
X567832Y821932D03*
X571988Y886012D03*
X577800Y889900D03*
X565100Y958800D03*
X598700Y807700D03*
X594200Y798200D03*
X583443Y826957D03*
X583400Y851100D03*
X583300Y856300D03*
X583400Y845700D03*
X593125Y897525D03*
X583406Y880106D03*
X593500Y902600D03*
X601200Y822200D03*
X599822Y838722D03*
G54D14*
X577400Y750500D03*
X597400D03*
G54D15*
X611226Y822974D03*
Y815100D03*
Y838722D03*
Y830848D03*
Y862344D03*
Y854470D03*
Y846596D03*
X619100Y822974D03*
Y815100D03*
Y838722D03*
Y830848D03*
Y862344D03*
Y854470D03*
Y846596D03*
G54D16*
G01X437296Y851500D02*
X440400D01*
G01X437296Y861500D02*
X440400D01*
G01X437296Y871500D02*
X440400D01*
G01X437296Y881500D02*
X440400D01*
G01X437296Y891500D02*
X440400D01*
G01X437296Y901500D02*
X440400D01*
G01X437296Y911500D02*
X440400D01*
G01X437296Y921500D02*
X440400D01*
G01X437296Y931500D02*
X440400D01*
G01X437296Y951500D02*
X440400D01*
G01X453592Y747272D02*
Y751124D01*
G01D02*
Y754976D01*
G01X451315Y751124D02*
X453592D01*
G01D02*
X455869D01*
G01X453592Y762744D02*
Y767580D01*
G01D02*
Y772416D01*
G01X450823Y767580D02*
X453592D01*
G01D02*
X456361D01*
G01X440400Y848396D02*
Y851500D01*
G01D02*
Y854604D01*
G01Y851500D02*
X443504D01*
G01X440400Y858396D02*
Y861500D01*
G01D02*
Y864604D01*
G01Y861500D02*
X443504D01*
G01X440400Y868396D02*
Y871500D01*
G01D02*
Y874604D01*
G01Y871500D02*
X443504D01*
G01X440400Y878396D02*
Y881500D01*
G01D02*
Y884604D01*
G01Y881500D02*
X443504D01*
G01X440400Y888396D02*
Y891500D01*
G01D02*
Y894604D01*
G01Y891500D02*
X443504D01*
G01X440400Y898396D02*
Y901500D01*
G01D02*
Y904604D01*
G01Y901500D02*
X443504D01*
G01X440400Y908396D02*
Y911500D01*
G01D02*
Y914604D01*
G01Y911500D02*
X443504D01*
G01X440400Y918396D02*
Y921500D01*
G01D02*
Y924604D01*
G01Y921500D02*
X443504D01*
G01X440400Y928396D02*
Y931500D01*
G01D02*
Y934604D01*
G01Y931500D02*
X443504D01*
G01X440400Y948396D02*
Y951500D01*
G01D02*
Y954604D01*
G01Y951500D02*
X443504D01*
G01X487608Y747272D02*
Y751124D01*
G01D02*
Y754976D01*
G01X485331Y751124D02*
X487608D01*
G01D02*
X489885D01*
G01X487608Y762744D02*
Y767580D01*
G01D02*
Y772416D01*
G01X484839Y767580D02*
X487608D01*
G01D02*
X490377D01*
G01X480400Y858396D02*
Y861500D01*
G01Y848396D02*
Y851500D01*
G01D02*
Y854604D01*
G01X477296Y851500D02*
X480400D01*
G01D02*
X483504D01*
G01X480400Y868396D02*
Y871500D01*
G01D02*
Y874604D01*
G01X477296Y871500D02*
X480400D01*
G01D02*
X483504D01*
G01X480400Y861500D02*
Y864604D01*
G01X477296Y861500D02*
X480400D01*
G01D02*
X483504D01*
G01X480400Y888396D02*
Y891500D01*
G01D02*
Y894604D01*
G01X477296Y891500D02*
X480400D01*
G01D02*
X483504D01*
G01X480400Y878396D02*
Y881500D01*
G01D02*
Y884604D01*
G01X477296Y881500D02*
X480400D01*
G01D02*
X483504D01*
G01X480400Y898396D02*
Y901500D01*
G01D02*
Y904604D01*
G01X477296Y901500D02*
X480400D01*
G01D02*
X483504D01*
G01X592859Y750500D02*
X597400D01*
G01Y745959D02*
Y750500D01*
G01D02*
Y755041D01*
G01Y750500D02*
X601941D01*
G01X619100Y819122D02*
Y822974D01*
G01D02*
Y826826D01*
G01X615248Y822974D02*
X619100D01*
G01D02*
X622952D01*
G01X619100Y811248D02*
Y815100D01*
G01D02*
Y818952D01*
G01X615248Y815100D02*
X619100D01*
G01D02*
X622952D01*
G01X619100Y826996D02*
Y830848D01*
G01D02*
Y834700D01*
G01X615248Y830848D02*
X619100D01*
G01D02*
X622952D01*
G01X619100Y834870D02*
Y838722D01*
G01D02*
Y842574D01*
G01X615248Y838722D02*
X619100D01*
G01D02*
X622952D01*
G01X619100Y842744D02*
Y846596D01*
G01D02*
Y850448D01*
G01X615248Y846596D02*
X619100D01*
G01D02*
X622952D01*
G01X619100Y850618D02*
Y854470D01*
G01D02*
Y858322D01*
G01X615248Y854470D02*
X619100D01*
G01D02*
X622952D01*
G01X619100Y858492D02*
Y862344D01*
G01D02*
Y866196D01*
G01X615248Y862344D02*
X619100D01*
G01D02*
X622952D01*
G54D17*
G01X627600Y740600D02*
Y987700D01*
X434200D01*
Y740600D01*
X627600D01*
M02*
