G04 ================== begin FILE IDENTIFICATION RECORD ==================*
G04 Layout Name:  F:/PCB/Cadence_PCB/FPGA_CCD/allegro/fpga_ccd_3_with_logo.brd*
G04 Film Name:    SOLDTOP*
G04 File Format:  Gerber RS274X*
G04 File Origin:  Cadence Allegro 17.4-S017*
G04 Origin Date:  Thu Jul  1 17:25:21 2021*
G04 *
G04 Layer:  PIN/SOLDERMASK_TOP*
G04 Layer:  PACKAGE GEOMETRY/SOLDERMASK_TOP*
G04 Layer:  BOARD GEOMETRY/SOLDERMASK_TOP*
G04 Layer:  BOARD GEOMETRY/OUTLINE*
G04 *
G04 Offset:    (0.00 0.00)*
G04 Mirror:    No*
G04 Mode:      Positive*
G04 Rotation:  0*
G04 FullContactRelief:  No*
G04 UndefLineWidth:     6.00*
G04 ================== end FILE IDENTIFICATION RECORD ====================*
%FSLAX25Y25*MOIN*%
%IR0*IPPOS*OFA0.00000B0.00000*MIA0B0*SFA1.00000B1.00000*%
%ADD10C,.05394*%
%ADD27C,.0689*%
%ADD25C,.08268*%
%ADD19R,.05394X.05394*%
%AMMACRO24*
4,1,40,.00945,.0311,
.00945,-.0311,
.009413,-.031511,
.009306,-.031908,
.009131,-.032282,
.008894,-.032619,
.008602,-.03291,
.008264,-.033146,
.00789,-.033319,
.007491,-.033425,
.00709,-.03346,
-.00709,-.03346,
-.007501,-.033423,
-.007898,-.033316,
-.008272,-.033141,
-.008609,-.032904,
-.0089,-.032612,
-.009136,-.032274,
-.009309,-.0319,
-.009415,-.031501,
-.00945,-.0311,
-.00945,.0311,
-.009413,.031511,
-.009306,.031908,
-.009131,.032282,
-.008894,.032619,
-.008602,.03291,
-.008264,.033146,
-.00789,.033319,
-.007491,.033425,
-.00709,.03346,
.00709,.03346,
.007501,.033423,
.007898,.033316,
.008272,.033141,
.008609,.032904,
.0089,.032612,
.009136,.032274,
.009309,.0319,
.009415,.031501,
.00945,.0311,
0.0*
%
%ADD24MACRO24*%
%ADD18R,.022X.025*%
%ADD26R,.055X.03*%
%ADD21R,.0535X.011*%
%ADD22R,.011X.0535*%
%AMMACRO20*
21,1,.02126,.03701,0.0,0.0,45.*%
%ADD20MACRO20*%
%ADD14R,.03701X.02126*%
%ADD15R,.0395X.014*%
%ADD13R,.02126X.03701*%
%ADD16R,.01181X.05118*%
%ADD17R,.02362X.05118*%
%ADD11O,.0315X.06299*%
%ADD12O,.04134X.08268*%
%ADD23R,.07087X.06299*%
%ADD28C,.006*%
G75*
%LPD*%
G75*
G36*
G01X472713Y787894D02*
X474287D01*
Y783564D01*
X472713D01*
Y787894D01*
G37*
G36*
G01X470744D02*
X472319D01*
Y783564D01*
X470744D01*
Y787894D01*
G37*
G36*
G01X468776D02*
X470350D01*
Y783564D01*
X468776D01*
Y787894D01*
G37*
G36*
G01X470350Y799706D02*
X468776D01*
Y804036D01*
X470350D01*
Y799706D01*
G37*
G36*
G01X472319D02*
X470744D01*
Y804036D01*
X472319D01*
Y799706D01*
G37*
G36*
G01X474287D02*
X472713D01*
Y804036D01*
X474287D01*
Y799706D01*
G37*
G36*
G01X476650Y787894D02*
X478224D01*
Y783564D01*
X476650D01*
Y787894D01*
G37*
G36*
G01X474681D02*
X476256D01*
Y783564D01*
X474681D01*
Y787894D01*
G37*
G36*
G01X476256Y799706D02*
X474681D01*
Y804036D01*
X476256D01*
Y799706D01*
G37*
G36*
G01X478224D02*
X476650D01*
Y804036D01*
X478224D01*
Y799706D01*
G37*
G54D10*
X440400Y861500D03*
Y851500D03*
Y871500D03*
Y891500D03*
Y881500D03*
Y911500D03*
Y901500D03*
Y931500D03*
Y921500D03*
Y941500D03*
Y951500D03*
X480400Y851500D03*
Y861500D03*
Y871500D03*
Y881500D03*
Y891500D03*
Y901500D03*
Y911500D03*
Y921500D03*
Y931500D03*
Y941500D03*
G54D11*
X453592Y751124D03*
X487608D03*
G54D20*
X497540Y764681D03*
X501994Y769135D03*
G54D12*
X453592Y767580D03*
X487608D03*
G54D21*
X509075Y821051D03*
Y823020D03*
Y824988D03*
Y826957D03*
Y828925D03*
Y830894D03*
Y832862D03*
Y834831D03*
Y836799D03*
Y838768D03*
Y840736D03*
Y842705D03*
Y844673D03*
Y846642D03*
Y848610D03*
Y850579D03*
Y852547D03*
Y854516D03*
Y856484D03*
Y858453D03*
Y860421D03*
Y862390D03*
Y864358D03*
Y866327D03*
Y868295D03*
Y870264D03*
Y872232D03*
Y874201D03*
Y876169D03*
Y878138D03*
Y880106D03*
Y882075D03*
Y884043D03*
Y886012D03*
Y887980D03*
Y889949D03*
X593125Y824988D03*
Y823020D03*
Y821051D03*
Y842705D03*
Y840736D03*
Y838768D03*
Y836799D03*
Y834831D03*
Y832862D03*
Y830894D03*
Y828925D03*
Y826957D03*
Y860421D03*
Y858453D03*
Y856484D03*
Y854516D03*
Y852547D03*
Y850579D03*
Y848610D03*
Y846642D03*
Y844673D03*
Y878138D03*
Y876169D03*
Y874201D03*
Y872232D03*
Y870264D03*
Y868295D03*
Y866327D03*
Y864358D03*
Y862390D03*
Y889949D03*
Y887980D03*
Y886012D03*
Y884043D03*
Y882075D03*
Y880106D03*
G54D13*
X456350Y801900D03*
X462650D03*
X502150Y778000D03*
X508450D03*
X590250Y967400D03*
X583950D03*
X590250Y978500D03*
X583950D03*
X590250Y973400D03*
X583950D03*
G54D22*
X526494Y813475D03*
X524525D03*
X522557D03*
X520588D03*
X518620D03*
X516651D03*
Y897525D03*
X518620D03*
X520588D03*
X522557D03*
X524525D03*
X526494D03*
X544210Y813475D03*
X542242D03*
X540273D03*
X538305D03*
X536336D03*
X534368D03*
X532399D03*
X530431D03*
X528462D03*
Y897525D03*
X530431D03*
X532399D03*
X534368D03*
X536336D03*
X538305D03*
X540273D03*
X542242D03*
X544210D03*
X561927Y813475D03*
X559958D03*
X557990D03*
X556021D03*
X554053D03*
X552084D03*
X550116D03*
X548147D03*
X546179D03*
Y897525D03*
X548147D03*
X550116D03*
X552084D03*
X554053D03*
X556021D03*
X557990D03*
X559958D03*
X561927D03*
X579643Y813475D03*
X577675D03*
X575706D03*
X573738D03*
X571769D03*
X569801D03*
X567832D03*
X565864D03*
X563895D03*
Y897525D03*
X565864D03*
X567832D03*
X569801D03*
X571769D03*
X573738D03*
X575706D03*
X577675D03*
X579643D03*
X585549Y813475D03*
X583580D03*
X581612D03*
Y897525D03*
X583580D03*
X585549D03*
G54D23*
X534100Y773232D03*
Y789768D03*
X554100Y773232D03*
Y789768D03*
G54D14*
X453200Y895550D03*
Y901850D03*
X464300Y895550D03*
X458800D03*
X464300Y901850D03*
X458800D03*
X462000Y944650D03*
Y938350D03*
X469600Y947850D03*
Y941550D03*
X465700Y970250D03*
Y976550D03*
X491000Y784250D03*
Y777950D03*
X484300Y799050D03*
Y805350D03*
X489400Y799050D03*
Y805350D03*
X503000Y751850D03*
Y758150D03*
X502610Y912005D03*
Y918305D03*
X502600Y925450D03*
Y931750D03*
X527700Y920450D03*
Y914150D03*
X522600Y920450D03*
Y914150D03*
X517500Y920450D03*
Y914150D03*
X544000Y983250D03*
Y976950D03*
X554100Y796350D03*
Y802650D03*
X558800Y920450D03*
Y914150D03*
X553700Y920450D03*
Y914150D03*
X549200Y976950D03*
Y983250D03*
X560700Y976950D03*
Y983250D03*
X554300Y976950D03*
Y983250D03*
X571800Y785050D03*
Y791350D03*
X579200Y920450D03*
Y914150D03*
X574100Y920450D03*
Y914150D03*
X569000Y920450D03*
Y914150D03*
X563900Y920450D03*
Y914150D03*
X589400Y920450D03*
Y914150D03*
X584300Y920450D03*
Y914150D03*
X610800Y779950D03*
Y786250D03*
G54D15*
X453825Y913100D03*
Y915700D03*
Y918300D03*
Y920900D03*
X468775Y913100D03*
Y920900D03*
Y918300D03*
Y915700D03*
G54D24*
X543484Y940178D03*
X540925D03*
X538366D03*
Y967422D03*
X540925D03*
X543484D03*
X558839Y940178D03*
X556280D03*
X553720D03*
X551161D03*
X548602D03*
X546043D03*
X561398D03*
X546043Y967422D03*
X548602D03*
X551161D03*
X553720D03*
X556280D03*
X558839D03*
X561398D03*
X571634Y940178D03*
X569075D03*
X566516D03*
X563957D03*
Y967422D03*
X566516D03*
X569075D03*
X571634D03*
G54D16*
X463710Y770100D03*
X467647D03*
X473553D03*
X471584D03*
X469616D03*
X465679D03*
X477490D03*
X475521D03*
G54D25*
X577400Y750500D03*
X597400D03*
G54D17*
X461151Y770100D03*
X458002D03*
X480049D03*
X483198D03*
G54D26*
X581350Y790000D03*
Y785000D03*
Y780000D03*
Y775000D03*
X600850Y785000D03*
Y790000D03*
Y780000D03*
Y775000D03*
G54D18*
X469500Y952900D03*
X462000D03*
X465700Y959900D03*
G54D27*
X611226Y822974D03*
Y815100D03*
Y838722D03*
Y830848D03*
Y862344D03*
Y854470D03*
Y846596D03*
X619100Y822974D03*
Y815100D03*
Y838722D03*
Y830848D03*
Y862344D03*
Y854470D03*
Y846596D03*
G54D28*
G01X627600Y740600D02*
Y987700D01*
X434200D01*
Y740600D01*
X627600D01*
G54D19*
X480400Y951500D03*
M02*
