%TF.GenerationSoftware,KiCad,Pcbnew,(5.1.8)-1*%
%TF.CreationDate,2021-05-15T14:33:14+08:00*%
%TF.ProjectId,ccd_with_stm32,6363645f-7769-4746-985f-73746d33322e,rev?*%
%TF.SameCoordinates,Original*%
%TF.FileFunction,Soldermask,Bot*%
%TF.FilePolarity,Negative*%
%FSLAX46Y46*%
G04 Gerber Fmt 4.6, Leading zero omitted, Abs format (unit mm)*
G04 Created by KiCad (PCBNEW (5.1.8)-1) date 2021-05-15 14:33:14*
%MOMM*%
%LPD*%
G01*
G04 APERTURE LIST*
%ADD10O,1.000000X2.100000*%
%ADD11C,0.650000*%
%ADD12O,1.000000X1.600000*%
%ADD13R,1.600000X0.300000*%
%ADD14R,0.980000X0.930000*%
%ADD15R,0.650000X0.600000*%
%ADD16R,1.220000X1.220000*%
%ADD17C,1.220000*%
%ADD18R,0.930000X0.980000*%
%ADD19C,0.800000*%
G04 APERTURE END LIST*
D10*
%TO.C,U4*%
X111000000Y-141650000D03*
X102360000Y-141650000D03*
D11*
X103790000Y-142180000D03*
D12*
X102360000Y-145830000D03*
D11*
X109570000Y-142180000D03*
D12*
X111000000Y-145830000D03*
%TD*%
D13*
%TO.C,U2*%
X84533000Y-114976000D03*
X84533000Y-115626000D03*
X84533000Y-116276000D03*
X84533000Y-116926000D03*
X87933000Y-116926000D03*
X87933000Y-116276000D03*
X87933000Y-115626000D03*
X87933000Y-114976000D03*
%TD*%
D14*
%TO.C,R3*%
X100584000Y-114054000D03*
X100584000Y-112514000D03*
%TD*%
D15*
%TO.C,R2*%
X96012000Y-114300000D03*
X96012000Y-115150000D03*
%TD*%
D16*
%TO.C,IC1*%
X72009000Y-137033000D03*
D17*
X72009000Y-134493000D03*
X72009000Y-131953000D03*
X72009000Y-129413000D03*
X72009000Y-126873000D03*
X72009000Y-124333000D03*
X72009000Y-121793000D03*
X72009000Y-119253000D03*
X72009000Y-116713000D03*
X72009000Y-114173000D03*
X72009000Y-111633000D03*
X82169000Y-111633000D03*
X82169000Y-114173000D03*
X82169000Y-116713000D03*
X82169000Y-119253000D03*
X82169000Y-121793000D03*
X82169000Y-124333000D03*
X82169000Y-126873000D03*
X82169000Y-129413000D03*
X82169000Y-131953000D03*
X82169000Y-134493000D03*
X82169000Y-137033000D03*
%TD*%
D14*
%TO.C,C15*%
X97917000Y-141613000D03*
X97917000Y-140073000D03*
%TD*%
%TO.C,C14*%
X96012000Y-116070000D03*
X96012000Y-117610000D03*
%TD*%
%TO.C,C13*%
X98425000Y-108323000D03*
X98425000Y-109863000D03*
%TD*%
%TO.C,C12*%
X98298000Y-135755000D03*
X98298000Y-137295000D03*
%TD*%
D18*
%TO.C,C11*%
X101481000Y-106807000D03*
X99941000Y-106807000D03*
%TD*%
%TO.C,C9*%
X111387000Y-109220000D03*
X109847000Y-109220000D03*
%TD*%
D14*
%TO.C,C8*%
X107950000Y-124468000D03*
X107950000Y-122928000D03*
%TD*%
D18*
%TO.C,C6*%
X100322000Y-124841000D03*
X101862000Y-124841000D03*
%TD*%
%TO.C,C5*%
X100322000Y-122936000D03*
X101862000Y-122936000D03*
%TD*%
D14*
%TO.C,C2*%
X115062000Y-137795000D03*
X115062000Y-139335000D03*
%TD*%
%TO.C,C1*%
X115062000Y-143518000D03*
X115062000Y-141978000D03*
%TD*%
D19*
X98298000Y-137287000D03*
X115062000Y-137795000D03*
X115062000Y-143518000D03*
X107958000Y-124460000D03*
X101473000Y-106807000D03*
X96012000Y-116078000D03*
X99568000Y-121666000D03*
X118999000Y-108458000D03*
X88138000Y-117094000D03*
X98250000Y-142000000D03*
X115110000Y-142000000D03*
X110109000Y-138684000D03*
X96012000Y-117602000D03*
X98425000Y-109855000D03*
X99949000Y-106807000D03*
X109855000Y-109220000D03*
X101854000Y-122936000D03*
X107950000Y-122936000D03*
X97536000Y-122936000D03*
X100584000Y-112522000D03*
X108656999Y-105735999D03*
X115110000Y-139700000D03*
X92710000Y-125865000D03*
X89916000Y-113284000D03*
X84455000Y-112903000D03*
X98250000Y-139700000D03*
X114808000Y-113890500D03*
X112649000Y-111958000D03*
X100584000Y-114054000D03*
X97028000Y-114681000D03*
X86106000Y-109982000D03*
X110109000Y-131064000D03*
X116967000Y-116713000D03*
X109093000Y-130302000D03*
X113284000Y-115824000D03*
X111760000Y-114681000D03*
X90297000Y-118999000D03*
X94107000Y-120142000D03*
X102870000Y-126746000D03*
M02*
